<?xml version="1.0" encoding="utf-8"?>
<!-- Generator: Adobe Illustrator 15.0.0, SVG Export Plug-In . SVG Version: 6.00 Build 0)  -->
<!DOCTYPE svg PUBLIC "-//W3C//DTD SVG 1.1//EN" "http://www.w3.org/Graphics/SVG/1.1/DTD/svg11.dtd">
<svg version="1.1" id="Layer_1" xmlns="http://www.w3.org/2000/svg" xmlns:xlink="http://www.w3.org/1999/xlink" x="0px" y="0px"
	 width="32px" height="32px" viewBox="-399.5 200.5 32 32" enable-background="new -399.5 200.5 32 32" xml:space="preserve">
<g>
	<path fill="none" stroke="#707070" stroke-linejoin="bevel" stroke-miterlimit="10" d="M-380.5,205.094h3.082
		c2.378,0,3.418,2.116,3.418,4.495v1.869c0,2.379,0.885,4.309,4,4.307v0.058c-3.115-0.002-4,1.907-4,4.287v2.869
		c0,2.377-1.041,4.115-3.418,4.115h-3.082"/>
	<path fill="none" stroke="#707070" stroke-linejoin="bevel" stroke-miterlimit="10" d="M-386.5,227.094h-2.582
		c-2.378,0-3.918-1.739-3.918-4.115v-2.869c0-2.38,0-4.289-4-4.287v-0.058c4,0.002,4-1.928,4-4.307v-1.869
		c0-2.379,1.541-4.495,3.918-4.495h2.582"/>
</g>
</svg>
