<?xml version="1.0" encoding="utf-8"?>
<svg version="1.1" xmlns="http://www.w3.org/2000/svg" xmlns:xlink="http://www.w3.org/1999/xlink" x="0px" y="0px" width="128px"
	 height="128px" viewBox="0 0 128 128" enable-background="new 0 0 128 128" xml:space="preserve">
<g id="phone">
	<g>
		<rect x="1.5" y="1.5" fill="#FFFFFF" width="125" height="125"/>
		<path fill="#808080" d="M126,2v124H2V2H126 M127,1H1v126h126V1L127,1z"/>
	</g>
	<g>
		<path fill="#E6E6E6" stroke="#B3B3B3" stroke-miterlimit="10" d="M76.656,92.383c0,3.485-2.22,5.754-5.703,5.683H40.021
			c-3.483,0.071-5.785-2.197-5.785-5.683V13.076c0-3.482,2.302-5.834,5.785-5.834h30.817c3.483,0,5.818,2.352,5.818,5.834V92.383z"
			/>
		
			<rect x="36.768" y="19.851" fill="#FFFFFF" stroke="#B3B3B3" stroke-width="0.5" stroke-miterlimit="10" width="37.356" height="65.786"/>
	</g>
</g>
<g id="_x30_2_copy" style="display: none;">
	<g>
		<defs>
			<path id="SVGID_1_" d="M76.656,92.383c0,3.485-2.22,5.754-5.703,5.683H40.021c-3.483,0.071-5.785-2.197-5.785-5.683V13.076
				c0-3.482,2.302-5.834,5.785-5.834h30.817c3.483,0,5.818,2.352,5.818,5.834V92.383z"/>
		</defs>
		<clipPath id="SVGID_2_">
			<use xlink:href="#SVGID_1_"  overflow="visible"/>
		</clipPath>
		<path opacity="0.3" clip-path="url(#SVGID_2_)" d="M44.629,124.485c0,0-6.351-19.434-6.859-23.243
			c-0.507-3.81,1.017-7.62,1.524-12.827c0.509-5.207,0.787-10.924,1.854-12.193c1.067-1.271,8.2-2.401,12.106-5.08l29.73,7.747
			c0,0,0.889-1.271,3.811,1.651c2.92,2.922,12.32,15.494,12.32,20.32c0,4.319-7.62,14.225-10.923,23.625"/>
		<linearGradient id="SVGID_3_" gradientUnits="userSpaceOnUse" x1="52.4131" y1="101.5806" x2="52.4131" y2="35.1885">
			<stop  offset="0.4956" style="stop-color:#000000"/>
			<stop  offset="1" style="stop-color:#E6E6E6"/>
		</linearGradient>
		<path opacity="0.3" clip-path="url(#SVGID_2_)" fill="url(#SVGID_3_)" d="M41.872,101.581c0,0,2.709-7.025,4.064-13.547
			c1.354-6.52,3.278-21.59,2.867-24.977c-0.412-3.387,0.412-8.373,0.621-10.829c0.21-2.455-0.057-5.434,0.027-9.667
			c0.085-4.234,2.371-7.536,5.418-7.367c3.049,0.17,3.751,1.948,4.797,5.758c1.047,3.81,0.297,7.042,0.636,9.92
			c0.339,2.879,1.654,9,1.975,10.405c0.677,2.963-0.465,24.64,0.677,25.91"/>
	</g>
	<path fill="#FFFFFF" stroke="#B3B3B3" stroke-linecap="round" d="M47.258,121.092c0,0-6.944-19.643-7.283-22.354
		c-0.338-2.709,0.847-6.434,1.779-13.377c0.931-6.945,1.185-10.157,2.37-11.811c1.186-1.652,8.851-3.623,11.674-5.463l29.815,7.537
		c0,0,1.271-0.509,2.541,0.506c1.271,1.018,13.124,16.596,13.463,18.967c0.338,2.371-2.118,8.806-4.318,12.955
		c-2.201,4.148-6.012,12.361-6.012,12.361"/>
	<path fill="#FFFFFF" stroke="#B3B3B3" stroke-linecap="round" d="M93.319,89.002c0,0-4.912-6.266-6.774-11.008
		c-1.863-4.741-6.773-9.906-6.773-9.906l-1.44,9.312"/>
	<path fill="#FFFFFF" stroke="#B3B3B3" stroke-linecap="round" d="M85.36,85.786c0,0-2.033-2.202-2.541-6.097
		c-0.508-3.896-2.117-17.444-2.54-19.729c-0.424-2.286-2.794-5.165-5.588-5.25s-7.197,2.879-7.197,2.879v15.495"/>
	<path fill="#FFFFFF" stroke="#B3B3B3" stroke-linecap="round" d="M48.867,97.383c0,0,2.709-7.025,4.064-13.546
		c1.354-6.521,3.278-21.59,2.867-24.978c-0.412-3.387-0.153-8.213,0.056-10.669c0.209-2.456-0.553-5.927-0.468-10.16
		c0.084-4.234,2.371-7.536,5.418-7.367c3.049,0.17,3.751,1.948,4.796,5.758c1.047,3.81,0.792,7.535,1.131,10.414
		c0.339,2.879,2.219,8.84,2.54,10.246c0.678,2.963-0.465,24.64,0.678,25.909"/>
	<path fill="#FFFFFF" stroke="#B3B3B3" stroke-width="0.5" stroke-linecap="round" d="M49.798,79.096c0,0,3.081,1.507,3.489,2.912"
		/>
	<path fill="#FFFFFF" stroke="#B3B3B3" stroke-width="0.5" stroke-linecap="round" d="M57.154,32.807c0,0,0.299,1.985,1.314,2.493
		c1.016,0.508,1.293,0.68,3.156,0.596c1.863-0.085,2.906-0.284,2.906-1.331s-0.434-3.907-3.688-3.907
		C57.588,30.658,57.154,32.807,57.154,32.807z"/>
	<path fill="#FFFFFF" stroke="#B3B3B3" stroke-width="0.5" stroke-linecap="round" d="M60.302,57.741c0,0,6.26-0.745,7.953-0.067"/>
</g>
<g id="_x30_3_copy_2" style="display: none;">
	<g>
		<defs>
			<path id="SVGID_4_" d="M76.656,92.383c0,3.485-2.22,5.754-5.703,5.683H40.021c-3.483,0.071-5.785-2.197-5.785-5.683V13.076
				c0-3.482,2.302-5.834,5.785-5.834h30.817c3.483,0,5.818,2.352,5.818,5.834V92.383z"/>
		</defs>
		<clipPath id="SVGID_5_">
			<use xlink:href="#SVGID_4_"  overflow="visible"/>
		</clipPath>
		<path opacity="0.3" clip-path="url(#SVGID_5_)" d="M44.629,124.485c0,0-6.351-19.434-6.859-23.243
			c-0.507-3.81,1.017-7.62,1.524-12.827c0.509-5.207,0.787-10.924,1.854-12.193c1.067-1.271,8.2-2.401,12.106-5.08l29.73,7.747
			c0,0,0.889-1.271,3.811,1.651c2.92,2.922,12.32,15.494,12.32,20.32c0,4.319-7.62,14.225-10.923,23.625"/>
		<linearGradient id="SVGID_6_" gradientUnits="userSpaceOnUse" x1="52.4131" y1="101.5806" x2="52.4131" y2="35.1885">
			<stop  offset="0.4956" style="stop-color:#000000"/>
			<stop  offset="1" style="stop-color:#E6E6E6"/>
		</linearGradient>
		<path opacity="0.3" clip-path="url(#SVGID_5_)" fill="url(#SVGID_6_)" d="M41.872,101.581c0,0,2.709-7.025,4.064-13.547
			c1.354-6.52,3.278-21.59,2.867-24.977c-0.412-3.387,0.412-8.373,0.621-10.829c0.21-2.455-0.057-5.434,0.027-9.667
			c0.085-4.234,2.371-7.536,5.418-7.367c3.049,0.17,3.751,1.948,4.797,5.758c1.047,3.81,0.297,7.042,0.636,9.92
			c0.339,2.879,1.654,9,1.975,10.405c0.677,2.963-0.465,24.64,0.677,25.91"/>
	</g>
	<g opacity="0.1">
		<path fill="#80AADA" d="M59.708,28.989c4.841,0,8.78,3.938,8.78,8.78s-3.938,8.78-8.78,8.78s-8.78-3.938-8.78-8.78
			S54.867,28.989,59.708,28.989 M59.708,26.989c-5.955,0-10.78,4.827-10.78,10.78c0,5.953,4.826,10.78,10.78,10.78
			c5.953,0,10.78-4.827,10.78-10.78C70.488,31.816,65.661,26.989,59.708,26.989L59.708,26.989z"/>
	</g>
	<path fill="#FFFFFF" stroke="#B3B3B3" stroke-linecap="round" d="M47.258,121.092c0,0-6.944-19.643-7.283-22.354
		c-0.338-2.709,0.847-6.434,1.779-13.377c0.931-6.945,1.185-10.157,2.37-11.811c1.186-1.652,8.851-3.623,11.674-5.463l29.815,7.537
		c0,0,1.271-0.509,2.541,0.506c1.271,1.018,13.124,16.596,13.463,18.967c0.338,2.371-2.118,8.806-4.318,12.955
		c-2.201,4.148-6.012,12.361-6.012,12.361"/>
	<path fill="#FFFFFF" stroke="#B3B3B3" stroke-linecap="round" d="M93.319,89.002c0,0-4.912-6.266-6.774-11.008
		c-1.863-4.741-6.773-9.906-6.773-9.906l-1.44,9.312"/>
	<path fill="#FFFFFF" stroke="#B3B3B3" stroke-linecap="round" d="M85.36,85.786c0,0-2.033-2.202-2.541-6.097
		c-0.508-3.896-2.117-17.444-2.54-19.729c-0.424-2.286-2.794-5.165-5.588-5.25s-7.197,2.879-7.197,2.879v15.495"/>
	<path fill="#FFFFFF" stroke="#B3B3B3" stroke-linecap="round" d="M48.867,97.383c0,0,2.709-7.025,4.064-13.546
		c1.354-6.521,3.278-21.59,2.867-24.978c-0.412-3.387-0.153-8.213,0.056-10.669c0.209-2.456-0.553-5.927-0.468-10.16
		c0.084-4.234,2.371-7.536,5.418-7.367c3.049,0.17,3.751,1.948,4.796,5.758c1.047,3.81,0.792,7.535,1.131,10.414
		c0.339,2.879,2.219,8.84,2.54,10.246c0.678,2.963-0.465,24.64,0.678,25.909"/>
	<path fill="#FFFFFF" stroke="#B3B3B3" stroke-width="0.5" stroke-linecap="round" d="M49.798,79.096c0,0,3.081,1.507,3.489,2.912"
		/>
	<path fill="#FFFFFF" stroke="#B3B3B3" stroke-width="0.5" stroke-linecap="round" d="M57.154,32.807c0,0,0.299,1.985,1.314,2.493
		c1.016,0.508,1.293,0.68,3.156,0.596c1.863-0.085,2.906-0.284,2.906-1.331s-0.434-3.907-3.688-3.907
		C57.588,30.658,57.154,32.807,57.154,32.807z"/>
	<path fill="#FFFFFF" stroke="#B3B3B3" stroke-width="0.5" stroke-linecap="round" d="M60.302,57.741c0,0,6.26-0.745,7.953-0.067"/>
</g>
<g id="_x30_4_copy_3" style="display: none;">
	<g>
		<defs>
			<path id="SVGID_7_" d="M76.656,92.383c0,3.485-2.22,5.754-5.703,5.683H40.021c-3.483,0.071-5.785-2.197-5.785-5.683V13.076
				c0-3.482,2.302-5.834,5.785-5.834h30.817c3.483,0,5.818,2.352,5.818,5.834V92.383z"/>
		</defs>
		<clipPath id="SVGID_8_">
			<use xlink:href="#SVGID_7_"  overflow="visible"/>
		</clipPath>
		<path opacity="0.3" clip-path="url(#SVGID_8_)" d="M44.629,124.485c0,0-6.351-19.434-6.859-23.243
			c-0.507-3.81,1.017-7.62,1.524-12.827c0.509-5.207,0.787-10.924,1.854-12.193c1.067-1.271,8.2-2.401,12.106-5.08l29.73,7.747
			c0,0,0.889-1.271,3.811,1.651c2.92,2.922,12.32,15.494,12.32,20.32c0,4.319-7.62,14.225-10.923,23.625"/>
		<linearGradient id="SVGID_9_" gradientUnits="userSpaceOnUse" x1="53.3882" y1="100.5962" x2="53.3882" y2="34.4741">
			<stop  offset="0.65" style="stop-color:#000000"/>
			<stop  offset="1" style="stop-color:#E6E6E6"/>
		</linearGradient>
		<path opacity="0.3" clip-path="url(#SVGID_8_)" fill="url(#SVGID_9_)" d="M42.973,100.596c1.779-2.158,3.877-6.403,4.954-17.398
			c1.077-10.995,1.524-22.048,1.271-24.741c-0.254-2.693,0.866-6.132,0.75-8.349c-0.116-2.219-1.259-4.035-0.878-6.873
			c0.381-2.839,1.525-8.712,5.715-8.76c4.191-0.047,4.7,3.521,5.335,6.436c0.635,2.915,0.127,8.335,0.635,10.642
			c0.507,2.307,2.249,7.579,2.413,9.196c0.253,2.51-0.89,22.705,0.635,24.99"/>
	</g>
	<g opacity="0.2">
		<path fill="#80AADA" d="M59.708,29.439c4.593,0,8.33,3.737,8.33,8.33c0,4.593-3.737,8.33-8.33,8.33s-8.33-3.737-8.33-8.33
			C51.378,33.176,55.115,29.439,59.708,29.439 M59.708,27.439c-5.706,0-10.33,4.625-10.33,10.33s4.625,10.33,10.33,10.33
			c5.704,0,10.33-4.626,10.33-10.33S65.412,27.439,59.708,27.439L59.708,27.439z"/>
	</g>
	<path fill="#FFFFFF" stroke="#B3B3B3" stroke-linecap="round" d="M46.919,121.05c0,0-6.731-19.94-6.731-22.989
		c0-3.047,0.762-5.714,1.651-12.445c0.889-6.732,0.635-10.283,1.714-12.064c1.08-1.781,12.245-5.336,12.245-5.336l29.604,7.239
		c0,0,1.778-1.017,3.557,1.144c1.778,2.158,12.701,16.829,12.701,20.639s-9.11,19.133-10.923,23.813"/>
	<path fill="#FFFFFF" stroke="#B3B3B3" stroke-linecap="round" d="M93.996,89.51c0,0-3.387-3.725-5.334-7.789
		s-6.097-12.449-8.722-13.887l0.339,10.838"/>
	<path fill="#FFFFFF" stroke="#B3B3B3" stroke-linecap="round" d="M84.175,83.668c0,0-0.876-2.006-1.44-5.504
		c-0.562-3.5-1.608-15.581-2.794-19.221c-1.185-3.641-3.218-4.233-5.757-4.402c-2.541-0.17-6.351,2.878-6.858,3.471
		c-0.508,0.593,0,15.834,0,15.834"/>
	<path fill="#FFFFFF" stroke="#B3B3B3" stroke-width="0.5" stroke-linecap="round" d="M50.475,78.672c0,0,2.135,1.404,3.1,2.734"/>
	<path fill="#FFFFFF" stroke="#B3B3B3" stroke-linecap="round" d="M48.824,96.918c1.778-2.158,3.877-6.404,4.954-17.4
		c1.077-10.994,1.524-22.047,1.271-24.74c-0.254-2.693,0.866-6.132,0.75-8.349c-0.116-2.219-1.259-4.035-0.878-6.873
		c0.381-2.838,1.525-8.712,5.715-8.76c4.191-0.047,4.7,3.521,5.334,6.436c0.636,2.915,0.127,8.335,0.636,10.642
		c0.507,2.307,2.249,7.579,2.413,9.196c0.253,2.51-0.89,22.705,0.634,24.99"/>
	<path fill="#FFFFFF" stroke="#B3B3B3" stroke-width="0.5" stroke-linecap="round" d="M57.073,32.86
		c0.214,1.26,1.277,2.376,2.166,2.714c0.889,0.339,4.107,0.508,4.869,0c0.762-0.508,0.876-2.664,0-3.409
		c-0.876-0.745-1.355-1.321-3.472-1.37C58.519,30.748,57.002,32.447,57.073,32.86z"/>
	<path fill="#FFFFFF" stroke="#B3B3B3" stroke-width="0.5" stroke-linecap="round" d="M59.285,56.42c0,0,7.062-1.118,8.971-0.102"/>
</g>
<g id="_x30_5_copy_3" style="display: none;">
	<g>
		<defs>
			<path id="SVGID_10_" d="M76.656,92.383c0,3.485-2.22,5.754-5.703,5.683H40.021c-3.483,0.071-5.785-2.197-5.785-5.683V13.076
				c0-3.482,2.302-5.834,5.785-5.834h30.817c3.483,0,5.818,2.352,5.818,5.834V92.383z"/>
		</defs>
		<clipPath id="SVGID_11_">
			<use xlink:href="#SVGID_10_"  overflow="visible"/>
		</clipPath>
		<path opacity="0.3" clip-path="url(#SVGID_11_)" d="M44.629,124.485c0,0-6.351-19.434-6.859-23.243
			c-0.507-3.81,1.017-7.62,1.524-12.827c0.509-5.207,0.787-10.924,1.854-12.193c1.067-1.271,8.2-2.401,12.106-5.08l29.73,7.747
			c0,0,0.889-1.271,3.811,1.651c2.92,2.922,12.32,15.494,12.32,20.32c0,4.319-7.62,14.225-10.923,23.625"/>
		<linearGradient id="SVGID_12_" gradientUnits="userSpaceOnUse" x1="55.2324" y1="99.0796" x2="55.2324" y2="33.6602">
			<stop  offset="0.8" style="stop-color:#000000"/>
			<stop  offset="1" style="stop-color:#E6E6E6"/>
		</linearGradient>
		<path opacity="0.3" clip-path="url(#SVGID_11_)" fill="url(#SVGID_12_)" d="M44.881,99.08c0,0,2.794-4.954,3.938-11.812
			c1.143-6.856,0.224-24.402,0.546-28.891c0.25-3.483,0.702-5.814,1.018-9.157c0.293-3.11,0.479-6.657,1.115-9.451
			c0.634-2.794,2.794-6.351,5.969-6.097c3.175,0.254,4.598,4.373,4.966,7.33c0.369,2.958-0.786,7.149-0.277,9.688
			c0.508,2.541,0.461,6.061,0.867,8.794c0.636,4.288,1.038,22.195,2.562,24.609"/>
	</g>
	<g opacity="0.4">
		<path fill="#80AADA" d="M59.708,30.227c4.159,0,7.542,3.383,7.542,7.542s-3.383,7.542-7.542,7.542s-7.542-3.384-7.542-7.542
			S55.549,30.227,59.708,30.227 M59.708,28.227c-5.271,0-9.542,4.273-9.542,9.542s4.272,9.542,9.542,9.542
			c5.269,0,9.542-4.273,9.542-9.542S64.977,28.227,59.708,28.227L59.708,28.227z"/>
	</g>
	<path fill="#FFFFFF" stroke="#B3B3B3" stroke-linecap="round" d="M47.173,121.05c0,0-6.351-19.433-6.859-23.243
		c-0.507-3.809,1.017-7.619,1.525-12.826s0.787-10.924,1.854-12.193c1.067-1.271,8.199-2.402,12.105-5.08l29.731,7.747
		c0,0,0.889-1.271,3.81,1.65c2.92,2.923,12.32,15.495,12.32,20.321c0,4.318-7.62,14.225-10.923,23.624"/>
	<path fill="#FFFFFF" stroke="#B3B3B3" stroke-linecap="round" d="M93.573,88.916c0,0-3.726-4.57-5.334-7.956
		c-1.608-3.388-4.402-10.078-7.451-13.252v9.355"/>
	<path fill="#FFFFFF" stroke="#B3B3B3" stroke-linecap="round" d="M84.259,82.737c0,0-1.016-1.738-1.439-4.426
		c-0.423-2.688-1.439-14.118-2.54-18.605c-1.101-4.488-2.878-5.165-5.588-5.419c-2.71-0.254-6.097,1.948-7.027,3.726V72.66"/>
	<path fill="#FFFFFF" stroke="#B3B3B3" stroke-width="0.5" stroke-linecap="round" d="M48.824,78.311c0,0,3.458,1.795,4.333,3.787"
		/>
	<path fill="#FFFFFF" stroke="#B3B3B3" stroke-linecap="round" d="M48.824,96.663c0,0,2.794-4.953,3.938-11.811
		s2.667-26.619,2.159-30.074c-0.508-3.455,0.709-4.947,0.101-8.011c-0.609-3.064-1.117-6.621-0.482-9.415s2.795-6.351,5.97-6.097
		s4.598,4.373,4.965,7.33c0.37,2.958,0.115,7.149,0.623,9.688c0.509,2.541,2.262,6.061,2.667,8.794
		c0.636,4.288-0.762,22.195,0.763,24.608"/>
	<path fill="#FFFFFF" stroke="#B3B3B3" stroke-width="0.5" stroke-linecap="round" d="M58.648,57.232c0,0,7.297-1.332,9.469,0.105"
		/>
	<path fill="#FFFFFF" stroke="#B3B3B3" stroke-width="0.5" stroke-linecap="round" d="M56.75,32.965
		c-0.694,0.851,0.499,3.202,1.346,3.542c0.847,0.338,4.348,0.592,5.011,0c0.662-0.593,0.929-1.733,0.626-3.11
		c-0.303-1.378-1.476-1.997-3.429-2.153C58.35,31.087,57.308,32.282,56.75,32.965z"/>
</g>
<g id="_x30_6_copy_3" style="display: none;">
	<linearGradient id="SVGID_13_" gradientUnits="userSpaceOnUse" x1="57.1494" y1="98.0679" x2="57.1494" y2="34.1294">
		<stop  offset="0.8259" style="stop-color:#000000"/>
		<stop  offset="1" style="stop-color:#FFFFFF"/>
	</linearGradient>
	<path opacity="0.3" fill="url(#SVGID_13_)" d="M37.643,97.696c0.707,0.259,1.505,0.388,2.378,0.37h30.933
		c3.482,0.071,5.703-2.197,5.703-5.683v-8.704c-0.011,0.001-0.022,0-0.033,0.001c-1.378-2.464-2.901-4.896-4.314-6.549
		c-0.44-3.913-0.881-8.04-1.241-9.569c-0.508-2.159-2.159-5.476-5.842-5.468c-2.627,0.005-4.028,1.175-5.501,3.284
		c-0.072-0.841-0.141-1.499-0.203-1.891c-0.381-2.413,0.149-6.256-0.274-9.644c-0.423-3.386,4.977-12.681,4.045-15.56
		c-0.346-1.07-0.775-1.905-1.259-2.538c-0.001-0.002-0.002-0.004-0.004-0.006l-0.001-0.001c-0.009-0.012-0.019-0.022-0.028-0.034
		c-0.667-0.732-0.673-1.576-2.771-1.568c-0.318-0.017-0.68-0.002-1.061,0.061c-1.15,0.137-1.978,0.513-2.362,1.163
		c-0.734,0.697-1.89,1.87-2.558,3.348c-1.609,3.562-1.975,3.772-3.12,10.258c-0.584,3.311-1.103,8.46-1.112,12.016
		c-0.006,2.359,0.027,5.442-0.22,10.874c-3.592,1.76-5.339,2.481-7.117,3.814c-2.032,1.525-2.286,6.73-2.667,12.573
		C38.747,92.295,37.994,95.249,37.643,97.696z"/>
	<g opacity="0.6">
		<path fill="#80AADA" d="M59.708,31.014c3.725,0,6.755,3.03,6.755,6.755s-3.03,6.755-6.755,6.755s-6.755-3.03-6.755-6.755
			S55.983,31.014,59.708,31.014 M59.708,29.014c-4.835,0-8.755,3.92-8.755,8.755s3.919,8.755,8.755,8.755
			c4.834,0,8.755-3.92,8.755-8.755S64.542,29.014,59.708,29.014L59.708,29.014z"/>
	</g>
	<path fill="#FFFFFF" stroke="#B3B3B3" stroke-linecap="round" d="M47.173,121.05c0,0-2.541-7.622-3.683-11.431
		c-1.143-3.812-3.048-9.527-3.176-11.685c-0.126-2.159,1.271-7.112,1.779-12.319c0.507-5.208,1.016-11.812,2.54-13.209
		c1.524-1.396,7.471-1.906,11.166-4.572l29.985,7.493c0,0,1.905-2.159,7.366,6.222c5.461,8.383,8.51,10.924,8.51,14.733
		s-9.399,20.321-10.923,24.768"/>
	<path fill="#FFFFFF" stroke="#B3B3B3" stroke-linecap="round" d="M94.165,88.579c0,0-2.878-2.371-4.402-5.336
		c-1.524-2.963-6.266-13.038-9.061-15.408v7.959"/>
	<path fill="#FFFFFF" stroke="#B3B3B3" stroke-linecap="round" d="M84.344,82.567c0,0-1.439-1.948-1.778-5.504
		c-0.339-3.555-1.017-13.97-1.863-17.188s-2.455-6.096-5.758-6.096c-3.302,0-6.435,1.947-8.044,5.419v13.293"/>
	<path fill="#FFFFFF" stroke="#B3B3B3" stroke-width="0.5" stroke-linecap="round" d="M50.052,78.206c0,0,1.867,1.881,3.178,3.037"
		/>
	<path fill="#FFFFFF" stroke="#B3B3B3" stroke-linecap="round" d="M48.57,96.03c0,0,3.811-6.732,4.826-16.129
		c1.016-9.4,1.524-20.561,1.397-23.554c-0.127-2.992,0.292-5.914,0.02-8.58c-0.274-2.667-0.782-2.032-0.654-5.081
		c0.126-3.048,1.143-9.017,5.715-8.509c4.572,0.508,4.572,5.588,4.953,8.255c0.381,2.668,0.254,3.683,0.762,5.969
		c0.508,2.287,3.175,8.382,3.048,11.304c-0.126,2.92-0.508,18.923,0.89,21.718"/>
	<path fill="#FFFFFF" stroke="#B3B3B3" stroke-width="0.5" stroke-linecap="round" d="M58.521,57.486c0,0,6.415-1.208,9.175,0.293"
		/>
	<path fill="#FFFFFF" stroke="#B3B3B3" stroke-width="0.5" stroke-linecap="round" d="M56.07,35.869c0,0,0.268,2.005,1.285,2.684
		c1.016,0.678,5.217,0.951,5.906-0.015c0.688-0.965,0.254-1.947,0-2.708c-0.254-0.763-1.44-1.356-3.387-1.652
		C57.926,33.88,56.595,35.202,56.07,35.869z"/>
</g>
<g id="_x30_7_copy_3" style="display: none;">
	<linearGradient id="SVGID_14_" gradientUnits="userSpaceOnUse" x1="57.1494" y1="98.0679" x2="57.1494" y2="34.1294">
		<stop  offset="0.75" style="stop-color:#000000"/>
		<stop  offset="1" style="stop-color:#231F20"/>
	</linearGradient>
	<path opacity="0.3" fill="url(#SVGID_14_)" d="M37.643,97.696c0.707,0.259,1.505,0.388,2.378,0.37h30.933
		c3.482,0.071,5.703-2.197,5.703-5.683v-8.704c-0.011,0.001-0.022,0-0.033,0.001c-1.378-2.464-2.901-4.896-4.314-6.549
		c-0.44-3.913-0.881-8.04-1.241-9.569c-0.508-2.159-2.159-5.476-5.842-5.468c-2.627,0.005-4.028,1.175-5.501,3.284
		c-0.072-0.841-0.141-1.499-0.203-1.891c-0.381-2.413,0.149-6.256-0.274-9.644c-0.423-3.386,4.977-12.681,4.045-15.56
		c-0.346-1.07-0.775-1.905-1.259-2.538c-0.001-0.002-0.002-0.004-0.004-0.006l-0.001-0.001c-0.009-0.012-0.019-0.022-0.028-0.034
		c-0.667-0.732-0.673-1.576-2.771-1.568c-0.318-0.017-0.68-0.002-1.061,0.061c-1.15,0.137-1.978,0.513-2.362,1.163
		c-0.734,0.697-1.89,1.87-2.558,3.348c-1.609,3.562-1.975,3.772-3.12,10.258c-0.584,3.311-1.103,8.46-1.112,12.016
		c-0.006,2.359,0.027,5.442-0.22,10.874c-3.592,1.76-5.339,2.481-7.117,3.814c-2.032,1.525-2.286,6.73-2.667,12.573
		C38.747,92.295,37.994,95.249,37.643,97.696z"/>
	<g opacity="0.8">
		<path fill="#80AADA" d="M59.708,33.046c2.604,0,4.723,2.119,4.723,4.723s-2.119,4.723-4.723,4.723
			c-2.604,0-4.723-2.119-4.723-4.723S57.104,33.046,59.708,33.046 M59.708,31.046c-3.713,0-6.723,3.01-6.723,6.723
			s3.01,6.723,6.723,6.723c3.712,0,6.723-3.01,6.723-6.723S63.42,31.046,59.708,31.046L59.708,31.046z"/>
	</g>
	<path fill="#FFFFFF" stroke="#B3B3B3" stroke-linecap="round" d="M47.173,121.05c0,0-3.683-10.415-4.699-14.226
		c-1.017-3.81-1.778-6.858-2.287-9.906c-0.508-3.049,1.27-7.366,1.906-12.953c0.634-5.59,0.762-9.908,2.286-11.939
		c1.524-2.032,6.35-1.271,12.446-4.191l26.799,8.128c0,0,1.777-1.524,4.064-0.508c2.287,1.016,4.318,3.683,7.239,8.129
		c2.921,4.444,6.731,8.89,6.731,12.699s-8.637,17.655-11.177,24.768"/>
	<path fill="#FFFFFF" stroke="#B3B3B3" stroke-linecap="round" d="M94.419,88.772c0,0-3.302-3.41-5.208-6.84
		c-1.905-3.431-6.604-13.68-9.144-15.16c-2.541-1.478-5.588,10.964-5.588,10.964"/>
	<path fill="#FFFFFF" stroke="#B3B3B3" stroke-linecap="round" d="M84.45,82.821c0,0-2.35-4.699-2.731-12.32
		c-0.381-7.62-1.778-17.625-7.239-17.068c-5.461,0.558-7.189,5.04-8.383,10.946c-1.193,5.907,0,18.442,0,18.442"/>
	<path fill="#FFFFFF" stroke="#B3B3B3" stroke-width="0.5" stroke-linecap="round" d="M48.952,77.711c0,0,2.605,1.817,4.012,3.082"
		/>
	<path fill="#FFFFFF" stroke="#B3B3B3" stroke-linecap="round" d="M48.952,95.776c0,0,2.54-4.445,3.556-11.811
		c1.016-7.367,2.54-15.496,2.286-22.608c-0.254-7.113,0.563-9.846,0.028-12.988c-0.536-3.143-0.536-4.159-0.536-6.317
		c0-2.159,1.905-8.382,5.589-8.001c3.683,0.38,4.826,4.064,5.207,7.747c0.381,3.684,0.127,3.684,0.381,6.816
		c0.254,3.133,2.708,5.757,2.878,12.786c0.169,7.027-0.932,16.257,1.693,19.644"/>
	<path fill="#FFFFFF" stroke="#B3B3B3" stroke-width="0.5" stroke-linecap="round" d="M58.521,57.359c0,0,4.457-1.65,8.521-0.127"/>
	<path fill="#FFFFFF" stroke="#B3B3B3" stroke-width="0.5" stroke-linecap="round" d="M56.171,36.296
		c-0.424,0.713,0.57,2.072,1.501,2.41c0.932,0.34,4.148,0.594,4.912,0c0.762-0.592,1.013-2.435,0.473-2.987
		c-0.54-0.552-1.813-1.844-3.183-1.669C58.504,34.225,56.583,35.605,56.171,36.296z"/>
</g>
<g id="_x30_8_copy" style="display: none;">
	<linearGradient id="SVGID_15_" gradientUnits="userSpaceOnUse" x1="57.1494" y1="98.0679" x2="57.1494" y2="34.1294">
		<stop  offset="0.75" style="stop-color:#000000"/>
		<stop  offset="1" style="stop-color:#231F20"/>
	</linearGradient>
	<path opacity="0.3" fill="url(#SVGID_15_)" d="M37.643,97.696c0.707,0.259,1.505,0.388,2.378,0.37h30.933
		c3.482,0.071,5.703-2.197,5.703-5.683v-8.704c-0.011,0.001-0.022,0-0.033,0.001c-1.378-2.464-2.901-4.896-4.314-6.549
		c-0.44-3.913-0.881-8.04-1.241-9.569c-0.508-2.159-2.159-5.476-5.842-5.468c-2.627,0.005-4.028,1.175-5.501,3.284
		c-0.072-0.841-0.141-1.499-0.203-1.891c-0.381-2.413,0.149-6.256-0.274-9.644c-0.423-3.386,4.977-12.681,4.045-15.56
		c-0.346-1.07-0.775-1.905-1.259-2.538c-0.001-0.002-0.002-0.004-0.004-0.006l-0.001-0.001c-0.009-0.012-0.019-0.022-0.028-0.034
		c-0.667-0.732-0.673-1.576-2.771-1.568c-0.318-0.017-0.68-0.002-1.061,0.061c-1.15,0.137-1.978,0.513-2.362,1.163
		c-0.734,0.697-1.89,1.87-2.558,3.348c-1.609,3.562-1.975,3.772-3.12,10.258c-0.584,3.311-1.103,8.46-1.112,12.016
		c-0.006,2.359,0.027,5.442-0.22,10.874c-3.592,1.76-5.339,2.481-7.117,3.814c-2.032,1.525-2.286,6.73-2.667,12.573
		C38.747,92.295,37.994,95.249,37.643,97.696z"/>
	<circle fill="#80AADA" cx="59.708" cy="37.769" r="6.723"/>
	<path fill="#FFFFFF" stroke="#B3B3B3" stroke-linecap="round" d="M47.3,121.05c0,0-3.557-9.399-4.573-13.844
		c-1.016-4.445-2.286-7.621-2.54-10.669c-0.254-3.05,1.143-6.605,1.524-12.447s0.635-11.048,2.667-12.573
		c2.032-1.523,7.725-1.27,11.419-3.937l27.445,8.254c0,0,1.905-2.031,4.445-0.762c2.54,1.271,2.54,2.16,6.477,7.367
		c3.938,5.207,7.494,10.033,7.494,13.843s-8.891,17.655-11.177,24.768"/>
	<path fill="#FFFFFF" stroke="#B3B3B3" stroke-linecap="round" d="M94.8,88.579c0,0-3.429-2.328-5.715-7.154
		c-2.286-4.826-7.62-15.241-10.667-15.369C75.368,65.929,76.13,76.47,76.13,76.47"/>
	<path fill="#FFFFFF" stroke="#B3B3B3" stroke-linecap="round" d="M84.259,81.677c0,0-1.812-4.414-2.413-9.018
		c-0.602-4.601-1.27-11.938-1.778-14.098c-0.508-2.159-2.159-5.476-5.842-5.468s-6.731,4.071-7.747,6.612
		c-1.016,2.539-2.033,12.701-2.033,12.701"/>
	
		<line fill="#FFFFFF" stroke="#B3B3B3" stroke-width="0.5" stroke-linecap="round" x1="49.036" y1="76.894" x2="52.538" y2="80.407"/>
	<path fill="#FFFFFF" stroke="#B3B3B3" stroke-linecap="round" d="M70.034,80.915c0,0-1.143-1.141-1.27-5.969
		c-0.127-4.826-0.762-17.146-1.143-19.559c-0.381-2.413-1.651-3.556-2.074-6.943c-0.423-3.386-0.423-7.281-1.355-10.16
		c-0.931-2.879-2.455-4.064-4.063-4.148c-1.609-0.084-4.318,0.592-5.08,4.571c-0.763,3.979-0.424,5.843-0.424,8.383
		c0,2.541-0.065,4.234-0.075,7.79c-0.01,3.556,0.076,14.903-0.856,21.083s-2.202,16.85-4.149,18.543"/>
	<path fill="#FFFFFF" stroke="#B3B3B3" stroke-width="0.5" stroke-linecap="round" d="M57.109,38.346
		c0.4,0.736,2.523,0.627,3.793,0.712c1.27,0.086,2.206-0.554,2.206-0.554s0.52-2.024-0.179-2.764c-0.699-0.74-0.668-1.612-2.8-1.604
		C57.046,34.146,55.5,35.381,57.109,38.346z"/>
	<path fill="#FFFFFF" stroke="#B3B3B3" stroke-width="0.5" stroke-linecap="round" d="M58.521,57.359c0,0,4.457-1.65,8.521-0.127"/>
</g>
<g id="_x30_7_copy_2" style="display: none;">
	<linearGradient id="SVGID_16_" gradientUnits="userSpaceOnUse" x1="57.1494" y1="98.0679" x2="57.1494" y2="34.1294">
		<stop  offset="0.75" style="stop-color:#000000"/>
		<stop  offset="1" style="stop-color:#231F20"/>
	</linearGradient>
	<path opacity="0.3" fill="url(#SVGID_16_)" d="M37.643,97.696c0.707,0.259,1.505,0.388,2.378,0.37h30.933
		c3.482,0.071,5.703-2.197,5.703-5.683v-8.704c-0.011,0.001-0.022,0-0.033,0.001c-1.378-2.464-2.901-4.896-4.314-6.549
		c-0.44-3.913-0.881-8.04-1.241-9.569c-0.508-2.159-2.159-5.476-5.842-5.468c-2.627,0.005-4.028,1.175-5.501,3.284
		c-0.072-0.841-0.141-1.499-0.203-1.891c-0.381-2.413,0.149-6.256-0.274-9.644c-0.423-3.386,4.977-12.681,4.045-15.56
		c-0.346-1.07-0.775-1.905-1.259-2.538c-0.001-0.002-0.002-0.004-0.004-0.006l-0.001-0.001c-0.009-0.012-0.019-0.022-0.028-0.034
		c-0.667-0.732-0.673-1.576-2.771-1.568c-0.318-0.017-0.68-0.002-1.061,0.061c-1.15,0.137-1.978,0.513-2.362,1.163
		c-0.734,0.697-1.89,1.87-2.558,3.348c-1.609,3.562-1.975,3.772-3.12,10.258c-0.584,3.311-1.103,8.46-1.112,12.016
		c-0.006,2.359,0.027,5.442-0.22,10.874c-3.592,1.76-5.339,2.481-7.117,3.814c-2.032,1.525-2.286,6.73-2.667,12.573
		C38.747,92.295,37.994,95.249,37.643,97.696z"/>
	<circle fill="#80AADA" cx="59.708" cy="37.769" r="6.723"/>
	<path fill="#FFFFFF" stroke="#B3B3B3" stroke-linecap="round" d="M47.173,121.05c0,0-3.683-10.415-4.699-14.226
		c-1.017-3.81-1.778-6.858-2.287-9.906c-0.508-3.049,1.27-7.366,1.906-12.953c0.634-5.59,0.762-9.908,2.286-11.939
		c1.524-2.032,6.35-1.271,12.446-4.191l26.799,8.128c0,0,1.777-1.524,4.064-0.508c2.287,1.016,4.318,3.683,7.239,8.129
		c2.921,4.444,6.731,8.89,6.731,12.699s-8.637,17.655-11.177,24.768"/>
	<path fill="#FFFFFF" stroke="#B3B3B3" stroke-linecap="round" d="M94.419,88.772c0,0-3.302-3.41-5.208-6.84
		c-1.905-3.431-6.604-13.68-9.144-15.16c-2.541-1.478-5.588,10.964-5.588,10.964"/>
	<path fill="#FFFFFF" stroke="#B3B3B3" stroke-linecap="round" d="M84.45,82.821c0,0-2.35-4.699-2.731-12.32
		c-0.381-7.62-1.778-17.625-7.239-17.068c-5.461,0.558-7.189,5.04-8.383,10.946c-1.193,5.907,0,18.442,0,18.442"/>
	<path fill="#FFFFFF" stroke="#B3B3B3" stroke-width="0.5" stroke-linecap="round" d="M48.952,77.711c0,0,2.605,1.817,4.012,3.082"
		/>
	<path fill="#FFFFFF" stroke="#B3B3B3" stroke-linecap="round" d="M48.952,95.776c0,0,2.54-4.445,3.556-11.811
		c1.016-7.367,2.54-15.496,2.286-22.608c-0.254-7.113,0.563-9.846,0.028-12.988c-0.536-3.143-0.536-4.159-0.536-6.317
		c0-2.159,1.905-8.382,5.589-8.001c3.683,0.38,4.826,4.064,5.207,7.747c0.381,3.684,0.127,3.684,0.381,6.816
		c0.254,3.133,2.708,5.757,2.878,12.786c0.169,7.027-0.932,16.257,1.693,19.644"/>
	<path fill="#FFFFFF" stroke="#B3B3B3" stroke-width="0.5" stroke-linecap="round" d="M58.521,57.359c0,0,4.457-1.65,8.521-0.127"/>
	<path fill="#FFFFFF" stroke="#B3B3B3" stroke-width="0.5" stroke-linecap="round" d="M56.171,36.296
		c-0.424,0.713,0.57,2.072,1.501,2.41c0.932,0.34,4.148,0.594,4.912,0c0.762-0.592,1.013-2.435,0.473-2.987
		c-0.54-0.552-1.813-1.844-3.183-1.669C58.504,34.225,56.583,35.605,56.171,36.296z"/>
</g>
<g id="_x30_6_copy_2" style="display: none;">
	<linearGradient id="SVGID_17_" gradientUnits="userSpaceOnUse" x1="57.1494" y1="98.0679" x2="57.1494" y2="34.1294">
		<stop  offset="0.8259" style="stop-color:#000000"/>
		<stop  offset="1" style="stop-color:#FFFFFF"/>
	</linearGradient>
	<path opacity="0.3" fill="url(#SVGID_17_)" d="M37.643,97.696c0.707,0.259,1.505,0.388,2.378,0.37h30.933
		c3.482,0.071,5.703-2.197,5.703-5.683v-8.704c-0.011,0.001-0.022,0-0.033,0.001c-1.378-2.464-2.901-4.896-4.314-6.549
		c-0.44-3.913-0.881-8.04-1.241-9.569c-0.508-2.159-2.159-5.476-5.842-5.468c-2.627,0.005-4.028,1.175-5.501,3.284
		c-0.072-0.841-0.141-1.499-0.203-1.891c-0.381-2.413,0.149-6.256-0.274-9.644c-0.423-3.386,4.977-12.681,4.045-15.56
		c-0.346-1.07-0.775-1.905-1.259-2.538c-0.001-0.002-0.002-0.004-0.004-0.006l-0.001-0.001c-0.009-0.012-0.019-0.022-0.028-0.034
		c-0.667-0.732-0.673-1.576-2.771-1.568c-0.318-0.017-0.68-0.002-1.061,0.061c-1.15,0.137-1.978,0.513-2.362,1.163
		c-0.734,0.697-1.89,1.87-2.558,3.348c-1.609,3.562-1.975,3.772-3.12,10.258c-0.584,3.311-1.103,8.46-1.112,12.016
		c-0.006,2.359,0.027,5.442-0.22,10.874c-3.592,1.76-5.339,2.481-7.117,3.814c-2.032,1.525-2.286,6.73-2.667,12.573
		C38.747,92.295,37.994,95.249,37.643,97.696z"/>
	<path fill="#FFFFFF" stroke="#B3B3B3" stroke-linecap="round" d="M47.173,121.05c0,0-2.541-7.622-3.683-11.431
		c-1.143-3.812-3.048-9.527-3.176-11.685c-0.126-2.159,1.271-7.112,1.779-12.319c0.507-5.208,1.016-11.812,2.54-13.209
		c1.524-1.396,7.471-1.906,11.166-4.572l29.985,7.493c0,0,1.905-2.159,7.366,6.222c5.461,8.383,8.51,10.924,8.51,14.733
		s-9.399,20.321-10.923,24.768"/>
	<path fill="#FFFFFF" stroke="#B3B3B3" stroke-linecap="round" d="M94.165,88.579c0,0-2.878-2.371-4.402-5.336
		c-1.524-2.963-6.266-13.038-9.061-15.408v7.959"/>
	<path fill="#FFFFFF" stroke="#B3B3B3" stroke-linecap="round" d="M84.344,82.567c0,0-1.439-1.948-1.778-5.504
		c-0.339-3.555-1.017-13.97-1.863-17.188s-2.455-6.096-5.758-6.096c-3.302,0-6.435,1.947-8.044,5.419v13.293"/>
	<path fill="#FFFFFF" stroke="#B3B3B3" stroke-width="0.5" stroke-linecap="round" d="M50.052,78.206c0,0,1.867,1.881,3.178,3.037"
		/>
	<path fill="#FFFFFF" stroke="#B3B3B3" stroke-linecap="round" d="M48.57,96.03c0,0,3.811-6.732,4.826-16.129
		c1.016-9.4,1.524-20.561,1.397-23.554c-0.127-2.992,0.292-5.914,0.02-8.58c-0.274-2.667-0.782-2.032-0.654-5.081
		c0.126-3.048,1.143-9.017,5.715-8.509c4.572,0.508,4.572,5.588,4.953,8.255c0.381,2.668,0.254,3.683,0.762,5.969
		c0.508,2.287,3.175,8.382,3.048,11.304c-0.126,2.92-0.508,18.923,0.89,21.718"/>
	<path fill="#FFFFFF" stroke="#B3B3B3" stroke-width="0.5" stroke-linecap="round" d="M58.521,57.486c0,0,6.415-1.208,9.175,0.293"
		/>
	<path fill="#FFFFFF" stroke="#B3B3B3" stroke-width="0.5" stroke-linecap="round" d="M56.07,35.869c0,0,0.268,2.005,1.285,2.684
		c1.016,0.678,5.217,0.951,5.906-0.015c0.688-0.965,0.254-1.947,0-2.708c-0.254-0.763-1.44-1.356-3.387-1.652
		C57.926,33.88,56.595,35.202,56.07,35.869z"/>
</g>
<g id="_x30_5_copy_2" style="display: none;">
	<g>
		<defs>
			<path id="SVGID_18_" d="M76.656,92.383c0,3.485-2.22,5.754-5.703,5.683H40.021c-3.483,0.071-5.785-2.197-5.785-5.683V13.076
				c0-3.482,2.302-5.834,5.785-5.834h30.817c3.483,0,5.818,2.352,5.818,5.834V92.383z"/>
		</defs>
		<clipPath id="SVGID_19_">
			<use xlink:href="#SVGID_18_"  overflow="visible"/>
		</clipPath>
		<path opacity="0.3" clip-path="url(#SVGID_19_)" d="M44.629,124.485c0,0-6.351-19.434-6.859-23.243
			c-0.507-3.81,1.017-7.62,1.524-12.827c0.509-5.207,0.787-10.924,1.854-12.193c1.067-1.271,8.2-2.401,12.106-5.08l29.73,7.747
			c0,0,0.889-1.271,3.811,1.651c2.92,2.922,12.32,15.494,12.32,20.32c0,4.319-7.62,14.225-10.923,23.625"/>
		<linearGradient id="SVGID_20_" gradientUnits="userSpaceOnUse" x1="55.2324" y1="99.0796" x2="55.2324" y2="33.6602">
			<stop  offset="0.8" style="stop-color:#000000"/>
			<stop  offset="1" style="stop-color:#E6E6E6"/>
		</linearGradient>
		<path opacity="0.3" clip-path="url(#SVGID_19_)" fill="url(#SVGID_20_)" d="M44.881,99.08c0,0,2.794-4.954,3.938-11.812
			c1.143-6.856,0.224-24.402,0.546-28.891c0.25-3.483,0.702-5.814,1.018-9.157c0.293-3.11,0.479-6.657,1.115-9.451
			c0.634-2.794,2.794-6.351,5.969-6.097c3.175,0.254,4.598,4.373,4.966,7.33c0.369,2.958-0.786,7.149-0.277,9.688
			c0.508,2.541,0.461,6.061,0.867,8.794c0.636,4.288,1.038,22.195,2.562,24.609"/>
	</g>
	<path fill="#FFFFFF" stroke="#B3B3B3" stroke-linecap="round" d="M47.173,121.05c0,0-6.351-19.433-6.859-23.243
		c-0.507-3.809,1.017-7.619,1.525-12.826s0.787-10.924,1.854-12.193c1.067-1.271,8.199-2.402,12.105-5.08l29.731,7.747
		c0,0,0.889-1.271,3.81,1.65c2.92,2.923,12.32,15.495,12.32,20.321c0,4.318-7.62,14.225-10.923,23.624"/>
	<path fill="#FFFFFF" stroke="#B3B3B3" stroke-linecap="round" d="M93.573,88.916c0,0-3.726-4.57-5.334-7.956
		c-1.608-3.388-4.402-10.078-7.451-13.252v9.355"/>
	<path fill="#FFFFFF" stroke="#B3B3B3" stroke-linecap="round" d="M84.259,82.737c0,0-1.016-1.738-1.439-4.426
		c-0.423-2.688-1.439-14.118-2.54-18.605c-1.101-4.488-2.878-5.165-5.588-5.419c-2.71-0.254-6.097,1.948-7.027,3.726V72.66"/>
	<path fill="#FFFFFF" stroke="#B3B3B3" stroke-width="0.5" stroke-linecap="round" d="M48.824,78.311c0,0,3.458,1.795,4.333,3.787"
		/>
	<path fill="#FFFFFF" stroke="#B3B3B3" stroke-linecap="round" d="M48.824,96.663c0,0,2.794-4.953,3.938-11.811
		s2.667-26.619,2.159-30.074c-0.508-3.455,0.709-4.947,0.101-8.011c-0.609-3.064-1.117-6.621-0.482-9.415s2.795-6.351,5.97-6.097
		s4.598,4.373,4.965,7.33c0.37,2.958,0.115,7.149,0.623,9.688c0.509,2.541,2.262,6.061,2.667,8.794
		c0.636,4.288-0.762,22.195,0.763,24.608"/>
	<path fill="#FFFFFF" stroke="#B3B3B3" stroke-width="0.5" stroke-linecap="round" d="M58.648,57.232c0,0,7.297-1.332,9.469,0.105"
		/>
	<path fill="#FFFFFF" stroke="#B3B3B3" stroke-width="0.5" stroke-linecap="round" d="M56.75,32.965
		c-0.694,0.851,0.499,3.202,1.346,3.542c0.847,0.338,4.348,0.592,5.011,0c0.662-0.593,0.929-1.733,0.626-3.11
		c-0.303-1.378-1.476-1.997-3.429-2.153C58.35,31.087,57.308,32.282,56.75,32.965z"/>
</g>
<g id="_x30_4_copy_2" style="display: none;">
	<g>
		<defs>
			<path id="SVGID_21_" d="M76.656,92.383c0,3.485-2.22,5.754-5.703,5.683H40.021c-3.483,0.071-5.785-2.197-5.785-5.683V13.076
				c0-3.482,2.302-5.834,5.785-5.834h30.817c3.483,0,5.818,2.352,5.818,5.834V92.383z"/>
		</defs>
		<clipPath id="SVGID_22_">
			<use xlink:href="#SVGID_21_"  overflow="visible"/>
		</clipPath>
		<path opacity="0.3" clip-path="url(#SVGID_22_)" d="M44.629,124.485c0,0-6.351-19.434-6.859-23.243
			c-0.507-3.81,1.017-7.62,1.524-12.827c0.509-5.207,0.787-10.924,1.854-12.193c1.067-1.271,8.2-2.401,12.106-5.08l29.73,7.747
			c0,0,0.889-1.271,3.811,1.651c2.92,2.922,12.32,15.494,12.32,20.32c0,4.319-7.62,14.225-10.923,23.625"/>
		<linearGradient id="SVGID_23_" gradientUnits="userSpaceOnUse" x1="53.3882" y1="100.5962" x2="53.3882" y2="34.4741">
			<stop  offset="0.65" style="stop-color:#000000"/>
			<stop  offset="1" style="stop-color:#E6E6E6"/>
		</linearGradient>
		<path opacity="0.3" clip-path="url(#SVGID_22_)" fill="url(#SVGID_23_)" d="M42.973,100.596c1.779-2.158,3.877-6.403,4.954-17.398
			c1.077-10.995,1.524-22.048,1.271-24.741c-0.254-2.693,0.866-6.132,0.75-8.349c-0.116-2.219-1.259-4.035-0.878-6.873
			c0.381-2.839,1.525-8.712,5.715-8.76c4.191-0.047,4.7,3.521,5.335,6.436c0.635,2.915,0.127,8.335,0.635,10.642
			c0.507,2.307,2.249,7.579,2.413,9.196c0.253,2.51-0.89,22.705,0.635,24.99"/>
	</g>
	<path fill="#FFFFFF" stroke="#B3B3B3" stroke-linecap="round" d="M46.919,121.05c0,0-6.731-19.94-6.731-22.989
		c0-3.047,0.762-5.714,1.651-12.445c0.889-6.732,0.635-10.283,1.714-12.064c1.08-1.781,12.245-5.336,12.245-5.336l29.604,7.239
		c0,0,1.778-1.017,3.557,1.144c1.778,2.158,12.701,16.829,12.701,20.639s-9.11,19.133-10.923,23.813"/>
	<path fill="#FFFFFF" stroke="#B3B3B3" stroke-linecap="round" d="M93.996,89.51c0,0-3.387-3.725-5.334-7.789
		s-6.097-12.449-8.722-13.887l0.339,10.838"/>
	<path fill="#FFFFFF" stroke="#B3B3B3" stroke-linecap="round" d="M84.175,83.668c0,0-0.876-2.006-1.44-5.504
		c-0.562-3.5-1.608-15.581-2.794-19.221c-1.185-3.641-3.218-4.233-5.757-4.402c-2.541-0.17-6.351,2.878-6.858,3.471
		c-0.508,0.593,0,15.834,0,15.834"/>
	<path fill="#FFFFFF" stroke="#B3B3B3" stroke-width="0.5" stroke-linecap="round" d="M50.475,78.672c0,0,2.135,1.404,3.1,2.734"/>
	<path fill="#FFFFFF" stroke="#B3B3B3" stroke-linecap="round" d="M48.824,96.918c1.778-2.158,3.877-6.404,4.954-17.4
		c1.077-10.994,1.524-22.047,1.271-24.74c-0.254-2.693,0.866-6.132,0.75-8.349c-0.116-2.219-1.259-4.035-0.878-6.873
		c0.381-2.838,1.525-8.712,5.715-8.76c4.191-0.047,4.7,3.521,5.334,6.436c0.636,2.915,0.127,8.335,0.636,10.642
		c0.507,2.307,2.249,7.579,2.413,9.196c0.253,2.51-0.89,22.705,0.634,24.99"/>
	<path fill="#FFFFFF" stroke="#B3B3B3" stroke-width="0.5" stroke-linecap="round" d="M57.073,32.86
		c0.214,1.26,1.277,2.376,2.166,2.714c0.889,0.339,4.107,0.508,4.869,0c0.762-0.508,0.876-2.664,0-3.409
		c-0.876-0.745-1.355-1.321-3.472-1.37C58.519,30.748,57.002,32.447,57.073,32.86z"/>
	<path fill="#FFFFFF" stroke="#B3B3B3" stroke-width="0.5" stroke-linecap="round" d="M59.285,56.42c0,0,7.062-1.118,8.971-0.102"/>
</g>
<g id="_x30_4_copy" style="display: none;">
	<g>
		<defs>
			<path id="SVGID_24_" d="M76.656,92.383c0,3.485-2.22,5.754-5.703,5.683H40.021c-3.483,0.071-5.785-2.197-5.785-5.683V13.076
				c0-3.482,2.302-5.834,5.785-5.834h30.817c3.483,0,5.818,2.352,5.818,5.834V92.383z"/>
		</defs>
		<clipPath id="SVGID_25_">
			<use xlink:href="#SVGID_24_"  overflow="visible"/>
		</clipPath>
		<path opacity="0.3" clip-path="url(#SVGID_25_)" d="M44.629,124.485c0,0-6.351-19.434-6.859-23.243
			c-0.507-3.81,1.017-7.62,1.524-12.827c0.509-5.207,0.787-10.924,1.854-12.193c1.067-1.271,8.2-2.401,12.106-5.08l29.73,7.747
			c0,0,0.889-1.271,3.811,1.651c2.92,2.922,12.32,15.494,12.32,20.32c0,4.319-7.62,14.225-10.923,23.625"/>
		<linearGradient id="SVGID_26_" gradientUnits="userSpaceOnUse" x1="53.3882" y1="100.5962" x2="53.3882" y2="34.4741">
			<stop  offset="0.65" style="stop-color:#000000"/>
			<stop  offset="1" style="stop-color:#E6E6E6"/>
		</linearGradient>
		<path opacity="0.3" clip-path="url(#SVGID_25_)" fill="url(#SVGID_26_)" d="M42.973,100.596c1.779-2.158,3.877-6.403,4.954-17.398
			c1.077-10.995,1.524-22.048,1.271-24.741c-0.254-2.693,0.866-6.132,0.75-8.349c-0.116-2.219-1.259-4.035-0.878-6.873
			c0.381-2.839,1.525-8.712,5.715-8.76c4.191-0.047,4.7,3.521,5.335,6.436c0.635,2.915,0.127,8.335,0.635,10.642
			c0.507,2.307,2.249,7.579,2.413,9.196c0.253,2.51-0.89,22.705,0.635,24.99"/>
	</g>
	<g opacity="0.2">
		<path fill="#80AADA" d="M59.708,29.439c4.593,0,8.33,3.737,8.33,8.33c0,4.593-3.737,8.33-8.33,8.33s-8.33-3.737-8.33-8.33
			C51.378,33.176,55.115,29.439,59.708,29.439 M59.708,27.439c-5.706,0-10.33,4.625-10.33,10.33s4.625,10.33,10.33,10.33
			c5.704,0,10.33-4.626,10.33-10.33S65.412,27.439,59.708,27.439L59.708,27.439z"/>
	</g>
	<path fill="#FFFFFF" stroke="#B3B3B3" stroke-linecap="round" d="M46.919,121.05c0,0-6.731-19.94-6.731-22.989
		c0-3.047,0.762-5.714,1.651-12.445c0.889-6.732,0.635-10.283,1.714-12.064c1.08-1.781,12.245-5.336,12.245-5.336l29.604,7.239
		c0,0,1.778-1.017,3.557,1.144c1.778,2.158,12.701,16.829,12.701,20.639s-9.11,19.133-10.923,23.813"/>
	<path fill="#FFFFFF" stroke="#B3B3B3" stroke-linecap="round" d="M93.996,89.51c0,0-3.387-3.725-5.334-7.789
		s-6.097-12.449-8.722-13.887l0.339,10.838"/>
	<path fill="#FFFFFF" stroke="#B3B3B3" stroke-linecap="round" d="M84.175,83.668c0,0-0.876-2.006-1.44-5.504
		c-0.562-3.5-1.608-15.581-2.794-19.221c-1.185-3.641-3.218-4.233-5.757-4.402c-2.541-0.17-6.351,2.878-6.858,3.471
		c-0.508,0.593,0,15.834,0,15.834"/>
	<path fill="#FFFFFF" stroke="#B3B3B3" stroke-width="0.5" stroke-linecap="round" d="M50.475,78.672c0,0,2.135,1.404,3.1,2.734"/>
	<path fill="#FFFFFF" stroke="#B3B3B3" stroke-linecap="round" d="M48.824,96.918c1.778-2.158,3.877-6.404,4.954-17.4
		c1.077-10.994,1.524-22.047,1.271-24.74c-0.254-2.693,0.866-6.132,0.75-8.349c-0.116-2.219-1.259-4.035-0.878-6.873
		c0.381-2.838,1.525-8.712,5.715-8.76c4.191-0.047,4.7,3.521,5.334,6.436c0.636,2.915,0.127,8.335,0.636,10.642
		c0.507,2.307,2.249,7.579,2.413,9.196c0.253,2.51-0.89,22.705,0.634,24.99"/>
	<path fill="#FFFFFF" stroke="#B3B3B3" stroke-width="0.5" stroke-linecap="round" d="M57.073,32.86
		c0.214,1.26,1.277,2.376,2.166,2.714c0.889,0.339,4.107,0.508,4.869,0c0.762-0.508,0.876-2.664,0-3.409
		c-0.876-0.745-1.355-1.321-3.472-1.37C58.519,30.748,57.002,32.447,57.073,32.86z"/>
	<path fill="#FFFFFF" stroke="#B3B3B3" stroke-width="0.5" stroke-linecap="round" d="M59.285,56.42c0,0,7.062-1.118,8.971-0.102"/>
</g>
<g id="_x30_5_copy" style="display: none;">
	<g>
		<defs>
			<path id="SVGID_27_" d="M76.656,92.383c0,3.485-2.22,5.754-5.703,5.683H40.021c-3.483,0.071-5.785-2.197-5.785-5.683V13.076
				c0-3.482,2.302-5.834,5.785-5.834h30.817c3.483,0,5.818,2.352,5.818,5.834V92.383z"/>
		</defs>
		<clipPath id="SVGID_28_">
			<use xlink:href="#SVGID_27_"  overflow="visible"/>
		</clipPath>
		<path opacity="0.3" clip-path="url(#SVGID_28_)" d="M44.629,124.485c0,0-6.351-19.434-6.859-23.243
			c-0.507-3.81,1.017-7.62,1.524-12.827c0.509-5.207,0.787-10.924,1.854-12.193c1.067-1.271,8.2-2.401,12.106-5.08l29.73,7.747
			c0,0,0.889-1.271,3.811,1.651c2.92,2.922,12.32,15.494,12.32,20.32c0,4.319-7.62,14.225-10.923,23.625"/>
		<linearGradient id="SVGID_29_" gradientUnits="userSpaceOnUse" x1="55.2324" y1="99.0796" x2="55.2324" y2="33.6602">
			<stop  offset="0.8" style="stop-color:#000000"/>
			<stop  offset="1" style="stop-color:#E6E6E6"/>
		</linearGradient>
		<path opacity="0.3" clip-path="url(#SVGID_28_)" fill="url(#SVGID_29_)" d="M44.881,99.08c0,0,2.794-4.954,3.938-11.812
			c1.143-6.856,0.224-24.402,0.546-28.891c0.25-3.483,0.702-5.814,1.018-9.157c0.293-3.11,0.479-6.657,1.115-9.451
			c0.634-2.794,2.794-6.351,5.969-6.097c3.175,0.254,4.598,4.373,4.966,7.33c0.369,2.958-0.786,7.149-0.277,9.688
			c0.508,2.541,0.461,6.061,0.867,8.794c0.636,4.288,1.038,22.195,2.562,24.609"/>
	</g>
	<g opacity="0.4">
		<path fill="#80AADA" d="M59.708,30.227c4.159,0,7.542,3.383,7.542,7.542s-3.383,7.542-7.542,7.542s-7.542-3.384-7.542-7.542
			S55.549,30.227,59.708,30.227 M59.708,28.227c-5.271,0-9.542,4.273-9.542,9.542s4.272,9.542,9.542,9.542
			c5.269,0,9.542-4.273,9.542-9.542S64.977,28.227,59.708,28.227L59.708,28.227z"/>
	</g>
	<path fill="#FFFFFF" stroke="#B3B3B3" stroke-linecap="round" d="M47.173,121.05c0,0-6.351-19.433-6.859-23.243
		c-0.507-3.809,1.017-7.619,1.525-12.826s0.787-10.924,1.854-12.193c1.067-1.271,8.199-2.402,12.105-5.08l29.731,7.747
		c0,0,0.889-1.271,3.81,1.65c2.92,2.923,12.32,15.495,12.32,20.321c0,4.318-7.62,14.225-10.923,23.624"/>
	<path fill="#FFFFFF" stroke="#B3B3B3" stroke-linecap="round" d="M93.573,88.916c0,0-3.726-4.57-5.334-7.956
		c-1.608-3.388-4.402-10.078-7.451-13.252v9.355"/>
	<path fill="#FFFFFF" stroke="#B3B3B3" stroke-linecap="round" d="M84.259,82.737c0,0-1.016-1.738-1.439-4.426
		c-0.423-2.688-1.439-14.118-2.54-18.605c-1.101-4.488-2.878-5.165-5.588-5.419c-2.71-0.254-6.097,1.948-7.027,3.726V72.66"/>
	<path fill="#FFFFFF" stroke="#B3B3B3" stroke-width="0.5" stroke-linecap="round" d="M48.824,78.311c0,0,3.458,1.795,4.333,3.787"
		/>
	<path fill="#FFFFFF" stroke="#B3B3B3" stroke-linecap="round" d="M48.824,96.663c0,0,2.794-4.953,3.938-11.811
		s2.667-26.619,2.159-30.074c-0.508-3.455,0.709-4.947,0.101-8.011c-0.609-3.064-1.117-6.621-0.482-9.415s2.795-6.351,5.97-6.097
		s4.598,4.373,4.965,7.33c0.37,2.958,0.115,7.149,0.623,9.688c0.509,2.541,2.262,6.061,2.667,8.794
		c0.636,4.288-0.762,22.195,0.763,24.608"/>
	<path fill="#FFFFFF" stroke="#B3B3B3" stroke-width="0.5" stroke-linecap="round" d="M58.648,57.232c0,0,7.297-1.332,9.469,0.105"
		/>
	<path fill="#FFFFFF" stroke="#B3B3B3" stroke-width="0.5" stroke-linecap="round" d="M56.75,32.965
		c-0.694,0.851,0.499,3.202,1.346,3.542c0.847,0.338,4.348,0.592,5.011,0c0.662-0.593,0.929-1.733,0.626-3.11
		c-0.303-1.378-1.476-1.997-3.429-2.153C58.35,31.087,57.308,32.282,56.75,32.965z"/>
</g>
<g id="_x30_6_copy" style="display: none;">
	<linearGradient id="SVGID_30_" gradientUnits="userSpaceOnUse" x1="57.1494" y1="98.0679" x2="57.1494" y2="34.1294">
		<stop  offset="0.8259" style="stop-color:#000000"/>
		<stop  offset="1" style="stop-color:#FFFFFF"/>
	</linearGradient>
	<path opacity="0.3" fill="url(#SVGID_30_)" d="M37.643,97.696c0.707,0.259,1.505,0.388,2.378,0.37h30.933
		c3.482,0.071,5.703-2.197,5.703-5.683v-8.704c-0.011,0.001-0.022,0-0.033,0.001c-1.378-2.464-2.901-4.896-4.314-6.549
		c-0.44-3.913-0.881-8.04-1.241-9.569c-0.508-2.159-2.159-5.476-5.842-5.468c-2.627,0.005-4.028,1.175-5.501,3.284
		c-0.072-0.841-0.141-1.499-0.203-1.891c-0.381-2.413,0.149-6.256-0.274-9.644c-0.423-3.386,4.977-12.681,4.045-15.56
		c-0.346-1.07-0.775-1.905-1.259-2.538c-0.001-0.002-0.002-0.004-0.004-0.006l-0.001-0.001c-0.009-0.012-0.019-0.022-0.028-0.034
		c-0.667-0.732-0.673-1.576-2.771-1.568c-0.318-0.017-0.68-0.002-1.061,0.061c-1.15,0.137-1.978,0.513-2.362,1.163
		c-0.734,0.697-1.89,1.87-2.558,3.348c-1.609,3.562-1.975,3.772-3.12,10.258c-0.584,3.311-1.103,8.46-1.112,12.016
		c-0.006,2.359,0.027,5.442-0.22,10.874c-3.592,1.76-5.339,2.481-7.117,3.814c-2.032,1.525-2.286,6.73-2.667,12.573
		C38.747,92.295,37.994,95.249,37.643,97.696z"/>
	<g opacity="0.6">
		<path fill="#80AADA" d="M59.708,31.014c3.725,0,6.755,3.03,6.755,6.755s-3.03,6.755-6.755,6.755s-6.755-3.03-6.755-6.755
			S55.983,31.014,59.708,31.014 M59.708,29.014c-4.835,0-8.755,3.92-8.755,8.755s3.919,8.755,8.755,8.755
			c4.834,0,8.755-3.92,8.755-8.755S64.542,29.014,59.708,29.014L59.708,29.014z"/>
	</g>
	<path fill="#FFFFFF" stroke="#B3B3B3" stroke-linecap="round" d="M47.173,121.05c0,0-2.541-7.622-3.683-11.431
		c-1.143-3.812-3.048-9.527-3.176-11.685c-0.126-2.159,1.271-7.112,1.779-12.319c0.507-5.208,1.016-11.812,2.54-13.209
		c1.524-1.396,7.471-1.906,11.166-4.572l29.985,7.493c0,0,1.905-2.159,7.366,6.222c5.461,8.383,8.51,10.924,8.51,14.733
		s-9.399,20.321-10.923,24.768"/>
	<path fill="#FFFFFF" stroke="#B3B3B3" stroke-linecap="round" d="M94.165,88.579c0,0-2.878-2.371-4.402-5.336
		c-1.524-2.963-6.266-13.038-9.061-15.408v7.959"/>
	<path fill="#FFFFFF" stroke="#B3B3B3" stroke-linecap="round" d="M84.344,82.567c0,0-1.439-1.948-1.778-5.504
		c-0.339-3.555-1.017-13.97-1.863-17.188s-2.455-6.096-5.758-6.096c-3.302,0-6.435,1.947-8.044,5.419v13.293"/>
	<path fill="#FFFFFF" stroke="#B3B3B3" stroke-width="0.5" stroke-linecap="round" d="M50.052,78.206c0,0,1.867,1.881,3.178,3.037"
		/>
	<path fill="#FFFFFF" stroke="#B3B3B3" stroke-linecap="round" d="M48.57,96.03c0,0,3.811-6.732,4.826-16.129
		c1.016-9.4,1.524-20.561,1.397-23.554c-0.127-2.992,0.292-5.914,0.02-8.58c-0.274-2.667-0.782-2.032-0.654-5.081
		c0.126-3.048,1.143-9.017,5.715-8.509c4.572,0.508,4.572,5.588,4.953,8.255c0.381,2.668,0.254,3.683,0.762,5.969
		c0.508,2.287,3.175,8.382,3.048,11.304c-0.126,2.92-0.508,18.923,0.89,21.718"/>
	<path fill="#FFFFFF" stroke="#B3B3B3" stroke-width="0.5" stroke-linecap="round" d="M58.521,57.486c0,0,6.415-1.208,9.175,0.293"
		/>
	<path fill="#FFFFFF" stroke="#B3B3B3" stroke-width="0.5" stroke-linecap="round" d="M56.07,35.869c0,0,0.268,2.005,1.285,2.684
		c1.016,0.678,5.217,0.951,5.906-0.015c0.688-0.965,0.254-1.947,0-2.708c-0.254-0.763-1.44-1.356-3.387-1.652
		C57.926,33.88,56.595,35.202,56.07,35.869z"/>
</g>
<g id="_x30_7_copy" style="display: none;">
	<linearGradient id="SVGID_31_" gradientUnits="userSpaceOnUse" x1="57.1494" y1="98.0679" x2="57.1494" y2="34.1294">
		<stop  offset="0.75" style="stop-color:#000000"/>
		<stop  offset="1" style="stop-color:#231F20"/>
	</linearGradient>
	<path opacity="0.3" fill="url(#SVGID_31_)" d="M37.643,97.696c0.707,0.259,1.505,0.388,2.378,0.37h30.933
		c3.482,0.071,5.703-2.197,5.703-5.683v-8.704c-0.011,0.001-0.022,0-0.033,0.001c-1.378-2.464-2.901-4.896-4.314-6.549
		c-0.44-3.913-0.881-8.04-1.241-9.569c-0.508-2.159-2.159-5.476-5.842-5.468c-2.627,0.005-4.028,1.175-5.501,3.284
		c-0.072-0.841-0.141-1.499-0.203-1.891c-0.381-2.413,0.149-6.256-0.274-9.644c-0.423-3.386,4.977-12.681,4.045-15.56
		c-0.346-1.07-0.775-1.905-1.259-2.538c-0.001-0.002-0.002-0.004-0.004-0.006l-0.001-0.001c-0.009-0.012-0.019-0.022-0.028-0.034
		c-0.667-0.732-0.673-1.576-2.771-1.568c-0.318-0.017-0.68-0.002-1.061,0.061c-1.15,0.137-1.978,0.513-2.362,1.163
		c-0.734,0.697-1.89,1.87-2.558,3.348c-1.609,3.562-1.975,3.772-3.12,10.258c-0.584,3.311-1.103,8.46-1.112,12.016
		c-0.006,2.359,0.027,5.442-0.22,10.874c-3.592,1.76-5.339,2.481-7.117,3.814c-2.032,1.525-2.286,6.73-2.667,12.573
		C38.747,92.295,37.994,95.249,37.643,97.696z"/>
	<g opacity="0.8">
		<path fill="#80AADA" d="M59.708,33.046c2.604,0,4.723,2.119,4.723,4.723s-2.119,4.723-4.723,4.723
			c-2.604,0-4.723-2.119-4.723-4.723S57.104,33.046,59.708,33.046 M59.708,31.046c-3.713,0-6.723,3.01-6.723,6.723
			s3.01,6.723,6.723,6.723c3.712,0,6.723-3.01,6.723-6.723S63.42,31.046,59.708,31.046L59.708,31.046z"/>
	</g>
	<path fill="#FFFFFF" stroke="#B3B3B3" stroke-linecap="round" d="M47.173,121.05c0,0-3.683-10.415-4.699-14.226
		c-1.017-3.81-1.778-6.858-2.287-9.906c-0.508-3.049,1.27-7.366,1.906-12.953c0.634-5.59,0.762-9.908,2.286-11.939
		c1.524-2.032,6.35-1.271,12.446-4.191l26.799,8.128c0,0,1.777-1.524,4.064-0.508c2.287,1.016,4.318,3.683,7.239,8.129
		c2.921,4.444,6.731,8.89,6.731,12.699s-8.637,17.655-11.177,24.768"/>
	<path fill="#FFFFFF" stroke="#B3B3B3" stroke-linecap="round" d="M94.419,88.772c0,0-3.302-3.41-5.208-6.84
		c-1.905-3.431-6.604-13.68-9.144-15.16c-2.541-1.478-5.588,10.964-5.588,10.964"/>
	<path fill="#FFFFFF" stroke="#B3B3B3" stroke-linecap="round" d="M84.45,82.821c0,0-2.35-4.699-2.731-12.32
		c-0.381-7.62-1.778-17.625-7.239-17.068c-5.461,0.558-7.189,5.04-8.383,10.946c-1.193,5.907,0,18.442,0,18.442"/>
	<path fill="#FFFFFF" stroke="#B3B3B3" stroke-width="0.5" stroke-linecap="round" d="M48.952,77.711c0,0,2.605,1.817,4.012,3.082"
		/>
	<path fill="#FFFFFF" stroke="#B3B3B3" stroke-linecap="round" d="M48.952,95.776c0,0,2.54-4.445,3.556-11.811
		c1.016-7.367,2.54-15.496,2.286-22.608c-0.254-7.113,0.563-9.846,0.028-12.988c-0.536-3.143-0.536-4.159-0.536-6.317
		c0-2.159,1.905-8.382,5.589-8.001c3.683,0.38,4.826,4.064,5.207,7.747c0.381,3.684,0.127,3.684,0.381,6.816
		c0.254,3.133,2.708,5.757,2.878,12.786c0.169,7.027-0.932,16.257,1.693,19.644"/>
	<path fill="#FFFFFF" stroke="#B3B3B3" stroke-width="0.5" stroke-linecap="round" d="M58.521,57.359c0,0,4.457-1.65,8.521-0.127"/>
	<path fill="#FFFFFF" stroke="#B3B3B3" stroke-width="0.5" stroke-linecap="round" d="M56.171,36.296
		c-0.424,0.713,0.57,2.072,1.501,2.41c0.932,0.34,4.148,0.594,4.912,0c0.762-0.592,1.013-2.435,0.473-2.987
		c-0.54-0.552-1.813-1.844-3.183-1.669C58.504,34.225,56.583,35.605,56.171,36.296z"/>
</g>
<g id="_x30_8_1_" style="display: none;">
	<linearGradient id="SVGID_32_" gradientUnits="userSpaceOnUse" x1="57.1494" y1="98.0679" x2="57.1494" y2="34.1294">
		<stop  offset="0.75" style="stop-color:#000000"/>
		<stop  offset="1" style="stop-color:#231F20"/>
	</linearGradient>
	<path opacity="0.3" fill="url(#SVGID_32_)" d="M37.643,97.696c0.707,0.259,1.505,0.388,2.378,0.37h30.933
		c3.482,0.071,5.703-2.197,5.703-5.683v-8.704c-0.011,0.001-0.022,0-0.033,0.001c-1.378-2.464-2.901-4.896-4.314-6.549
		c-0.44-3.913-0.881-8.04-1.241-9.569c-0.508-2.159-2.159-5.476-5.842-5.468c-2.627,0.005-4.028,1.175-5.501,3.284
		c-0.072-0.841-0.141-1.499-0.203-1.891c-0.381-2.413,0.149-6.256-0.274-9.644c-0.423-3.386,4.977-12.681,4.045-15.56
		c-0.346-1.07-0.775-1.905-1.259-2.538c-0.001-0.002-0.002-0.004-0.004-0.006l-0.001-0.001c-0.009-0.012-0.019-0.022-0.028-0.034
		c-0.667-0.732-0.673-1.576-2.771-1.568c-0.318-0.017-0.68-0.002-1.061,0.061c-1.15,0.137-1.978,0.513-2.362,1.163
		c-0.734,0.697-1.89,1.87-2.558,3.348c-1.609,3.562-1.975,3.772-3.12,10.258c-0.584,3.311-1.103,8.46-1.112,12.016
		c-0.006,2.359,0.027,5.442-0.22,10.874c-3.592,1.76-5.339,2.481-7.117,3.814c-2.032,1.525-2.286,6.73-2.667,12.573
		C38.747,92.295,37.994,95.249,37.643,97.696z"/>
	<circle fill="#80AADA" cx="59.708" cy="37.769" r="6.723"/>
	<path fill="#FFFFFF" stroke="#B3B3B3" stroke-linecap="round" d="M47.3,121.05c0,0-3.557-9.399-4.573-13.844
		c-1.016-4.445-2.286-7.621-2.54-10.669c-0.254-3.05,1.143-6.605,1.524-12.447s0.635-11.048,2.667-12.573
		c2.032-1.523,7.725-1.27,11.419-3.937l27.445,8.254c0,0,1.905-2.031,4.445-0.762c2.54,1.271,2.54,2.16,6.477,7.367
		c3.938,5.207,7.494,10.033,7.494,13.843s-8.891,17.655-11.177,24.768"/>
	<path fill="#FFFFFF" stroke="#B3B3B3" stroke-linecap="round" d="M94.8,88.579c0,0-3.429-2.328-5.715-7.154
		c-2.286-4.826-7.62-15.241-10.667-15.369C75.368,65.929,76.13,76.47,76.13,76.47"/>
	<path fill="#FFFFFF" stroke="#B3B3B3" stroke-linecap="round" d="M84.259,81.677c0,0-1.812-4.414-2.413-9.018
		c-0.602-4.601-1.27-11.938-1.778-14.098c-0.508-2.159-2.159-5.476-5.842-5.468s-6.731,4.071-7.747,6.612
		c-1.016,2.539-2.033,12.701-2.033,12.701"/>
	
		<line fill="#FFFFFF" stroke="#B3B3B3" stroke-width="0.5" stroke-linecap="round" x1="49.036" y1="76.894" x2="52.538" y2="80.407"/>
	<path fill="#FFFFFF" stroke="#B3B3B3" stroke-linecap="round" d="M70.034,80.915c0,0-1.143-1.141-1.27-5.969
		c-0.127-4.826-0.762-17.146-1.143-19.559c-0.381-2.413-1.651-3.556-2.074-6.943c-0.423-3.386-0.423-7.281-1.355-10.16
		c-0.931-2.879-2.455-4.064-4.063-4.148c-1.609-0.084-4.318,0.592-5.08,4.571c-0.763,3.979-0.424,5.843-0.424,8.383
		c0,2.541-0.065,4.234-0.075,7.79c-0.01,3.556,0.076,14.903-0.856,21.083s-2.202,16.85-4.149,18.543"/>
	<path fill="#FFFFFF" stroke="#B3B3B3" stroke-width="0.5" stroke-linecap="round" d="M57.109,38.346
		c0.4,0.736,2.523,0.627,3.793,0.712c1.27,0.086,2.206-0.554,2.206-0.554s0.52-2.024-0.179-2.764c-0.699-0.74-0.668-1.612-2.8-1.604
		C57.046,34.146,55.5,35.381,57.109,38.346z"/>
	<path fill="#FFFFFF" stroke="#B3B3B3" stroke-width="0.5" stroke-linecap="round" d="M58.521,57.359c0,0,4.457-1.65,8.521-0.127"/>
</g>
<g id="_x30_7_1_" style="display: none;">
	<linearGradient id="SVGID_33_" gradientUnits="userSpaceOnUse" x1="57.1494" y1="98.0679" x2="57.1494" y2="34.1294">
		<stop  offset="0.75" style="stop-color:#000000"/>
		<stop  offset="1" style="stop-color:#231F20"/>
	</linearGradient>
	<path opacity="0.3" fill="url(#SVGID_33_)" d="M37.643,97.696c0.707,0.259,1.505,0.388,2.378,0.37h30.933
		c3.482,0.071,5.703-2.197,5.703-5.683v-8.704c-0.011,0.001-0.022,0-0.033,0.001c-1.378-2.464-2.901-4.896-4.314-6.549
		c-0.44-3.913-0.881-8.04-1.241-9.569c-0.508-2.159-2.159-5.476-5.842-5.468c-2.627,0.005-4.028,1.175-5.501,3.284
		c-0.072-0.841-0.141-1.499-0.203-1.891c-0.381-2.413,0.149-6.256-0.274-9.644c-0.423-3.386,4.977-12.681,4.045-15.56
		c-0.346-1.07-0.775-1.905-1.259-2.538c-0.001-0.002-0.002-0.004-0.004-0.006l-0.001-0.001c-0.009-0.012-0.019-0.022-0.028-0.034
		c-0.667-0.732-0.673-1.576-2.771-1.568c-0.318-0.017-0.68-0.002-1.061,0.061c-1.15,0.137-1.978,0.513-2.362,1.163
		c-0.734,0.697-1.89,1.87-2.558,3.348c-1.609,3.562-1.975,3.772-3.12,10.258c-0.584,3.311-1.103,8.46-1.112,12.016
		c-0.006,2.359,0.027,5.442-0.22,10.874c-3.592,1.76-5.339,2.481-7.117,3.814c-2.032,1.525-2.286,6.73-2.667,12.573
		C38.747,92.295,37.994,95.249,37.643,97.696z"/>
	<circle fill="#80AADA" cx="59.708" cy="37.769" r="6.723"/>
	<path fill="#FFFFFF" stroke="#B3B3B3" stroke-linecap="round" d="M47.173,121.05c0,0-3.683-10.415-4.699-14.226
		c-1.017-3.81-1.778-6.858-2.287-9.906c-0.508-3.049,1.27-7.366,1.906-12.953c0.634-5.59,0.762-9.908,2.286-11.939
		c1.524-2.032,6.35-1.271,12.446-4.191l26.799,8.128c0,0,1.777-1.524,4.064-0.508c2.287,1.016,4.318,3.683,7.239,8.129
		c2.921,4.444,6.731,8.89,6.731,12.699s-8.637,17.655-11.177,24.768"/>
	<path fill="#FFFFFF" stroke="#B3B3B3" stroke-linecap="round" d="M94.419,88.772c0,0-3.302-3.41-5.208-6.84
		c-1.905-3.431-6.604-13.68-9.144-15.16c-2.541-1.478-5.588,10.964-5.588,10.964"/>
	<path fill="#FFFFFF" stroke="#B3B3B3" stroke-linecap="round" d="M84.45,82.821c0,0-2.35-4.699-2.731-12.32
		c-0.381-7.62-1.778-17.625-7.239-17.068c-5.461,0.558-7.189,5.04-8.383,10.946c-1.193,5.907,0,18.442,0,18.442"/>
	<path fill="#FFFFFF" stroke="#B3B3B3" stroke-width="0.5" stroke-linecap="round" d="M48.952,77.711c0,0,2.605,1.817,4.012,3.082"
		/>
	<path fill="#FFFFFF" stroke="#B3B3B3" stroke-linecap="round" d="M48.952,95.776c0,0,2.54-4.445,3.556-11.811
		c1.016-7.367,2.54-15.496,2.286-22.608c-0.254-7.113,0.563-9.846,0.028-12.988c-0.536-3.143-0.536-4.159-0.536-6.317
		c0-2.159,1.905-8.382,5.589-8.001c3.683,0.38,4.826,4.064,5.207,7.747c0.381,3.684,0.127,3.684,0.381,6.816
		c0.254,3.133,2.708,5.757,2.878,12.786c0.169,7.027-0.932,16.257,1.693,19.644"/>
	<path fill="#FFFFFF" stroke="#B3B3B3" stroke-width="0.5" stroke-linecap="round" d="M58.521,57.359c0,0,4.457-1.65,8.521-0.127"/>
	<path fill="#FFFFFF" stroke="#B3B3B3" stroke-width="0.5" stroke-linecap="round" d="M56.171,36.296
		c-0.424,0.713,0.57,2.072,1.501,2.41c0.932,0.34,4.148,0.594,4.912,0c0.762-0.592,1.013-2.435,0.473-2.987
		c-0.54-0.552-1.813-1.844-3.183-1.669C58.504,34.225,56.583,35.605,56.171,36.296z"/>
</g>
<g id="_x30_6_1_" style="display: none;">
	<linearGradient id="SVGID_34_" gradientUnits="userSpaceOnUse" x1="57.1494" y1="98.0679" x2="57.1494" y2="34.1294">
		<stop  offset="0.8259" style="stop-color:#000000"/>
		<stop  offset="1" style="stop-color:#FFFFFF"/>
	</linearGradient>
	<path opacity="0.3" fill="url(#SVGID_34_)" d="M37.643,97.696c0.707,0.259,1.505,0.388,2.378,0.37h30.933
		c3.482,0.071,5.703-2.197,5.703-5.683v-8.704c-0.011,0.001-0.022,0-0.033,0.001c-1.378-2.464-2.901-4.896-4.314-6.549
		c-0.44-3.913-0.881-8.04-1.241-9.569c-0.508-2.159-2.159-5.476-5.842-5.468c-2.627,0.005-4.028,1.175-5.501,3.284
		c-0.072-0.841-0.141-1.499-0.203-1.891c-0.381-2.413,0.149-6.256-0.274-9.644c-0.423-3.386,4.977-12.681,4.045-15.56
		c-0.346-1.07-0.775-1.905-1.259-2.538c-0.001-0.002-0.002-0.004-0.004-0.006l-0.001-0.001c-0.009-0.012-0.019-0.022-0.028-0.034
		c-0.667-0.732-0.673-1.576-2.771-1.568c-0.318-0.017-0.68-0.002-1.061,0.061c-1.15,0.137-1.978,0.513-2.362,1.163
		c-0.734,0.697-1.89,1.87-2.558,3.348c-1.609,3.562-1.975,3.772-3.12,10.258c-0.584,3.311-1.103,8.46-1.112,12.016
		c-0.006,2.359,0.027,5.442-0.22,10.874c-3.592,1.76-5.339,2.481-7.117,3.814c-2.032,1.525-2.286,6.73-2.667,12.573
		C38.747,92.295,37.994,95.249,37.643,97.696z"/>
	<path fill="#FFFFFF" stroke="#B3B3B3" stroke-linecap="round" d="M47.173,121.05c0,0-2.541-7.622-3.683-11.431
		c-1.143-3.812-3.048-9.527-3.176-11.685c-0.126-2.159,1.271-7.112,1.779-12.319c0.507-5.208,1.016-11.812,2.54-13.209
		c1.524-1.396,7.471-1.906,11.166-4.572l29.985,7.493c0,0,1.905-2.159,7.366,6.222c5.461,8.383,8.51,10.924,8.51,14.733
		s-9.399,20.321-10.923,24.768"/>
	<path fill="#FFFFFF" stroke="#B3B3B3" stroke-linecap="round" d="M94.165,88.579c0,0-2.878-2.371-4.402-5.336
		c-1.524-2.963-6.266-13.038-9.061-15.408v7.959"/>
	<path fill="#FFFFFF" stroke="#B3B3B3" stroke-linecap="round" d="M84.344,82.567c0,0-1.439-1.948-1.778-5.504
		c-0.339-3.555-1.017-13.97-1.863-17.188s-2.455-6.096-5.758-6.096c-3.302,0-6.435,1.947-8.044,5.419v13.293"/>
	<path fill="#FFFFFF" stroke="#B3B3B3" stroke-width="0.5" stroke-linecap="round" d="M50.052,78.206c0,0,1.867,1.881,3.178,3.037"
		/>
	<path fill="#FFFFFF" stroke="#B3B3B3" stroke-linecap="round" d="M48.57,96.03c0,0,3.811-6.732,4.826-16.129
		c1.016-9.4,1.524-20.561,1.397-23.554c-0.127-2.992,0.292-5.914,0.02-8.58c-0.274-2.667-0.782-2.032-0.654-5.081
		c0.126-3.048,1.143-9.017,5.715-8.509c4.572,0.508,4.572,5.588,4.953,8.255c0.381,2.668,0.254,3.683,0.762,5.969
		c0.508,2.287,3.175,8.382,3.048,11.304c-0.126,2.92-0.508,18.923,0.89,21.718"/>
	<path fill="#FFFFFF" stroke="#B3B3B3" stroke-width="0.5" stroke-linecap="round" d="M58.521,57.486c0,0,6.415-1.208,9.175,0.293"
		/>
	<path fill="#FFFFFF" stroke="#B3B3B3" stroke-width="0.5" stroke-linecap="round" d="M56.07,35.869c0,0,0.268,2.005,1.285,2.684
		c1.016,0.678,5.217,0.951,5.906-0.015c0.688-0.965,0.254-1.947,0-2.708c-0.254-0.763-1.44-1.356-3.387-1.652
		C57.926,33.88,56.595,35.202,56.07,35.869z"/>
</g>
<g id="_x30_5_1_" style="display: none;">
	<g>
		<defs>
			<path id="SVGID_35_" d="M76.656,92.383c0,3.485-2.22,5.754-5.703,5.683H40.021c-3.483,0.071-5.785-2.197-5.785-5.683V13.076
				c0-3.482,2.302-5.834,5.785-5.834h30.817c3.483,0,5.818,2.352,5.818,5.834V92.383z"/>
		</defs>
		<clipPath id="SVGID_36_">
			<use xlink:href="#SVGID_35_"  overflow="visible"/>
		</clipPath>
		<path opacity="0.3" clip-path="url(#SVGID_36_)" d="M44.629,124.485c0,0-6.351-19.434-6.859-23.243
			c-0.507-3.81,1.017-7.62,1.524-12.827c0.509-5.207,0.787-10.924,1.854-12.193c1.067-1.271,8.2-2.401,12.106-5.08l29.73,7.747
			c0,0,0.889-1.271,3.811,1.651c2.92,2.922,12.32,15.494,12.32,20.32c0,4.319-7.62,14.225-10.923,23.625"/>
		<linearGradient id="SVGID_37_" gradientUnits="userSpaceOnUse" x1="55.2324" y1="99.0796" x2="55.2324" y2="33.6602">
			<stop  offset="0.8" style="stop-color:#000000"/>
			<stop  offset="1" style="stop-color:#E6E6E6"/>
		</linearGradient>
		<path opacity="0.3" clip-path="url(#SVGID_36_)" fill="url(#SVGID_37_)" d="M44.881,99.08c0,0,2.794-4.954,3.938-11.812
			c1.143-6.856,0.224-24.402,0.546-28.891c0.25-3.483,0.702-5.814,1.018-9.157c0.293-3.11,0.479-6.657,1.115-9.451
			c0.634-2.794,2.794-6.351,5.969-6.097c3.175,0.254,4.598,4.373,4.966,7.33c0.369,2.958-0.786,7.149-0.277,9.688
			c0.508,2.541,0.461,6.061,0.867,8.794c0.636,4.288,1.038,22.195,2.562,24.609"/>
	</g>
	<path fill="#FFFFFF" stroke="#B3B3B3" stroke-linecap="round" d="M47.173,121.05c0,0-6.351-19.433-6.859-23.243
		c-0.507-3.809,1.017-7.619,1.525-12.826s0.787-10.924,1.854-12.193c1.067-1.271,8.199-2.402,12.105-5.08l29.731,7.747
		c0,0,0.889-1.271,3.81,1.65c2.92,2.923,12.32,15.495,12.32,20.321c0,4.318-7.62,14.225-10.923,23.624"/>
	<path fill="#FFFFFF" stroke="#B3B3B3" stroke-linecap="round" d="M93.573,88.916c0,0-3.726-4.57-5.334-7.956
		c-1.608-3.388-4.402-10.078-7.451-13.252v9.355"/>
	<path fill="#FFFFFF" stroke="#B3B3B3" stroke-linecap="round" d="M84.259,82.737c0,0-1.016-1.738-1.439-4.426
		c-0.423-2.688-1.439-14.118-2.54-18.605c-1.101-4.488-2.878-5.165-5.588-5.419c-2.71-0.254-6.097,1.948-7.027,3.726V72.66"/>
	<path fill="#FFFFFF" stroke="#B3B3B3" stroke-width="0.5" stroke-linecap="round" d="M48.824,78.311c0,0,3.458,1.795,4.333,3.787"
		/>
	<path fill="#FFFFFF" stroke="#B3B3B3" stroke-linecap="round" d="M48.824,96.663c0,0,2.794-4.953,3.938-11.811
		s2.667-26.619,2.159-30.074c-0.508-3.455,0.709-4.947,0.101-8.011c-0.609-3.064-1.117-6.621-0.482-9.415s2.795-6.351,5.97-6.097
		s4.598,4.373,4.965,7.33c0.37,2.958,0.115,7.149,0.623,9.688c0.509,2.541,2.262,6.061,2.667,8.794
		c0.636,4.288-0.762,22.195,0.763,24.608"/>
	<path fill="#FFFFFF" stroke="#B3B3B3" stroke-width="0.5" stroke-linecap="round" d="M58.648,57.232c0,0,7.297-1.332,9.469,0.105"
		/>
	<path fill="#FFFFFF" stroke="#B3B3B3" stroke-width="0.5" stroke-linecap="round" d="M56.75,32.965
		c-0.694,0.851,0.499,3.202,1.346,3.542c0.847,0.338,4.348,0.592,5.011,0c0.662-0.593,0.929-1.733,0.626-3.11
		c-0.303-1.378-1.476-1.997-3.429-2.153C58.35,31.087,57.308,32.282,56.75,32.965z"/>
</g>
<g id="_x30_4_1_" style="display: none;">
	<g>
		<defs>
			<path id="SVGID_38_" d="M76.656,92.383c0,3.485-2.22,5.754-5.703,5.683H40.021c-3.483,0.071-5.785-2.197-5.785-5.683V13.076
				c0-3.482,2.302-5.834,5.785-5.834h30.817c3.483,0,5.818,2.352,5.818,5.834V92.383z"/>
		</defs>
		<clipPath id="SVGID_39_">
			<use xlink:href="#SVGID_38_"  overflow="visible"/>
		</clipPath>
		<path opacity="0.3" clip-path="url(#SVGID_39_)" d="M44.629,124.485c0,0-6.351-19.434-6.859-23.243
			c-0.507-3.81,1.017-7.62,1.524-12.827c0.509-5.207,0.787-10.924,1.854-12.193c1.067-1.271,8.2-2.401,12.106-5.08l29.73,7.747
			c0,0,0.889-1.271,3.811,1.651c2.92,2.922,12.32,15.494,12.32,20.32c0,4.319-7.62,14.225-10.923,23.625"/>
		<linearGradient id="SVGID_40_" gradientUnits="userSpaceOnUse" x1="53.3882" y1="100.5962" x2="53.3882" y2="34.4741">
			<stop  offset="0.65" style="stop-color:#000000"/>
			<stop  offset="1" style="stop-color:#E6E6E6"/>
		</linearGradient>
		<path opacity="0.3" clip-path="url(#SVGID_39_)" fill="url(#SVGID_40_)" d="M42.973,100.596c1.779-2.158,3.877-6.403,4.954-17.398
			c1.077-10.995,1.524-22.048,1.271-24.741c-0.254-2.693,0.866-6.132,0.75-8.349c-0.116-2.219-1.259-4.035-0.878-6.873
			c0.381-2.839,1.525-8.712,5.715-8.76c4.191-0.047,4.7,3.521,5.335,6.436c0.635,2.915,0.127,8.335,0.635,10.642
			c0.507,2.307,2.249,7.579,2.413,9.196c0.253,2.51-0.89,22.705,0.635,24.99"/>
	</g>
	<path fill="#FFFFFF" stroke="#B3B3B3" stroke-linecap="round" d="M46.919,121.05c0,0-6.731-19.94-6.731-22.989
		c0-3.047,0.762-5.714,1.651-12.445c0.889-6.732,0.635-10.283,1.714-12.064c1.08-1.781,12.245-5.336,12.245-5.336l29.604,7.239
		c0,0,1.778-1.017,3.557,1.144c1.778,2.158,12.701,16.829,12.701,20.639s-9.11,19.133-10.923,23.813"/>
	<path fill="#FFFFFF" stroke="#B3B3B3" stroke-linecap="round" d="M93.996,89.51c0,0-3.387-3.725-5.334-7.789
		s-6.097-12.449-8.722-13.887l0.339,10.838"/>
	<path fill="#FFFFFF" stroke="#B3B3B3" stroke-linecap="round" d="M84.175,83.668c0,0-0.876-2.006-1.44-5.504
		c-0.562-3.5-1.608-15.581-2.794-19.221c-1.185-3.641-3.218-4.233-5.757-4.402c-2.541-0.17-6.351,2.878-6.858,3.471
		c-0.508,0.593,0,15.834,0,15.834"/>
	<path fill="#FFFFFF" stroke="#B3B3B3" stroke-width="0.5" stroke-linecap="round" d="M50.475,78.672c0,0,2.135,1.404,3.1,2.734"/>
	<path fill="#FFFFFF" stroke="#B3B3B3" stroke-linecap="round" d="M48.824,96.918c1.778-2.158,3.877-6.404,4.954-17.4
		c1.077-10.994,1.524-22.047,1.271-24.74c-0.254-2.693,0.866-6.132,0.75-8.349c-0.116-2.219-1.259-4.035-0.878-6.873
		c0.381-2.838,1.525-8.712,5.715-8.76c4.191-0.047,4.7,3.521,5.334,6.436c0.636,2.915,0.127,8.335,0.636,10.642
		c0.507,2.307,2.249,7.579,2.413,9.196c0.253,2.51-0.89,22.705,0.634,24.99"/>
	<path fill="#FFFFFF" stroke="#B3B3B3" stroke-width="0.5" stroke-linecap="round" d="M57.073,32.86
		c0.214,1.26,1.277,2.376,2.166,2.714c0.889,0.339,4.107,0.508,4.869,0c0.762-0.508,0.876-2.664,0-3.409
		c-0.876-0.745-1.355-1.321-3.472-1.37C58.519,30.748,57.002,32.447,57.073,32.86z"/>
	<path fill="#FFFFFF" stroke="#B3B3B3" stroke-width="0.5" stroke-linecap="round" d="M59.285,56.42c0,0,7.062-1.118,8.971-0.102"/>
</g>
<g id="_x30_3_1_" style="display: none;">
	<g>
		<defs>
			<path id="SVGID_41_" d="M76.656,92.383c0,3.485-2.22,5.754-5.703,5.683H40.021c-3.483,0.071-5.785-2.197-5.785-5.683V13.076
				c0-3.482,2.302-5.834,5.785-5.834h30.817c3.483,0,5.818,2.352,5.818,5.834V92.383z"/>
		</defs>
		<clipPath id="SVGID_42_">
			<use xlink:href="#SVGID_41_"  overflow="visible"/>
		</clipPath>
		<path opacity="0.3" clip-path="url(#SVGID_42_)" d="M44.629,124.485c0,0-6.351-19.434-6.859-23.243
			c-0.507-3.81,1.017-7.62,1.524-12.827c0.509-5.207,0.787-10.924,1.854-12.193c1.067-1.271,8.2-2.401,12.106-5.08l29.73,7.747
			c0,0,0.889-1.271,3.811,1.651c2.92,2.922,12.32,15.494,12.32,20.32c0,4.319-7.62,14.225-10.923,23.625"/>
		<linearGradient id="SVGID_43_" gradientUnits="userSpaceOnUse" x1="52.4131" y1="101.5806" x2="52.4131" y2="35.1885">
			<stop  offset="0.4956" style="stop-color:#000000"/>
			<stop  offset="1" style="stop-color:#E6E6E6"/>
		</linearGradient>
		<path opacity="0.3" clip-path="url(#SVGID_42_)" fill="url(#SVGID_43_)" d="M41.872,101.581c0,0,2.709-7.025,4.064-13.547
			c1.354-6.52,3.278-21.59,2.867-24.977c-0.412-3.387,0.412-8.373,0.621-10.829c0.21-2.455-0.057-5.434,0.027-9.667
			c0.085-4.234,2.371-7.536,5.418-7.367c3.049,0.17,3.751,1.948,4.797,5.758c1.047,3.81,0.297,7.042,0.636,9.92
			c0.339,2.879,1.654,9,1.975,10.405c0.677,2.963-0.465,24.64,0.677,25.91"/>
	</g>
	<path fill="#FFFFFF" stroke="#B3B3B3" stroke-linecap="round" d="M47.258,121.092c0,0-6.944-19.643-7.283-22.354
		c-0.338-2.709,0.847-6.434,1.779-13.377c0.931-6.945,1.185-10.157,2.37-11.811c1.186-1.652,8.851-3.623,11.674-5.463l29.815,7.537
		c0,0,1.271-0.509,2.541,0.506c1.271,1.018,13.124,16.596,13.463,18.967c0.338,2.371-2.118,8.806-4.318,12.955
		c-2.201,4.148-6.012,12.361-6.012,12.361"/>
	<path fill="#FFFFFF" stroke="#B3B3B3" stroke-linecap="round" d="M93.319,89.002c0,0-4.912-6.266-6.774-11.008
		c-1.863-4.741-6.773-9.906-6.773-9.906l-1.44,9.312"/>
	<path fill="#FFFFFF" stroke="#B3B3B3" stroke-linecap="round" d="M85.36,85.786c0,0-2.033-2.202-2.541-6.097
		c-0.508-3.896-2.117-17.444-2.54-19.729c-0.424-2.286-2.794-5.165-5.588-5.25s-7.197,2.879-7.197,2.879v15.495"/>
	<path fill="#FFFFFF" stroke="#B3B3B3" stroke-linecap="round" d="M48.867,97.383c0,0,2.709-7.025,4.064-13.546
		c1.354-6.521,3.278-21.59,2.867-24.978c-0.412-3.387-0.153-8.213,0.056-10.669c0.209-2.456-0.553-5.927-0.468-10.16
		c0.084-4.234,2.371-7.536,5.418-7.367c3.049,0.17,3.751,1.948,4.796,5.758c1.047,3.81,0.792,7.535,1.131,10.414
		c0.339,2.879,2.219,8.84,2.54,10.246c0.678,2.963-0.465,24.64,0.678,25.909"/>
	<path fill="#FFFFFF" stroke="#B3B3B3" stroke-width="0.5" stroke-linecap="round" d="M49.798,79.096c0,0,3.081,1.507,3.489,2.912"
		/>
	<path fill="#FFFFFF" stroke="#B3B3B3" stroke-width="0.5" stroke-linecap="round" d="M57.154,32.807c0,0,0.299,1.985,1.314,2.493
		c1.016,0.508,1.293,0.68,3.156,0.596c1.863-0.085,2.906-0.284,2.906-1.331s-0.434-3.907-3.688-3.907
		C57.588,30.658,57.154,32.807,57.154,32.807z"/>
	<path fill="#FFFFFF" stroke="#B3B3B3" stroke-width="0.5" stroke-linecap="round" d="M60.302,57.741c0,0,6.26-0.745,7.953-0.067"/>
</g>
<g id="_x30_2_1_" style="display: none;">
	<g>
		<defs>
			<path id="SVGID_44_" d="M76.656,92.383c0,3.485-2.22,5.754-5.703,5.683H40.021c-3.483,0.071-5.785-2.197-5.785-5.683V13.076
				c0-3.482,2.302-5.834,5.785-5.834h30.817c3.483,0,5.818,2.352,5.818,5.834V92.383z"/>
		</defs>
		<clipPath id="SVGID_45_">
			<use xlink:href="#SVGID_44_"  overflow="visible"/>
		</clipPath>
		<path opacity="0.3" clip-path="url(#SVGID_45_)" d="M44.629,124.485c0,0-6.351-19.434-6.859-23.243
			c-0.507-3.81,1.017-7.62,1.524-12.827c0.509-5.207,0.787-10.924,1.854-12.193c1.067-1.271,8.2-2.401,12.106-5.08l29.73,7.747
			c0,0,0.889-1.271,3.811,1.651c2.92,2.922,12.32,15.494,12.32,20.32c0,4.319-7.62,14.225-10.923,23.625"/>
		<linearGradient id="SVGID_46_" gradientUnits="userSpaceOnUse" x1="52.4131" y1="101.5806" x2="52.4131" y2="35.1885">
			<stop  offset="0.4956" style="stop-color:#000000"/>
			<stop  offset="1" style="stop-color:#E6E6E6"/>
		</linearGradient>
		<path opacity="0.3" clip-path="url(#SVGID_45_)" fill="url(#SVGID_46_)" d="M41.872,101.581c0,0,2.709-7.025,4.064-13.547
			c1.354-6.52,3.278-21.59,2.867-24.977c-0.412-3.387,0.412-8.373,0.621-10.829c0.21-2.455-0.057-5.434,0.027-9.667
			c0.085-4.234,2.371-7.536,5.418-7.367c3.049,0.17,3.751,1.948,4.797,5.758c1.047,3.81,0.297,7.042,0.636,9.92
			c0.339,2.879,1.654,9,1.975,10.405c0.677,2.963-0.465,24.64,0.677,25.91"/>
	</g>
	<path fill="#FFFFFF" stroke="#B3B3B3" stroke-linecap="round" d="M47.258,121.092c0,0-6.944-19.643-7.283-22.354
		c-0.338-2.709,0.847-6.434,1.779-13.377c0.931-6.945,1.185-10.157,2.37-11.811c1.186-1.652,8.851-3.623,11.674-5.463l29.815,7.537
		c0,0,1.271-0.509,2.541,0.506c1.271,1.018,13.124,16.596,13.463,18.967c0.338,2.371-2.118,8.806-4.318,12.955
		c-2.201,4.148-6.012,12.361-6.012,12.361"/>
	<path fill="#FFFFFF" stroke="#B3B3B3" stroke-linecap="round" d="M93.319,89.002c0,0-4.912-6.266-6.774-11.008
		c-1.863-4.741-6.773-9.906-6.773-9.906l-1.44,9.312"/>
	<path fill="#FFFFFF" stroke="#B3B3B3" stroke-linecap="round" d="M85.36,85.786c0,0-2.033-2.202-2.541-6.097
		c-0.508-3.896-2.117-17.444-2.54-19.729c-0.424-2.286-2.794-5.165-5.588-5.25s-7.197,2.879-7.197,2.879v15.495"/>
	<path fill="#FFFFFF" stroke="#B3B3B3" stroke-linecap="round" d="M48.867,97.383c0,0,2.709-7.025,4.064-13.546
		c1.354-6.521,3.278-21.59,2.867-24.978c-0.412-3.387-0.153-8.213,0.056-10.669c0.209-2.456-0.553-5.927-0.468-10.16
		c0.084-4.234,2.371-7.536,5.418-7.367c3.049,0.17,3.751,1.948,4.796,5.758c1.047,3.81,0.792,7.535,1.131,10.414
		c0.339,2.879,2.219,8.84,2.54,10.246c0.678,2.963-0.465,24.64,0.678,25.909"/>
	<path fill="#FFFFFF" stroke="#B3B3B3" stroke-width="0.5" stroke-linecap="round" d="M49.798,79.096c0,0,3.081,1.507,3.489,2.912"
		/>
	<path fill="#FFFFFF" stroke="#B3B3B3" stroke-width="0.5" stroke-linecap="round" d="M57.154,32.807c0,0,0.299,1.985,1.314,2.493
		c1.016,0.508,1.293,0.68,3.156,0.596c1.863-0.085,2.906-0.284,2.906-1.331s-0.434-3.907-3.688-3.907
		C57.588,30.658,57.154,32.807,57.154,32.807z"/>
	<path fill="#FFFFFF" stroke="#B3B3B3" stroke-width="0.5" stroke-linecap="round" d="M60.302,57.741c0,0,6.26-0.745,7.953-0.067"/>
</g>
<g id="_x30_1">
	<g>
		<defs>
			<path id="SVGID_47_" d="M76.656,92.383c0,3.485-2.22,5.754-5.703,5.683H40.021c-3.483,0.071-5.785-2.197-5.785-5.683V13.076
				c0-3.482,2.302-5.834,5.785-5.834h30.817c3.483,0,5.818,2.352,5.818,5.834V92.383z"/>
		</defs>
		<clipPath id="SVGID_48_">
			<use xlink:href="#SVGID_47_"  overflow="visible"/>
		</clipPath>
		<path opacity="0.3" clip-path="url(#SVGID_48_)" d="M44.629,124.485c0,0-6.351-19.434-6.859-23.243
			c-0.507-3.81,1.017-7.62,1.524-12.827c0.509-5.207,0.787-10.924,1.854-12.193c1.067-1.271,8.2-2.401,12.106-5.08l29.73,7.747
			c0,0,0.889-1.271,3.811,1.651c2.92,2.922,12.32,15.494,12.32,20.32c0,4.319-7.62,14.225-10.923,23.625"/>
		<linearGradient id="SVGID_49_" gradientUnits="userSpaceOnUse" x1="52.4131" y1="101.5806" x2="52.4131" y2="35.1885">
			<stop  offset="0.4956" style="stop-color:#000000"/>
			<stop  offset="1" style="stop-color:#E6E6E6"/>
		</linearGradient>
		<path opacity="0.3" clip-path="url(#SVGID_48_)" fill="url(#SVGID_49_)" d="M41.872,101.581c0,0,2.709-7.025,4.064-13.547
			c1.354-6.52,3.278-21.59,2.867-24.977c-0.412-3.387,0.412-8.373,0.621-10.829c0.21-2.455-0.057-5.434,0.027-9.667
			c0.085-4.234,2.371-7.536,5.418-7.367c3.049,0.17,3.751,1.948,4.797,5.758c1.047,3.81,0.297,7.042,0.636,9.92
			c0.339,2.879,1.654,9,1.975,10.405c0.677,2.963-0.465,24.64,0.677,25.91"/>
	</g>
	<path fill="#FFFFFF" stroke="#B3B3B3" stroke-linecap="round" d="M47.258,121.092c0,0-6.944-19.643-7.283-22.354
		c-0.338-2.709,0.847-6.434,1.779-13.377c0.931-6.945,1.185-10.157,2.37-11.811c1.186-1.652,8.851-3.623,11.674-5.463l29.815,7.537
		c0,0,1.271-0.509,2.541,0.506c1.271,1.018,13.124,16.596,13.463,18.967c0.338,2.371-2.118,8.806-4.318,12.955
		c-2.201,4.148-6.012,12.361-6.012,12.361"/>
	<path fill="#FFFFFF" stroke="#B3B3B3" stroke-linecap="round" d="M93.319,89.002c0,0-4.912-6.266-6.774-11.008
		c-1.863-4.741-6.773-9.906-6.773-9.906l-1.44,9.312"/>
	<path fill="#FFFFFF" stroke="#B3B3B3" stroke-linecap="round" d="M85.36,85.786c0,0-2.033-2.202-2.541-6.097
		c-0.508-3.896-2.117-17.444-2.54-19.729c-0.424-2.286-2.794-5.165-5.588-5.25s-7.197,2.879-7.197,2.879v15.495"/>
	<path fill="#FFFFFF" stroke="#B3B3B3" stroke-linecap="round" d="M48.867,97.383c0,0,2.709-7.025,4.064-13.546
		c1.354-6.521,3.278-21.59,2.867-24.978c-0.412-3.387-0.153-8.213,0.056-10.669c0.209-2.456-0.553-5.927-0.468-10.16
		c0.084-4.234,2.371-7.536,5.418-7.367c3.049,0.17,3.751,1.948,4.796,5.758c1.047,3.81,0.792,7.535,1.131,10.414
		c0.339,2.879,2.219,8.84,2.54,10.246c0.678,2.963-0.465,24.64,0.678,25.909"/>
	<path fill="#FFFFFF" stroke="#B3B3B3" stroke-width="0.5" stroke-linecap="round" d="M49.798,79.096c0,0,3.081,1.507,3.489,2.912"
		/>
	<path fill="#FFFFFF" stroke="#B3B3B3" stroke-width="0.5" stroke-linecap="round" d="M60.302,57.741c0,0,6.26-0.745,7.953-0.067"/>
	<path fill="#FFFFFF" stroke="#B3B3B3" stroke-width="0.5" stroke-linecap="round" d="M57.154,32.807c0,0,0.299,1.985,1.314,2.493
		c1.016,0.508,1.293,0.68,3.156,0.596c1.863-0.085,2.906-0.284,2.906-1.331s-0.434-3.907-3.688-3.907
		C57.588,30.658,57.154,32.807,57.154,32.807z"/>
</g>
</svg>
