<svg xmlns="http://www.w3.org/2000/svg" xmlns:xlink="http://www.w3.org/1999/xlink" version="1.1" x="0px" y="0px" width="128px" height="128px" viewBox="0 0 128 128" enable-background="new 0 0 128 128" xml:space="preserve" xmlns:xml="http://www.w3.org/XML/1998/namespace">
<g id="phone">
	<g>
		<rect x="1.5" y="1.5" fill="#FFFFFF" width="125" height="125"/>
		<path fill="#808080" d="M126,2v124H2V2H126 M127,1H1v126h126V1L127,1z"/>
	</g>
	<g>
		<path fill="#E6E6E6" stroke="#B3B3B3" stroke-miterlimit="10" d="M76.656,92.382c0,3.485-2.22,5.754-5.703,5.683H40.021    c-3.483,0.071-5.785-2.197-5.785-5.683V13.074c0-3.482,2.302-5.834,5.785-5.834h30.817c3.483,0,5.818,2.352,5.818,5.834V92.382z"/>
		
			<rect x="36.767" y="19.85" fill="#FFFFFF" stroke="#B3B3B3" stroke-width="0.5" stroke-miterlimit="10" width="37.356" height="65.786"/>
	</g>
</g>
<g id="_x30_1_copy" style="display: none;">
	<polygon fill="#E6E7E7" stroke="#CCCCCC" stroke-miterlimit="10" points="57.198,57.541 60.513,64.256 67.923,65.333 62.561,70.56    63.827,77.94 57.198,74.456 50.57,77.94 51.836,70.56 46.474,65.333 53.884,64.256  "/>
	<g>
		<defs>
			<path id="SVGID_1_" d="M76.656,92.382c0,3.485-2.22,5.754-5.703,5.683H40.021c-3.483,0.071-5.785-2.197-5.785-5.683V13.074     c0-3.482,2.302-5.834,5.785-5.834h30.817c3.483,0,5.818,2.352,5.818,5.834V92.382z"/>
		</defs>
		<clipPath id="SVGID_2_">
			<use xlink:href="#SVGID_1_" overflow="visible"/>
		</clipPath>
		<linearGradient id="SVGID_3_" gradientUnits="userSpaceOnUse" x1="54.4448" y1="117.7334" x2="54.4448" y2="64.8872">
			<stop offset="0.4956" style="stop-color:#000000"/>
			<stop offset="1" style="stop-color:#E6E6E6"/>
		</linearGradient>
		<path opacity="0.3" clip-path="url(#SVGID_2_)" fill="url(#SVGID_3_)" d="M45.936,117.733c1.354-6.521,3.278-21.591,2.867-24.979    c-0.412-3.387,0.412-8.372,0.621-10.828c0.21-2.455-0.057-5.434,0.027-9.667c0.085-4.233,2.371-7.536,5.418-7.367    c3.049,0.169,3.751,1.948,4.797,5.757c1.047,3.81,0.297,7.042,0.636,9.921c0.339,2.88,1.654,9,1.975,10.404    c0.677,2.965-0.465,24.641,0.677,25.91"/>
	</g>
	<path fill="#FFFFFF" stroke="#B3B3B3" stroke-linecap="round" d="M99.79,121.353c-3.449-5.378-10.661-14.741-11.636-15.521   c-1.27-1.016-2.541-0.508-2.541-0.508l-29.815-7.537c-2.823,1.84-10.488,3.811-11.674,5.463c-1.185,1.654-1.439,4.867-2.37,11.811   c-0.333,2.477-0.695,4.536-1.011,6.293"/>
	<path fill="#FFFFFF" stroke="#B3B3B3" stroke-linecap="round" d="M93.319,118.7c0,0-4.912-6.266-6.774-11.006   c-1.863-4.742-6.773-9.908-6.773-9.908l-1.44,9.313"/>
	<path fill="#FFFFFF" stroke="#B3B3B3" stroke-linecap="round" d="M85.36,115.483c0,0-2.033-2.201-2.541-6.096   c-0.508-3.896-2.117-17.443-2.54-19.73c-0.424-2.285-2.794-5.164-5.588-5.248c-2.794-0.086-7.197,2.879-7.197,2.879v15.494"/>
	<path fill="#FFFFFF" stroke="#B3B3B3" stroke-linecap="round" d="M69.95,112.689c-1.143-1.271,0-22.946-0.678-25.909   c-0.321-1.405-2.201-7.367-2.54-10.246s-0.084-6.604-1.131-10.414c-1.045-3.811-1.748-5.588-4.796-5.758   c-3.048-0.169-5.334,3.133-5.418,7.367c-0.085,4.232,0.677,7.704,0.468,10.16c-0.209,2.455-0.468,7.282-0.056,10.668   c0.411,3.389-1.513,18.457-2.867,24.979c-0.789,3.796-1.583,6.664-2.488,9.316"/>
	<path fill="#FFFFFF" stroke="#B3B3B3" stroke-width="0.5" stroke-linecap="round" d="M49.797,108.794c0,0,3.081,1.508,3.489,2.913"/>
	<path fill="#FFFFFF" stroke="#B3B3B3" stroke-width="0.5" stroke-linecap="round" d="M60.302,87.439c0,0,6.26-0.745,7.953-0.067"/>
	<path fill="#FFFFFF" stroke="#B3B3B3" stroke-width="0.5" stroke-linecap="round" d="M57.153,62.505c0,0,0.299,1.984,1.314,2.494   c1.016,0.508,1.293,0.679,3.156,0.595s2.906-0.283,2.906-1.33s-0.434-3.907-3.688-3.907C57.587,60.357,57.153,62.505,57.153,62.505   z"/>
</g>
<g id="_x30_2_copy" style="display: none;">
	<polygon fill="#E6E7E7" stroke="#CCCCCC" stroke-miterlimit="10" points="57.198,57.541 60.513,64.256 67.923,65.333 62.561,70.56    63.827,77.94 57.198,74.456 50.57,77.94 51.836,70.56 46.474,65.333 53.884,64.256  "/>
	<g>
		<defs>
			<path id="SVGID_4_" d="M76.656,92.382c0,3.485-2.22,5.754-5.703,5.683H40.021c-3.483,0.071-5.785-2.197-5.785-5.683V13.074     c0-3.482,2.302-5.834,5.785-5.834h30.817c3.483,0,5.818,2.352,5.818,5.834V92.382z"/>
		</defs>
		<clipPath id="SVGID_5_">
			<use xlink:href="#SVGID_4_" overflow="visible"/>
		</clipPath>
		<linearGradient id="SVGID_6_" gradientUnits="userSpaceOnUse" x1="54.4448" y1="117.7334" x2="54.4448" y2="64.8872">
			<stop offset="0.4956" style="stop-color:#000000"/>
			<stop offset="1" style="stop-color:#E6E6E6"/>
		</linearGradient>
		<path opacity="0.3" clip-path="url(#SVGID_5_)" fill="url(#SVGID_6_)" d="M45.936,117.733c1.354-6.521,3.278-21.591,2.867-24.979    c-0.412-3.387,0.412-8.372,0.621-10.828c0.21-2.455-0.057-5.434,0.027-9.667c0.085-4.233,2.371-7.536,5.418-7.367    c3.049,0.169,3.751,1.948,4.797,5.757c1.047,3.81,0.297,7.042,0.636,9.921c0.339,2.88,1.654,9,1.975,10.404    c0.677,2.965-0.465,24.641,0.677,25.91"/>
	</g>
	<g opacity="0.1">
		<path fill="#80AADA" d="M57.176,57.768c5.845,0,10.6,4.755,10.6,10.6s-4.755,10.601-10.6,10.601s-10.6-4.756-10.6-10.601    S51.332,57.768,57.176,57.768 M57.176,55.768c-6.959,0-12.6,5.642-12.6,12.6c0,6.958,5.641,12.601,12.6,12.601    c6.958,0,12.6-5.643,12.6-12.601C69.776,61.41,64.134,55.768,57.176,55.768L57.176,55.768z"/>
	</g>
	<path fill="#FFFFFF" stroke="#B3B3B3" stroke-linecap="round" d="M99.79,121.353c-3.449-5.378-10.661-14.741-11.636-15.521   c-1.27-1.016-2.541-0.508-2.541-0.508l-29.815-7.537c-2.823,1.84-10.488,3.811-11.674,5.463c-1.185,1.654-1.439,4.867-2.37,11.811   c-0.333,2.477-0.695,4.536-1.011,6.293"/>
	<path fill="#FFFFFF" stroke="#B3B3B3" stroke-linecap="round" d="M93.319,118.7c0,0-4.912-6.266-6.774-11.006   c-1.863-4.742-6.773-9.908-6.773-9.908l-1.44,9.313"/>
	<path fill="#FFFFFF" stroke="#B3B3B3" stroke-linecap="round" d="M85.36,115.483c0,0-2.033-2.201-2.541-6.096   c-0.508-3.896-2.117-17.443-2.54-19.73c-0.424-2.285-2.794-5.164-5.588-5.248c-2.794-0.086-7.197,2.879-7.197,2.879v15.494"/>
	<path fill="#FFFFFF" stroke="#B3B3B3" stroke-linecap="round" d="M69.95,112.689c-1.143-1.271,0-22.946-0.678-25.909   c-0.321-1.405-2.201-7.367-2.54-10.246s-0.084-6.604-1.131-10.414c-1.045-3.811-1.748-5.588-4.796-5.758   c-3.048-0.169-5.334,3.133-5.418,7.367c-0.085,4.232,0.677,7.704,0.468,10.16c-0.209,2.455-0.468,7.282-0.056,10.668   c0.411,3.389-1.513,18.457-2.867,24.979c-0.789,3.796-1.75,6.997-2.655,9.649"/>
	<path fill="#FFFFFF" stroke="#B3B3B3" stroke-width="0.5" stroke-linecap="round" d="M49.797,108.794c0,0,3.081,1.508,3.489,2.913"/>
	<path fill="#FFFFFF" stroke="#B3B3B3" stroke-width="0.5" stroke-linecap="round" d="M60.302,87.439c0,0,6.26-0.745,7.953-0.067"/>
	<path fill="#FFFFFF" stroke="#B3B3B3" stroke-width="0.5" stroke-linecap="round" d="M57.153,62.505c0,0,0.299,1.984,1.314,2.494   c1.016,0.508,1.293,0.679,3.156,0.595s2.906-0.283,2.906-1.33s-0.434-3.907-3.688-3.907C57.587,60.357,57.153,62.505,57.153,62.505   z"/>
</g>
<g id="_x30_3_copy" style="display: none;">
	<polygon fill="#E6E7E7" stroke="#CCCCCC" stroke-miterlimit="10" points="57.198,57.541 60.513,64.256 67.923,65.333 62.561,70.56    63.827,77.94 57.198,74.456 50.57,77.94 51.836,70.56 46.474,65.333 53.884,64.256  "/>
	<g>
		<defs>
			<path id="SVGID_7_" d="M76.656,92.382c0,3.485-2.22,5.754-5.703,5.683H40.021c-3.483,0.071-5.785-2.197-5.785-5.683V13.074     c0-3.482,2.302-5.834,5.785-5.834h30.817c3.483,0,5.818,2.352,5.818,5.834V92.382z"/>
		</defs>
		<clipPath id="SVGID_8_">
			<use xlink:href="#SVGID_7_" overflow="visible"/>
		</clipPath>
		<linearGradient id="SVGID_9_" gradientUnits="userSpaceOnUse" x1="54.4448" y1="117.7334" x2="54.4448" y2="64.8872">
			<stop offset="0.4956" style="stop-color:#000000"/>
			<stop offset="1" style="stop-color:#E6E6E6"/>
		</linearGradient>
		<path opacity="0.3" clip-path="url(#SVGID_8_)" fill="url(#SVGID_9_)" d="M45.936,117.733c1.354-6.521,3.278-21.591,2.867-24.979    c-0.412-3.387,0.412-8.372,0.621-10.828c0.21-2.455-0.057-5.434,0.027-9.667c0.085-4.233,2.371-7.536,5.418-7.367    c3.049,0.169,3.751,1.948,4.797,5.757c1.047,3.81,0.297,7.042,0.636,9.921c0.339,2.88,1.654,9,1.975,10.404    c0.677,2.965-0.465,24.641,0.677,25.91"/>
	</g>
	<g opacity="0.2">
		<path fill="#80AADA" d="M57.289,58.274c5.597,0,10.15,4.553,10.15,10.149c0,5.597-4.553,10.15-10.15,10.15    s-10.15-4.554-10.15-10.15C47.139,62.827,51.692,58.274,57.289,58.274 M57.289,56.274c-6.711,0-12.15,5.44-12.15,12.149    c0,6.71,5.439,12.15,12.15,12.15c6.709,0,12.15-5.44,12.15-12.15C69.439,61.714,63.998,56.274,57.289,56.274L57.289,56.274z"/>
	</g>
	<path fill="#FFFFFF" stroke="#B3B3B3" stroke-linecap="round" d="M99.79,121.353c-3.449-5.378-10.661-14.741-11.636-15.521   c-1.27-1.016-2.541-0.508-2.541-0.508l-29.815-7.537c-2.823,1.84-10.488,3.811-11.674,5.463c-1.185,1.654-1.439,4.867-2.37,11.811   c-0.333,2.477-0.695,4.536-1.011,6.293"/>
	<path fill="#FFFFFF" stroke="#B3B3B3" stroke-linecap="round" d="M93.319,118.7c0,0-4.912-6.266-6.774-11.006   c-1.863-4.742-6.773-9.908-6.773-9.908l-1.44,9.313"/>
	<path fill="#FFFFFF" stroke="#B3B3B3" stroke-linecap="round" d="M85.36,115.483c0,0-2.033-2.201-2.541-6.096   c-0.508-3.896-2.117-17.443-2.54-19.73c-0.424-2.285-2.794-5.164-5.588-5.248c-2.794-0.086-7.197,2.879-7.197,2.879v15.494"/>
	<path fill="#FFFFFF" stroke="#B3B3B3" stroke-linecap="round" d="M69.95,112.689c-1.143-1.271,0-22.946-0.678-25.909   c-0.321-1.405-2.201-7.367-2.54-10.246s-0.084-6.604-1.131-10.414c-1.045-3.811-1.748-5.588-4.796-5.758   c-3.048-0.169-5.334,3.133-5.418,7.367c-0.085,4.232,0.677,7.704,0.468,10.16c-0.209,2.455-0.468,7.282-0.056,10.668   c0.411,3.389-1.513,18.457-2.867,24.979c-0.789,3.796-1.583,6.831-2.488,9.483"/>
	<path fill="#FFFFFF" stroke="#B3B3B3" stroke-width="0.5" stroke-linecap="round" d="M49.797,108.794c0,0,3.081,1.508,3.489,2.913"/>
	<path fill="#FFFFFF" stroke="#B3B3B3" stroke-width="0.5" stroke-linecap="round" d="M60.302,87.439c0,0,6.26-0.745,7.953-0.067"/>
	<path fill="#FFFFFF" stroke="#B3B3B3" stroke-width="0.5" stroke-linecap="round" d="M57.153,62.505c0,0,0.299,1.984,1.314,2.494   c1.016,0.508,1.293,0.679,3.156,0.595s2.906-0.283,2.906-1.33s-0.434-3.907-3.688-3.907C57.587,60.357,57.153,62.505,57.153,62.505   z"/>
</g>
<g id="_x30_4_copy" style="display: none;">
	<polygon fill="#E6E7E7" stroke="#CCCCCC" stroke-miterlimit="10" points="57.198,57.541 60.513,64.256 67.923,65.333 62.561,70.56    63.827,77.94 57.198,74.456 50.57,77.94 51.836,70.56 46.474,65.333 53.884,64.256  "/>
	<g>
		<defs>
			<path id="SVGID_10_" d="M76.656,92.382c0,3.485-2.22,5.754-5.703,5.683H40.021c-3.483,0.071-5.785-2.197-5.785-5.683V13.074     c0-3.482,2.302-5.834,5.785-5.834h30.817c3.483,0,5.818,2.352,5.818,5.834V92.382z"/>
		</defs>
		<clipPath id="SVGID_11_">
			<use xlink:href="#SVGID_10_" overflow="visible"/>
		</clipPath>
		<linearGradient id="SVGID_12_" gradientUnits="userSpaceOnUse" x1="55.8643" y1="115.4365" x2="55.8643" y2="64.1729">
			<stop offset="0.65" style="stop-color:#000000"/>
			<stop offset="1" style="stop-color:#E6E6E6"/>
		</linearGradient>
		<path opacity="0.3" clip-path="url(#SVGID_11_)" fill="url(#SVGID_12_)" d="M47.926,112.896    c1.077-10.994,1.524-22.048,1.271-24.74c-0.254-2.693,0.866-6.132,0.75-8.35c-0.116-2.219-1.259-4.035-0.878-6.873    s1.525-8.712,5.715-8.76c4.191-0.047,4.7,3.521,5.335,6.436c0.635,2.916,0.127,8.336,0.635,10.642    c0.507,2.308,2.249,7.58,2.413,9.196c0.253,2.51-0.89,22.705,0.635,24.99"/>
	</g>
	<g opacity="0.4">
		<path fill="#80AADA" d="M57.401,59.399c5.101,0,9.25,4.149,9.25,9.25c0,5.101-4.149,9.25-9.25,9.25s-9.25-4.149-9.25-9.25    C48.151,63.548,52.301,59.399,57.401,59.399 M57.401,57.399c-6.214,0-11.25,5.038-11.25,11.25s5.036,11.25,11.25,11.25    c6.212,0,11.25-5.038,11.25-11.25S63.613,57.399,57.401,57.399L57.401,57.399z"/>
	</g>
	<path fill="#FFFFFF" stroke="#B3B3B3" stroke-linecap="round" d="M99.331,121.353c-3.308-5.772-9.117-13.531-10.373-15.057   c-1.778-2.159-3.557-1.143-3.557-1.143l-29.604-7.24c0,0-11.166,3.556-12.245,5.336c-1.079,1.781-0.826,5.332-1.714,12.064   c-0.33,2.498-0.642,4.435-0.904,6.039"/>
	<path fill="#FFFFFF" stroke="#B3B3B3" stroke-linecap="round" d="M93.996,119.208c0,0-3.387-3.725-5.334-7.789   c-1.947-4.063-6.097-12.448-8.722-13.885l0.339,10.838"/>
	<path fill="#FFFFFF" stroke="#B3B3B3" stroke-linecap="round" d="M84.174,113.366c0,0-0.876-2.005-1.44-5.504   c-0.562-3.5-1.608-15.58-2.794-19.221c-1.185-3.641-3.218-4.232-5.757-4.402c-2.541-0.17-6.351,2.879-6.858,3.471   c-0.508,0.594,0,15.834,0,15.834"/>
	<path fill="#FFFFFF" stroke="#B3B3B3" stroke-width="0.5" stroke-linecap="round" d="M50.475,108.372c0,0,2.135,1.402,3.1,2.732"/>
	<path fill="#FFFFFF" stroke="#B3B3B3" stroke-linecap="round" d="M69.652,111.757c-1.524-2.285-0.381-22.479-0.634-24.988   c-0.164-1.617-1.906-6.89-2.413-9.197c-0.509-2.307,0-7.726-0.636-10.641c-0.634-2.916-1.144-6.484-5.334-6.437   c-4.19,0.048-5.334,5.922-5.715,8.76c-0.381,2.838,0.762,4.655,0.878,6.873c0.116,2.218-1.005,5.657-0.75,8.349   c0.253,2.693-0.193,13.746-1.271,24.741c-0.75,7.661-1.546,11.117-2.834,13.803"/>
	<path fill="#FFFFFF" stroke="#B3B3B3" stroke-width="0.5" stroke-linecap="round" d="M57.072,62.559   c0.214,1.26,1.277,2.375,2.166,2.714c0.889,0.34,4.107,0.509,4.869,0c0.762-0.507,0.876-2.664,0-3.409   c-0.876-0.745-1.355-1.321-3.472-1.369C58.518,60.446,57.002,62.146,57.072,62.559z"/>
	<path fill="#FFFFFF" stroke="#B3B3B3" stroke-width="0.5" stroke-linecap="round" d="M59.284,86.119c0,0,7.062-1.118,8.971-0.102"/>
</g>
<g id="_x30_5_copy" style="display: none;">
	<polygon fill="#E6E7E7" stroke="#CCCCCC" stroke-miterlimit="10" points="57.198,57.541 60.513,64.256 67.923,65.333 62.561,70.56    63.827,77.94 57.198,74.456 50.57,77.94 51.836,70.56 46.474,65.333 53.884,64.256  "/>
	<g>
		<defs>
			<path id="SVGID_13_" d="M76.656,92.382c0,3.485-2.22,5.754-5.703,5.683H40.021c-3.483,0.071-5.785-2.197-5.785-5.683V13.074     c0-3.482,2.302-5.834,5.785-5.834h30.817c3.483,0,5.818,2.352,5.818,5.834V92.382z"/>
		</defs>
		<clipPath id="SVGID_14_">
			<use xlink:href="#SVGID_13_" overflow="visible"/>
		</clipPath>
		<linearGradient id="SVGID_15_" gradientUnits="userSpaceOnUse" x1="57.2007" y1="116.9678" x2="57.2007" y2="63.3589">
			<stop offset="0.8" style="stop-color:#000000"/>
			<stop offset="1" style="stop-color:#E6E6E6"/>
		</linearGradient>
		<path opacity="0.3" clip-path="url(#SVGID_14_)" fill="url(#SVGID_15_)" d="M48.818,116.968    c1.143-6.857,0.224-24.402,0.546-28.893c0.25-3.482,0.702-5.814,1.018-9.158c0.293-3.109,0.479-6.655,1.115-9.449    c0.634-2.795,2.794-6.351,5.969-6.096c3.175,0.253,4.598,4.372,4.966,7.331c0.369,2.956-0.786,7.148-0.277,9.687    c0.508,2.542,0.461,6.062,0.867,8.796c0.636,4.287,1.038,22.194,2.562,24.607"/>
	</g>
	<g opacity="0.4">
		<path fill="#80AADA" d="M57.57,60.861c4.232,0,7.675,3.443,7.675,7.675c0,4.232-3.443,7.675-7.675,7.675    c-4.232,0-7.675-3.442-7.675-7.675C49.895,64.304,53.338,60.861,57.57,60.861 M57.57,58.861c-5.344,0-9.675,4.333-9.675,9.675    c0,5.342,4.331,9.675,9.675,9.675c5.342,0,9.675-4.333,9.675-9.675C67.245,63.194,62.912,58.861,57.57,58.861L57.57,58.861z"/>
	</g>
	<path fill="#FFFFFF" stroke="#B3B3B3" stroke-linecap="round" d="M99.645,121.353c-2.927-5.57-8.236-12.479-10.306-14.549   c-2.921-2.921-3.81-1.65-3.81-1.65l-29.731-7.748c-3.906,2.68-11.039,3.811-12.105,5.08c-1.067,1.27-1.346,6.986-1.854,12.193   c-0.244,2.498-0.712,4.667-1.083,6.674"/>
	<path fill="#FFFFFF" stroke="#B3B3B3" stroke-linecap="round" d="M93.572,118.614c0,0-3.726-4.57-5.334-7.957   c-1.608-3.387-4.402-10.077-7.451-13.252v9.357"/>
	<path fill="#FFFFFF" stroke="#B3B3B3" stroke-linecap="round" d="M84.259,112.436c0,0-1.016-1.738-1.439-4.425   c-0.423-2.688-1.439-14.119-2.54-18.605c-1.101-4.488-2.878-5.166-5.588-5.42s-6.097,1.947-7.027,3.725v14.648"/>
	<path fill="#FFFFFF" stroke="#B3B3B3" stroke-width="0.5" stroke-linecap="round" d="M48.823,108.011c0,0,3.458,1.793,4.333,3.785"/>
	<path fill="#FFFFFF" stroke="#B3B3B3" stroke-linecap="round" d="M69.526,111.376c-1.524-2.413-0.127-20.32-0.763-24.607   c-0.405-2.734-2.158-6.255-2.667-8.796c-0.508-2.539-0.253-6.73-0.623-9.688c-0.368-2.957-1.791-7.076-4.965-7.33   s-5.335,3.303-5.97,6.096c-0.635,2.795-0.127,6.351,0.482,9.415c0.608,3.063-0.609,4.556-0.101,8.01   c0.508,3.456-1.016,23.219-2.159,30.076c-0.661,3.967-1.245,5.865-2.151,7.968"/>
	<path fill="#FFFFFF" stroke="#B3B3B3" stroke-width="0.5" stroke-linecap="round" d="M58.648,86.931c0,0,7.297-1.332,9.469,0.105"/>
	<path fill="#FFFFFF" stroke="#B3B3B3" stroke-width="0.5" stroke-linecap="round" d="M56.75,62.663   c-0.694,0.851,0.499,3.203,1.346,3.542c0.847,0.337,4.348,0.593,5.011,0c0.662-0.592,0.929-1.733,0.626-3.11   c-0.303-1.378-1.476-1.997-3.429-2.153C58.349,60.786,57.307,61.981,56.75,62.663z"/>
</g>
<g id="_x30_6_copy" style="display: none;">
	<polygon fill="#E6E7E7" stroke="#CCCCCC" stroke-miterlimit="10" points="57.198,57.541 60.513,64.256 67.923,65.333 62.561,70.56    63.827,77.94 57.198,74.456 50.57,77.94 51.836,70.56 46.474,65.333 53.884,64.256  "/>
	<g>
		<defs>
			<path id="SVGID_16_" d="M76.656,92.382c0,3.485-2.22,5.754-5.703,5.683H40.021c-3.483,0.071-5.785-2.197-5.785-5.683V13.074     c0-3.482,2.302-5.834,5.785-5.834h30.817c3.483,0,5.818,2.352,5.818,5.834V92.382z"/>
		</defs>
		<clipPath id="SVGID_17_">
			<use xlink:href="#SVGID_16_" overflow="visible"/>
		</clipPath>
		<linearGradient id="SVGID_18_" gradientUnits="userSpaceOnUse" x1="57.8335" y1="122.083" x2="57.8335" y2="63.8281">
			<stop offset="0.8259" style="stop-color:#000000"/>
			<stop offset="1" style="stop-color:#FFFFFF"/>
		</linearGradient>
		<path opacity="0.3" clip-path="url(#SVGID_17_)" fill="url(#SVGID_18_)" d="M76.656,122.083v-8.705c-0.011,0-0.022,0-0.033,0    c-1.378-2.463-2.901-4.896-4.314-6.548c-0.44-3.913-0.881-8.04-1.241-9.569c-0.508-2.159-2.159-5.477-5.842-5.469    c-2.627,0.005-4.028,1.176-5.501,3.284c-0.072-0.841-0.141-1.499-0.203-1.891c-0.381-2.413,0.149-6.256-0.274-9.644    c-0.423-3.387,4.977-12.681,4.045-15.56c-0.346-1.071-0.775-1.906-1.259-2.539c-0.001-0.001-0.002-0.004-0.004-0.006l-0.001-0.001    c-0.009-0.012-0.019-0.023-0.028-0.035c-0.667-0.731-0.673-1.576-2.771-1.568c-0.318-0.017-0.68-0.002-1.061,0.061    c-1.15,0.137-1.978,0.512-2.362,1.163c-0.734,0.698-1.89,1.871-2.558,3.348c-1.609,3.562-1.975,3.771-3.12,10.258    c-0.584,3.312-1.103,8.46-1.112,12.016c-0.006,2.359,0.027,5.442-0.22,10.874c-3.592,1.76-5.339,2.481-7.117,3.813    c-2.032,1.525-2.286,6.732-2.667,12.574"/>
	</g>
	<g opacity="0.8">
		<path fill="#80AADA" d="M57.514,62.604c3.364,0,6.1,2.736,6.1,6.1c0,3.364-2.736,6.101-6.1,6.101c-3.363,0-6.1-2.736-6.1-6.101    C51.414,65.341,54.15,62.604,57.514,62.604 M57.514,60.604c-4.474,0-8.1,3.627-8.1,8.1c0,4.473,3.626,8.101,8.1,8.101    c4.473,0,8.1-3.628,8.1-8.101C65.614,64.232,61.987,60.604,57.514,60.604L57.514,60.604z"/>
	</g>
	<path fill="#FFFFFF" stroke="#B3B3B3" stroke-linecap="round" d="M100.105,121.353c-1.418-2.324-3.775-5.222-6.956-10.104   c-5.461-8.382-7.366-6.222-7.366-6.222l-29.985-7.492c-3.694,2.664-9.641,3.174-11.166,4.57c-1.524,1.396-2.032,8.002-2.54,13.209   c-0.207,2.114-0.559,4.18-0.896,6.039"/>
	<path fill="#FFFFFF" stroke="#B3B3B3" stroke-linecap="round" d="M94.165,118.276c0,0-2.878-2.37-4.402-5.334   c-1.524-2.963-6.266-13.039-9.061-15.408v7.958"/>
	<path fill="#FFFFFF" stroke="#B3B3B3" stroke-linecap="round" d="M84.344,112.265c0,0-1.439-1.947-1.778-5.502   c-0.339-3.557-1.017-13.972-1.863-17.189c-0.847-3.217-2.455-6.096-5.758-6.096c-3.302,0-6.435,1.947-8.044,5.419v13.294"/>
	<path fill="#FFFFFF" stroke="#B3B3B3" stroke-width="0.5" stroke-linecap="round" d="M50.051,107.905c0,0,1.867,1.881,3.178,3.035"/>
	<path fill="#FFFFFF" stroke="#B3B3B3" stroke-linecap="round" d="M69.526,111.124c-1.398-2.797-1.017-18.8-0.89-21.719   c0.127-2.923-2.54-9.018-3.048-11.305c-0.508-2.287-0.381-3.302-0.762-5.97c-0.381-2.667-0.381-7.747-4.953-8.255   c-4.573-0.508-5.589,5.461-5.715,8.509c-0.128,3.049,0.38,2.414,0.654,5.081c0.272,2.666-0.146,5.588-0.02,8.58   c0.127,2.993-0.381,14.152-1.397,23.553c-0.705,6.518-2.097,10.489-3.287,13.087"/>
	<path fill="#FFFFFF" stroke="#B3B3B3" stroke-width="0.5" stroke-linecap="round" d="M58.521,87.185c0,0,6.415-1.207,9.175,0.293"/>
	<path fill="#FFFFFF" stroke="#B3B3B3" stroke-width="0.5" stroke-linecap="round" d="M56.07,65.568c0,0,0.268,2.005,1.285,2.683   c1.016,0.678,5.217,0.951,5.906-0.015c0.688-0.966,0.254-1.947,0-2.709c-0.254-0.762-1.44-1.356-3.387-1.651   C57.926,63.579,56.594,64.901,56.07,65.568z"/>
</g>
<g id="_x30_706_copy_4" style="display: none;">
	<polygon fill="#E6E7E7" stroke="#CCCCCC" stroke-miterlimit="10" points="57.193,57.5 60.508,64.216 67.918,65.293 62.556,70.52    63.822,77.899 57.193,74.416 50.565,77.899 51.831,70.52 46.469,65.293 53.879,64.216  "/>
	<g>
		<defs>
			<path id="SVGID_19_" d="M76.656,92.382c0,3.485-2.22,5.754-5.703,5.683H40.021c-3.483,0.071-5.785-2.197-5.785-5.683V13.074     c0-3.482,2.302-5.834,5.785-5.834h30.817c3.483,0,5.818,2.352,5.818,5.834V92.382z"/>
		</defs>
		<clipPath id="SVGID_20_">
			<use xlink:href="#SVGID_19_" overflow="visible"/>
		</clipPath>
		<linearGradient id="SVGID_21_" gradientUnits="userSpaceOnUse" x1="57.8286" y1="122.042" x2="57.8286" y2="64.5405">
			<stop offset="0.75" style="stop-color:#000000"/>
			<stop offset="1" style="stop-color:#FFFFFF"/>
		</linearGradient>
		<path opacity="0.3" clip-path="url(#SVGID_20_)" fill="url(#SVGID_21_)" d="M76.651,122.042v-8.705    c-0.011,0.002-0.022,0-0.033,0.002c-1.378-2.465-2.901-4.896-4.314-6.549c-0.44-3.914-0.881-8.041-1.241-9.57    c-0.508-2.158-2.159-5.476-5.842-5.467c-2.627,0.004-4.028,1.174-5.501,3.283c-0.072-0.842-0.141-1.499-0.203-1.891    c-0.38-2.412,0.149-6.256-0.274-9.644c-0.423-3.386,2.1-11.165,2.025-14.19c-0.036-1.435-0.36-4.771-4.122-4.771    c-1.15,0.137-3.194-0.014-4.347,1.699c-1.154,1.713-2.058,6.318-2.233,7.348c-0.658,3.854,0.388,2.842-0.668,8.127    c-0.658,3.297-3.443,7.367-3.452,10.924c-0.007,2.358,0.027,5.441-0.22,10.873c-3.592,1.76-2.772,0.484-4.55,1.816    c-2.032,1.525-2.286,6.73-2.667,12.573"/>
	</g>
	<circle fill="#80AADA" cx="57.591" cy="68.704" r="8.1"/>
	<path fill="#FFFFFF" stroke="#B3B3B3" stroke-linecap="round" d="M102.096,121.353c-2.899-5.784-8.656-13.294-10.847-15.488   c-2.982-2.98-3.889-1.686-3.889-1.686l-30.346-7.906c-3.987,2.733-11.266,3.889-12.355,5.186c-1.089,1.295-1.374,7.13-1.893,12.445   c-0.274,2.813-0.834,5.224-1.228,7.449"/>
	<path fill="#FFFFFF" stroke="#B3B3B3" stroke-linecap="round" d="M95.57,117.92c0,0-3.805-4.665-5.446-8.121   c-1.642-3.458-5.664-11.039-9.25-14.288l-1.156,9.408"/>
	<path fill="#FFFFFF" stroke="#B3B3B3" stroke-linecap="round" d="M86.063,111.612c0,0-4.545-11.732-5.505-17.732   c-0.96-6.001-2.479-8.465-6.48-9.24c-4.953-0.96-8.161,5.762-9.12,7.802l1.44,12.239"/>
	<path fill="#FFFFFF" stroke="#B3B3B3" stroke-width="0.5" stroke-linecap="round" d="M67.838,90.992c0,0-1.371,0.667-1.768,4.103"/>
	<path fill="#FFFFFF" stroke="#B3B3B3" stroke-linecap="round" d="M50.609,122.853c0,0,2.708-8.026,2.947-11.24   c0.24-3.213,0.121-13.292,0-16.652c-0.12-3.359-0.517-7.184-0.637-9.823c-0.12-2.64-1.32-6.576-0.999-9.937   c0.321-3.359,0.808-9.608,5.236-9.941c4.428-0.334,5.401,1.978,5.521,5.458c0.12,3.48,0,8.779,0.84,11.541   c0.84,2.76,1.321,4.541,2.28,7.9c0.96,3.36,1.56,14.28,2.641,16.32"/>
	<path fill="#FFFFFF" stroke="#B3B3B3" stroke-width="0.5" stroke-linecap="round" d="M49.043,108.806c0,0,3.341,1.733,4.186,3.658"/>
	<path fill="#FFFFFF" stroke="#B3B3B3" stroke-width="0.5" stroke-linecap="round" d="M56.39,90.992c0,0,7.583-1.388,9.68,0"/>
	<path fill="#FFFFFF" stroke="#B3B3B3" stroke-width="0.5" stroke-linecap="round" d="M55.091,66.833   c-0.671,0.82,0.481,3.094,1.299,3.42c0.818,0.327,4.2,0.573,4.84,0c0.64-0.572,0.896-1.673,0.605-3.004   c-0.292-1.332-1.425-1.928-3.312-2.079C56.636,65.019,55.629,66.173,55.091,66.833z"/>
	<path fill="#FFFFFF" stroke="#B3B3B3" stroke-width="0.5" stroke-linecap="round" d="M54.491,80.393c0,0,5.995-1.954,7.818-0.73"/>
</g>
<g id="_x30_703_copy" style="display: none;">
	<polygon fill="#E6E7E7" stroke="#CCCCCC" stroke-miterlimit="10" points="57.198,57.5 60.513,64.216 67.923,65.292 62.561,70.52    63.827,77.899 57.198,74.416 50.57,77.899 51.836,70.52 46.474,65.292 53.884,64.216  "/>
	<g>
		<defs>
			<path id="SVGID_22_" d="M76.656,92.382c0,3.485-2.22,5.754-5.703,5.683H40.021c-3.483,0.071-5.785-2.197-5.785-5.683V13.074     c0-3.482,2.302-5.834,5.785-5.834h30.817c3.483,0,5.818,2.352,5.818,5.834V92.382z"/>
		</defs>
		<clipPath id="SVGID_23_">
			<use xlink:href="#SVGID_22_" overflow="visible"/>
		</clipPath>
		<linearGradient id="SVGID_24_" gradientUnits="userSpaceOnUse" x1="57.8335" y1="122.042" x2="57.8335" y2="64.5405">
			<stop offset="0.75" style="stop-color:#000000"/>
			<stop offset="1" style="stop-color:#FFFFFF"/>
		</linearGradient>
		<path opacity="0.3" clip-path="url(#SVGID_23_)" fill="url(#SVGID_24_)" d="M76.656,122.042v-8.705    c-0.011,0.002-0.022,0-0.033,0.002c-1.378-2.465-2.901-4.896-4.314-6.549c-0.44-3.914-0.881-8.041-1.241-9.57    c-0.508-2.158-2.159-5.476-5.842-5.467c-2.627,0.004-4.028,1.174-5.501,3.283c-0.072-0.842-0.141-1.499-0.203-1.891    c-0.381-2.412,0.149-6.256-0.274-9.644c-0.423-3.386,2.1-11.165,2.025-14.19c-0.036-1.435-0.36-4.771-4.122-4.771    c-1.15,0.137-3.193-0.014-4.347,1.699c-1.154,1.713-2.058,6.318-2.233,7.348c-0.658,3.854,0.388,2.842-0.668,8.127    c-0.658,3.297-3.443,7.367-3.453,10.924c-0.006,2.358,0.027,5.441-0.22,10.873c-3.592,1.76-2.772,0.484-4.55,1.816    c-2.032,1.525-2.286,6.73-2.667,12.573"/>
	</g>
	<circle fill="#80AADA" cx="57.595" cy="68.704" r="7.425"/>
	<path fill="#FFFFFF" stroke="#B3B3B3" stroke-linecap="round" d="M102.101,121.353c-2.899-5.784-8.656-13.294-10.847-15.488   c-2.982-2.98-3.889-1.686-3.889-1.686l-30.346-7.906c-3.987,2.733-11.266,3.889-12.355,5.186c-1.089,1.295-1.374,7.13-1.893,12.445   c-0.274,2.813-0.834,5.224-1.228,7.449"/>
	<path fill="#FFFFFF" stroke="#B3B3B3" stroke-linecap="round" d="M95.575,117.92c0,0-3.804-4.665-5.445-8.121   c-1.642-3.458-5.664-11.039-9.25-14.288l-1.156,9.408"/>
	<path fill="#FFFFFF" stroke="#B3B3B3" stroke-linecap="round" d="M86.068,111.612c0,0-4.545-11.732-5.505-17.732   c-0.96-6.001-2.479-8.465-6.48-9.24c-4.953-0.96-8.161,5.762-9.121,7.802l1.44,12.239"/>
	<path fill="#FFFFFF" stroke="#B3B3B3" stroke-width="0.5" stroke-linecap="round" d="M67.843,90.992c0,0-1.371,0.667-1.768,4.103"/>
	<path fill="#FFFFFF" stroke="#B3B3B3" stroke-linecap="round" d="M50.776,122.686c0,0,2.545-7.859,2.786-11.073   c0.24-3.213,0.12-13.292,0-16.652c-0.12-3.359-0.517-7.184-0.637-9.823c-0.12-2.64-1.32-6.576-0.999-9.937   c0.321-3.359,0.808-9.609,5.236-9.941c4.428-0.333,5.401,1.979,5.52,5.459c0.121,3.48,0,8.779,0.84,11.541   c0.84,2.76,1.321,4.541,2.28,7.9c0.96,3.36,1.56,14.28,2.641,16.32"/>
	<path fill="#FFFFFF" stroke="#B3B3B3" stroke-width="0.5" stroke-linecap="round" d="M49.048,108.806c0,0,3.341,1.733,4.186,3.658"/>
	<path fill="#FFFFFF" stroke="#B3B3B3" stroke-width="0.5" stroke-linecap="round" d="M56.395,90.992c0,0,7.583-1.388,9.68,0"/>
	<path fill="#FFFFFF" stroke="#B3B3B3" stroke-width="0.5" stroke-linecap="round" d="M55.096,66.833   c-0.671,0.82,0.481,3.094,1.299,3.42c0.818,0.327,4.199,0.573,4.84,0c0.64-0.572,0.896-1.673,0.605-3.004   c-0.292-1.332-1.425-1.929-3.312-2.08C56.641,65.019,55.634,66.173,55.096,66.833z"/>
	<path fill="#FFFFFF" stroke="#B3B3B3" stroke-width="0.5" stroke-linecap="round" d="M54.496,80.393c0,0,5.995-1.954,7.818-0.73"/>
</g>
<g id="_x30_706_copy_3" style="display: none;">
	<polygon fill="#E6E7E7" stroke="#CCCCCC" stroke-miterlimit="10" points="59.654,54.8 62.969,61.516 70.379,62.592 65.017,67.819    66.283,75.2 59.654,71.716 53.026,75.2 54.292,67.819 48.93,62.592 56.34,61.516  "/>
	<g>
		<defs>
			<path id="SVGID_25_" d="M76.656,92.382c0,3.485-2.22,5.754-5.703,5.683H40.021c-3.483,0.071-5.785-2.197-5.785-5.683V13.074     c0-3.482,2.302-5.834,5.785-5.834h30.817c3.483,0,5.818,2.352,5.818,5.834V92.382z"/>
		</defs>
		<clipPath id="SVGID_26_">
			<use xlink:href="#SVGID_25_" overflow="visible"/>
		</clipPath>
		<linearGradient id="SVGID_27_" gradientUnits="userSpaceOnUse" x1="59.605" y1="125.0264" x2="59.605" y2="61.8403">
			<stop offset="0.75" style="stop-color:#000000"/>
			<stop offset="1" style="stop-color:#FFFFFF"/>
		</linearGradient>
		<path opacity="0.3" clip-path="url(#SVGID_26_)" fill="url(#SVGID_27_)" d="M40.098,124.654c0.707,0.259,1.505,0.388,2.378,0.37    h30.933c3.482,0.07,5.703-2.197,5.703-5.683v-8.704c-0.011,0.002-0.022,0-0.033,0.002c-1.378-2.465-2.901-4.898-4.314-6.551    c-0.44-3.912-0.881-8.039-1.241-9.568c-0.508-2.159-2.159-5.477-5.842-5.469c-2.627,0.006-4.028,1.176-5.501,3.285    c-0.072-0.842-0.141-1.5-0.203-1.892c-0.38-2.411,0.149-6.256-0.274-9.644c-0.423-3.385,2.1-11.166,2.025-14.19    c-0.036-1.435-0.36-4.771-4.122-4.771c-1.15,0.137-3.194-0.014-4.347,1.7c-1.154,1.713-2.058,6.319-2.233,7.348    c-0.658,3.853,0.388,2.841-0.668,8.127c-0.658,3.297-3.443,7.367-3.452,10.923c-0.007,2.358,0.027,5.442-0.22,10.874    c-3.592,1.76-2.772,0.482-4.55,1.815c-2.032,1.526-2.286,6.73-2.667,12.573C41.203,119.254,40.45,122.207,40.098,124.654z"/>
	</g>
	<circle fill="#80AADA" cx="60.052" cy="66.005" r="8.1"/>
	<path fill="#FFFFFF" stroke="#B3B3B3" stroke-linecap="round" d="M105.737,121.353c-2.069-5.849-9.473-15.632-12.027-18.188   c-2.982-2.981-3.889-1.686-3.889-1.686l-30.346-7.907c-3.987,2.733-11.266,3.889-12.355,5.186   c-1.089,1.296-1.374,7.13-1.893,12.445c-0.389,3.985-1.342,7.166-1.581,10.149"/>
	<path fill="#FFFFFF" stroke="#B3B3B3" stroke-linecap="round" d="M98.031,115.22c0,0-3.805-4.665-5.446-8.121   c-1.642-3.457-5.664-11.039-9.25-14.287l-1.156,9.408"/>
	<path fill="#FFFFFF" stroke="#B3B3B3" stroke-linecap="round" d="M88.524,108.913c0,0-4.545-11.733-5.505-17.734   c-0.96-6-2.479-8.465-6.48-9.239c-4.953-0.96-8.161,5.762-9.12,7.802l1.44,12.238"/>
	<path fill="#FFFFFF" stroke="#B3B3B3" stroke-width="0.5" stroke-linecap="round" d="M70.299,88.292c0,0-1.371,0.667-1.768,4.103"/>
	<path fill="#FFFFFF" stroke="#B3B3B3" stroke-linecap="round" d="M52.357,122.262c0,0,3.421-10.136,3.661-13.349   s0.121-13.293,0-16.654c-0.12-3.358-0.517-7.182-0.637-9.822c-0.12-2.641-1.32-6.576-0.999-9.937   c0.321-3.359,0.808-9.609,5.236-9.941c4.428-0.333,5.401,1.979,5.521,5.459c0.12,3.479,0,8.779,0.84,11.539   c0.84,2.76,1.321,4.542,2.28,7.901c0.96,3.36,1.56,14.28,2.641,16.321"/>
	<path fill="#FFFFFF" stroke="#B3B3B3" stroke-width="0.5" stroke-linecap="round" d="M51.504,106.105c0,0,3.341,1.733,4.186,3.658"/>
	<path fill="#FFFFFF" stroke="#B3B3B3" stroke-width="0.5" stroke-linecap="round" d="M58.851,88.292c0,0,7.583-1.388,9.68,0"/>
	<path fill="#FFFFFF" stroke="#B3B3B3" stroke-width="0.5" stroke-linecap="round" d="M57.552,64.133   c-0.671,0.821,0.481,3.094,1.299,3.421c0.818,0.326,4.2,0.572,4.84,0c0.64-0.572,0.896-1.674,0.605-3.004   c-0.292-1.332-1.425-1.929-3.312-2.08C59.097,62.319,58.09,63.473,57.552,64.133z"/>
	<path fill="#FFFFFF" stroke="#B3B3B3" stroke-width="0.5" stroke-linecap="round" d="M56.952,77.692c0,0,5.995-1.953,7.818-0.73"/>
</g>
<g id="_x30_706_copy_2" style="display: none;">
	<polygon fill="#E6E7E7" stroke="#CCCCCC" stroke-miterlimit="10" points="60.969,48.117 64.283,54.833 71.694,55.909    66.332,61.136 67.597,68.517 60.969,65.033 54.341,68.517 55.606,61.136 50.244,55.909 57.654,54.833  "/>
	<g>
		<defs>
			<path id="SVGID_28_" d="M76.656,92.382c0,3.485-2.22,5.754-5.703,5.683H40.021c-3.483,0.071-5.785-2.197-5.785-5.683V13.074     c0-3.482,2.302-5.834,5.785-5.834h30.817c3.483,0,5.818,2.352,5.818,5.834V92.382z"/>
		</defs>
		<clipPath id="SVGID_29_">
			<use xlink:href="#SVGID_28_" overflow="visible"/>
		</clipPath>
		<linearGradient id="SVGID_30_" gradientUnits="userSpaceOnUse" x1="60.9194" y1="118.3438" x2="60.9194" y2="55.1572">
			<stop offset="0.75" style="stop-color:#000000"/>
			<stop offset="1" style="stop-color:#FFFFFF"/>
		</linearGradient>
		<path opacity="0.3" clip-path="url(#SVGID_29_)" fill="url(#SVGID_30_)" d="M41.413,117.971c0.707,0.259,1.505,0.389,2.378,0.371    h30.933c3.482,0.07,5.703-2.197,5.703-5.683v-8.705c-0.011,0.002-0.022,0-0.033,0.002c-1.378-2.465-2.901-4.897-4.314-6.55    c-0.44-3.913-0.881-8.04-1.241-9.569c-0.508-2.158-2.159-5.476-5.842-5.468c-2.627,0.005-4.028,1.175-5.501,3.284    c-0.072-0.842-0.141-1.499-0.203-1.891c-0.381-2.412,0.149-6.257-0.274-9.645c-0.423-3.385,2.1-11.165,2.025-14.19    c-0.036-1.435-0.36-4.771-4.122-4.771c-1.15,0.137-3.193-0.014-4.347,1.699c-1.154,1.713-2.058,6.319-2.233,7.348    c-0.658,3.854,0.388,2.842-0.668,8.127c-0.658,3.297-3.443,7.367-3.453,10.923c-0.006,2.359,0.027,5.442-0.22,10.874    c-3.592,1.76-2.772,0.483-4.55,1.816c-2.032,1.525-2.286,6.73-2.667,12.573C42.517,112.571,41.764,115.524,41.413,117.971z"/>
	</g>
	<circle fill="#80AADA" cx="61.366" cy="59.322" r="8.1"/>
	<path fill="#FFFFFF" stroke="#B3B3B3" stroke-linecap="round" d="M106.39,121.353c0.742-1.651,1.208-3.062,1.208-4.131   c0-4.925-9.593-17.757-12.574-20.74c-2.982-2.98-3.889-1.686-3.889-1.686L60.79,86.89c-3.987,2.732-11.266,3.888-12.355,5.186   c-1.089,1.295-1.374,7.129-1.893,12.445c-0.519,5.313-2.074,9.203-1.556,13.092c0.099,0.744,0.42,2.08,0.869,3.74"/>
	<path fill="#FFFFFF" stroke="#B3B3B3" stroke-linecap="round" d="M99.345,108.536c0,0-3.804-4.664-5.445-8.121   c-1.642-3.457-5.664-11.039-9.25-14.287l-1.156,9.408"/>
	<path fill="#FFFFFF" stroke="#B3B3B3" stroke-linecap="round" d="M89.839,102.229c0,0-4.545-11.733-5.505-17.733   c-0.96-6.001-2.479-8.465-6.48-9.24c-4.953-0.96-8.161,5.763-9.121,7.802l1.44,12.239"/>
	<path fill="#FFFFFF" stroke="#B3B3B3" stroke-width="0.5" stroke-linecap="round" d="M71.613,81.608c0,0-1.371,0.668-1.768,4.104"/>
	<path fill="#FFFFFF" stroke="#B3B3B3" stroke-linecap="round" d="M53.671,115.579c0,0,3.42-10.137,3.661-13.35   c0.24-3.213,0.12-13.293,0-16.653c-0.12-3.359-0.517-7.183-0.637-9.823c-0.12-2.64-1.32-6.575-0.999-9.937   c0.321-3.359,0.808-9.608,5.236-9.94c4.428-0.334,5.401,1.979,5.52,5.459c0.121,3.479,0,8.779,0.84,11.54   c0.84,2.76,1.321,4.542,2.28,7.9c0.96,3.361,1.56,14.28,2.641,16.321"/>
	<path fill="#FFFFFF" stroke="#B3B3B3" stroke-width="0.5" stroke-linecap="round" d="M52.818,99.423c0,0,3.341,1.732,4.186,3.658"/>
	<path fill="#FFFFFF" stroke="#B3B3B3" stroke-width="0.5" stroke-linecap="round" d="M60.166,81.608c0,0,7.583-1.387,9.68,0"/>
	<path fill="#FFFFFF" stroke="#B3B3B3" stroke-width="0.5" stroke-linecap="round" d="M58.866,57.449   c-0.671,0.822,0.481,3.094,1.299,3.421c0.818,0.326,4.199,0.572,4.84,0c0.64-0.573,0.896-1.674,0.605-3.004   c-0.292-1.332-1.425-1.929-3.312-2.08C60.411,55.636,59.404,56.79,58.866,57.449z"/>
	<path fill="#FFFFFF" stroke="#B3B3B3" stroke-width="0.5" stroke-linecap="round" d="M58.267,71.009c0,0,5.995-1.953,7.818-0.73"/>
</g>
<g id="_x30_706_copy" style="display: none;">
	<polygon fill="#E6E7E7" stroke="#CCCCCC" stroke-miterlimit="10" points="62.354,41.3 65.669,48.016 73.079,49.092 67.717,54.32    68.983,61.7 62.354,58.216 55.726,61.7 56.992,54.32 51.629,49.092 59.04,48.016  "/>
	<g>
		<defs>
			<path id="SVGID_31_" d="M76.656,92.382c0,3.485-2.22,5.754-5.703,5.683H40.021c-3.483,0.071-5.785-2.197-5.785-5.683V13.074     c0-3.482,2.302-5.834,5.785-5.834h30.817c3.483,0,5.818,2.352,5.818,5.834V92.382z"/>
		</defs>
		<clipPath id="SVGID_32_">
			<use xlink:href="#SVGID_31_" overflow="visible"/>
		</clipPath>
		<linearGradient id="SVGID_33_" gradientUnits="userSpaceOnUse" x1="62.3052" y1="111.5264" x2="62.3052" y2="48.3403">
			<stop offset="0.75" style="stop-color:#000000"/>
			<stop offset="1" style="stop-color:#FFFFFF"/>
		</linearGradient>
		<path opacity="0.3" clip-path="url(#SVGID_32_)" fill="url(#SVGID_33_)" d="M42.798,111.154c0.707,0.259,1.505,0.388,2.378,0.37    h30.933c3.482,0.07,5.702-2.197,5.702-5.683v-8.704c-0.01,0.002-0.022,0-0.033,0.002c-1.378-2.465-2.901-4.898-4.314-6.551    c-0.44-3.912-0.881-8.039-1.241-9.568c-0.508-2.159-2.16-5.477-5.843-5.469c-2.627,0.006-4.027,1.176-5.501,3.285    c-0.072-0.842-0.141-1.5-0.203-1.892c-0.381-2.411,0.149-6.256-0.274-9.644c-0.423-3.386,2.1-11.166,2.024-14.19    c-0.036-1.435-0.36-4.771-4.122-4.771c-1.15,0.137-3.193-0.014-4.347,1.7c-1.153,1.713-2.057,6.319-2.233,7.348    c-0.659,3.853,0.388,2.841-0.668,8.127c-0.659,3.297-3.443,7.367-3.453,10.923c-0.006,2.358,0.027,5.442-0.22,10.874    c-3.592,1.76-2.772,0.482-4.55,1.815c-2.032,1.526-2.286,6.73-2.667,12.573C43.903,105.754,43.15,108.707,42.798,111.154z"/>
	</g>
	<circle fill="#80AADA" cx="62.752" cy="52.505" r="8.1"/>
	<path fill="#FFFFFF" stroke="#B3B3B3" stroke-linecap="round" d="M104.212,121.353c2.569-4.639,4.772-8.603,4.772-10.947   c0-4.926-9.594-17.758-12.574-20.74c-2.982-2.981-3.889-1.686-3.889-1.686l-30.345-7.907c-3.987,2.733-11.267,3.889-12.356,5.186   c-1.089,1.296-1.373,7.13-1.892,12.445c-0.519,5.313-2.074,9.204-1.556,13.093c0.216,1.618,1.464,5.996,2.848,10.557"/>
	<path fill="#FFFFFF" stroke="#B3B3B3" stroke-linecap="round" d="M100.731,101.72c0,0-3.804-4.665-5.446-8.121   c-1.642-3.457-5.664-11.039-9.25-14.287l-1.156,9.408"/>
	<path fill="#FFFFFF" stroke="#B3B3B3" stroke-linecap="round" d="M91.224,95.413c0,0-4.544-11.733-5.505-17.734   c-0.96-6-2.479-8.465-6.48-9.239c-4.953-0.96-8.161,5.762-9.121,7.802l1.44,12.238"/>
	<path fill="#FFFFFF" stroke="#B3B3B3" stroke-width="0.5" stroke-linecap="round" d="M72.999,74.792c0,0-1.371,0.667-1.768,4.103"/>
	<path fill="#FFFFFF" stroke="#B3B3B3" stroke-linecap="round" d="M55.057,108.762c0,0,3.42-10.136,3.661-13.349   c0.24-3.213,0.12-13.293,0-16.654c-0.12-3.358-0.518-7.182-0.637-9.822c-0.12-2.64-1.32-6.576-0.999-9.937   c0.321-3.36,0.808-9.609,5.235-9.941c4.429-0.333,5.401,1.979,5.521,5.459c0.121,3.48,0,8.78,0.84,11.54   c0.84,2.759,1.32,4.542,2.28,7.901c0.96,3.36,1.56,14.28,2.64,16.321"/>
	<path fill="#FFFFFF" stroke="#B3B3B3" stroke-width="0.5" stroke-linecap="round" d="M54.204,92.605c0,0,3.34,1.733,4.185,3.658"/>
	<path fill="#FFFFFF" stroke="#B3B3B3" stroke-width="0.5" stroke-linecap="round" d="M61.551,74.792c0,0,7.582-1.388,9.68,0"/>
	<path fill="#FFFFFF" stroke="#B3B3B3" stroke-width="0.5" stroke-linecap="round" d="M60.251,50.633   c-0.67,0.821,0.481,3.094,1.3,3.421c0.818,0.326,4.199,0.572,4.84,0c0.64-0.573,0.896-1.674,0.605-3.004   c-0.293-1.332-1.425-1.929-3.313-2.08C61.797,48.819,60.79,49.973,60.251,50.633z"/>
	<path fill="#FFFFFF" stroke="#B3B3B3" stroke-width="0.5" stroke-linecap="round" d="M59.652,64.193c0,0,5.995-1.954,7.818-0.731"/>
</g>
<g id="_x30_803" style="display: none;">
	<polygon fill="#E6E7E7" stroke="#CCCCCC" stroke-miterlimit="10" points="62.544,35.854 65.858,42.57 73.269,43.646 67.907,48.874    69.172,56.254 62.544,52.77 55.916,56.254 57.181,48.874 51.819,43.646 59.229,42.57  "/>
	<g>
		<defs>
			<path id="SVGID_34_" d="M76.656,92.382c0,3.485-2.22,5.754-5.703,5.683H40.021c-3.483,0.071-5.785-2.197-5.785-5.683V13.074     c0-3.482,2.302-5.834,5.785-5.834h30.817c3.483,0,5.818,2.352,5.818,5.834V92.382z"/>
		</defs>
		<clipPath id="SVGID_35_">
			<use xlink:href="#SVGID_34_" overflow="visible"/>
		</clipPath>
		<linearGradient id="SVGID_36_" gradientUnits="userSpaceOnUse" x1="62.4194" y1="106.0811" x2="62.4194" y2="42.895">
			<stop offset="0.75" style="stop-color:#000000"/>
			<stop offset="1" style="stop-color:#FFFFFF"/>
		</linearGradient>
		<path opacity="0.3" clip-path="url(#SVGID_35_)" fill="url(#SVGID_36_)" d="M42.913,105.708c0.707,0.259,1.505,0.389,2.378,0.371    h30.933c3.482,0.07,5.702-2.197,5.702-5.683v-8.705c-0.01,0.002-0.022,0-0.033,0.002c-1.378-2.464-2.901-4.897-4.314-6.55    c-0.44-3.912-0.881-8.04-1.241-9.569c-0.508-2.159-2.16-5.476-5.843-5.468c-2.627,0.006-4.027,1.176-5.501,3.285    c-0.072-0.843-0.141-1.5-0.203-1.893c-0.381-2.411,0.149-6.255-0.274-9.642c-0.423-3.387,2.1-11.167,2.024-14.191    c-0.036-1.435-0.36-4.771-4.122-4.771c-1.15,0.137-3.193-0.014-4.347,1.699c-1.153,1.713-2.057,6.319-2.233,7.348    c-0.659,3.853,0.388,2.841-0.668,8.127c-0.659,3.296-3.443,7.368-3.453,10.922c-0.006,2.359,0.027,5.442-0.22,10.874    c-3.592,1.76-2.772,0.483-4.55,1.815c-2.032,1.526-2.286,6.731-2.667,12.574C44.017,100.309,43.264,103.262,42.913,105.708z"/>
	</g>
	<circle fill="#80AADA" cx="63.766" cy="47.06" r="8.1"/>
	<path fill="#FFFFFF" stroke="#B3B3B3" stroke-linecap="round" d="M100.128,121.353c3.466-6.894,7.47-13.159,7.47-16.393   c0-4.926-9.593-17.758-12.574-20.74c-2.982-2.982-3.889-1.687-3.889-1.687L60.79,74.627c-3.987,2.733-11.267,3.888-12.355,5.186   c-1.089,1.296-1.374,7.13-1.893,12.445c-0.518,5.313-2.073,9.204-1.556,13.092c0.303,2.269,2.482,9.973,4.246,16.003"/>
	<path fill="#FFFFFF" stroke="#B3B3B3" stroke-linecap="round" d="M99.345,96.274c0,0-3.803-4.666-5.445-8.121   c-1.643-3.458-5.665-11.039-9.25-14.287l-1.156,9.407"/>
	<path fill="#FFFFFF" stroke="#B3B3B3" stroke-linecap="round" d="M88.879,89.968c0,0-2.625-11.734-3.585-17.734   s-2.479-8.465-6.48-9.24c-4.953-0.96-9.121,5.764-10.081,7.803l0.48,12.238"/>
	<path fill="#FFFFFF" stroke="#B3B3B3" stroke-width="0.5" stroke-linecap="round" d="M52.818,87.16c0,0,4.103,2.83,4.947,4.755"/>
	<path fill="#FFFFFF" stroke="#B3B3B3" stroke-width="0.5" stroke-linecap="round" d="M74.187,69.347c0,0-2.571,0.666-3.313,4.103"/>
	<path fill="#FFFFFF" stroke="#B3B3B3" stroke-linecap="round" d="M53.671,103.315c0,0,3.421-10.135,3.661-13.348   c0.24-3.214,0.84-13.293,0.72-16.654c-0.12-3.359-0.517-7.182-0.637-9.822c-0.12-2.641-0.12-6.577,0.201-9.938   c0.321-3.36,0.809-9.609,5.237-9.941c4.428-0.333,5.4,1.979,5.52,5.459c0.12,3.479-0.255,8.4,0.12,11.54   c0.342,2.864,0.84,4.541,1.8,7.902c0.96,3.359,1.32,14.641,4.801,18"/>
	<path fill="#FFFFFF" stroke="#B3B3B3" stroke-width="0.5" stroke-linecap="round" d="M60.886,69.347c0,0,7.583-1.389,9.68,0"/>
	<path fill="#FFFFFF" stroke="#B3B3B3" stroke-width="0.5" stroke-linecap="round" d="M60.445,57.831c0,0,5.902-1.388,7.536,0"/>
	<path fill="#FFFFFF" stroke="#B3B3B3" stroke-width="0.5" stroke-linecap="round" d="M60.426,45.347   c-0.737,0.9,0.53,3.388,1.43,3.747c0.9,0.357,4.623,0.626,5.327,0c0.704-0.627,0.988-1.834,0.667-3.291   c-0.323-1.458-1.569-2.113-3.646-2.278C62.126,43.36,61.019,44.625,60.426,45.347z"/>
</g>
<g id="_x30_802" style="display: none;">
	<polygon fill="#E6E7E7" stroke="#CCCCCC" stroke-miterlimit="10" points="62.544,30.455 65.858,37.17 73.269,38.247 67.907,43.474    69.172,50.854 62.544,47.37 55.916,50.854 57.181,43.474 51.819,38.247 59.229,37.17  "/>
	<linearGradient id="SVGID_37_" gradientUnits="userSpaceOnUse" x1="62.4194" y1="100.6807" x2="62.4194" y2="37.4946">
		<stop offset="0.75" style="stop-color:#000000"/>
		<stop offset="1" style="stop-color:#FFFFFF"/>
	</linearGradient>
	<path opacity="0.3" fill="url(#SVGID_37_)" d="M42.913,100.309c0.707,0.259,1.505,0.388,2.378,0.37h30.933   c3.482,0.07,5.702-2.197,5.702-5.683v-8.704c-0.01,0.002-0.022,0-0.033,0.002c-1.378-2.465-2.901-4.898-4.314-6.551   c-0.44-3.912-0.881-8.039-1.241-9.568c-0.508-2.159-2.16-5.476-5.843-5.468c-2.627,0.005-4.027,1.175-5.501,3.285   c-0.072-0.842-0.141-1.5-0.203-1.892c-0.381-2.412,0.149-6.255-0.274-9.643c-0.423-3.386,2.1-11.166,2.024-14.191   c-0.036-1.435-0.36-4.771-4.122-4.771c-1.15,0.137-3.193-0.014-4.347,1.7c-1.153,1.713-2.057,6.319-2.233,7.348   c-0.659,3.853,0.388,2.841-0.668,8.127c-0.659,3.296-3.443,7.367-3.453,10.923c-0.006,2.358,0.027,5.442-0.22,10.874   c-3.592,1.76-2.772,0.482-4.55,1.815c-2.032,1.526-2.286,6.73-2.667,12.573C44.017,94.908,43.264,97.861,42.913,100.309z"/>
	<circle fill="#80AADA" cx="63.766" cy="41.66" r="8.1"/>
	<path fill="#FFFFFF" stroke="#B3B3B3" stroke-linecap="round" d="M97.64,121.353c3.63-8.876,9.958-17.728,9.958-21.793   c0-4.926-9.593-17.758-12.574-20.74c-2.982-2.981-3.889-1.686-3.889-1.686L60.79,69.227c-3.987,2.733-11.267,3.889-12.355,5.186   c-1.089,1.296-1.374,7.13-1.893,12.445c-0.518,5.313-2.073,9.204-1.556,13.093c0.408,3.06,4.232,16.018,5.844,21.402"/>
	<path fill="#FFFFFF" stroke="#B3B3B3" stroke-linecap="round" d="M99.345,90.874c0,0-3.803-4.665-5.445-8.121   c-1.643-3.457-5.665-11.039-9.25-14.287l-1.156,9.408"/>
	<path fill="#FFFFFF" stroke="#B3B3B3" stroke-linecap="round" d="M88.879,84.567c0,0-2.625-11.733-3.585-17.734   c-0.96-6-2.479-8.464-6.48-9.24c-4.953-0.96-9.121,5.763-10.081,7.802l0.48,12.238"/>
	<path fill="#FFFFFF" stroke="#B3B3B3" stroke-width="0.5" stroke-linecap="round" d="M52.818,81.76c0,0,4.103,2.83,4.947,4.755"/>
	<path fill="#FFFFFF" stroke="#B3B3B3" stroke-width="0.5" stroke-linecap="round" d="M74.187,63.946c0,0-2.571,0.667-3.313,4.103"/>
	<path fill="#FFFFFF" stroke="#B3B3B3" stroke-linecap="round" d="M53.671,97.916c0,0,3.421-10.136,3.661-13.349   c0.24-3.213,0.84-13.293,0.72-16.654c-0.12-3.359-0.517-7.182-0.637-9.822c-0.12-2.64-0.12-6.577,0.201-9.937   c0.321-3.36,0.809-9.609,5.237-9.941c4.428-0.333,5.4,1.979,5.52,5.459c0.12,3.48-0.255,8.4,0.12,11.54   c0.342,2.865,0.84,4.541,1.8,7.901c0.96,3.36,1.32,14.642,4.801,18"/>
	<path fill="#FFFFFF" stroke="#B3B3B3" stroke-width="0.5" stroke-linecap="round" d="M60.886,63.946c0,0,7.583-1.388,9.68,0"/>
	<path fill="#FFFFFF" stroke="#B3B3B3" stroke-width="0.5" stroke-linecap="round" d="M60.445,52.431c0,0,5.902-1.388,7.536,0"/>
	<path fill="#FFFFFF" stroke="#B3B3B3" stroke-width="0.5" stroke-linecap="round" d="M60.426,39.947   c-0.737,0.9,0.53,3.387,1.43,3.747c0.9,0.356,4.623,0.626,5.327,0c0.704-0.627,0.988-1.834,0.667-3.291   c-0.323-1.458-1.569-2.113-3.646-2.278S61.019,39.225,60.426,39.947z"/>
</g>
<g id="_x30_801" style="display: none;">
	<polygon fill="#E6E7E7" stroke="#CCCCCC" stroke-miterlimit="10" points="59.823,27.84 63.138,34.556 70.548,35.632 65.186,40.86    66.452,48.24 59.823,44.756 53.195,48.24 54.46,40.86 49.098,35.632 56.509,34.556  "/>
	<linearGradient id="SVGID_38_" gradientUnits="userSpaceOnUse" x1="59.8491" y1="98.0664" x2="59.8491" y2="34.8804">
		<stop offset="0.75" style="stop-color:#000000"/>
		<stop offset="1" style="stop-color:#FFFFFF"/>
	</linearGradient>
	<path opacity="0.3" fill="url(#SVGID_38_)" d="M40.342,97.694c0.707,0.259,1.505,0.388,2.378,0.37h30.933   c3.482,0.071,5.702-2.197,5.702-5.683v-8.704c-0.01,0.001-0.022,0-0.033,0.001c-1.379-2.464-2.901-4.896-4.314-6.549   c-0.44-3.913-0.881-8.04-1.241-9.569c-0.508-2.159-2.16-5.476-5.843-5.468c-2.627,0.005-4.027,1.175-5.501,3.284   c-0.072-0.841-0.141-1.499-0.203-1.891c-0.38-2.413,0.149-6.256-0.274-9.644c-0.423-3.386,2.1-11.166,2.024-14.191   c-0.036-1.435-0.36-4.771-4.122-4.771c-1.15,0.137-3.193-0.014-4.347,1.7c-1.153,1.713-2.058,6.319-2.233,7.348   c-0.658,3.853,0.388,2.841-0.668,8.127c-0.658,3.296-3.442,7.367-3.452,10.923c-0.006,2.358,0.027,5.442-0.22,10.874   c-3.592,1.759-2.772,0.482-4.55,1.815c-2.032,1.525-2.286,6.73-2.667,12.573C41.447,92.294,40.694,95.247,40.342,97.694z"/>
	<circle fill="#80AADA" cx="59.396" cy="39.045" r="8.1"/>
	<path fill="#FFFFFF" stroke="#B3B3B3" stroke-linecap="round" d="M50.616,121.058c0,0-6.482-19.834-7-23.723   c-0.518-3.889,1.038-7.777,1.556-13.092s0.803-11.15,1.892-12.445c1.089-1.297,8.369-2.451,12.356-5.186l30.346,7.907   c0,0,0.906-1.296,3.888,1.686c2.981,2.983,12.574,15.815,12.574,20.741c0,4.407-7.778,14.518-11.149,24.111"/>
	<path fill="#FFFFFF" stroke="#B3B3B3" stroke-linecap="round" d="M97.975,88.259c0,0-3.804-4.664-5.446-8.119   c-1.642-3.459-5.664-11.041-9.25-14.288l-1.156,9.408"/>
	<path fill="#FFFFFF" stroke="#B3B3B3" stroke-linecap="round" d="M88.469,81.953c0,0-4.545-11.733-5.505-17.734   c-0.959-6-2.479-8.465-6.48-9.24c-4.953-0.96-8.161,5.763-9.121,7.802l1.441,12.239"/>
	<path fill="#FFFFFF" stroke="#B3B3B3" stroke-width="0.5" stroke-linecap="round" d="M70.243,61.332c0,0-1.371,0.667-1.768,4.102"/>
	<path fill="#FFFFFF" stroke="#B3B3B3" stroke-linecap="round" d="M52.301,95.302c0,0,3.421-10.137,3.661-13.349   c0.24-3.213,0.12-13.294,0-16.653c-0.12-3.36-0.277-7.183-0.397-9.823s-1.561-6.577-1.239-9.937   c0.321-3.36,0.569-9.609,4.997-9.941c4.427-0.333,5.4,1.979,5.521,5.459c0.12,3.48,0.479,8.78,1.32,11.54   c0.84,2.76,1.08,4.541,2.041,7.901c0.96,3.36,1.56,14.281,2.639,16.321"/>
	<path fill="#FFFFFF" stroke="#B3B3B3" stroke-width="0.5" stroke-linecap="round" d="M51.448,79.146c0,0,3.341,1.732,4.185,3.658"/>
	<path fill="#FFFFFF" stroke="#B3B3B3" stroke-width="0.5" stroke-linecap="round" d="M58.795,61.332c0,0,7.583-1.388,9.68,0"/>
	<path fill="#FFFFFF" stroke="#B3B3B3" stroke-width="0.5" stroke-linecap="round" d="M58.122,50.523c0,0,5.534-1.388,7.065,0"/>
	<path fill="#FFFFFF" stroke="#B3B3B3" stroke-width="0.5" stroke-linecap="round" d="M57.016,37.173   c-0.671,0.821,0.481,3.094,1.3,3.421c0.817,0.326,4.2,0.572,4.84,0c0.639-0.573,0.897-1.674,0.605-3.004   c-0.292-1.332-1.425-1.929-3.312-2.08C58.561,35.359,57.554,36.513,57.016,37.173z"/>
</g>
<g id="_x30_8_1_" style="display: none;">
	<polygon fill="#E6E7E7" stroke="#CCCCCC" stroke-miterlimit="10" points="57.198,27.84 60.513,34.556 67.923,35.632 62.561,40.86    63.827,48.24 57.198,44.756 50.57,48.24 51.836,40.86 46.474,35.632 53.884,34.556  "/>
	<linearGradient id="SVGID_39_" gradientUnits="userSpaceOnUse" x1="58.0493" y1="98.0664" x2="58.0493" y2="34.8804">
		<stop offset="0.75" style="stop-color:#000000"/>
		<stop offset="1" style="stop-color:#FFFFFF"/>
	</linearGradient>
	<path opacity="0.3" fill="url(#SVGID_39_)" d="M38.542,97.694c0.707,0.259,1.505,0.388,2.378,0.37h30.933   c3.482,0.071,5.703-2.197,5.703-5.683v-8.704c-0.011,0.001-0.022,0-0.033,0.001c-1.378-2.464-2.901-4.896-4.314-6.549   c-0.44-3.913-0.88-8.04-1.241-9.569c-0.508-2.159-2.159-5.476-5.842-5.468c-2.627,0.005-4.028,1.175-5.501,3.284   c-0.072-0.841-0.141-1.499-0.203-1.891c-0.38-2.413,0.149-6.256-0.274-9.644c-0.423-3.386,2.1-11.166,2.025-14.191   c-0.036-1.435-0.36-4.771-4.122-4.771c-1.15,0.137-3.194-0.014-4.347,1.7c-1.154,1.713-2.058,6.319-2.233,7.348   c-0.658,3.853,0.388,2.841-0.668,8.127c-0.658,3.296-3.443,7.367-3.452,10.923c-0.007,2.358,0.027,5.442-0.22,10.874   c-3.592,1.759-2.772,0.482-4.55,1.815c-2.032,1.525-2.286,6.73-2.667,12.573C39.646,92.294,38.894,95.247,38.542,97.694z"/>
	<circle fill="#80AADA" cx="57.596" cy="39.045" r="8.1"/>
	<path fill="#FFFFFF" stroke="#B3B3B3" stroke-linecap="round" d="M49.416,121.058c0,0-6.482-19.834-7-23.723   c-0.519-3.889,1.037-7.777,1.556-13.092s0.803-11.15,1.892-12.445c1.089-1.297,8.369-2.451,12.356-5.186l30.345,7.907   c0,0,0.906-1.296,3.889,1.686c2.98,2.983,12.574,15.815,12.574,20.741c0,4.407-7.777,14.518-11.149,24.111"/>
	<path fill="#FFFFFF" stroke="#B3B3B3" stroke-linecap="round" d="M96.774,88.259c0,0-3.804-4.664-5.445-8.119   c-1.642-3.459-5.664-11.041-9.25-14.288l-1.156,9.408"/>
	<path fill="#FFFFFF" stroke="#B3B3B3" stroke-linecap="round" d="M87.269,81.953c0,0-4.545-11.733-5.505-17.734   c-0.96-6-2.479-8.465-6.481-9.24c-4.953-0.96-8.16,5.763-9.12,7.802l1.44,12.239"/>
	<path fill="#FFFFFF" stroke="#B3B3B3" stroke-width="0.5" stroke-linecap="round" d="M69.043,61.332c0,0-1.372,0.667-1.768,4.102"/>
	<path fill="#FFFFFF" stroke="#B3B3B3" stroke-linecap="round" d="M51.101,95.302c0,0,3.421-10.137,3.661-13.349   c0.24-3.213,0.12-13.294,0-16.653c-0.12-3.36-0.757-7.183-0.877-9.823c-0.12-2.64-1.8-6.577-1.479-9.937   c0.321-3.36,0.328-9.609,4.756-9.941c4.428-0.333,5.401,1.979,5.52,5.459c0.121,3.48,0.961,8.78,1.801,11.54   c0.84,2.76,1.56,4.541,2.52,7.901c0.96,3.36,1.56,14.281,2.64,16.321"/>
	<path fill="#FFFFFF" stroke="#B3B3B3" stroke-width="0.5" stroke-linecap="round" d="M50.248,79.146c0,0,3.34,1.732,4.185,3.658"/>
	<path fill="#FFFFFF" stroke="#B3B3B3" stroke-width="0.5" stroke-linecap="round" d="M57.595,61.332c0,0,7.583-1.388,9.68,0"/>
	<path fill="#FFFFFF" stroke="#B3B3B3" stroke-width="0.5" stroke-linecap="round" d="M55.457,50.733c0,0,5.995-1.954,7.818-0.731"/>
	<path fill="#FFFFFF" stroke="#B3B3B3" stroke-width="0.5" stroke-linecap="round" d="M55.096,37.173   c-0.671,0.821,0.481,3.094,1.299,3.421c0.818,0.326,4.199,0.572,4.84,0c0.64-0.573,0.896-1.674,0.605-3.004   c-0.292-1.332-1.425-1.929-3.312-2.08C56.641,35.359,55.634,36.513,55.096,37.173z"/>
</g>
<g id="_x30_706" style="display: none;">
	<polygon fill="#E6E7E7" stroke="#CCCCCC" stroke-miterlimit="10" points="57.198,27.84 60.513,34.556 67.923,35.632 62.561,40.86    63.827,48.24 57.198,44.756 50.57,48.24 51.836,40.86 46.474,35.632 53.884,34.556  "/>
	<linearGradient id="SVGID_40_" gradientUnits="userSpaceOnUse" x1="57.1489" y1="98.0664" x2="57.1489" y2="34.8804">
		<stop offset="0.75" style="stop-color:#000000"/>
		<stop offset="1" style="stop-color:#FFFFFF"/>
	</linearGradient>
	<path opacity="0.3" fill="url(#SVGID_40_)" d="M37.642,97.694c0.707,0.259,1.505,0.388,2.378,0.37h30.933   c3.482,0.071,5.703-2.197,5.703-5.683v-8.704c-0.011,0.001-0.022,0-0.033,0.001c-1.378-2.464-2.901-4.896-4.314-6.549   c-0.44-3.913-0.881-8.04-1.241-9.569c-0.508-2.159-2.159-5.476-5.842-5.468c-2.627,0.005-4.028,1.175-5.501,3.284   c-0.072-0.841-0.141-1.499-0.203-1.891c-0.381-2.413,0.149-6.256-0.274-9.644c-0.423-3.386,2.1-11.166,2.025-14.191   c-0.036-1.435-0.36-4.771-4.122-4.771c-1.15,0.137-3.193-0.014-4.347,1.7c-1.154,1.713-2.058,6.319-2.233,7.348   c-0.658,3.853,0.388,2.841-0.668,8.127c-0.658,3.296-3.443,7.367-3.453,10.923c-0.006,2.358,0.027,5.442-0.22,10.874   c-3.592,1.759-2.772,0.482-4.55,1.815c-2.032,1.525-2.286,6.73-2.667,12.573C38.747,92.294,37.994,95.247,37.642,97.694z"/>
	<circle fill="#80AADA" cx="57.596" cy="39.045" r="8.1"/>
	<path fill="#FFFFFF" stroke="#B3B3B3" stroke-linecap="round" d="M48.216,121.058c0,0-6.482-19.834-7-23.723   s1.037-7.777,1.556-13.092c0.519-5.314,0.803-11.15,1.893-12.445c1.089-1.297,8.368-2.451,12.355-5.186l30.346,7.907   c0,0,0.906-1.296,3.889,1.686c2.981,2.983,12.574,15.815,12.574,20.741c0,4.407-7.778,14.518-11.149,24.111"/>
	<path fill="#FFFFFF" stroke="#B3B3B3" stroke-linecap="round" d="M95.575,88.259c0,0-3.804-4.664-5.445-8.119   c-1.642-3.459-5.664-11.041-9.25-14.288l-1.156,9.408"/>
	<path fill="#FFFFFF" stroke="#B3B3B3" stroke-linecap="round" d="M86.068,81.953c0,0-4.545-11.733-5.505-17.734   c-0.96-6-2.479-8.465-6.48-9.24c-4.953-0.96-8.161,5.763-9.121,7.802l1.44,12.239"/>
	<path fill="#FFFFFF" stroke="#B3B3B3" stroke-width="0.5" stroke-linecap="round" d="M67.843,61.332c0,0-1.371,0.667-1.768,4.102"/>
	<path fill="#FFFFFF" stroke="#B3B3B3" stroke-linecap="round" d="M49.901,95.302c0,0,3.42-10.137,3.661-13.349   c0.24-3.213,0.12-13.294,0-16.653c-0.12-3.36-0.517-7.183-0.637-9.823c-0.12-2.64-1.32-6.577-0.999-9.937   c0.321-3.36,0.808-9.609,5.236-9.941c4.428-0.333,5.401,1.979,5.52,5.459c0.121,3.48,0,8.78,0.84,11.54   c0.84,2.76,1.321,4.541,2.28,7.901c0.96,3.36,1.56,14.281,2.641,16.321"/>
	<path fill="#FFFFFF" stroke="#B3B3B3" stroke-width="0.5" stroke-linecap="round" d="M49.048,79.146c0,0,3.341,1.732,4.186,3.658"/>
	<path fill="#FFFFFF" stroke="#B3B3B3" stroke-width="0.5" stroke-linecap="round" d="M56.395,61.332c0,0,7.583-1.388,9.68,0"/>
	<path fill="#FFFFFF" stroke="#B3B3B3" stroke-width="0.5" stroke-linecap="round" d="M55.096,37.173   c-0.671,0.821,0.481,3.094,1.299,3.421c0.818,0.326,4.199,0.572,4.84,0c0.64-0.573,0.896-1.674,0.605-3.004   c-0.292-1.332-1.425-1.929-3.312-2.08C56.641,35.359,55.634,36.513,55.096,37.173z"/>
	<path fill="#FFFFFF" stroke="#B3B3B3" stroke-width="0.5" stroke-linecap="round" d="M54.496,50.733c0,0,5.995-1.954,7.818-0.731"/>
</g>
<g id="_x30_705" style="display: none;">
	<polygon fill="#E6E7E7" stroke="#CCCCCC" stroke-miterlimit="10" points="57.198,27.84 60.513,34.556 67.923,35.632 62.561,40.86    63.827,48.24 57.198,44.756 50.57,48.24 51.836,40.86 46.474,35.632 53.884,34.556  "/>
	<linearGradient id="SVGID_41_" gradientUnits="userSpaceOnUse" x1="57.1489" y1="98.0664" x2="57.1489" y2="34.8804">
		<stop offset="0.75" style="stop-color:#000000"/>
		<stop offset="1" style="stop-color:#FFFFFF"/>
	</linearGradient>
	<path opacity="0.3" fill="url(#SVGID_41_)" d="M37.642,97.694c0.707,0.259,1.505,0.388,2.378,0.37h30.933   c3.482,0.071,5.703-2.197,5.703-5.683v-8.704c-0.011,0.001-0.022,0-0.033,0.001c-1.378-2.464-2.901-4.896-4.314-6.549   c-0.44-3.913-0.881-8.04-1.241-9.569c-0.508-2.159-2.159-5.476-5.842-5.468c-2.627,0.005-4.028,1.175-5.501,3.284   c-0.072-0.841-0.141-1.499-0.203-1.891c-0.381-2.413,0.149-6.256-0.274-9.644c-0.423-3.386,2.1-11.166,2.025-14.191   c-0.036-1.435-0.36-4.771-4.122-4.771c-1.15,0.137-3.193-0.014-4.347,1.7c-1.154,1.713-2.058,6.319-2.233,7.348   c-0.658,3.853,0.388,2.841-0.668,8.127c-0.658,3.296-3.443,7.367-3.453,10.923c-0.006,2.358,0.027,5.442-0.22,10.874   c-3.592,1.759-2.772,0.482-4.55,1.815c-2.032,1.525-2.286,6.73-2.667,12.573C38.747,92.294,37.994,95.247,37.642,97.694z"/>
	<circle fill="#80AADA" cx="57.596" cy="39.045" r="7.875"/>
	<path fill="#FFFFFF" stroke="#B3B3B3" stroke-linecap="round" d="M48.216,121.058c0,0-6.482-19.834-7-23.723   s1.037-7.777,1.556-13.092c0.519-5.314,0.803-11.15,1.893-12.445c1.089-1.297,8.368-2.451,12.355-5.186l30.346,7.907   c0,0,0.906-1.296,3.889,1.686c2.981,2.983,12.574,15.815,12.574,20.741c0,4.407-7.778,14.518-11.149,24.111"/>
	<path fill="#FFFFFF" stroke="#B3B3B3" stroke-linecap="round" d="M95.575,88.259c0,0-3.804-4.664-5.445-8.119   c-1.642-3.459-5.664-11.041-9.25-14.288l-1.156,9.408"/>
	<path fill="#FFFFFF" stroke="#B3B3B3" stroke-linecap="round" d="M86.068,81.953c0,0-4.545-11.733-5.505-17.734   c-0.96-6-2.479-8.465-6.48-9.24c-4.953-0.96-8.161,5.763-9.121,7.802l1.44,12.239"/>
	<path fill="#FFFFFF" stroke="#B3B3B3" stroke-width="0.5" stroke-linecap="round" d="M67.843,61.332c0,0-1.371,0.667-1.768,4.102"/>
	<path fill="#FFFFFF" stroke="#B3B3B3" stroke-linecap="round" d="M49.901,95.302c0,0,3.42-10.137,3.661-13.349   c0.24-3.213,0.12-13.294,0-16.653c-0.12-3.36-0.517-7.183-0.637-9.823c-0.12-2.64-1.32-6.577-0.999-9.937   c0.321-3.36,0.808-9.609,5.236-9.941c4.428-0.333,5.401,1.979,5.52,5.459c0.121,3.48,0,8.78,0.84,11.54   c0.84,2.76,1.321,4.541,2.28,7.901c0.96,3.36,1.56,14.281,2.641,16.321"/>
	<path fill="#FFFFFF" stroke="#B3B3B3" stroke-width="0.5" stroke-linecap="round" d="M49.048,79.146c0,0,3.341,1.732,4.186,3.658"/>
	<path fill="#FFFFFF" stroke="#B3B3B3" stroke-width="0.5" stroke-linecap="round" d="M56.395,61.332c0,0,7.583-1.388,9.68,0"/>
	<path fill="#FFFFFF" stroke="#B3B3B3" stroke-width="0.5" stroke-linecap="round" d="M55.096,37.173   c-0.671,0.821,0.481,3.094,1.299,3.421c0.818,0.326,4.199,0.572,4.84,0c0.64-0.573,0.896-1.674,0.605-3.004   c-0.292-1.332-1.425-1.929-3.312-2.08C56.641,35.359,55.634,36.513,55.096,37.173z"/>
	<path fill="#FFFFFF" stroke="#B3B3B3" stroke-width="0.5" stroke-linecap="round" d="M54.496,50.733c0,0,5.995-1.954,7.818-0.731"/>
</g>
<g id="_x30_704" style="display: none;">
	<polygon fill="#E6E7E7" stroke="#CCCCCC" stroke-miterlimit="10" points="57.198,27.84 60.513,34.556 67.923,35.632 62.561,40.86    63.827,48.24 57.198,44.756 50.57,48.24 51.836,40.86 46.474,35.632 53.884,34.556  "/>
	<linearGradient id="SVGID_42_" gradientUnits="userSpaceOnUse" x1="57.1489" y1="98.0664" x2="57.1489" y2="34.8804">
		<stop offset="0.75" style="stop-color:#000000"/>
		<stop offset="1" style="stop-color:#FFFFFF"/>
	</linearGradient>
	<path opacity="0.3" fill="url(#SVGID_42_)" d="M37.642,97.694c0.707,0.259,1.505,0.388,2.378,0.37h30.933   c3.482,0.071,5.703-2.197,5.703-5.683v-8.704c-0.011,0.001-0.022,0-0.033,0.001c-1.378-2.464-2.901-4.896-4.314-6.549   c-0.44-3.913-0.881-8.04-1.241-9.569c-0.508-2.159-2.159-5.476-5.842-5.468c-2.627,0.005-4.028,1.175-5.501,3.284   c-0.072-0.841-0.141-1.499-0.203-1.891c-0.381-2.413,0.149-6.256-0.274-9.644c-0.423-3.386,2.1-11.166,2.025-14.191   c-0.036-1.435-0.36-4.771-4.122-4.771c-1.15,0.137-3.193-0.014-4.347,1.7c-1.154,1.713-2.058,6.319-2.233,7.348   c-0.658,3.853,0.388,2.841-0.668,8.127c-0.658,3.296-3.443,7.367-3.453,10.923c-0.006,2.358,0.027,5.442-0.22,10.874   c-3.592,1.759-2.772,0.482-4.55,1.815c-2.032,1.525-2.286,6.73-2.667,12.573C38.747,92.294,37.994,95.247,37.642,97.694z"/>
	<circle fill="#80AADA" cx="57.596" cy="39.045" r="7.65"/>
	<path fill="#FFFFFF" stroke="#B3B3B3" stroke-linecap="round" d="M48.216,121.058c0,0-6.482-19.834-7-23.723   s1.037-7.777,1.556-13.092c0.519-5.314,0.803-11.15,1.893-12.445c1.089-1.297,8.368-2.451,12.355-5.186l30.346,7.907   c0,0,0.906-1.296,3.889,1.686c2.981,2.983,12.574,15.815,12.574,20.741c0,4.407-7.778,14.518-11.149,24.111"/>
	<path fill="#FFFFFF" stroke="#B3B3B3" stroke-linecap="round" d="M95.575,88.259c0,0-3.804-4.664-5.445-8.119   c-1.642-3.459-5.664-11.041-9.25-14.288l-1.156,9.408"/>
	<path fill="#FFFFFF" stroke="#B3B3B3" stroke-linecap="round" d="M86.068,81.953c0,0-4.545-11.733-5.505-17.734   c-0.96-6-2.479-8.465-6.48-9.24c-4.953-0.96-8.161,5.763-9.121,7.802l1.44,12.239"/>
	<path fill="#FFFFFF" stroke="#B3B3B3" stroke-width="0.5" stroke-linecap="round" d="M67.843,61.332c0,0-1.371,0.667-1.768,4.102"/>
	<path fill="#FFFFFF" stroke="#B3B3B3" stroke-linecap="round" d="M49.901,95.302c0,0,3.42-10.137,3.661-13.349   c0.24-3.213,0.12-13.294,0-16.653c-0.12-3.36-0.517-7.183-0.637-9.823c-0.12-2.64-1.32-6.577-0.999-9.937   c0.321-3.36,0.808-9.609,5.236-9.941c4.428-0.333,5.401,1.979,5.52,5.459c0.121,3.48,0,8.78,0.84,11.54   c0.84,2.76,1.321,4.541,2.28,7.901c0.96,3.36,1.56,14.281,2.641,16.321"/>
	<path fill="#FFFFFF" stroke="#B3B3B3" stroke-width="0.5" stroke-linecap="round" d="M49.048,79.146c0,0,3.341,1.732,4.186,3.658"/>
	<path fill="#FFFFFF" stroke="#B3B3B3" stroke-width="0.5" stroke-linecap="round" d="M56.395,61.332c0,0,7.583-1.388,9.68,0"/>
	<path fill="#FFFFFF" stroke="#B3B3B3" stroke-width="0.5" stroke-linecap="round" d="M55.096,37.173   c-0.671,0.821,0.481,3.094,1.299,3.421c0.818,0.326,4.199,0.572,4.84,0c0.64-0.573,0.896-1.674,0.605-3.004   c-0.292-1.332-1.425-1.929-3.312-2.08C56.641,35.359,55.634,36.513,55.096,37.173z"/>
	<path fill="#FFFFFF" stroke="#B3B3B3" stroke-width="0.5" stroke-linecap="round" d="M54.496,50.733c0,0,5.995-1.954,7.818-0.731"/>
</g>
<g id="_x30_703" style="display: none;">
	<polygon fill="#E6E7E7" stroke="#CCCCCC" stroke-miterlimit="10" points="57.198,27.84 60.513,34.556 67.923,35.632 62.561,40.86    63.827,48.24 57.198,44.756 50.57,48.24 51.836,40.86 46.474,35.632 53.884,34.556  "/>
	<linearGradient id="SVGID_43_" gradientUnits="userSpaceOnUse" x1="57.1489" y1="98.0664" x2="57.1489" y2="34.8804">
		<stop offset="0.75" style="stop-color:#000000"/>
		<stop offset="1" style="stop-color:#FFFFFF"/>
	</linearGradient>
	<path opacity="0.3" fill="url(#SVGID_43_)" d="M37.642,97.694c0.707,0.259,1.505,0.388,2.378,0.37h30.933   c3.482,0.071,5.703-2.197,5.703-5.683v-8.704c-0.011,0.001-0.022,0-0.033,0.001c-1.378-2.464-2.901-4.896-4.314-6.549   c-0.44-3.913-0.881-8.04-1.241-9.569c-0.508-2.159-2.159-5.476-5.842-5.468c-2.627,0.005-4.028,1.175-5.501,3.284   c-0.072-0.841-0.141-1.499-0.203-1.891c-0.381-2.413,0.149-6.256-0.274-9.644c-0.423-3.386,2.1-11.166,2.025-14.191   c-0.036-1.435-0.36-4.771-4.122-4.771c-1.15,0.137-3.193-0.014-4.347,1.7c-1.154,1.713-2.058,6.319-2.233,7.348   c-0.658,3.853,0.388,2.841-0.668,8.127c-0.658,3.296-3.443,7.367-3.453,10.923c-0.006,2.358,0.027,5.442-0.22,10.874   c-3.592,1.759-2.772,0.482-4.55,1.815c-2.032,1.525-2.286,6.73-2.667,12.573C38.747,92.294,37.994,95.247,37.642,97.694z"/>
	<circle fill="#80AADA" cx="57.595" cy="39.045" r="7.425"/>
	<path fill="#FFFFFF" stroke="#B3B3B3" stroke-linecap="round" d="M48.216,121.058c0,0-6.482-19.834-7-23.723   s1.037-7.777,1.556-13.092c0.519-5.314,0.803-11.15,1.893-12.445c1.089-1.297,8.368-2.451,12.355-5.186l30.346,7.907   c0,0,0.906-1.296,3.889,1.686c2.981,2.983,12.574,15.815,12.574,20.741c0,4.407-7.778,14.518-11.149,24.111"/>
	<path fill="#FFFFFF" stroke="#B3B3B3" stroke-linecap="round" d="M95.575,88.259c0,0-3.804-4.664-5.445-8.119   c-1.642-3.459-5.664-11.041-9.25-14.288l-1.156,9.408"/>
	<path fill="#FFFFFF" stroke="#B3B3B3" stroke-linecap="round" d="M86.068,81.953c0,0-4.545-11.733-5.505-17.734   c-0.96-6-2.479-8.465-6.48-9.24c-4.953-0.96-8.161,5.763-9.121,7.802l1.44,12.239"/>
	<path fill="#FFFFFF" stroke="#B3B3B3" stroke-width="0.5" stroke-linecap="round" d="M67.843,61.332c0,0-1.371,0.667-1.768,4.102"/>
	<path fill="#FFFFFF" stroke="#B3B3B3" stroke-linecap="round" d="M49.901,95.302c0,0,3.42-10.137,3.661-13.349   c0.24-3.213,0.12-13.294,0-16.653c-0.12-3.36-0.517-7.183-0.637-9.823c-0.12-2.64-1.32-6.577-0.999-9.937   c0.321-3.36,0.808-9.609,5.236-9.941c4.428-0.333,5.401,1.979,5.52,5.459c0.121,3.48,0,8.78,0.84,11.54   c0.84,2.76,1.321,4.541,2.28,7.901c0.96,3.36,1.56,14.281,2.641,16.321"/>
	<path fill="#FFFFFF" stroke="#B3B3B3" stroke-width="0.5" stroke-linecap="round" d="M49.048,79.146c0,0,3.341,1.732,4.186,3.658"/>
	<path fill="#FFFFFF" stroke="#B3B3B3" stroke-width="0.5" stroke-linecap="round" d="M56.395,61.332c0,0,7.583-1.388,9.68,0"/>
	<path fill="#FFFFFF" stroke="#B3B3B3" stroke-width="0.5" stroke-linecap="round" d="M55.096,37.173   c-0.671,0.821,0.481,3.094,1.299,3.421c0.818,0.326,4.199,0.572,4.84,0c0.64-0.573,0.896-1.674,0.605-3.004   c-0.292-1.332-1.425-1.929-3.312-2.08C56.641,35.359,55.634,36.513,55.096,37.173z"/>
	<path fill="#FFFFFF" stroke="#B3B3B3" stroke-width="0.5" stroke-linecap="round" d="M54.496,50.733c0,0,5.995-1.954,7.818-0.731"/>
</g>
<g id="_x30_702" style="display: none;">
	<polygon fill="#E6E7E7" stroke="#CCCCCC" stroke-miterlimit="10" points="57.198,27.84 60.513,34.556 67.923,35.632 62.561,40.86    63.827,48.24 57.198,44.756 50.57,48.24 51.836,40.86 46.474,35.632 53.884,34.556  "/>
	<linearGradient id="SVGID_44_" gradientUnits="userSpaceOnUse" x1="57.1489" y1="98.0664" x2="57.1489" y2="34.8804">
		<stop offset="0.75" style="stop-color:#000000"/>
		<stop offset="1" style="stop-color:#FFFFFF"/>
	</linearGradient>
	<path opacity="0.3" fill="url(#SVGID_44_)" d="M37.642,97.694c0.707,0.259,1.505,0.388,2.378,0.37h30.933   c3.482,0.071,5.703-2.197,5.703-5.683v-8.704c-0.011,0.001-0.022,0-0.033,0.001c-1.378-2.464-2.901-4.896-4.314-6.549   c-0.44-3.913-0.881-8.04-1.241-9.569c-0.508-2.159-2.159-5.476-5.842-5.468c-2.627,0.005-4.028,1.175-5.501,3.284   c-0.072-0.841-0.141-1.499-0.203-1.891c-0.381-2.413,0.149-6.256-0.274-9.644c-0.423-3.386,2.1-11.166,2.025-14.191   c-0.036-1.435-0.36-4.771-4.122-4.771c-1.15,0.137-3.193-0.014-4.347,1.7c-1.154,1.713-2.058,6.319-2.233,7.348   c-0.658,3.853,0.388,2.841-0.668,8.127c-0.658,3.296-3.443,7.367-3.453,10.923c-0.006,2.358,0.027,5.442-0.22,10.874   c-3.592,1.759-2.772,0.482-4.55,1.815c-2.032,1.525-2.286,6.73-2.667,12.573C38.747,92.294,37.994,95.247,37.642,97.694z"/>
	<circle fill="#80AADA" cx="57.595" cy="39.045" r="7.2"/>
	<path fill="#FFFFFF" stroke="#B3B3B3" stroke-linecap="round" d="M48.216,121.058c0,0-6.482-19.834-7-23.723   s1.037-7.777,1.556-13.092c0.519-5.314,0.803-11.15,1.893-12.445c1.089-1.297,8.368-2.451,12.355-5.186l30.346,7.907   c0,0,0.906-1.296,3.889,1.686c2.981,2.983,12.574,15.815,12.574,20.741c0,4.407-7.778,14.518-11.149,24.111"/>
	<path fill="#FFFFFF" stroke="#B3B3B3" stroke-linecap="round" d="M95.575,88.259c0,0-3.804-4.664-5.445-8.119   c-1.642-3.459-5.664-11.041-9.25-14.288l-1.156,9.408"/>
	<path fill="#FFFFFF" stroke="#B3B3B3" stroke-linecap="round" d="M86.068,81.953c0,0-4.545-11.733-5.505-17.734   c-0.96-6-2.479-8.465-6.48-9.24c-4.953-0.96-8.161,5.763-9.121,7.802l1.44,12.239"/>
	<path fill="#FFFFFF" stroke="#B3B3B3" stroke-width="0.5" stroke-linecap="round" d="M67.843,61.332c0,0-1.371,0.667-1.768,4.102"/>
	<path fill="#FFFFFF" stroke="#B3B3B3" stroke-linecap="round" d="M49.901,95.302c0,0,3.42-10.137,3.661-13.349   c0.24-3.213,0.12-13.294,0-16.653c-0.12-3.36-0.517-7.183-0.637-9.823c-0.12-2.64-1.32-6.577-0.999-9.937   c0.321-3.36,0.808-9.609,5.236-9.941c4.428-0.333,5.401,1.979,5.52,5.459c0.121,3.48,0,8.78,0.84,11.54   c0.84,2.76,1.321,4.541,2.28,7.901c0.96,3.36,1.56,14.281,2.641,16.321"/>
	<path fill="#FFFFFF" stroke="#B3B3B3" stroke-width="0.5" stroke-linecap="round" d="M49.048,79.146c0,0,3.341,1.732,4.186,3.658"/>
	<path fill="#FFFFFF" stroke="#B3B3B3" stroke-width="0.5" stroke-linecap="round" d="M56.395,61.332c0,0,7.583-1.388,9.68,0"/>
	<path fill="#FFFFFF" stroke="#B3B3B3" stroke-width="0.5" stroke-linecap="round" d="M55.096,37.173   c-0.671,0.821,0.481,3.094,1.299,3.421c0.818,0.326,4.199,0.572,4.84,0c0.64-0.573,0.896-1.674,0.605-3.004   c-0.292-1.332-1.425-1.929-3.312-2.08C56.641,35.359,55.634,36.513,55.096,37.173z"/>
	<path fill="#FFFFFF" stroke="#B3B3B3" stroke-width="0.5" stroke-linecap="round" d="M54.496,50.733c0,0,5.995-1.954,7.818-0.731"/>
</g>
<g id="_x30_701" style="display: none;">
	<polygon fill="#E6E7E7" stroke="#CCCCCC" stroke-miterlimit="10" points="57.198,27.84 60.513,34.556 67.923,35.632 62.561,40.86    63.827,48.24 57.198,44.756 50.57,48.24 51.836,40.86 46.474,35.632 53.884,34.556  "/>
	<linearGradient id="SVGID_45_" gradientUnits="userSpaceOnUse" x1="57.1489" y1="98.0664" x2="57.1489" y2="34.8804">
		<stop offset="0.75" style="stop-color:#000000"/>
		<stop offset="1" style="stop-color:#FFFFFF"/>
	</linearGradient>
	<path opacity="0.3" fill="url(#SVGID_45_)" d="M37.642,97.694c0.707,0.259,1.505,0.388,2.378,0.37h30.933   c3.482,0.071,5.703-2.197,5.703-5.683v-8.704c-0.011,0.001-0.022,0-0.033,0.001c-1.378-2.464-2.901-4.896-4.314-6.549   c-0.44-3.913-0.881-8.04-1.241-9.569c-0.508-2.159-2.159-5.476-5.842-5.468c-2.627,0.005-4.028,1.175-5.501,3.284   c-0.072-0.841-0.141-1.499-0.203-1.891c-0.381-2.413,0.149-6.256-0.274-9.644c-0.423-3.386,2.1-11.166,2.025-14.191   c-0.036-1.435-0.36-4.771-4.122-4.771c-1.15,0.137-3.193-0.014-4.347,1.7c-1.154,1.713-2.058,6.319-2.233,7.348   c-0.658,3.853,0.388,2.841-0.668,8.127c-0.658,3.296-3.443,7.367-3.453,10.923c-0.006,2.358,0.027,5.442-0.22,10.874   c-3.592,1.759-2.772,0.482-4.55,1.815c-2.032,1.525-2.286,6.73-2.667,12.573C38.747,92.294,37.994,95.247,37.642,97.694z"/>
	<circle fill="#80AADA" cx="57.595" cy="39.045" r="6.975"/>
	<path fill="#FFFFFF" stroke="#B3B3B3" stroke-linecap="round" d="M48.216,121.058c0,0-6.482-19.834-7-23.723   s1.037-7.777,1.556-13.092c0.519-5.314,0.803-11.15,1.893-12.445c1.089-1.297,8.368-2.451,12.355-5.186l30.346,7.907   c0,0,0.906-1.296,3.889,1.686c2.981,2.983,12.574,15.815,12.574,20.741c0,4.407-7.778,14.518-11.149,24.111"/>
	<path fill="#FFFFFF" stroke="#B3B3B3" stroke-linecap="round" d="M95.575,88.259c0,0-3.804-4.664-5.445-8.119   c-1.642-3.459-5.664-11.041-9.25-14.288l-1.156,9.408"/>
	<path fill="#FFFFFF" stroke="#B3B3B3" stroke-linecap="round" d="M86.068,81.953c0,0-4.545-11.733-5.505-17.734   c-0.96-6-2.479-8.465-6.48-9.24c-4.953-0.96-8.161,5.763-9.121,7.802l1.44,12.239"/>
	<path fill="#FFFFFF" stroke="#B3B3B3" stroke-width="0.5" stroke-linecap="round" d="M67.843,61.332c0,0-1.371,0.667-1.768,4.102"/>
	<path fill="#FFFFFF" stroke="#B3B3B3" stroke-linecap="round" d="M49.901,95.302c0,0,3.42-10.137,3.661-13.349   c0.24-3.213,0.12-13.294,0-16.653c-0.12-3.36-0.517-7.183-0.637-9.823c-0.12-2.64-1.32-6.577-0.999-9.937   c0.321-3.36,0.808-9.609,5.236-9.941c4.428-0.333,5.401,1.979,5.52,5.459c0.121,3.48,0,8.78,0.84,11.54   c0.84,2.76,1.321,4.541,2.28,7.901c0.96,3.36,1.56,14.281,2.641,16.321"/>
	<path fill="#FFFFFF" stroke="#B3B3B3" stroke-width="0.5" stroke-linecap="round" d="M49.048,79.146c0,0,3.341,1.732,4.186,3.658"/>
	<path fill="#FFFFFF" stroke="#B3B3B3" stroke-width="0.5" stroke-linecap="round" d="M56.395,61.332c0,0,7.583-1.388,9.68,0"/>
	<path fill="#FFFFFF" stroke="#B3B3B3" stroke-width="0.5" stroke-linecap="round" d="M55.096,37.173   c-0.671,0.821,0.481,3.094,1.299,3.421c0.818,0.326,4.199,0.572,4.84,0c0.64-0.573,0.896-1.674,0.605-3.004   c-0.292-1.332-1.425-1.929-3.312-2.08C56.641,35.359,55.634,36.513,55.096,37.173z"/>
	<path fill="#FFFFFF" stroke="#B3B3B3" stroke-width="0.5" stroke-linecap="round" d="M54.496,50.733c0,0,5.995-1.954,7.818-0.731"/>
</g>
<g id="_x30_7" style="display: none;">
	<polygon fill="#E6E7E7" stroke="#CCCCCC" stroke-miterlimit="10" points="57.198,27.84 60.513,34.556 67.923,35.632 62.561,40.86    63.827,48.24 57.198,44.756 50.57,48.24 51.836,40.86 46.474,35.632 53.884,34.556  "/>
	<linearGradient id="SVGID_46_" gradientUnits="userSpaceOnUse" x1="57.1489" y1="98.0664" x2="57.1489" y2="34.8804">
		<stop offset="0.75" style="stop-color:#000000"/>
		<stop offset="1" style="stop-color:#FFFFFF"/>
	</linearGradient>
	<path opacity="0.3" fill="url(#SVGID_46_)" d="M37.642,97.694c0.707,0.259,1.505,0.388,2.378,0.37h30.933   c3.482,0.071,5.703-2.197,5.703-5.683v-8.704c-0.011,0.001-0.022,0-0.033,0.001c-1.378-2.464-2.901-4.896-4.314-6.549   c-0.44-3.913-0.881-8.04-1.241-9.569c-0.508-2.159-2.159-5.476-5.842-5.468c-2.627,0.005-4.028,1.175-5.501,3.284   c-0.072-0.841-0.141-1.499-0.203-1.891c-0.381-2.413,0.149-6.256-0.274-9.644c-0.423-3.386,2.1-11.166,2.025-14.191   c-0.036-1.435-0.36-4.771-4.122-4.771c-1.15,0.137-3.193-0.014-4.347,1.7c-1.154,1.713-2.058,6.319-2.233,7.348   c-0.658,3.853,0.388,2.841-0.668,8.127c-0.658,3.296-3.443,7.367-3.453,10.923c-0.006,2.358,0.027,5.442-0.22,10.874   c-3.592,1.759-2.772,0.482-4.55,1.815c-2.032,1.525-2.286,6.73-2.667,12.573C38.747,92.294,37.994,95.247,37.642,97.694z"/>
	<circle fill="#80AADA" cx="57.595" cy="39.045" r="6.723"/>
	<path fill="#FFFFFF" stroke="#B3B3B3" stroke-linecap="round" d="M48.216,121.058c0,0-6.482-19.834-7-23.723   s1.037-7.777,1.556-13.092c0.519-5.314,0.803-11.15,1.893-12.445c1.089-1.297,8.368-2.451,12.355-5.186l30.346,7.907   c0,0,0.906-1.296,3.889,1.686c2.981,2.983,12.574,15.815,12.574,20.741c0,4.407-7.778,14.518-11.149,24.111"/>
	<path fill="#FFFFFF" stroke="#B3B3B3" stroke-linecap="round" d="M95.575,88.259c0,0-3.804-4.664-5.445-8.119   c-1.642-3.459-5.664-11.041-9.25-14.288l-1.156,9.408"/>
	<path fill="#FFFFFF" stroke="#B3B3B3" stroke-linecap="round" d="M86.068,81.953c0,0-4.545-11.733-5.505-17.734   c-0.96-6-2.479-8.465-6.48-9.24c-4.953-0.96-8.161,5.763-9.121,7.802l1.44,12.239"/>
	<path fill="#FFFFFF" stroke="#B3B3B3" stroke-width="0.5" stroke-linecap="round" d="M67.843,61.332c0,0-1.371,0.667-1.768,4.102"/>
	<path fill="#FFFFFF" stroke="#B3B3B3" stroke-linecap="round" d="M49.901,95.302c0,0,3.42-10.137,3.661-13.349   c0.24-3.213,0.12-13.294,0-16.653c-0.12-3.36-0.517-7.183-0.637-9.823c-0.12-2.64-1.32-6.577-0.999-9.937   c0.321-3.36,0.808-9.609,5.236-9.941c4.428-0.333,5.401,1.979,5.52,5.459c0.121,3.48,0,8.78,0.84,11.54   c0.84,2.76,1.321,4.541,2.28,7.901c0.96,3.36,1.56,14.281,2.641,16.321"/>
	<path fill="#FFFFFF" stroke="#B3B3B3" stroke-width="0.5" stroke-linecap="round" d="M49.048,79.146c0,0,3.341,1.732,4.186,3.658"/>
	<path fill="#FFFFFF" stroke="#B3B3B3" stroke-width="0.5" stroke-linecap="round" d="M56.395,61.332c0,0,7.583-1.388,9.68,0"/>
	<path fill="#FFFFFF" stroke="#B3B3B3" stroke-width="0.5" stroke-linecap="round" d="M55.096,37.173   c-0.671,0.821,0.481,3.094,1.299,3.421c0.818,0.326,4.199,0.572,4.84,0c0.64-0.573,0.896-1.674,0.605-3.004   c-0.292-1.332-1.425-1.929-3.312-2.08C56.641,35.359,55.634,36.513,55.096,37.173z"/>
	<path fill="#FFFFFF" stroke="#B3B3B3" stroke-width="0.5" stroke-linecap="round" d="M54.496,50.733c0,0,5.995-1.954,7.818-0.731"/>
</g>
<g id="_x30_6_1_" style="display: none;">
	<polygon fill="#E6E7E7" stroke="#CCCCCC" stroke-miterlimit="10" points="57.198,27.84 60.513,34.556 67.923,35.632 62.561,40.86    63.827,48.24 57.198,44.756 50.57,48.24 51.836,40.86 46.474,35.632 53.884,34.556  "/>
	<linearGradient id="SVGID_47_" gradientUnits="userSpaceOnUse" x1="57.1489" y1="98.0664" x2="57.1489" y2="34.1279">
		<stop offset="0.8259" style="stop-color:#000000"/>
		<stop offset="1" style="stop-color:#FFFFFF"/>
	</linearGradient>
	<path opacity="0.3" fill="url(#SVGID_47_)" d="M37.642,97.694c0.707,0.259,1.505,0.388,2.378,0.37h30.933   c3.482,0.071,5.703-2.197,5.703-5.683v-8.704c-0.011,0.001-0.022,0-0.033,0.001c-1.378-2.464-2.901-4.896-4.314-6.549   c-0.44-3.913-0.881-8.04-1.241-9.569c-0.508-2.159-2.159-5.476-5.842-5.468c-2.627,0.005-4.028,1.175-5.501,3.284   c-0.072-0.841-0.141-1.499-0.203-1.891c-0.381-2.413,0.149-6.256-0.274-9.644c-0.423-3.386,4.977-12.681,4.045-15.56   c-0.346-1.07-0.775-1.905-1.259-2.538c-0.001-0.002-0.002-0.004-0.004-0.006l-0.001-0.001c-0.009-0.012-0.019-0.022-0.028-0.034   c-0.667-0.732-0.673-1.576-2.771-1.568c-0.318-0.017-0.68-0.002-1.061,0.061c-1.15,0.137-1.978,0.513-2.362,1.163   c-0.734,0.697-1.89,1.87-2.558,3.348c-1.609,3.562-1.975,3.772-3.12,10.258c-0.584,3.311-1.103,8.46-1.112,12.016   c-0.006,2.359,0.027,5.442-0.22,10.874c-3.592,1.76-5.339,2.481-7.117,3.814c-2.032,1.525-2.286,6.73-2.667,12.573   C38.747,92.294,37.994,95.247,37.642,97.694z"/>
	<path fill="#FFFFFF" stroke="#B3B3B3" stroke-linecap="round" d="M47.173,121.049c0,0-2.541-7.622-3.683-11.431   c-1.143-3.812-3.048-9.527-3.176-11.685c-0.126-2.159,1.271-7.112,1.779-12.319c0.507-5.208,1.016-11.812,2.54-13.209   c1.524-1.396,7.471-1.906,11.166-4.572l29.985,7.493c0,0,1.905-2.159,7.366,6.222c5.461,8.383,8.51,10.924,8.51,14.733   s-9.399,20.321-10.923,24.768"/>
	<path fill="#FFFFFF" stroke="#B3B3B3" stroke-linecap="round" d="M94.165,88.577c0,0-2.878-2.371-4.402-5.336   c-1.524-2.963-6.266-13.038-9.061-15.408v7.959"/>
	<path fill="#FFFFFF" stroke="#B3B3B3" stroke-linecap="round" d="M84.344,82.565c0,0-1.439-1.948-1.778-5.504   c-0.339-3.555-1.017-13.97-1.863-17.188s-2.455-6.096-5.758-6.096c-3.302,0-6.435,1.947-8.044,5.419V72.49"/>
	<path fill="#FFFFFF" stroke="#B3B3B3" stroke-width="0.5" stroke-linecap="round" d="M50.051,78.204c0,0,1.867,1.881,3.178,3.037"/>
	<path fill="#FFFFFF" stroke="#B3B3B3" stroke-linecap="round" d="M48.57,96.028c0,0,3.811-6.732,4.826-16.129   c1.016-9.4,1.524-20.561,1.397-23.554c-0.127-2.992,0.292-5.914,0.02-8.58c-0.274-2.667-0.782-2.032-0.654-5.081   c0.126-3.048,1.143-9.017,5.715-8.509c4.572,0.508,4.572,5.588,4.953,8.255c0.381,2.668,0.254,3.683,0.762,5.969   c0.508,2.287,3.175,8.382,3.048,11.304c-0.126,2.92-0.508,18.923,0.89,21.718"/>
	<path fill="#FFFFFF" stroke="#B3B3B3" stroke-width="0.5" stroke-linecap="round" d="M58.521,57.485c0,0,6.415-1.208,9.175,0.293"/>
	<path fill="#FFFFFF" stroke="#B3B3B3" stroke-width="0.5" stroke-linecap="round" d="M56.07,35.868c0,0,0.268,2.005,1.285,2.684   c1.016,0.678,5.217,0.951,5.906-0.015c0.688-0.965,0.254-1.947,0-2.708c-0.254-0.763-1.44-1.356-3.387-1.652   C57.926,33.879,56.594,35.201,56.07,35.868z"/>
</g>
<g id="_x30_5_1_" style="display: none;">
	<polygon fill="#E6E7E7" stroke="#CCCCCC" stroke-miterlimit="10" points="57.198,27.84 60.513,34.556 67.923,35.632 62.561,40.86    63.827,48.24 57.198,44.756 50.57,48.24 51.836,40.86 46.474,35.632 53.884,34.556  "/>
	<g>
		<defs>
			<path id="SVGID_48_" d="M76.656,92.382c0,3.485-2.22,5.754-5.703,5.683H40.021c-3.483,0.071-5.785-2.197-5.785-5.683V13.074     c0-3.482,2.302-5.834,5.785-5.834h30.817c3.483,0,5.818,2.352,5.818,5.834V92.382z"/>
		</defs>
		<clipPath id="SVGID_49_">
			<use xlink:href="#SVGID_48_" overflow="visible"/>
		</clipPath>
		<path opacity="0.3" clip-path="url(#SVGID_49_)" d="M44.629,124.483c0,0-6.351-19.434-6.859-23.243    c-0.507-3.81,1.017-7.62,1.524-12.827c0.509-5.207,0.787-10.924,1.854-12.193c1.067-1.271,8.2-2.401,12.106-5.08l29.73,7.747    c0,0,0.889-1.271,3.811,1.651c2.92,2.922,12.32,15.494,12.32,20.32c0,4.319-7.62,14.225-10.923,23.625"/>
		<linearGradient id="SVGID_50_" gradientUnits="userSpaceOnUse" x1="55.2319" y1="99.0781" x2="55.2319" y2="33.6587">
			<stop offset="0.8" style="stop-color:#000000"/>
			<stop offset="1" style="stop-color:#E6E6E6"/>
		</linearGradient>
		<path opacity="0.3" clip-path="url(#SVGID_49_)" fill="url(#SVGID_50_)" d="M44.88,99.078c0,0,2.794-4.954,3.938-11.812    c1.143-6.856,0.224-24.402,0.546-28.891c0.25-3.483,0.702-5.814,1.018-9.157c0.293-3.11,0.479-6.657,1.115-9.451    c0.634-2.794,2.794-6.351,5.969-6.097c3.175,0.254,4.598,4.373,4.966,7.33c0.369,2.958-0.786,7.149-0.277,9.688    c0.508,2.541,0.461,6.061,0.867,8.794c0.636,4.288,1.038,22.195,2.562,24.609"/>
	</g>
	<path fill="#FFFFFF" stroke="#B3B3B3" stroke-linecap="round" d="M47.173,121.049c0,0-6.351-19.433-6.859-23.243   c-0.507-3.809,1.017-7.619,1.525-12.826s0.787-10.924,1.854-12.193c1.067-1.271,8.199-2.402,12.105-5.08l29.731,7.747   c0,0,0.889-1.271,3.81,1.65c2.92,2.923,12.32,15.495,12.32,20.321c0,4.318-7.62,14.225-10.923,23.624"/>
	<path fill="#FFFFFF" stroke="#B3B3B3" stroke-linecap="round" d="M93.572,88.914c0,0-3.726-4.57-5.334-7.956   c-1.608-3.388-4.402-10.078-7.451-13.252v9.355"/>
	<path fill="#FFFFFF" stroke="#B3B3B3" stroke-linecap="round" d="M84.259,82.735c0,0-1.016-1.738-1.439-4.426   c-0.423-2.688-1.439-14.118-2.54-18.605c-1.101-4.488-2.878-5.165-5.588-5.419c-2.71-0.254-6.097,1.948-7.027,3.726v14.647"/>
	<path fill="#FFFFFF" stroke="#B3B3B3" stroke-width="0.5" stroke-linecap="round" d="M48.823,78.31c0,0,3.458,1.795,4.333,3.787"/>
	<path fill="#FFFFFF" stroke="#B3B3B3" stroke-linecap="round" d="M48.823,96.661c0,0,2.794-4.953,3.938-11.811   s2.667-26.619,2.159-30.074c-0.508-3.455,0.709-4.947,0.101-8.011c-0.609-3.064-1.117-6.621-0.482-9.415s2.795-6.351,5.97-6.097   s4.598,4.373,4.965,7.33c0.37,2.958,0.115,7.149,0.623,9.688c0.509,2.541,2.262,6.061,2.667,8.794   c0.636,4.288-0.762,22.195,0.763,24.608"/>
	<path fill="#FFFFFF" stroke="#B3B3B3" stroke-width="0.5" stroke-linecap="round" d="M58.648,57.23c0,0,7.297-1.332,9.469,0.105"/>
	<path fill="#FFFFFF" stroke="#B3B3B3" stroke-width="0.5" stroke-linecap="round" d="M56.75,32.963   c-0.694,0.851,0.499,3.202,1.346,3.542c0.847,0.338,4.348,0.592,5.011,0c0.662-0.593,0.929-1.733,0.626-3.11   c-0.303-1.378-1.476-1.997-3.429-2.153C58.349,31.085,57.307,32.281,56.75,32.963z"/>
</g>
<g id="_x30_4_1_" style="display: none;">
	<polygon fill="#E6E7E7" stroke="#CCCCCC" stroke-miterlimit="10" points="57.198,27.84 60.513,34.556 67.923,35.632 62.561,40.86    63.827,48.24 57.198,44.756 50.57,48.24 51.836,40.86 46.474,35.632 53.884,34.556  "/>
	<g>
		<defs>
			<path id="SVGID_51_" d="M76.656,92.382c0,3.485-2.22,5.754-5.703,5.683H40.021c-3.483,0.071-5.785-2.197-5.785-5.683V13.074     c0-3.482,2.302-5.834,5.785-5.834h30.817c3.483,0,5.818,2.352,5.818,5.834V92.382z"/>
		</defs>
		<clipPath id="SVGID_52_">
			<use xlink:href="#SVGID_51_" overflow="visible"/>
		</clipPath>
		<path opacity="0.3" clip-path="url(#SVGID_52_)" d="M44.629,124.483c0,0-6.351-19.434-6.859-23.243    c-0.507-3.81,1.017-7.62,1.524-12.827c0.509-5.207,0.787-10.924,1.854-12.193c1.067-1.271,8.2-2.401,12.106-5.08l29.73,7.747    c0,0,0.889-1.271,3.811,1.651c2.92,2.922,12.32,15.494,12.32,20.32c0,4.319-7.62,14.225-10.923,23.625"/>
		<linearGradient id="SVGID_53_" gradientUnits="userSpaceOnUse" x1="53.3872" y1="100.5947" x2="53.3872" y2="34.4727">
			<stop offset="0.65" style="stop-color:#000000"/>
			<stop offset="1" style="stop-color:#E6E6E6"/>
		</linearGradient>
		<path opacity="0.3" clip-path="url(#SVGID_52_)" fill="url(#SVGID_53_)" d="M42.973,100.595c1.779-2.158,3.877-6.403,4.954-17.398    c1.077-10.995,1.524-22.048,1.271-24.741c-0.254-2.693,0.866-6.132,0.75-8.349c-0.116-2.219-1.259-4.035-0.878-6.873    c0.381-2.839,1.525-8.712,5.715-8.76c4.191-0.047,4.7,3.521,5.335,6.436c0.635,2.915,0.127,8.335,0.635,10.642    c0.507,2.307,2.249,7.579,2.413,9.196c0.253,2.51-0.89,22.705,0.635,24.99"/>
	</g>
	<path fill="#FFFFFF" stroke="#B3B3B3" stroke-linecap="round" d="M46.918,121.049c0,0-6.731-19.94-6.731-22.989   c0-3.047,0.762-5.714,1.651-12.445c0.889-6.732,0.635-10.283,1.714-12.064c1.08-1.781,12.245-5.336,12.245-5.336l29.604,7.239   c0,0,1.778-1.017,3.557,1.144c1.778,2.158,12.701,16.829,12.701,20.639s-9.11,19.133-10.923,23.813"/>
	<path fill="#FFFFFF" stroke="#B3B3B3" stroke-linecap="round" d="M93.996,89.509c0,0-3.387-3.725-5.334-7.789   s-6.097-12.449-8.722-13.887l0.339,10.838"/>
	<path fill="#FFFFFF" stroke="#B3B3B3" stroke-linecap="round" d="M84.174,83.667c0,0-0.876-2.006-1.44-5.504   c-0.562-3.5-1.608-15.581-2.794-19.221c-1.185-3.641-3.218-4.233-5.757-4.402c-2.541-0.17-6.351,2.878-6.858,3.471   c-0.508,0.593,0,15.834,0,15.834"/>
	<path fill="#FFFFFF" stroke="#B3B3B3" stroke-width="0.5" stroke-linecap="round" d="M50.475,78.671c0,0,2.135,1.404,3.1,2.734"/>
	<path fill="#FFFFFF" stroke="#B3B3B3" stroke-linecap="round" d="M48.823,96.917c1.778-2.158,3.877-6.404,4.954-17.4   c1.077-10.994,1.524-22.047,1.271-24.74c-0.254-2.693,0.866-6.132,0.75-8.349c-0.116-2.219-1.259-4.035-0.878-6.873   c0.381-2.838,1.525-8.712,5.715-8.76c4.191-0.047,4.7,3.521,5.334,6.436c0.636,2.915,0.127,8.335,0.636,10.642   c0.507,2.307,2.249,7.579,2.413,9.196c0.253,2.51-0.89,22.705,0.634,24.99"/>
	<path fill="#FFFFFF" stroke="#B3B3B3" stroke-width="0.5" stroke-linecap="round" d="M57.072,32.858   c0.214,1.26,1.277,2.376,2.166,2.714c0.889,0.339,4.107,0.508,4.869,0c0.762-0.508,0.876-2.664,0-3.409   c-0.876-0.745-1.355-1.321-3.472-1.37C58.518,30.747,57.002,32.445,57.072,32.858z"/>
	<path fill="#FFFFFF" stroke="#B3B3B3" stroke-width="0.5" stroke-linecap="round" d="M59.284,56.419c0,0,7.062-1.118,8.971-0.102"/>
</g>
<g id="_x30_3_1_" style="display: none;">
	<polygon fill="#E6E7E7" stroke="#CCCCCC" stroke-miterlimit="10" points="57.198,27.84 60.513,34.556 67.923,35.632 62.561,40.86    63.827,48.24 57.198,44.756 50.57,48.24 51.836,40.86 46.474,35.632 53.884,34.556  "/>
	<g>
		<defs>
			<path id="SVGID_54_" d="M76.656,92.382c0,3.485-2.22,5.754-5.703,5.683H40.021c-3.483,0.071-5.785-2.197-5.785-5.683V13.074     c0-3.482,2.302-5.834,5.785-5.834h30.817c3.483,0,5.818,2.352,5.818,5.834V92.382z"/>
		</defs>
		<clipPath id="SVGID_55_">
			<use xlink:href="#SVGID_54_" overflow="visible"/>
		</clipPath>
		<path opacity="0.3" clip-path="url(#SVGID_55_)" d="M44.629,124.483c0,0-6.351-19.434-6.859-23.243    c-0.507-3.81,1.017-7.62,1.524-12.827c0.509-5.207,0.787-10.924,1.854-12.193c1.067-1.271,8.2-2.401,12.106-5.08l29.73,7.747    c0,0,0.889-1.271,3.811,1.651c2.92,2.922,12.32,15.494,12.32,20.32c0,4.319-7.62,14.225-10.923,23.625"/>
		<linearGradient id="SVGID_56_" gradientUnits="userSpaceOnUse" x1="52.4126" y1="101.5791" x2="52.4126" y2="35.187">
			<stop offset="0.4956" style="stop-color:#000000"/>
			<stop offset="1" style="stop-color:#E6E6E6"/>
		</linearGradient>
		<path opacity="0.3" clip-path="url(#SVGID_55_)" fill="url(#SVGID_56_)" d="M41.871,101.579c0,0,2.709-7.025,4.064-13.547    c1.354-6.52,3.278-21.59,2.867-24.977c-0.412-3.387,0.412-8.373,0.621-10.829c0.21-2.455-0.057-5.434,0.027-9.667    c0.085-4.234,2.371-7.536,5.418-7.367c3.049,0.17,3.751,1.948,4.797,5.758c1.047,3.81,0.297,7.042,0.636,9.92    c0.339,2.879,1.654,9,1.975,10.405c0.677,2.963-0.465,24.64,0.677,25.91"/>
	</g>
	<path fill="#FFFFFF" stroke="#B3B3B3" stroke-linecap="round" d="M47.258,121.091c0,0-6.944-19.643-7.283-22.354   c-0.338-2.709,0.847-6.434,1.779-13.377c0.931-6.945,1.185-10.157,2.37-11.811c1.186-1.652,8.851-3.623,11.674-5.463l29.815,7.537   c0,0,1.271-0.509,2.541,0.506c1.271,1.018,13.124,16.596,13.463,18.967c0.338,2.371-2.118,8.806-4.318,12.955   c-2.201,4.148-6.012,12.361-6.012,12.361"/>
	<path fill="#FFFFFF" stroke="#B3B3B3" stroke-linecap="round" d="M93.319,89.001c0,0-4.912-6.266-6.774-11.008   c-1.863-4.741-6.773-9.906-6.773-9.906l-1.44,9.312"/>
	<path fill="#FFFFFF" stroke="#B3B3B3" stroke-linecap="round" d="M85.36,85.784c0,0-2.033-2.202-2.541-6.097   c-0.508-3.896-2.117-17.444-2.54-19.729c-0.424-2.286-2.794-5.165-5.588-5.25s-7.197,2.879-7.197,2.879v15.495"/>
	<path fill="#FFFFFF" stroke="#B3B3B3" stroke-linecap="round" d="M48.866,97.382c0,0,2.709-7.025,4.064-13.546   c1.354-6.521,3.278-21.59,2.867-24.978c-0.412-3.387-0.153-8.213,0.056-10.669c0.209-2.456-0.553-5.927-0.468-10.16   c0.084-4.234,2.371-7.536,5.418-7.367c3.049,0.17,3.751,1.948,4.796,5.758c1.047,3.81,0.792,7.535,1.131,10.414   c0.339,2.879,2.219,8.84,2.54,10.246c0.678,2.963-0.465,24.64,0.678,25.909"/>
	<path fill="#FFFFFF" stroke="#B3B3B3" stroke-width="0.5" stroke-linecap="round" d="M49.797,79.095c0,0,3.081,1.507,3.489,2.912"/>
	<path fill="#FFFFFF" stroke="#B3B3B3" stroke-width="0.5" stroke-linecap="round" d="M60.302,57.739c0,0,6.26-0.745,7.953-0.067"/>
	<path fill="#FFFFFF" stroke="#B3B3B3" stroke-width="0.5" stroke-linecap="round" d="M57.153,32.805c0,0,0.299,1.985,1.314,2.493   c1.016,0.508,1.293,0.68,3.156,0.596c1.863-0.085,2.906-0.284,2.906-1.331s-0.434-3.907-3.688-3.907   C57.587,30.657,57.153,32.805,57.153,32.805z"/>
</g>
<g id="_x30_2_1_" style="display: none;">
	<polygon fill="#E6E7E7" stroke="#CCCCCC" stroke-miterlimit="10" points="57.198,27.84 60.513,34.556 67.923,35.632 62.561,40.86    63.827,48.24 57.198,44.756 50.57,48.24 51.836,40.86 46.474,35.632 53.884,34.556  "/>
	<g>
		<defs>
			<path id="SVGID_57_" d="M76.656,92.382c0,3.485-2.22,5.754-5.703,5.683H40.021c-3.483,0.071-5.785-2.197-5.785-5.683V13.074     c0-3.482,2.302-5.834,5.785-5.834h30.817c3.483,0,5.818,2.352,5.818,5.834V92.382z"/>
		</defs>
		<clipPath id="SVGID_58_">
			<use xlink:href="#SVGID_57_" overflow="visible"/>
		</clipPath>
		<path opacity="0.3" clip-path="url(#SVGID_58_)" d="M44.629,124.483c0,0-6.351-19.434-6.859-23.243    c-0.507-3.81,1.017-7.62,1.524-12.827c0.509-5.207,0.787-10.924,1.854-12.193c1.067-1.271,8.2-2.401,12.106-5.08l29.73,7.747    c0,0,0.889-1.271,3.811,1.651c2.92,2.922,12.32,15.494,12.32,20.32c0,4.319-7.62,14.225-10.923,23.625"/>
		<linearGradient id="SVGID_59_" gradientUnits="userSpaceOnUse" x1="52.4126" y1="101.5791" x2="52.4126" y2="35.187">
			<stop offset="0.4956" style="stop-color:#000000"/>
			<stop offset="1" style="stop-color:#E6E6E6"/>
		</linearGradient>
		<path opacity="0.3" clip-path="url(#SVGID_58_)" fill="url(#SVGID_59_)" d="M41.871,101.579c0,0,2.709-7.025,4.064-13.547    c1.354-6.52,3.278-21.59,2.867-24.977c-0.412-3.387,0.412-8.373,0.621-10.829c0.21-2.455-0.057-5.434,0.027-9.667    c0.085-4.234,2.371-7.536,5.418-7.367c3.049,0.17,3.751,1.948,4.797,5.758c1.047,3.81,0.297,7.042,0.636,9.92    c0.339,2.879,1.654,9,1.975,10.405c0.677,2.963-0.465,24.64,0.677,25.91"/>
	</g>
	<path fill="#FFFFFF" stroke="#B3B3B3" stroke-linecap="round" d="M47.258,121.091c0,0-6.944-19.643-7.283-22.354   c-0.338-2.709,0.847-6.434,1.779-13.377c0.931-6.945,1.185-10.157,2.37-11.811c1.186-1.652,8.851-3.623,11.674-5.463l29.815,7.537   c0,0,1.271-0.509,2.541,0.506c1.271,1.018,13.124,16.596,13.463,18.967c0.338,2.371-2.118,8.806-4.318,12.955   c-2.201,4.148-6.012,12.361-6.012,12.361"/>
	<path fill="#FFFFFF" stroke="#B3B3B3" stroke-linecap="round" d="M93.319,89.001c0,0-4.912-6.266-6.774-11.008   c-1.863-4.741-6.773-9.906-6.773-9.906l-1.44,9.312"/>
	<path fill="#FFFFFF" stroke="#B3B3B3" stroke-linecap="round" d="M85.36,85.784c0,0-2.033-2.202-2.541-6.097   c-0.508-3.896-2.117-17.444-2.54-19.729c-0.424-2.286-2.794-5.165-5.588-5.25s-7.197,2.879-7.197,2.879v15.495"/>
	<path fill="#FFFFFF" stroke="#B3B3B3" stroke-linecap="round" d="M48.866,97.382c0,0,2.709-7.025,4.064-13.546   c1.354-6.521,3.278-21.59,2.867-24.978c-0.412-3.387-0.153-8.213,0.056-10.669c0.209-2.456-0.553-5.927-0.468-10.16   c0.084-4.234,2.371-7.536,5.418-7.367c3.049,0.17,3.751,1.948,4.796,5.758c1.047,3.81,0.792,7.535,1.131,10.414   c0.339,2.879,2.219,8.84,2.54,10.246c0.678,2.963-0.465,24.64,0.678,25.909"/>
	<path fill="#FFFFFF" stroke="#B3B3B3" stroke-width="0.5" stroke-linecap="round" d="M49.797,79.095c0,0,3.081,1.507,3.489,2.912"/>
	<path fill="#FFFFFF" stroke="#B3B3B3" stroke-width="0.5" stroke-linecap="round" d="M60.302,57.739c0,0,6.26-0.745,7.953-0.067"/>
	<path fill="#FFFFFF" stroke="#B3B3B3" stroke-width="0.5" stroke-linecap="round" d="M57.153,32.805c0,0,0.299,1.985,1.314,2.493   c1.016,0.508,1.293,0.68,3.156,0.596c1.863-0.085,2.906-0.284,2.906-1.331s-0.434-3.907-3.688-3.907   C57.587,30.657,57.153,32.805,57.153,32.805z"/>
</g>
<g id="_x30_1">
	<polygon fill="#E6E7E7" stroke="#CCCCCC" stroke-miterlimit="10" points="57.198,27.84 60.513,34.556 67.923,35.632 62.561,40.86    63.827,48.24 57.198,44.756 50.57,48.24 51.836,40.86 46.474,35.632 53.884,34.556  "/>
	<g>
		<defs>
			<path id="SVGID_60_" d="M76.656,92.382c0,3.485-2.22,5.754-5.703,5.683H40.021c-3.483,0.071-5.785-2.197-5.785-5.683V13.074     c0-3.482,2.302-5.834,5.785-5.834h30.817c3.483,0,5.818,2.352,5.818,5.834V92.382z"/>
		</defs>
		<clipPath id="SVGID_61_">
			<use xlink:href="#SVGID_60_" overflow="visible"/>
		</clipPath>
		<path opacity="0.3" clip-path="url(#SVGID_61_)" d="M44.629,124.483c0,0-6.351-19.434-6.859-23.243    c-0.507-3.81,1.017-7.62,1.524-12.827c0.509-5.207,0.787-10.924,1.854-12.193c1.067-1.271,8.2-2.401,12.106-5.08l29.73,7.747    c0,0,0.889-1.271,3.811,1.651c2.92,2.922,12.32,15.494,12.32,20.32c0,4.319-7.62,14.225-10.923,23.625"/>
		<linearGradient id="SVGID_62_" gradientUnits="userSpaceOnUse" x1="52.4126" y1="101.5791" x2="52.4126" y2="35.187">
			<stop offset="0.4956" style="stop-color:#000000"/>
			<stop offset="1" style="stop-color:#E6E6E6"/>
		</linearGradient>
		<path opacity="0.3" clip-path="url(#SVGID_61_)" fill="url(#SVGID_62_)" d="M41.871,101.579c0,0,2.709-7.025,4.064-13.547    c1.354-6.52,3.278-21.59,2.867-24.977c-0.412-3.387,0.412-8.373,0.621-10.829c0.21-2.455-0.057-5.434,0.027-9.667    c0.085-4.234,2.371-7.536,5.418-7.367c3.049,0.17,3.751,1.948,4.797,5.758c1.047,3.81,0.297,7.042,0.636,9.92    c0.339,2.879,1.654,9,1.975,10.405c0.677,2.963-0.465,24.64,0.677,25.91"/>
	</g>
	<path fill="#FFFFFF" stroke="#B3B3B3" stroke-linecap="round" d="M47.258,121.091c0,0-6.944-19.643-7.283-22.354   c-0.338-2.709,0.847-6.434,1.779-13.377c0.931-6.945,1.185-10.157,2.37-11.811c1.186-1.652,8.851-3.623,11.674-5.463l29.815,7.537   c0,0,1.271-0.509,2.541,0.506c1.271,1.018,13.124,16.596,13.463,18.967c0.338,2.371-2.118,8.806-4.318,12.955   c-2.201,4.148-6.012,12.361-6.012,12.361"/>
	<path fill="#FFFFFF" stroke="#B3B3B3" stroke-linecap="round" d="M93.319,89.001c0,0-4.912-6.266-6.774-11.008   c-1.863-4.741-6.773-9.906-6.773-9.906l-1.44,9.312"/>
	<path fill="#FFFFFF" stroke="#B3B3B3" stroke-linecap="round" d="M85.36,85.784c0,0-2.033-2.202-2.541-6.097   c-0.508-3.896-2.117-17.444-2.54-19.729c-0.424-2.286-2.794-5.165-5.588-5.25s-7.197,2.879-7.197,2.879v15.495"/>
	<path fill="#FFFFFF" stroke="#B3B3B3" stroke-linecap="round" d="M48.866,97.382c0,0,2.709-7.025,4.064-13.546   c1.354-6.521,3.278-21.59,2.867-24.978c-0.412-3.387-0.153-8.213,0.056-10.669c0.209-2.456-0.553-5.927-0.468-10.16   c0.084-4.234,2.371-7.536,5.418-7.367c3.049,0.17,3.751,1.948,4.796,5.758c1.047,3.81,0.792,7.535,1.131,10.414   c0.339,2.879,2.219,8.84,2.54,10.246c0.678,2.963-0.465,24.64,0.678,25.909"/>
	<path fill="#FFFFFF" stroke="#B3B3B3" stroke-width="0.5" stroke-linecap="round" d="M49.797,79.095c0,0,3.081,1.507,3.489,2.912"/>
	<path fill="#FFFFFF" stroke="#B3B3B3" stroke-width="0.5" stroke-linecap="round" d="M60.302,57.739c0,0,6.26-0.745,7.953-0.067"/>
	<path fill="#FFFFFF" stroke="#B3B3B3" stroke-width="0.5" stroke-linecap="round" d="M57.153,32.805c0,0,0.299,1.985,1.314,2.493   c1.016,0.508,1.293,0.68,3.156,0.596c1.863-0.085,2.906-0.284,2.906-1.331s-0.434-3.907-3.688-3.907   C57.587,30.657,57.153,32.805,57.153,32.805z"/>
</g>
</svg>