<?xml version="1.0" encoding="utf-8"?>
<svg version="1.1" id="Layer_1" xmlns="http://www.w3.org/2000/svg" xmlns:xlink="http://www.w3.org/1999/xlink" x="0px" y="0px"
	 width="128px" height="128px" viewBox="0 0 128 128" enable-background="new 0 0 128 128" xml:space="preserve">
<g id="phone">
	<g>
		<rect x="1.5" y="1.5" fill="#FFFFFF" width="125" height="125"/>
		<path fill="#808080" d="M126,2v124H2V2H126 M127,1H1v126h126V1L127,1z"/>
	</g>
	<g>
		<path fill="#E6E6E6" stroke="#B3B3B3" stroke-miterlimit="10" d="M76.656,92.382c0,3.485-2.221,5.754-5.703,5.683H40.021
			c-3.483,0.071-5.785-2.196-5.785-5.683V13.074c0-3.482,2.302-5.834,5.785-5.834h30.817c3.482,0,5.818,2.352,5.818,5.834V92.382z"
			/>
		
			<rect x="36.767" y="19.85" fill="#FFFFFF" stroke="#B3B3B3" stroke-width="0.5" stroke-miterlimit="10" width="37.356" height="65.786"/>
	</g>
</g>
<g id="_x31_6" style="display: none;">
	<rect x="39.048" y="25.917" fill="#F1F1F2" width="32.7" height="47.25"/>
	<g>
		<g>
			<defs>
				<path id="SVGID_1_" d="M76.656,92.382c0,3.485-2.221,5.754-5.703,5.683H40.021c-3.483,0.071-5.785-2.196-5.785-5.683V13.074
					c0-3.482,2.302-5.834,5.785-5.834h30.817c3.482,0,5.818,2.352,5.818,5.834V92.382z"/>
			</defs>
			<clipPath id="SVGID_2_">
				<use xlink:href="#SVGID_1_"  overflow="visible"/>
			</clipPath>
			
				<linearGradient id="SVGID_3_" gradientUnits="userSpaceOnUse" x1="73.5723" y1="30.9346" x2="73.5723" y2="84.4048" gradientTransform="matrix(1 0 0 -1 0 129)">
				<stop  offset="0.5847" style="stop-color:#000000"/>
				<stop  offset="0.8814" style="stop-color:#FFFFFF"/>
			</linearGradient>
			<path opacity="0.3" clip-path="url(#SVGID_2_)" fill="url(#SVGID_3_)" enable-background="new    " d="M52.605,97.693
				c0.707,0.26,1.505,0.389,2.378,0.371h34.533c3.482,0.07,5.703-2.197,5.703-5.684c0,0-7.783-26.14-8.207-29.527
				c-0.424-3.386,1.49-18.268-3.119-18.259c-1.244,0.003-4.252,0.333-4.92,1.812c-1.609,3.562-0.69,2.663-2.406,6.906
				c-1.26,3.117-2.994,4.924-4.006,8.847c-0.742,2.88-1.567,4.681-1.836,7.868c-3.592,1.758-10.733,0.158-12.512,1.49
				c-2.032,1.525-3.573,11.36-5.789,17.612C51.065,92.96,52.957,95.247,52.605,97.693z"/>
		</g>
	</g>
	<path fill="#FFFFFF" stroke="#B3B3B3" stroke-linecap="round" d="M58.362,121.104c0,0-4.099-24.854-3.899-28.771
		c0.199-3.917,2.437-7.457,3.915-12.59c1.479-5.131,2.822-10.816,4.128-11.893c1.308-1.076,10.715,0.071,15.133-1.892l3.404,4.981
		c0,0-7.68,6.896-10.32,7.354c0.479,2.421,1.2,5.604,1.2,5.604l17.513-6.412l14.561,0.822c0,0,1.128-1.11,3.518,2.364
		c2.387,3.476,9.48,17.843,8.584,22.685c-0.805,4.334-6.135,8.688-11.197,17.506"/>
	<path fill="#FFFFFF" stroke="#B3B3B3" stroke-linecap="round" d="M109.564,93.312c0,0-2.89-5.278-3.873-8.977
		c-0.984-3.699-2.728-11.887-5.662-15.732l-3.682,13.138"/>
	<path fill="#FFFFFF" stroke="#B3B3B3" stroke-linecap="round" d="M101.96,87.229c0,0,0.58-12.23,0.997-18.293
		c0.416-6.062-1.598-8.599-5.322-10.255c-4.609-2.051-10.185,3.56-11.578,5.332l-2.289,12.031"/>
	<path fill="#FFFFFF" stroke="#B3B3B3" stroke-width="0.5" stroke-linecap="round" d="M65.479,74.379c0,0,4.766,1.87,5.246,3.915"/>
	<path fill="#FFFFFF" stroke="#B3B3B3" stroke-width="0.5" stroke-linecap="round" d="M89.188,62.26c0,0-1.485,0.341-2.646,3.598"/>
	<path fill="#FFFFFF" stroke="#B3B3B3" stroke-linecap="round" d="M64.812,91.915c0,0,6.768-9.34,7.59-12.454
		c0.822-3.115,4.338-12.533,5.14-15.798c0.933-3.802,3.163-8.463,4.479-11.064c3.293-6.5,2.949-7.887,4.405-12.11
		c1.007-2.919,5.159-10.056,9.574-9.577c4.414,0.479,5.083,2.548,4.095,4.554c-2.043,4.152-3.748,4.873-5.852,12.673
		c-0.751,2.786-1.688,10.089-2.04,13.863c-0.325,3.479-1.336,15.014-1.56,17.58"/>
	<path fill="#FFFFFF" stroke="#B3B3B3" stroke-width="0.5" stroke-linecap="round" d="M85.314,56.753c0,0,5.414,0.375,7.224,2.123"
		/>
	<path fill="#FFFFFF" stroke="#B3B3B3" stroke-width="0.5" stroke-linecap="round" d="M89.17,43.826c0,0,4.475,0.201,5.918,1.88"/>
	<path fill="#FFFFFF" stroke="#B3B3B3" stroke-width="0.5" stroke-linecap="round" d="M94.879,32.268
		c-0.806,0.634-1.014,2.592-0.374,3.102c0.64,0.509,2.976,2.096,3.688,1.695c0.715-0.401,1.984-1.44,2.07-2.795
		s-0.283-2.201-1.916-2.795C96.716,30.882,95.525,31.758,94.879,32.268z"/>
</g>
<g id="_x31_5" style="display: none;">
	<rect x="39.048" y="25.917" fill="#F1F1F2" width="32.7" height="47.25"/>
	<g>
		<g>
			<defs>
				<path id="SVGID_4_" d="M76.656,92.382c0,3.485-2.221,5.754-5.703,5.683H40.021c-3.483,0.071-5.785-2.196-5.785-5.683V13.074
					c0-3.482,2.302-5.834,5.785-5.834h30.817c3.482,0,5.818,2.352,5.818,5.834V92.382z"/>
			</defs>
			<clipPath id="SVGID_5_">
				<use xlink:href="#SVGID_4_"  overflow="visible"/>
			</clipPath>
			
				<linearGradient id="SVGID_6_" gradientUnits="userSpaceOnUse" x1="73.5723" y1="30.9346" x2="73.5723" y2="84.4048" gradientTransform="matrix(1 0 0 -1 0 129)">
				<stop  offset="0.5847" style="stop-color:#000000"/>
				<stop  offset="0.8814" style="stop-color:#FFFFFF"/>
			</linearGradient>
			<path opacity="0.3" clip-path="url(#SVGID_5_)" fill="url(#SVGID_6_)" enable-background="new    " d="M52.605,97.693
				c0.707,0.26,1.505,0.389,2.378,0.371h34.533c3.482,0.07,5.703-2.197,5.703-5.684c0,0-7.783-26.14-8.207-29.527
				c-0.424-3.386,1.49-18.268-3.119-18.259c-1.244,0.003-4.252,0.333-4.92,1.812c-1.609,3.562-0.69,2.663-2.406,6.906
				c-1.26,3.117-2.994,4.924-4.006,8.847c-0.742,2.88-1.567,4.681-1.836,7.868c-3.592,1.758-10.733,0.158-12.512,1.49
				c-2.032,1.525-3.573,11.36-5.789,17.612C51.065,92.96,52.957,95.247,52.605,97.693z"/>
		</g>
	</g>
	<path fill="#FFFFFF" stroke="#B3B3B3" stroke-linecap="round" d="M58.362,121.104c0,0-4.099-24.854-3.899-28.771
		c0.199-3.917,2.437-7.457,3.915-12.59c1.479-5.131,2.822-10.816,4.128-11.893c1.308-1.076,10.715,0.071,15.133-1.892l3.404,4.981
		c0,0-7.68,6.896-10.32,7.354c0.479,2.421,1.2,5.604,1.2,5.604l17.513-6.412l14.561,0.822c0,0,1.128-1.11,3.518,2.364
		c2.387,3.476,9.48,17.843,8.584,22.685c-0.805,4.334-6.135,8.688-11.197,17.506"/>
	<path fill="#FFFFFF" stroke="#B3B3B3" stroke-linecap="round" d="M109.564,93.312c0,0-2.89-5.278-3.873-8.977
		c-0.984-3.699-2.728-11.887-5.662-15.732l-3.682,13.138"/>
	<path fill="#FFFFFF" stroke="#B3B3B3" stroke-linecap="round" d="M101.96,87.229c0,0,0.58-12.23,0.997-18.293
		c0.416-6.062-1.598-8.599-5.322-10.255c-4.609-2.051-10.185,3.56-11.578,5.332l-2.289,12.031"/>
	<path fill="#FFFFFF" stroke="#B3B3B3" stroke-width="0.5" stroke-linecap="round" d="M65.479,74.379c0,0,4.766,1.87,5.246,3.915"/>
	<path fill="#FFFFFF" stroke="#B3B3B3" stroke-width="0.5" stroke-linecap="round" d="M89.188,62.26c0,0-1.485,0.341-2.646,3.598"/>
	<path fill="#FFFFFF" stroke="#B3B3B3" stroke-linecap="round" d="M64.812,91.915c0,0,6.768-9.34,7.59-12.454
		c0.822-3.115,4.338-12.533,5.14-15.798c0.933-3.802,3.163-8.463,4.479-11.064c3.293-6.5,2.949-7.887,4.405-12.11
		c1.007-2.919,5.159-10.056,9.574-9.577c4.414,0.479,5.083,2.548,4.095,4.554c-2.043,4.152-3.748,4.873-5.852,12.673
		c-0.751,2.786-1.688,10.089-2.04,13.863c-0.325,3.479-1.336,15.014-1.56,17.58"/>
	<path fill="#FFFFFF" stroke="#B3B3B3" stroke-width="0.5" stroke-linecap="round" d="M85.314,56.753c0,0,5.414,0.375,7.224,2.123"
		/>
	<path fill="#FFFFFF" stroke="#B3B3B3" stroke-width="0.5" stroke-linecap="round" d="M89.17,43.826c0,0,4.475,0.201,5.918,1.88"/>
	<path fill="#FFFFFF" stroke="#B3B3B3" stroke-width="0.5" stroke-linecap="round" d="M94.879,32.268
		c-0.806,0.634-1.014,2.592-0.374,3.102c0.64,0.509,2.976,2.096,3.688,1.695c0.715-0.401,1.984-1.44,2.07-2.795
		s-0.283-2.201-1.916-2.795C96.716,30.882,95.525,31.758,94.879,32.268z"/>
	<g>
		<g>
			<defs>
				<rect id="SVGID_7_" x="37.445" y="19.85" width="36" height="65.786"/>
			</defs>
			<clipPath id="SVGID_8_">
				<use xlink:href="#SVGID_7_"  overflow="visible"/>
			</clipPath>
			<g opacity="0.1" clip-path="url(#SVGID_8_)">
				<path fill="#80AADA" d="M68.708,28.068c5.845,0,10.601,4.755,10.601,10.599c0,5.845-4.756,10.6-10.601,10.6
					c-5.845,0-10.6-4.755-10.6-10.6C58.107,32.823,62.863,28.068,68.708,28.068 M68.708,26.068c-6.959,0-12.6,5.642-12.6,12.599
					c0,6.958,5.641,12.6,12.6,12.6c6.958,0,12.601-5.642,12.601-12.6C81.309,31.71,75.665,26.068,68.708,26.068L68.708,26.068z"/>
			</g>
		</g>
	</g>
</g>
<g id="_x31_4" style="display: none;">
	<g>
		<g>
			<defs>
				<rect id="SVGID_9_" x="38.445" y="19.85" width="34" height="65.786"/>
			</defs>
			<clipPath id="SVGID_10_">
				<use xlink:href="#SVGID_9_"  overflow="visible"/>
			</clipPath>
			<rect x="71.748" y="25.917" clip-path="url(#SVGID_10_)" fill="#F1F1F2" width="32.7" height="47.25"/>
		</g>
		<g>
			<defs>
				<rect id="SVGID_11_" x="38.445" y="19.85" width="34" height="65.786"/>
			</defs>
			<clipPath id="SVGID_12_">
				<use xlink:href="#SVGID_11_"  overflow="visible"/>
			</clipPath>
			<rect x="34.098" y="25.917" clip-path="url(#SVGID_12_)" fill="#F1F1F2" width="32.7" height="47.25"/>
		</g>
	</g>
	<g>
		<g>
			<defs>
				<path id="SVGID_13_" d="M76.656,92.382c0,3.485-2.221,5.754-5.703,5.683H40.021c-3.483,0.071-5.785-2.196-5.785-5.683V13.074
					c0-3.482,2.302-5.834,5.785-5.834h30.817c3.482,0,5.818,2.352,5.818,5.834V92.382z"/>
			</defs>
			<clipPath id="SVGID_14_">
				<use xlink:href="#SVGID_13_"  overflow="visible"/>
			</clipPath>
			
				<linearGradient id="SVGID_15_" gradientUnits="userSpaceOnUse" x1="73.5723" y1="30.9346" x2="73.5723" y2="84.4048" gradientTransform="matrix(1 0 0 -1 0 129)">
				<stop  offset="0.5847" style="stop-color:#000000"/>
				<stop  offset="0.8814" style="stop-color:#FFFFFF"/>
			</linearGradient>
			<path opacity="0.3" clip-path="url(#SVGID_14_)" fill="url(#SVGID_15_)" enable-background="new    " d="M52.605,97.693
				c0.707,0.26,1.505,0.389,2.378,0.371h34.533c3.482,0.07,5.703-2.197,5.703-5.684c0,0-7.783-26.14-8.207-29.527
				c-0.424-3.386,1.49-18.268-3.119-18.259c-1.244,0.003-4.252,0.333-4.92,1.812c-1.609,3.562-0.69,2.663-2.406,6.906
				c-1.26,3.117-2.994,4.924-4.006,8.847c-0.742,2.88-1.567,4.681-1.836,7.868c-3.592,1.758-10.733,0.158-12.512,1.49
				c-2.032,1.525-3.573,11.36-5.789,17.612C51.065,92.96,52.957,95.247,52.605,97.693z"/>
		</g>
	</g>
	<path fill="#FFFFFF" stroke="#B3B3B3" stroke-linecap="round" d="M58.362,121.104c0,0-4.099-24.854-3.899-28.771
		c0.199-3.917,2.437-7.457,3.915-12.59c1.479-5.131,2.822-10.816,4.128-11.893c1.308-1.076,10.715,0.071,15.133-1.892l3.404,4.981
		c0,0-7.68,6.896-10.32,7.354c0.479,2.421,1.2,5.604,1.2,5.604l17.513-6.412l14.561,0.822c0,0,1.128-1.11,3.518,2.364
		c2.387,3.476,9.48,17.843,8.584,22.685c-0.805,4.334-6.135,8.688-11.197,17.506"/>
	<path fill="#FFFFFF" stroke="#B3B3B3" stroke-linecap="round" d="M109.564,93.312c0,0-2.89-5.278-3.873-8.977
		c-0.984-3.699-2.728-11.887-5.662-15.732l-3.682,13.138"/>
	<path fill="#FFFFFF" stroke="#B3B3B3" stroke-linecap="round" d="M101.96,87.229c0,0,0.58-12.23,0.997-18.293
		c0.416-6.062-1.598-8.599-5.322-10.255c-4.609-2.051-10.185,3.56-11.578,5.332l-2.289,12.031"/>
	<path fill="#FFFFFF" stroke="#B3B3B3" stroke-width="0.5" stroke-linecap="round" d="M65.479,74.379c0,0,4.766,1.87,5.246,3.915"/>
	<path fill="#FFFFFF" stroke="#B3B3B3" stroke-width="0.5" stroke-linecap="round" d="M89.188,62.26c0,0-1.485,0.341-2.646,3.598"/>
	<path fill="#FFFFFF" stroke="#B3B3B3" stroke-linecap="round" d="M64.812,91.915c0,0,6.768-9.34,7.59-12.454
		c0.822-3.115,4.338-12.533,5.14-15.798c0.933-3.802,3.163-8.463,4.479-11.064c3.293-6.5,2.949-7.887,4.405-12.11
		c1.007-2.919,5.159-10.056,9.574-9.577c4.414,0.479,5.083,2.548,4.095,4.554c-2.043,4.152-3.748,4.873-5.852,12.673
		c-0.751,2.786-1.688,10.089-2.04,13.863c-0.325,3.479-1.336,15.014-1.56,17.58"/>
	<path fill="#FFFFFF" stroke="#B3B3B3" stroke-width="0.5" stroke-linecap="round" d="M85.314,56.753c0,0,5.414,0.375,7.224,2.123"
		/>
	<path fill="#FFFFFF" stroke="#B3B3B3" stroke-width="0.5" stroke-linecap="round" d="M89.17,43.826c0,0,4.475,0.201,5.918,1.88"/>
	<path fill="#FFFFFF" stroke="#B3B3B3" stroke-width="0.5" stroke-linecap="round" d="M94.879,32.268
		c-0.806,0.634-1.014,2.592-0.374,3.102c0.64,0.509,2.976,2.096,3.688,1.695c0.715-0.401,1.984-1.44,2.07-2.795
		s-0.283-2.201-1.916-2.795C96.716,30.882,95.525,31.758,94.879,32.268z"/>
	<g>
		<g>
			<defs>
				<rect id="SVGID_16_" x="37.445" y="19.85" width="36" height="65.786"/>
			</defs>
			<clipPath id="SVGID_17_">
				<use xlink:href="#SVGID_16_"  overflow="visible"/>
			</clipPath>
			<g opacity="0.2" clip-path="url(#SVGID_17_)">
				<path fill="#80AADA" d="M68.708,28.518c5.597,0,10.149,4.553,10.149,10.149s-4.553,10.15-10.149,10.15
					c-5.597,0-10.15-4.553-10.15-10.15S63.111,28.518,68.708,28.518 M68.708,26.518c-6.711,0-12.15,5.44-12.15,12.149
					s5.439,12.15,12.15,12.15c6.709,0,12.149-5.44,12.149-12.15C80.857,31.958,75.417,26.518,68.708,26.518L68.708,26.518z"/>
			</g>
		</g>
	</g>
</g>
<g id="_x31_3" style="display: none;">
	<g>
		<g>
			<defs>
				<rect id="SVGID_18_" x="38.445" y="19.85" width="34" height="65.786"/>
			</defs>
			<clipPath id="SVGID_19_">
				<use xlink:href="#SVGID_18_"  overflow="visible"/>
			</clipPath>
			<rect x="67.398" y="25.917" clip-path="url(#SVGID_19_)" fill="#F1F1F2" width="32.699" height="47.25"/>
		</g>
		<g>
			<defs>
				<rect id="SVGID_20_" x="38.445" y="19.85" width="34" height="65.786"/>
			</defs>
			<clipPath id="SVGID_21_">
				<use xlink:href="#SVGID_20_"  overflow="visible"/>
			</clipPath>
			<rect x="29.748" y="25.917" clip-path="url(#SVGID_21_)" fill="#F1F1F2" width="32.7" height="47.25"/>
		</g>
	</g>
	<g>
		<g>
			<defs>
				<path id="SVGID_22_" d="M76.656,92.382c0,3.485-2.221,5.754-5.703,5.683H40.021c-3.483,0.071-5.785-2.196-5.785-5.683V13.074
					c0-3.482,2.302-5.834,5.785-5.834h30.817c3.482,0,5.818,2.352,5.818,5.834V92.382z"/>
			</defs>
			<clipPath id="SVGID_23_">
				<use xlink:href="#SVGID_22_"  overflow="visible"/>
			</clipPath>
			
				<linearGradient id="SVGID_24_" gradientUnits="userSpaceOnUse" x1="73.5723" y1="30.9346" x2="73.5723" y2="84.4048" gradientTransform="matrix(1 0 0 -1 0 129)">
				<stop  offset="0.5847" style="stop-color:#000000"/>
				<stop  offset="0.8814" style="stop-color:#FFFFFF"/>
			</linearGradient>
			<path opacity="0.3" clip-path="url(#SVGID_23_)" fill="url(#SVGID_24_)" enable-background="new    " d="M52.605,97.693
				c0.707,0.26,1.505,0.389,2.378,0.371h34.533c3.482,0.07,5.703-2.197,5.703-5.684c0,0-7.783-26.14-8.207-29.527
				c-0.424-3.386,1.49-18.268-3.119-18.259c-1.244,0.003-4.252,0.333-4.92,1.812c-1.609,3.562-0.69,2.663-2.406,6.906
				c-1.26,3.117-2.994,4.924-4.006,8.847c-0.742,2.88-1.567,4.681-1.836,7.868c-3.592,1.758-10.733,0.158-12.512,1.49
				c-2.032,1.525-3.573,11.36-5.789,17.612C51.065,92.96,52.957,95.247,52.605,97.693z"/>
		</g>
	</g>
	<path fill="#FFFFFF" stroke="#B3B3B3" stroke-linecap="round" d="M58.362,121.104c0,0-4.099-24.854-3.899-28.771
		c0.199-3.917,2.437-7.457,3.915-12.59c1.479-5.131,2.822-10.816,4.128-11.893c1.308-1.076,10.715,0.071,15.133-1.892l3.404,4.981
		c0,0-7.68,6.896-10.32,7.354c0.479,2.421,1.2,5.604,1.2,5.604l17.513-6.412l14.561,0.822c0,0,1.128-1.11,3.518,2.364
		c2.387,3.476,9.48,17.843,8.584,22.685c-0.805,4.334-6.135,8.688-11.197,17.506"/>
	<path fill="#FFFFFF" stroke="#B3B3B3" stroke-linecap="round" d="M109.564,93.312c0,0-2.89-5.278-3.873-8.977
		c-0.984-3.699-2.728-11.887-5.662-15.732l-3.682,13.138"/>
	<path fill="#FFFFFF" stroke="#B3B3B3" stroke-linecap="round" d="M101.96,87.229c0,0,0.58-12.23,0.997-18.293
		c0.416-6.062-1.598-8.599-5.322-10.255c-4.609-2.051-10.185,3.56-11.578,5.332l-2.289,12.031"/>
	<path fill="#FFFFFF" stroke="#B3B3B3" stroke-width="0.5" stroke-linecap="round" d="M65.479,74.379c0,0,4.766,1.87,5.246,3.915"/>
	<path fill="#FFFFFF" stroke="#B3B3B3" stroke-width="0.5" stroke-linecap="round" d="M89.188,62.26c0,0-1.485,0.341-2.646,3.598"/>
	<path fill="#FFFFFF" stroke="#B3B3B3" stroke-linecap="round" d="M64.812,91.915c0,0,6.768-9.34,7.59-12.454
		c0.822-3.115,4.338-12.533,5.14-15.798c0.933-3.802,3.163-8.463,4.479-11.064c3.293-6.5,2.949-7.887,4.405-12.11
		c1.007-2.919,5.159-10.056,9.574-9.577c4.414,0.479,5.083,2.548,4.095,4.554c-2.043,4.152-3.748,4.873-5.852,12.673
		c-0.751,2.786-1.688,10.089-2.04,13.863c-0.325,3.479-1.336,15.014-1.56,17.58"/>
	<path fill="#FFFFFF" stroke="#B3B3B3" stroke-width="0.5" stroke-linecap="round" d="M85.314,56.753c0,0,5.414,0.375,7.224,2.123"
		/>
	<path fill="#FFFFFF" stroke="#B3B3B3" stroke-width="0.5" stroke-linecap="round" d="M89.17,43.826c0,0,4.475,0.201,5.918,1.88"/>
	<path fill="#FFFFFF" stroke="#B3B3B3" stroke-width="0.5" stroke-linecap="round" d="M94.879,32.268
		c-0.806,0.634-1.014,2.592-0.374,3.102c0.64,0.509,2.976,2.096,3.688,1.695c0.715-0.401,1.984-1.44,2.07-2.795
		s-0.283-2.201-1.916-2.795C96.716,30.882,95.525,31.758,94.879,32.268z"/>
	<g>
		<g>
			<defs>
				<rect id="SVGID_25_" x="37.445" y="19.85" width="36" height="65.786"/>
			</defs>
			<clipPath id="SVGID_26_">
				<use xlink:href="#SVGID_25_"  overflow="visible"/>
			</clipPath>
			<g opacity="0.4" clip-path="url(#SVGID_26_)">
				<path fill="#80AADA" d="M68.708,29.417c5.101,0,9.25,4.149,9.25,9.25s-4.149,9.25-9.25,9.25c-5.101,0-9.25-4.149-9.25-9.25
					C59.458,33.567,63.607,29.417,68.708,29.417 M68.708,27.417c-6.214,0-11.25,5.038-11.25,11.25s5.036,11.25,11.25,11.25
					c6.212,0,11.25-5.038,11.25-11.25C79.958,32.456,74.92,27.417,68.708,27.417L68.708,27.417z"/>
			</g>
		</g>
	</g>
</g>
<g id="_x31_2_1_" style="display: none;">
	<g>
		<g>
			<defs>
				<rect id="SVGID_27_" x="38.445" y="19.85" width="34" height="65.786"/>
			</defs>
			<clipPath id="SVGID_28_">
				<use xlink:href="#SVGID_27_"  overflow="visible"/>
			</clipPath>
			<rect x="62.448" y="25.917" clip-path="url(#SVGID_28_)" fill="#F1F1F2" width="32.7" height="47.25"/>
		</g>
		<g>
			<defs>
				<rect id="SVGID_29_" x="38.445" y="19.85" width="34" height="65.786"/>
			</defs>
			<clipPath id="SVGID_30_">
				<use xlink:href="#SVGID_29_"  overflow="visible"/>
			</clipPath>
			<rect x="24.798" y="25.917" clip-path="url(#SVGID_30_)" fill="#F1F1F2" width="32.7" height="47.25"/>
		</g>
	</g>
	<path fill="#FFFFFF" stroke="#B3B3B3" stroke-linecap="round" d="M56.288,120.645c0,0-4.733-23.681-4.667-27.603
		c0.067-3.922,2.185-7.535,3.489-12.714c1.305-5.18,2.457-10.904,3.726-12.023c1.27-1.119,8.641-1.178,12.99-3.287l28.828,12.342
		c0,0,1.091-1.146,3.595,2.246c2.502,3.395,10.077,17.512,9.343,22.383c-0.656,4.359-6.447,9.893-11.21,18.876"/>
	<path fill="#FFFFFF" stroke="#B3B3B3" stroke-linecap="round" d="M106.727,92.168c0,0-3.066-5.179-4.175-8.842
		s-3.956-11.76-7.018-15.506l-2.546,9.132"/>
	<path fill="#FFFFFF" stroke="#B3B3B3" stroke-linecap="round" d="M98.292,85.374c0,0-0.319-12.021-0.106-18.092
		c0.211-6.073-0.806-8.783-4.584-10.314c-4.675-1.894-10.058,3.901-11.392,5.719L80.327,74.79"/>
	<path fill="#FFFFFF" stroke="#B3B3B3" stroke-width="0.5" stroke-linecap="round" d="M62.076,76.223c0,0,3.635,3.411,4.183,5.438"
		/>
	<path fill="#FFFFFF" stroke="#B3B3B3" stroke-width="0.5" stroke-linecap="round" d="M85.314,61.818c0,0-1.474,0.392-2.523,3.686"
		/>
	<path fill="#FFFFFF" stroke="#B3B3B3" stroke-linecap="round" d="M60.512,92.326c0,0,6.496-10.02,7.212-13.161
		c0.715-3.142,3.867-12.214,4.559-15.504c0.805-3.831,2.335-8.338,3.375-11.062c1.306-3.425,2.988-6.432,4.301-10.702
		c0.908-2.951,4.816-10.225,9.245-9.895c4.429,0.331,5.655,3.162,3.635,5.998c-2.946,4.137-4.512,6.516-5.157,10.019
		c-0.521,2.837-1.591,9.07-1.815,12.854c-0.207,3.488-1.421,14.42-1.558,16.993"/>
	<path fill="#FFFFFF" stroke="#B3B3B3" stroke-width="0.5" stroke-linecap="round" d="M78.312,56.874c0,0,6.307-0.453,7.787,1.173"
		/>
	<path fill="#FFFFFF" stroke="#B3B3B3" stroke-width="0.5" stroke-linecap="round" d="M82.441,44.128c0,0,4.723-0.201,5.746,1.153"
		/>
	<path fill="#FFFFFF" stroke="#B3B3B3" stroke-width="0.5" stroke-linecap="round" d="M88.128,33.395
		c-0.785,0.662-0.926,2.625-0.269,3.113c0.656,0.487,3.043,2.234,3.744,1.81c0.701-0.425,2.174-1.763,2.213-3.12
		c0.041-1.357-0.596-2.174-2.248-2.712C89.918,31.948,88.758,32.865,88.128,33.395z"/>
	<g>
		<g>
			<defs>
				<rect id="SVGID_31_" x="37.445" y="19.85" width="36" height="65.786"/>
			</defs>
			<clipPath id="SVGID_32_">
				<use xlink:href="#SVGID_31_"  overflow="visible"/>
			</clipPath>
			<g opacity="0.4" clip-path="url(#SVGID_32_)">
				<path fill="#80AADA" d="M68.708,30.993c4.231,0,7.675,3.443,7.675,7.674c0,4.232-3.443,7.675-7.675,7.675
					c-4.232,0-7.675-3.443-7.675-7.675C61.033,34.436,64.476,30.993,68.708,30.993 M68.708,28.993c-5.344,0-9.675,4.333-9.675,9.674
					c0,5.342,4.331,9.675,9.675,9.675c5.342,0,9.675-4.333,9.675-9.675S74.05,28.993,68.708,28.993L68.708,28.993z"/>
			</g>
		</g>
	</g>
</g>
<g id="_x31_1_1_" style="display: none;">
	<g>
		<g>
			<defs>
				<rect id="SVGID_33_" x="38.445" y="19.85" width="34" height="65.786"/>
			</defs>
			<clipPath id="SVGID_34_">
				<use xlink:href="#SVGID_33_"  overflow="visible"/>
			</clipPath>
			<rect x="55.998" y="25.917" clip-path="url(#SVGID_34_)" fill="#F1F1F2" width="32.7" height="47.25"/>
		</g>
		<g>
			<defs>
				<rect id="SVGID_35_" x="38.445" y="19.85" width="34" height="65.786"/>
			</defs>
			<clipPath id="SVGID_36_">
				<use xlink:href="#SVGID_35_"  overflow="visible"/>
			</clipPath>
			<rect x="18.348" y="25.917" clip-path="url(#SVGID_36_)" fill="#F1F1F2" width="32.7" height="47.25"/>
		</g>
	</g>
	
		<linearGradient id="SVGID_37_" gradientUnits="userSpaceOnUse" x1="67.2725" y1="30.9346" x2="67.2725" y2="94.8726" gradientTransform="matrix(1 0 0 -1 0 129)">
		<stop  offset="0.5847" style="stop-color:#000000"/>
		<stop  offset="0.8814" style="stop-color:#FFFFFF"/>
	</linearGradient>
	<path opacity="0.3" fill="url(#SVGID_37_)" enable-background="new    " d="M46.305,97.693c0.707,0.26,1.505,0.389,2.378,0.371
		h34.533c3.482,0.07,5.702-2.197,5.702-5.684v-8.704c-0.01,0.001-0.021,0-0.033,0.001c-1.379-2.464-2.9-4.896-4.314-6.549
		c-0.439-3.913-0.881-8.04-1.24-9.568c-0.508-2.16-2.16-5.477-5.844-5.469c-2.627,0.005-4.026,1.175-5.5,3.284
		c-0.072-0.841,0.759-1.499,0.697-1.891c-0.381-2.413,0.148-6.256-0.274-9.644c-0.423-3.386,4.077-12.681,3.146-15.56
		c-0.347-1.07-0.775-1.905-1.26-2.538c-0.002-0.002-0.002-0.004-0.004-0.006l-0.001-0.001c-0.009-0.012-0.019-0.022-0.028-0.034
		c-0.666-0.732-0.673-1.576-2.771-1.568c-0.318-0.017-0.681-0.002-1.062,0.061c-1.15,0.137-1.978,0.513-2.361,1.163
		c-0.733,0.697-1.889,1.87-2.557,3.348c-1.611,3.562-1.03,6.179-2.746,10.422c-1.26,3.117-2.79,8.04-3.074,11.584
		c-0.238,2.965-0.797,6.397-1.066,9.585c-3.592,1.758-5.836,0.789-7.615,2.121c-2.031,1.525-2.673,10.461-4.888,16.713
		C44.765,92.96,46.656,95.247,46.305,97.693z"/>
	<g>
		<g>
			<defs>
				<rect id="SVGID_38_" x="37.445" y="19.85" width="36" height="65.786"/>
			</defs>
			<clipPath id="SVGID_39_">
				<use xlink:href="#SVGID_38_"  overflow="visible"/>
			</clipPath>
			<g opacity="0.8" clip-path="url(#SVGID_39_)">
				<path fill="#80AADA" d="M68.708,32.568c3.364,0,6.101,2.736,6.101,6.099c0,3.363-2.736,6.1-6.101,6.1s-6.1-2.736-6.1-6.1
					S65.344,32.568,68.708,32.568 M68.708,30.568c-4.474,0-8.1,3.626-8.1,8.099s3.626,8.1,8.1,8.1c4.474,0,8.101-3.626,8.101-8.1
					C76.809,34.194,73.18,30.568,68.708,30.568L68.708,30.568z"/>
			</g>
		</g>
	</g>
	<path fill="#FFFFFF" stroke="#B3B3B3" stroke-linecap="round" d="M53.761,121.104c0,0-5.744-22.156-5.922-26.074
		c-0.178-3.918,1.709-7.657,2.688-12.907c0.979-5.251,1.769-11.037,2.966-12.233c1.198-1.199,8.55-1.716,12.759-4.093l29.544,10.513
		c0,0,1.017-1.213,3.728,2.017s11.152,16.849,10.726,21.757c-0.383,4.391-6.595,11.52-10.785,20.783"/>
	<path fill="#FFFFFF" stroke="#B3B3B3" stroke-linecap="round" d="M102.781,90.709c0,0-3.385-4.979-4.719-8.562
		c-1.336-3.588-4.686-11.488-7.976-15.037l-1.968,9.271"/>
	<path fill="#FFFFFF" stroke="#B3B3B3" stroke-linecap="round" d="M93.939,84.456c0,0-1.07-11.976-1.239-18.051
		c-0.168-6.074-1.353-8.715-5.22-10.006c-4.785-1.599-9.793,4.522-11.012,6.419l-1.121,12.196"/>
	<path fill="#FFFFFF" stroke="#B3B3B3" stroke-width="0.5" stroke-linecap="round" d="M57.221,77.588c0,0,4.676,2.725,5.544,4.374"
		/>
	<path fill="#FFFFFF" stroke="#B3B3B3" stroke-width="0.5" stroke-linecap="round" d="M79.514,61.757c0,0-1.447,0.482-2.289,3.836"
		/>
	<path fill="#FFFFFF" stroke="#B3B3B3" stroke-linecap="round" d="M56.667,93.757c0,0,5.857-10.405,6.375-13.585
		c0.519-3.181,2.949-11.009,3.433-14.337c0.562-3.873,1.105-7.74,2.135-10.174c1.512-3.569,1.015-7.588,1.514-11.002
		c0.893-6.107,3.066-10.208,7.508-10.155c4.439,0.053,4.074,2.98,3.413,6.398c-0.81,4.188-1.53,5.196-1.53,10.957
		c0,2.885,0,5.16,0.012,8.951c0.012,3.495-0.037,14.45-0.012,17.027"/>
	<path fill="#FFFFFF" stroke="#B3B3B3" stroke-width="0.5" stroke-linecap="round" d="M71.055,58.757c0,0,6.557-0.899,8.238,0.619"
		/>
	<path fill="#FFFFFF" stroke="#B3B3B3" stroke-width="0.5" stroke-linecap="round" d="M73.258,47.433c0,0,4.584-0.376,5.784,0.435"
		/>
	<path fill="#FFFFFF" stroke="#B3B3B3" stroke-width="0.5" stroke-linecap="round" d="M75.311,35.722
		c-0.742,0.709-0.314,3.364,0.371,3.811c0.687,0.445,3.944,0.958,4.617,0.491c0.674-0.468,1.088-1.516,1.042-2.873
		c-0.045-1.357-0.972-2.118-2.653-2.551S75.904,35.153,75.311,35.722z"/>
</g>
<g id="_x31_0_1_" style="display: none;">
	<g>
		<g>
			<defs>
				<rect id="SVGID_40_" x="38.445" y="19.85" width="34" height="65.786"/>
			</defs>
			<clipPath id="SVGID_41_">
				<use xlink:href="#SVGID_40_"  overflow="visible"/>
			</clipPath>
			<rect x="46.991" y="25.917" clip-path="url(#SVGID_41_)" fill="#F1F1F2" width="32.159" height="47.25"/>
		</g>
		<g>
			<defs>
				<rect id="SVGID_42_" x="38.445" y="19.85" width="34" height="65.786"/>
			</defs>
			<clipPath id="SVGID_43_">
				<use xlink:href="#SVGID_42_"  overflow="visible"/>
			</clipPath>
			<rect x="9.963" y="25.917" clip-path="url(#SVGID_43_)" fill="#F1F1F2" width="32.159" height="47.25"/>
		</g>
	</g>
	
		<linearGradient id="SVGID_44_" gradientUnits="userSpaceOnUse" x1="63.4487" y1="30.9346" x2="63.4487" y2="94.1216" gradientTransform="matrix(1 0 0 -1 0 129)">
		<stop  offset="0.75" style="stop-color:#000000"/>
		<stop  offset="1" style="stop-color:#FFFFFF"/>
	</linearGradient>
	<path opacity="0.3" fill="url(#SVGID_44_)" enable-background="new    " d="M43.942,97.693c0.707,0.26,1.505,0.389,2.378,0.371
		h30.933c3.481,0.07,5.702-2.197,5.702-5.684v-8.704c-0.012,0.001-0.021,0-0.033,0.001c-1.379-2.464-2.9-4.896-4.314-6.549
		c-0.44-3.913-0.881-8.04-1.24-9.568c-0.508-2.16-2.16-5.477-5.844-5.469c-2.627,0.005-4.026,1.175-5.5,3.284
		c-0.072-0.841-0.142-1.499-0.203-1.891c-0.381-2.413,0.148-6.256-0.274-9.644c-0.423-3.386,2.101-11.166,2.024-14.191
		c-0.036-1.435-0.36-4.771-4.122-4.771c-1.15,0.137-3.193-0.014-4.347,1.7c-1.153,1.713-2.058,6.319-2.233,7.348
		c-0.658,3.854,0.388,2.841-0.668,8.127c-0.658,3.296-3.442,7.367-3.452,10.923c-0.007,2.358,0.027,5.442-0.22,10.875
		c-3.592,1.758-2.772,0.481-4.55,1.814c-2.031,1.525-2.286,6.73-2.667,12.573C45.046,92.294,44.294,95.247,43.942,97.693z"/>
	<circle fill="#80AADA" cx="64.796" cy="39.045" r="8.1"/>
	<path fill="#FFFFFF" stroke="#B3B3B3" stroke-linecap="round" d="M52.571,121.104c0,0-6.037-19.879-6.556-23.769
		c-0.518-3.89,1.038-7.776,1.556-13.092c0.519-5.313,0.804-11.15,1.893-12.445c1.089-1.297,8.369-2.45,12.356-5.187l30.345,7.908
		c0,0,0.907-1.297,3.89,1.686c2.979,2.982,12.573,15.814,12.573,20.74c0,4.408-7.45,14.445-10.821,24.037"/>
	<path fill="#FFFFFF" stroke="#B3B3B3" stroke-linecap="round" d="M100.375,88.259c0,0-3.803-4.664-5.445-8.118
		c-1.642-3.459-5.664-11.041-9.25-14.289l-1.156,9.408"/>
	<path fill="#FFFFFF" stroke="#B3B3B3" stroke-linecap="round" d="M89.909,81.953c0,0-2.625-11.733-3.585-17.734
		c-0.961-6.001-2.479-8.465-6.48-9.24c-4.953-0.96-9.119,5.763-10.08,7.802l0.479,12.238"/>
	<path fill="#FFFFFF" stroke="#B3B3B3" stroke-width="0.5" stroke-linecap="round" d="M53.848,79.146c0,0,4.103,2.83,4.947,4.754"/>
	<path fill="#FFFFFF" stroke="#B3B3B3" stroke-width="0.5" stroke-linecap="round" d="M75.216,61.332c0,0-2.571,0.667-3.313,4.102"
		/>
	<path fill="#FFFFFF" stroke="#B3B3B3" stroke-linecap="round" d="M54.701,95.302c0,0,3.421-10.137,3.661-13.349
		c0.24-3.213,0.84-13.294,0.72-16.653c-0.12-3.36-0.517-7.183-0.637-9.823c-0.12-2.64-0.12-6.577,0.201-9.937
		s0.809-9.609,5.236-9.941c4.429-0.333,5.4,1.979,5.521,5.459c0.121,3.48-0.254,8.4,0.121,11.54c0.342,2.865,0.84,4.541,1.8,7.901
		s1.319,14.644,4.801,18.001"/>
	<path fill="#FFFFFF" stroke="#B3B3B3" stroke-width="0.5" stroke-linecap="round" d="M61.916,61.332c0,0,7.583-1.388,9.68,0"/>
	<path fill="#FFFFFF" stroke="#B3B3B3" stroke-width="0.5" stroke-linecap="round" d="M61.474,49.816c0,0,5.903-1.388,7.536,0"/>
	<path fill="#FFFFFF" stroke="#B3B3B3" stroke-width="0.5" stroke-linecap="round" d="M61.456,37.333
		c-0.738,0.899,0.53,3.387,1.43,3.747c0.9,0.356,4.623,0.626,5.327,0c0.704-0.627,0.987-1.834,0.667-3.291
		c-0.321-1.458-1.567-2.113-3.646-2.278C63.156,35.346,62.049,36.61,61.456,37.333z"/>
</g>
<g id="_x30_9_1_" style="display: none;">
	<rect x="40.999" y="25.917" fill="#F1F1F2" width="32.399" height="47.25"/>
	
		<linearGradient id="SVGID_45_" gradientUnits="userSpaceOnUse" x1="59.8486" y1="30.9346" x2="59.8486" y2="94.1216" gradientTransform="matrix(1 0 0 -1 0 129)">
		<stop  offset="0.75" style="stop-color:#000000"/>
		<stop  offset="1" style="stop-color:#FFFFFF"/>
	</linearGradient>
	<path opacity="0.3" fill="url(#SVGID_45_)" enable-background="new    " d="M40.342,97.693c0.707,0.26,1.505,0.389,2.378,0.371
		h30.932c3.482,0.07,5.703-2.197,5.703-5.684v-8.704c-0.01,0.001-0.022,0-0.033,0.001c-1.379-2.464-2.901-4.896-4.314-6.549
		c-0.439-3.913-0.881-8.04-1.24-9.568c-0.509-2.16-2.16-5.477-5.844-5.469c-2.627,0.005-4.027,1.175-5.501,3.284
		c-0.072-0.841-0.141-1.499-0.203-1.891c-0.38-2.413,0.149-6.256-0.274-9.644c-0.423-3.386,2.1-11.166,2.024-14.191
		c-0.036-1.435-0.36-4.771-4.122-4.771c-1.15,0.137-3.193-0.014-4.347,1.7c-1.153,1.713-2.058,6.319-2.233,7.348
		c-0.658,3.854,0.388,2.841-0.668,8.127c-0.658,3.296-3.442,7.367-3.452,10.923c-0.006,2.358,0.027,5.442-0.22,10.875
		c-3.592,1.758-2.772,0.481-4.55,1.814c-2.032,1.525-2.286,6.73-2.667,12.573C41.447,92.294,40.694,95.247,40.342,97.693z"/>
	<circle fill="#80AADA" cx="59.396" cy="39.045" r="8.1"/>
	<path fill="#FFFFFF" stroke="#B3B3B3" stroke-linecap="round" d="M50.616,121.059c0,0-6.482-19.834-7-23.724
		c-0.518-3.89,1.038-7.776,1.556-13.092s0.803-11.15,1.892-12.445c1.089-1.297,8.369-2.45,12.356-5.187l30.346,7.908
		c0,0,0.906-1.297,3.889,1.686c2.98,2.982,12.574,15.814,12.574,20.74c0,4.408-7.778,14.519-11.149,24.111"/>
	<path fill="#FFFFFF" stroke="#B3B3B3" stroke-linecap="round" d="M97.975,88.259c0,0-3.804-4.664-5.445-8.118
		c-1.643-3.459-5.664-11.041-9.25-14.289l-1.156,9.408"/>
	<path fill="#FFFFFF" stroke="#B3B3B3" stroke-linecap="round" d="M88.469,81.953c0,0-4.545-11.733-5.505-17.734
		c-0.959-6-2.479-8.465-6.479-9.24c-4.953-0.96-8.161,5.763-9.121,7.802l1.441,12.238"/>
	<path fill="#FFFFFF" stroke="#B3B3B3" stroke-width="0.5" stroke-linecap="round" d="M70.243,61.332c0,0-1.371,0.667-1.769,4.102"
		/>
	<path fill="#FFFFFF" stroke="#B3B3B3" stroke-linecap="round" d="M52.301,95.302c0,0,3.421-10.137,3.661-13.349
		c0.24-3.213,0.12-13.294,0-16.653c-0.12-3.36-0.277-7.183-0.397-9.823s-1.561-6.577-1.239-9.937
		c0.321-3.36,0.569-9.609,4.997-9.941c4.427-0.333,5.399,1.979,5.521,5.459c0.12,3.48,0.479,8.78,1.32,11.54
		c0.84,2.76,1.08,4.541,2.041,7.901c0.96,3.36,1.561,14.281,2.639,16.321"/>
	<path fill="#FFFFFF" stroke="#B3B3B3" stroke-width="0.5" stroke-linecap="round" d="M51.448,79.146c0,0,3.341,1.731,4.185,3.658"
		/>
	<path fill="#FFFFFF" stroke="#B3B3B3" stroke-width="0.5" stroke-linecap="round" d="M58.795,61.332c0,0,7.583-1.388,9.68,0"/>
	<path fill="#FFFFFF" stroke="#B3B3B3" stroke-width="0.5" stroke-linecap="round" d="M58.122,50.523c0,0,5.534-1.388,7.065,0"/>
	<path fill="#FFFFFF" stroke="#B3B3B3" stroke-width="0.5" stroke-linecap="round" d="M57.016,37.173
		c-0.671,0.821,0.481,3.094,1.3,3.421c0.817,0.326,4.2,0.572,4.84,0c0.639-0.573,0.897-1.674,0.605-3.004
		c-0.292-1.332-1.425-1.929-3.312-2.08C58.561,35.359,57.554,36.513,57.016,37.173z"/>
</g>
<g id="_x30_8_1_" style="display: none;">
	<rect x="39.048" y="25.917" fill="#F1F1F2" width="32.7" height="47.25"/>
	
		<linearGradient id="SVGID_46_" gradientUnits="userSpaceOnUse" x1="58.0493" y1="30.9346" x2="58.0493" y2="94.1216" gradientTransform="matrix(1 0 0 -1 0 129)">
		<stop  offset="0.75" style="stop-color:#000000"/>
		<stop  offset="1" style="stop-color:#FFFFFF"/>
	</linearGradient>
	<path opacity="0.3" fill="url(#SVGID_46_)" enable-background="new    " d="M38.542,97.693c0.707,0.26,1.505,0.389,2.378,0.371
		h30.934c3.481,0.07,5.703-2.197,5.703-5.684v-8.704c-0.012,0.001-0.022,0-0.033,0.001c-1.379-2.464-2.901-4.896-4.314-6.549
		c-0.439-3.913-0.88-8.04-1.241-9.568c-0.508-2.16-2.159-5.477-5.842-5.469c-2.627,0.005-4.028,1.175-5.501,3.284
		c-0.072-0.841-0.141-1.499-0.203-1.891c-0.38-2.413,0.149-6.256-0.274-9.644c-0.423-3.386,2.1-11.166,2.025-14.191
		c-0.036-1.435-0.36-4.771-4.122-4.771c-1.15,0.137-3.194-0.014-4.347,1.7c-1.154,1.713-2.058,6.319-2.233,7.348
		c-0.658,3.854,0.388,2.841-0.668,8.127c-0.658,3.296-3.443,7.367-3.452,10.923c-0.007,2.358,0.027,5.442-0.22,10.875
		c-3.592,1.758-2.772,0.481-4.55,1.814c-2.032,1.525-2.286,6.73-2.667,12.573C39.646,92.294,38.894,95.247,38.542,97.693z"/>
	<circle fill="#80AADA" cx="57.596" cy="39.045" r="8.1"/>
	<path fill="#FFFFFF" stroke="#B3B3B3" stroke-linecap="round" d="M49.416,121.059c0,0-6.482-19.834-7-23.724
		c-0.519-3.89,1.037-7.776,1.556-13.092s0.803-11.15,1.892-12.445c1.089-1.297,8.369-2.45,12.356-5.187l30.344,7.908
		c0,0,0.906-1.297,3.89,1.686c2.979,2.982,12.573,15.814,12.573,20.74c0,4.408-7.776,14.519-11.148,24.111"/>
	<path fill="#FFFFFF" stroke="#B3B3B3" stroke-linecap="round" d="M96.773,88.259c0,0-3.803-4.664-5.444-8.118
		c-1.642-3.459-5.664-11.041-9.25-14.289l-1.156,9.408"/>
	<path fill="#FFFFFF" stroke="#B3B3B3" stroke-linecap="round" d="M87.27,81.953c0,0-4.545-11.733-5.506-17.734
		c-0.959-6-2.479-8.465-6.48-9.24c-4.953-0.96-8.16,5.763-9.12,7.802l1.44,12.238"/>
	<path fill="#FFFFFF" stroke="#B3B3B3" stroke-width="0.5" stroke-linecap="round" d="M69.043,61.332c0,0-1.372,0.667-1.768,4.102"
		/>
	<path fill="#FFFFFF" stroke="#B3B3B3" stroke-linecap="round" d="M51.101,95.302c0,0,3.421-10.137,3.661-13.349
		c0.24-3.213,0.12-13.294,0-16.653c-0.12-3.36-0.757-7.183-0.877-9.823c-0.12-2.64-1.8-6.577-1.479-9.937
		c0.321-3.36,0.328-9.609,4.756-9.941c4.428-0.333,5.401,1.979,5.52,5.459c0.121,3.48,0.961,8.78,1.801,11.54
		c0.84,2.76,1.56,4.541,2.52,7.901s1.56,14.281,2.64,16.321"/>
	<path fill="#FFFFFF" stroke="#B3B3B3" stroke-width="0.5" stroke-linecap="round" d="M50.248,79.146c0,0,3.34,1.731,4.185,3.658"/>
	<path fill="#FFFFFF" stroke="#B3B3B3" stroke-width="0.5" stroke-linecap="round" d="M57.595,61.332c0,0,7.583-1.388,9.68,0"/>
	<path fill="#FFFFFF" stroke="#B3B3B3" stroke-width="0.5" stroke-linecap="round" d="M55.457,50.733c0,0,5.995-1.954,7.818-0.731"
		/>
	<path fill="#FFFFFF" stroke="#B3B3B3" stroke-width="0.5" stroke-linecap="round" d="M55.096,37.173
		c-0.671,0.821,0.481,3.094,1.299,3.421c0.818,0.326,4.199,0.572,4.84,0c0.64-0.573,0.896-1.674,0.605-3.004
		c-0.292-1.332-1.425-1.929-3.312-2.08C56.641,35.359,55.634,36.513,55.096,37.173z"/>
</g>
<g id="_x30_706" style="display: none;">
	<rect x="39.048" y="25.917" fill="#F1F1F2" width="32.7" height="47.25"/>
	
		<linearGradient id="SVGID_47_" gradientUnits="userSpaceOnUse" x1="57.1489" y1="30.9346" x2="57.1489" y2="94.1216" gradientTransform="matrix(1 0 0 -1 0 129)">
		<stop  offset="0.75" style="stop-color:#000000"/>
		<stop  offset="1" style="stop-color:#FFFFFF"/>
	</linearGradient>
	<path opacity="0.3" fill="url(#SVGID_47_)" enable-background="new    " d="M37.642,97.693c0.707,0.26,1.505,0.389,2.378,0.371
		h30.933c3.482,0.07,5.703-2.197,5.703-5.684v-8.704c-0.012,0.001-0.022,0-0.033,0.001c-1.378-2.464-2.9-4.896-4.314-6.549
		c-0.439-3.913-0.881-8.04-1.24-9.568c-0.508-2.16-2.159-5.477-5.842-5.469c-2.627,0.005-4.028,1.175-5.501,3.284
		c-0.072-0.841-0.141-1.499-0.203-1.891c-0.381-2.413,0.149-6.256-0.274-9.644c-0.423-3.386,2.1-11.166,2.025-14.191
		c-0.036-1.435-0.36-4.771-4.122-4.771c-1.15,0.137-3.193-0.014-4.347,1.7c-1.154,1.713-2.058,6.319-2.233,7.348
		c-0.658,3.854,0.388,2.841-0.668,8.127c-0.658,3.296-3.443,7.367-3.453,10.923c-0.006,2.358,0.027,5.442-0.22,10.875
		c-3.592,1.758-2.772,0.481-4.55,1.814c-2.032,1.525-2.286,6.73-2.667,12.573C38.747,92.294,37.994,95.247,37.642,97.693z"/>
	<circle fill="#80AADA" cx="57.596" cy="39.045" r="8.1"/>
	<path fill="#FFFFFF" stroke="#B3B3B3" stroke-linecap="round" d="M48.216,121.059c0,0-6.482-19.834-7-23.724
		c-0.518-3.89,1.037-7.776,1.556-13.092c0.519-5.313,0.803-11.15,1.893-12.445c1.089-1.297,8.368-2.45,12.355-5.187l30.346,7.908
		c0,0,0.905-1.297,3.889,1.686c2.981,2.982,12.574,15.814,12.574,20.74c0,4.408-7.778,14.519-11.149,24.111"/>
	<path fill="#FFFFFF" stroke="#B3B3B3" stroke-linecap="round" d="M95.575,88.259c0,0-3.804-4.664-5.445-8.118
		c-1.642-3.459-5.664-11.041-9.25-14.289l-1.155,9.408"/>
	<path fill="#FFFFFF" stroke="#B3B3B3" stroke-linecap="round" d="M86.068,81.953c0,0-4.545-11.733-5.506-17.734
		c-0.959-6-2.479-8.465-6.479-9.24c-4.953-0.96-8.161,5.763-9.121,7.802l1.44,12.238"/>
	<path fill="#FFFFFF" stroke="#B3B3B3" stroke-width="0.5" stroke-linecap="round" d="M67.843,61.332c0,0-1.37,0.667-1.768,4.102"/>
	<path fill="#FFFFFF" stroke="#B3B3B3" stroke-linecap="round" d="M49.901,95.302c0,0,3.42-10.137,3.661-13.349
		c0.24-3.213,0.12-13.294,0-16.653c-0.12-3.36-0.517-7.183-0.637-9.823c-0.12-2.64-1.32-6.577-0.999-9.937
		c0.321-3.36,0.808-9.609,5.236-9.941c4.428-0.333,5.401,1.979,5.52,5.459c0.121,3.48,0,8.78,0.84,11.54
		c0.84,2.76,1.321,4.541,2.28,7.901c0.96,3.36,1.56,14.281,2.642,16.321"/>
	<path fill="#FFFFFF" stroke="#B3B3B3" stroke-width="0.5" stroke-linecap="round" d="M49.048,79.146c0,0,3.341,1.731,4.186,3.658"
		/>
	<path fill="#FFFFFF" stroke="#B3B3B3" stroke-width="0.5" stroke-linecap="round" d="M56.395,61.332c0,0,7.583-1.388,9.68,0"/>
	<path fill="#FFFFFF" stroke="#B3B3B3" stroke-width="0.5" stroke-linecap="round" d="M55.096,37.173
		c-0.671,0.821,0.481,3.094,1.299,3.421c0.818,0.326,4.199,0.572,4.84,0c0.64-0.573,0.896-1.674,0.605-3.004
		c-0.292-1.332-1.425-1.929-3.312-2.08C56.641,35.359,55.634,36.513,55.096,37.173z"/>
	<path fill="#FFFFFF" stroke="#B3B3B3" stroke-width="0.5" stroke-linecap="round" d="M54.496,50.733c0,0,5.995-1.954,7.818-0.731"
		/>
</g>
<g id="_x30_705" style="display: none;">
	<rect x="39.048" y="25.917" fill="#F1F1F2" width="32.7" height="47.25"/>
	
		<linearGradient id="SVGID_48_" gradientUnits="userSpaceOnUse" x1="57.1489" y1="30.9346" x2="57.1489" y2="94.1216" gradientTransform="matrix(1 0 0 -1 0 129)">
		<stop  offset="0.75" style="stop-color:#000000"/>
		<stop  offset="1" style="stop-color:#FFFFFF"/>
	</linearGradient>
	<path opacity="0.3" fill="url(#SVGID_48_)" enable-background="new    " d="M37.642,97.693c0.707,0.26,1.505,0.389,2.378,0.371
		h30.933c3.482,0.07,5.703-2.197,5.703-5.684v-8.704c-0.012,0.001-0.022,0-0.033,0.001c-1.378-2.464-2.9-4.896-4.314-6.549
		c-0.439-3.913-0.881-8.04-1.24-9.568c-0.508-2.16-2.159-5.477-5.842-5.469c-2.627,0.005-4.028,1.175-5.501,3.284
		c-0.072-0.841-0.141-1.499-0.203-1.891c-0.381-2.413,0.149-6.256-0.274-9.644c-0.423-3.386,2.1-11.166,2.025-14.191
		c-0.036-1.435-0.36-4.771-4.122-4.771c-1.15,0.137-3.193-0.014-4.347,1.7c-1.154,1.713-2.058,6.319-2.233,7.348
		c-0.658,3.854,0.388,2.841-0.668,8.127c-0.658,3.296-3.443,7.367-3.453,10.923c-0.006,2.358,0.027,5.442-0.22,10.875
		c-3.592,1.758-2.772,0.481-4.55,1.814c-2.032,1.525-2.286,6.73-2.667,12.573C38.747,92.294,37.994,95.247,37.642,97.693z"/>
	<circle fill="#80AADA" cx="57.596" cy="39.045" r="7.875"/>
	<path fill="#FFFFFF" stroke="#B3B3B3" stroke-linecap="round" d="M48.216,121.059c0,0-6.482-19.834-7-23.724
		c-0.518-3.89,1.037-7.776,1.556-13.092c0.519-5.313,0.803-11.15,1.893-12.445c1.089-1.297,8.368-2.45,12.355-5.187l30.346,7.908
		c0,0,0.905-1.297,3.889,1.686c2.981,2.982,12.574,15.814,12.574,20.74c0,4.408-7.778,14.519-11.149,24.111"/>
	<path fill="#FFFFFF" stroke="#B3B3B3" stroke-linecap="round" d="M95.575,88.259c0,0-3.804-4.664-5.445-8.118
		c-1.642-3.459-5.664-11.041-9.25-14.289l-1.155,9.408"/>
	<path fill="#FFFFFF" stroke="#B3B3B3" stroke-linecap="round" d="M86.068,81.953c0,0-4.545-11.733-5.506-17.734
		c-0.959-6-2.479-8.465-6.479-9.24c-4.953-0.96-8.161,5.763-9.121,7.802l1.44,12.238"/>
	<path fill="#FFFFFF" stroke="#B3B3B3" stroke-width="0.5" stroke-linecap="round" d="M67.843,61.332c0,0-1.37,0.667-1.768,4.102"/>
	<path fill="#FFFFFF" stroke="#B3B3B3" stroke-linecap="round" d="M49.901,95.302c0,0,3.42-10.137,3.661-13.349
		c0.24-3.213,0.12-13.294,0-16.653c-0.12-3.36-0.517-7.183-0.637-9.823c-0.12-2.64-1.32-6.577-0.999-9.937
		c0.321-3.36,0.808-9.609,5.236-9.941c4.428-0.333,5.401,1.979,5.52,5.459c0.121,3.48,0,8.78,0.84,11.54
		c0.84,2.76,1.321,4.541,2.28,7.901c0.96,3.36,1.56,14.281,2.642,16.321"/>
	<path fill="#FFFFFF" stroke="#B3B3B3" stroke-width="0.5" stroke-linecap="round" d="M49.048,79.146c0,0,3.341,1.731,4.186,3.658"
		/>
	<path fill="#FFFFFF" stroke="#B3B3B3" stroke-width="0.5" stroke-linecap="round" d="M56.395,61.332c0,0,7.583-1.388,9.68,0"/>
	<path fill="#FFFFFF" stroke="#B3B3B3" stroke-width="0.5" stroke-linecap="round" d="M55.096,37.173
		c-0.671,0.821,0.481,3.094,1.299,3.421c0.818,0.326,4.199,0.572,4.84,0c0.64-0.573,0.896-1.674,0.605-3.004
		c-0.292-1.332-1.425-1.929-3.312-2.08C56.641,35.359,55.634,36.513,55.096,37.173z"/>
	<path fill="#FFFFFF" stroke="#B3B3B3" stroke-width="0.5" stroke-linecap="round" d="M54.496,50.733c0,0,5.995-1.954,7.818-0.731"
		/>
</g>
<g id="_x30_704" style="display: none;">
	<rect x="39.048" y="25.917" fill="#F1F1F2" width="32.7" height="47.25"/>
	
		<linearGradient id="SVGID_49_" gradientUnits="userSpaceOnUse" x1="57.1489" y1="30.9346" x2="57.1489" y2="94.1216" gradientTransform="matrix(1 0 0 -1 0 129)">
		<stop  offset="0.75" style="stop-color:#000000"/>
		<stop  offset="1" style="stop-color:#FFFFFF"/>
	</linearGradient>
	<path opacity="0.3" fill="url(#SVGID_49_)" enable-background="new    " d="M37.642,97.693c0.707,0.26,1.505,0.389,2.378,0.371
		h30.933c3.482,0.07,5.703-2.197,5.703-5.684v-8.704c-0.012,0.001-0.022,0-0.033,0.001c-1.378-2.464-2.9-4.896-4.314-6.549
		c-0.439-3.913-0.881-8.04-1.24-9.568c-0.508-2.16-2.159-5.477-5.842-5.469c-2.627,0.005-4.028,1.175-5.501,3.284
		c-0.072-0.841-0.141-1.499-0.203-1.891c-0.381-2.413,0.149-6.256-0.274-9.644c-0.423-3.386,2.1-11.166,2.025-14.191
		c-0.036-1.435-0.36-4.771-4.122-4.771c-1.15,0.137-3.193-0.014-4.347,1.7c-1.154,1.713-2.058,6.319-2.233,7.348
		c-0.658,3.854,0.388,2.841-0.668,8.127c-0.658,3.296-3.443,7.367-3.453,10.923c-0.006,2.358,0.027,5.442-0.22,10.875
		c-3.592,1.758-2.772,0.481-4.55,1.814c-2.032,1.525-2.286,6.73-2.667,12.573C38.747,92.294,37.994,95.247,37.642,97.693z"/>
	<circle fill="#80AADA" cx="57.596" cy="39.045" r="7.65"/>
	<path fill="#FFFFFF" stroke="#B3B3B3" stroke-linecap="round" d="M48.216,121.059c0,0-6.482-19.834-7-23.724
		c-0.518-3.89,1.037-7.776,1.556-13.092c0.519-5.313,0.803-11.15,1.893-12.445c1.089-1.297,8.368-2.45,12.355-5.187l30.346,7.908
		c0,0,0.905-1.297,3.889,1.686c2.981,2.982,12.574,15.814,12.574,20.74c0,4.408-7.778,14.519-11.149,24.111"/>
	<path fill="#FFFFFF" stroke="#B3B3B3" stroke-linecap="round" d="M95.575,88.259c0,0-3.804-4.664-5.445-8.118
		c-1.642-3.459-5.664-11.041-9.25-14.289l-1.155,9.408"/>
	<path fill="#FFFFFF" stroke="#B3B3B3" stroke-linecap="round" d="M86.068,81.953c0,0-4.545-11.733-5.506-17.734
		c-0.959-6-2.479-8.465-6.479-9.24c-4.953-0.96-8.161,5.763-9.121,7.802l1.44,12.238"/>
	<path fill="#FFFFFF" stroke="#B3B3B3" stroke-width="0.5" stroke-linecap="round" d="M67.843,61.332c0,0-1.37,0.667-1.768,4.102"/>
	<path fill="#FFFFFF" stroke="#B3B3B3" stroke-linecap="round" d="M49.901,95.302c0,0,3.42-10.137,3.661-13.349
		c0.24-3.213,0.12-13.294,0-16.653c-0.12-3.36-0.517-7.183-0.637-9.823c-0.12-2.64-1.32-6.577-0.999-9.937
		c0.321-3.36,0.808-9.609,5.236-9.941c4.428-0.333,5.401,1.979,5.52,5.459c0.121,3.48,0,8.78,0.84,11.54
		c0.84,2.76,1.321,4.541,2.28,7.901c0.96,3.36,1.56,14.281,2.642,16.321"/>
	<path fill="#FFFFFF" stroke="#B3B3B3" stroke-width="0.5" stroke-linecap="round" d="M49.048,79.146c0,0,3.341,1.731,4.186,3.658"
		/>
	<path fill="#FFFFFF" stroke="#B3B3B3" stroke-width="0.5" stroke-linecap="round" d="M56.395,61.332c0,0,7.583-1.388,9.68,0"/>
	<path fill="#FFFFFF" stroke="#B3B3B3" stroke-width="0.5" stroke-linecap="round" d="M55.096,37.173
		c-0.671,0.821,0.481,3.094,1.299,3.421c0.818,0.326,4.199,0.572,4.84,0c0.64-0.573,0.896-1.674,0.605-3.004
		c-0.292-1.332-1.425-1.929-3.312-2.08C56.641,35.359,55.634,36.513,55.096,37.173z"/>
	<path fill="#FFFFFF" stroke="#B3B3B3" stroke-width="0.5" stroke-linecap="round" d="M54.496,50.733c0,0,5.995-1.954,7.818-0.731"
		/>
</g>
<g id="_x30_703" style="display: none;">
	<rect x="39.048" y="25.917" fill="#F1F1F2" width="32.7" height="47.25"/>
	
		<linearGradient id="SVGID_50_" gradientUnits="userSpaceOnUse" x1="57.1489" y1="30.9346" x2="57.1489" y2="94.1216" gradientTransform="matrix(1 0 0 -1 0 129)">
		<stop  offset="0.75" style="stop-color:#000000"/>
		<stop  offset="1" style="stop-color:#FFFFFF"/>
	</linearGradient>
	<path opacity="0.3" fill="url(#SVGID_50_)" enable-background="new    " d="M37.642,97.693c0.707,0.26,1.505,0.389,2.378,0.371
		h30.933c3.482,0.07,5.703-2.197,5.703-5.684v-8.704c-0.012,0.001-0.022,0-0.033,0.001c-1.378-2.464-2.9-4.896-4.314-6.549
		c-0.439-3.913-0.881-8.04-1.24-9.568c-0.508-2.16-2.159-5.477-5.842-5.469c-2.627,0.005-4.028,1.175-5.501,3.284
		c-0.072-0.841-0.141-1.499-0.203-1.891c-0.381-2.413,0.149-6.256-0.274-9.644c-0.423-3.386,2.1-11.166,2.025-14.191
		c-0.036-1.435-0.36-4.771-4.122-4.771c-1.15,0.137-3.193-0.014-4.347,1.7c-1.154,1.713-2.058,6.319-2.233,7.348
		c-0.658,3.854,0.388,2.841-0.668,8.127c-0.658,3.296-3.443,7.367-3.453,10.923c-0.006,2.358,0.027,5.442-0.22,10.875
		c-3.592,1.758-2.772,0.481-4.55,1.814c-2.032,1.525-2.286,6.73-2.667,12.573C38.747,92.294,37.994,95.247,37.642,97.693z"/>
	<circle fill="#80AADA" cx="57.595" cy="39.045" r="7.425"/>
	<path fill="#FFFFFF" stroke="#B3B3B3" stroke-linecap="round" d="M48.216,121.059c0,0-6.482-19.834-7-23.724
		c-0.518-3.89,1.037-7.776,1.556-13.092c0.519-5.313,0.803-11.15,1.893-12.445c1.089-1.297,8.368-2.45,12.355-5.187l30.346,7.908
		c0,0,0.905-1.297,3.889,1.686c2.981,2.982,12.574,15.814,12.574,20.74c0,4.408-7.778,14.519-11.149,24.111"/>
	<path fill="#FFFFFF" stroke="#B3B3B3" stroke-linecap="round" d="M95.575,88.259c0,0-3.804-4.664-5.445-8.118
		c-1.642-3.459-5.664-11.041-9.25-14.289l-1.155,9.408"/>
	<path fill="#FFFFFF" stroke="#B3B3B3" stroke-linecap="round" d="M86.068,81.953c0,0-4.545-11.733-5.506-17.734
		c-0.959-6-2.479-8.465-6.479-9.24c-4.953-0.96-8.161,5.763-9.121,7.802l1.44,12.238"/>
	<path fill="#FFFFFF" stroke="#B3B3B3" stroke-width="0.5" stroke-linecap="round" d="M67.843,61.332c0,0-1.37,0.667-1.768,4.102"/>
	<path fill="#FFFFFF" stroke="#B3B3B3" stroke-linecap="round" d="M49.901,95.302c0,0,3.42-10.137,3.661-13.349
		c0.24-3.213,0.12-13.294,0-16.653c-0.12-3.36-0.517-7.183-0.637-9.823c-0.12-2.64-1.32-6.577-0.999-9.937
		c0.321-3.36,0.808-9.609,5.236-9.941c4.428-0.333,5.401,1.979,5.52,5.459c0.121,3.48,0,8.78,0.84,11.54
		c0.84,2.76,1.321,4.541,2.28,7.901c0.96,3.36,1.56,14.281,2.642,16.321"/>
	<path fill="#FFFFFF" stroke="#B3B3B3" stroke-width="0.5" stroke-linecap="round" d="M49.048,79.146c0,0,3.341,1.731,4.186,3.658"
		/>
	<path fill="#FFFFFF" stroke="#B3B3B3" stroke-width="0.5" stroke-linecap="round" d="M56.395,61.332c0,0,7.583-1.388,9.68,0"/>
	<path fill="#FFFFFF" stroke="#B3B3B3" stroke-width="0.5" stroke-linecap="round" d="M55.096,37.173
		c-0.671,0.821,0.481,3.094,1.299,3.421c0.818,0.326,4.199,0.572,4.84,0c0.64-0.573,0.896-1.674,0.605-3.004
		c-0.292-1.332-1.425-1.929-3.312-2.08C56.641,35.359,55.634,36.513,55.096,37.173z"/>
	<path fill="#FFFFFF" stroke="#B3B3B3" stroke-width="0.5" stroke-linecap="round" d="M54.496,50.733c0,0,5.995-1.954,7.818-0.731"
		/>
</g>
<g id="_x30_702" style="display: none;">
	<rect x="39.048" y="25.917" fill="#F1F1F2" width="32.7" height="47.25"/>
	
		<linearGradient id="SVGID_51_" gradientUnits="userSpaceOnUse" x1="57.1489" y1="30.9346" x2="57.1489" y2="94.1216" gradientTransform="matrix(1 0 0 -1 0 129)">
		<stop  offset="0.75" style="stop-color:#000000"/>
		<stop  offset="1" style="stop-color:#FFFFFF"/>
	</linearGradient>
	<path opacity="0.3" fill="url(#SVGID_51_)" enable-background="new    " d="M37.642,97.693c0.707,0.26,1.505,0.389,2.378,0.371
		h30.933c3.482,0.07,5.703-2.197,5.703-5.684v-8.704c-0.012,0.001-0.022,0-0.033,0.001c-1.378-2.464-2.9-4.896-4.314-6.549
		c-0.439-3.913-0.881-8.04-1.24-9.568c-0.508-2.16-2.159-5.477-5.842-5.469c-2.627,0.005-4.028,1.175-5.501,3.284
		c-0.072-0.841-0.141-1.499-0.203-1.891c-0.381-2.413,0.149-6.256-0.274-9.644c-0.423-3.386,2.1-11.166,2.025-14.191
		c-0.036-1.435-0.36-4.771-4.122-4.771c-1.15,0.137-3.193-0.014-4.347,1.7c-1.154,1.713-2.058,6.319-2.233,7.348
		c-0.658,3.854,0.388,2.841-0.668,8.127c-0.658,3.296-3.443,7.367-3.453,10.923c-0.006,2.358,0.027,5.442-0.22,10.875
		c-3.592,1.758-2.772,0.481-4.55,1.814c-2.032,1.525-2.286,6.73-2.667,12.573C38.747,92.294,37.994,95.247,37.642,97.693z"/>
	<circle fill="#80AADA" cx="57.595" cy="39.045" r="7.2"/>
	<path fill="#FFFFFF" stroke="#B3B3B3" stroke-linecap="round" d="M48.216,121.059c0,0-6.482-19.834-7-23.724
		c-0.518-3.89,1.037-7.776,1.556-13.092c0.519-5.313,0.803-11.15,1.893-12.445c1.089-1.297,8.368-2.45,12.355-5.187l30.346,7.908
		c0,0,0.905-1.297,3.889,1.686c2.981,2.982,12.574,15.814,12.574,20.74c0,4.408-7.778,14.519-11.149,24.111"/>
	<path fill="#FFFFFF" stroke="#B3B3B3" stroke-linecap="round" d="M95.575,88.259c0,0-3.804-4.664-5.445-8.118
		c-1.642-3.459-5.664-11.041-9.25-14.289l-1.155,9.408"/>
	<path fill="#FFFFFF" stroke="#B3B3B3" stroke-linecap="round" d="M86.068,81.953c0,0-4.545-11.733-5.506-17.734
		c-0.959-6-2.479-8.465-6.479-9.24c-4.953-0.96-8.161,5.763-9.121,7.802l1.44,12.238"/>
	<path fill="#FFFFFF" stroke="#B3B3B3" stroke-width="0.5" stroke-linecap="round" d="M67.843,61.332c0,0-1.37,0.667-1.768,4.102"/>
	<path fill="#FFFFFF" stroke="#B3B3B3" stroke-linecap="round" d="M49.901,95.302c0,0,3.42-10.137,3.661-13.349
		c0.24-3.213,0.12-13.294,0-16.653c-0.12-3.36-0.517-7.183-0.637-9.823c-0.12-2.64-1.32-6.577-0.999-9.937
		c0.321-3.36,0.808-9.609,5.236-9.941c4.428-0.333,5.401,1.979,5.52,5.459c0.121,3.48,0,8.78,0.84,11.54
		c0.84,2.76,1.321,4.541,2.28,7.901c0.96,3.36,1.56,14.281,2.642,16.321"/>
	<path fill="#FFFFFF" stroke="#B3B3B3" stroke-width="0.5" stroke-linecap="round" d="M49.048,79.146c0,0,3.341,1.731,4.186,3.658"
		/>
	<path fill="#FFFFFF" stroke="#B3B3B3" stroke-width="0.5" stroke-linecap="round" d="M56.395,61.332c0,0,7.583-1.388,9.68,0"/>
	<path fill="#FFFFFF" stroke="#B3B3B3" stroke-width="0.5" stroke-linecap="round" d="M55.096,37.173
		c-0.671,0.821,0.481,3.094,1.299,3.421c0.818,0.326,4.199,0.572,4.84,0c0.64-0.573,0.896-1.674,0.605-3.004
		c-0.292-1.332-1.425-1.929-3.312-2.08C56.641,35.359,55.634,36.513,55.096,37.173z"/>
	<path fill="#FFFFFF" stroke="#B3B3B3" stroke-width="0.5" stroke-linecap="round" d="M54.496,50.733c0,0,5.995-1.954,7.818-0.731"
		/>
</g>
<g id="_x30_701" style="display: none;">
	<rect x="39.048" y="25.917" fill="#F1F1F2" width="32.7" height="47.25"/>
	
		<linearGradient id="SVGID_52_" gradientUnits="userSpaceOnUse" x1="57.1489" y1="30.9346" x2="57.1489" y2="94.1216" gradientTransform="matrix(1 0 0 -1 0 129)">
		<stop  offset="0.75" style="stop-color:#000000"/>
		<stop  offset="1" style="stop-color:#FFFFFF"/>
	</linearGradient>
	<path opacity="0.3" fill="url(#SVGID_52_)" enable-background="new    " d="M37.642,97.693c0.707,0.26,1.505,0.389,2.378,0.371
		h30.933c3.482,0.07,5.703-2.197,5.703-5.684v-8.704c-0.012,0.001-0.022,0-0.033,0.001c-1.378-2.464-2.9-4.896-4.314-6.549
		c-0.439-3.913-0.881-8.04-1.24-9.568c-0.508-2.16-2.159-5.477-5.842-5.469c-2.627,0.005-4.028,1.175-5.501,3.284
		c-0.072-0.841-0.141-1.499-0.203-1.891c-0.381-2.413,0.149-6.256-0.274-9.644c-0.423-3.386,2.1-11.166,2.025-14.191
		c-0.036-1.435-0.36-4.771-4.122-4.771c-1.15,0.137-3.193-0.014-4.347,1.7c-1.154,1.713-2.058,6.319-2.233,7.348
		c-0.658,3.854,0.388,2.841-0.668,8.127c-0.658,3.296-3.443,7.367-3.453,10.923c-0.006,2.358,0.027,5.442-0.22,10.875
		c-3.592,1.758-2.772,0.481-4.55,1.814c-2.032,1.525-2.286,6.73-2.667,12.573C38.747,92.294,37.994,95.247,37.642,97.693z"/>
	<circle fill="#80AADA" cx="57.595" cy="39.045" r="6.975"/>
	<path fill="#FFFFFF" stroke="#B3B3B3" stroke-linecap="round" d="M48.216,121.059c0,0-6.482-19.834-7-23.724
		c-0.518-3.89,1.037-7.776,1.556-13.092c0.519-5.313,0.803-11.15,1.893-12.445c1.089-1.297,8.368-2.45,12.355-5.187l30.346,7.908
		c0,0,0.905-1.297,3.889,1.686c2.981,2.982,12.574,15.814,12.574,20.74c0,4.408-7.778,14.519-11.149,24.111"/>
	<path fill="#FFFFFF" stroke="#B3B3B3" stroke-linecap="round" d="M95.575,88.259c0,0-3.804-4.664-5.445-8.118
		c-1.642-3.459-5.664-11.041-9.25-14.289l-1.155,9.408"/>
	<path fill="#FFFFFF" stroke="#B3B3B3" stroke-linecap="round" d="M86.068,81.953c0,0-4.545-11.733-5.506-17.734
		c-0.959-6-2.479-8.465-6.479-9.24c-4.953-0.96-8.161,5.763-9.121,7.802l1.44,12.238"/>
	<path fill="#FFFFFF" stroke="#B3B3B3" stroke-width="0.5" stroke-linecap="round" d="M67.843,61.332c0,0-1.37,0.667-1.768,4.102"/>
	<path fill="#FFFFFF" stroke="#B3B3B3" stroke-linecap="round" d="M49.901,95.302c0,0,3.42-10.137,3.661-13.349
		c0.24-3.213,0.12-13.294,0-16.653c-0.12-3.36-0.517-7.183-0.637-9.823c-0.12-2.64-1.32-6.577-0.999-9.937
		c0.321-3.36,0.808-9.609,5.236-9.941c4.428-0.333,5.401,1.979,5.52,5.459c0.121,3.48,0,8.78,0.84,11.54
		c0.84,2.76,1.321,4.541,2.28,7.901c0.96,3.36,1.56,14.281,2.642,16.321"/>
	<path fill="#FFFFFF" stroke="#B3B3B3" stroke-width="0.5" stroke-linecap="round" d="M49.048,79.146c0,0,3.341,1.731,4.186,3.658"
		/>
	<path fill="#FFFFFF" stroke="#B3B3B3" stroke-width="0.5" stroke-linecap="round" d="M56.395,61.332c0,0,7.583-1.388,9.68,0"/>
	<path fill="#FFFFFF" stroke="#B3B3B3" stroke-width="0.5" stroke-linecap="round" d="M55.096,37.173
		c-0.671,0.821,0.481,3.094,1.299,3.421c0.818,0.326,4.199,0.572,4.84,0c0.64-0.573,0.896-1.674,0.605-3.004
		c-0.292-1.332-1.425-1.929-3.312-2.08C56.641,35.359,55.634,36.513,55.096,37.173z"/>
	<path fill="#FFFFFF" stroke="#B3B3B3" stroke-width="0.5" stroke-linecap="round" d="M54.496,50.733c0,0,5.995-1.954,7.818-0.731"
		/>
</g>
<g id="_x30_7" style="display: none;">
	<rect x="39.048" y="25.917" fill="#F1F1F2" width="32.7" height="47.25"/>
	
		<linearGradient id="SVGID_53_" gradientUnits="userSpaceOnUse" x1="57.1489" y1="30.9346" x2="57.1489" y2="94.1216" gradientTransform="matrix(1 0 0 -1 0 129)">
		<stop  offset="0.75" style="stop-color:#000000"/>
		<stop  offset="1" style="stop-color:#FFFFFF"/>
	</linearGradient>
	<path opacity="0.3" fill="url(#SVGID_53_)" enable-background="new    " d="M37.642,97.693c0.707,0.26,1.505,0.389,2.378,0.371
		h30.933c3.482,0.07,5.703-2.197,5.703-5.684v-8.704c-0.012,0.001-0.022,0-0.033,0.001c-1.378-2.464-2.9-4.896-4.314-6.549
		c-0.439-3.913-0.881-8.04-1.24-9.568c-0.508-2.16-2.159-5.477-5.842-5.469c-2.627,0.005-4.028,1.175-5.501,3.284
		c-0.072-0.841-0.141-1.499-0.203-1.891c-0.381-2.413,0.149-6.256-0.274-9.644c-0.423-3.386,2.1-11.166,2.025-14.191
		c-0.036-1.435-0.36-4.771-4.122-4.771c-1.15,0.137-3.193-0.014-4.347,1.7c-1.154,1.713-2.058,6.319-2.233,7.348
		c-0.658,3.854,0.388,2.841-0.668,8.127c-0.658,3.296-3.443,7.367-3.453,10.923c-0.006,2.358,0.027,5.442-0.22,10.875
		c-3.592,1.758-2.772,0.481-4.55,1.814c-2.032,1.525-2.286,6.73-2.667,12.573C38.747,92.294,37.994,95.247,37.642,97.693z"/>
	<circle fill="#80AADA" cx="57.595" cy="39.045" r="6.723"/>
	<path fill="#FFFFFF" stroke="#B3B3B3" stroke-linecap="round" d="M48.216,121.059c0,0-6.482-19.834-7-23.724
		c-0.518-3.89,1.037-7.776,1.556-13.092c0.519-5.313,0.803-11.15,1.893-12.445c1.089-1.297,8.368-2.45,12.355-5.187l30.346,7.908
		c0,0,0.905-1.297,3.889,1.686c2.981,2.982,12.574,15.814,12.574,20.74c0,4.408-7.778,14.519-11.149,24.111"/>
	<path fill="#FFFFFF" stroke="#B3B3B3" stroke-linecap="round" d="M95.575,88.259c0,0-3.804-4.664-5.445-8.118
		c-1.642-3.459-5.664-11.041-9.25-14.289l-1.155,9.408"/>
	<path fill="#FFFFFF" stroke="#B3B3B3" stroke-linecap="round" d="M86.068,81.953c0,0-4.545-11.733-5.506-17.734
		c-0.959-6-2.479-8.465-6.479-9.24c-4.953-0.96-8.161,5.763-9.121,7.802l1.44,12.238"/>
	<path fill="#FFFFFF" stroke="#B3B3B3" stroke-width="0.5" stroke-linecap="round" d="M67.843,61.332c0,0-1.37,0.667-1.768,4.102"/>
	<path fill="#FFFFFF" stroke="#B3B3B3" stroke-linecap="round" d="M49.901,95.302c0,0,3.42-10.137,3.661-13.349
		c0.24-3.213,0.12-13.294,0-16.653c-0.12-3.36-0.517-7.183-0.637-9.823c-0.12-2.64-1.32-6.577-0.999-9.937
		c0.321-3.36,0.808-9.609,5.236-9.941c4.428-0.333,5.401,1.979,5.52,5.459c0.121,3.48,0,8.78,0.84,11.54
		c0.84,2.76,1.321,4.541,2.28,7.901c0.96,3.36,1.56,14.281,2.642,16.321"/>
	<path fill="#FFFFFF" stroke="#B3B3B3" stroke-width="0.5" stroke-linecap="round" d="M49.048,79.146c0,0,3.341,1.731,4.186,3.658"
		/>
	<path fill="#FFFFFF" stroke="#B3B3B3" stroke-width="0.5" stroke-linecap="round" d="M56.395,61.332c0,0,7.583-1.388,9.68,0"/>
	<path fill="#FFFFFF" stroke="#B3B3B3" stroke-width="0.5" stroke-linecap="round" d="M55.096,37.173
		c-0.671,0.821,0.481,3.094,1.299,3.421c0.818,0.326,4.199,0.572,4.84,0c0.64-0.573,0.896-1.674,0.605-3.004
		c-0.292-1.332-1.425-1.929-3.312-2.08C56.641,35.359,55.634,36.513,55.096,37.173z"/>
	<path fill="#FFFFFF" stroke="#B3B3B3" stroke-width="0.5" stroke-linecap="round" d="M54.496,50.733c0,0,5.995-1.954,7.818-0.731"
		/>
</g>
<g id="_x30_6_1_" style="display: none;">
	<rect x="39.048" y="25.917" fill="#F1F1F2" width="32.7" height="47.25"/>
	
		<linearGradient id="SVGID_54_" gradientUnits="userSpaceOnUse" x1="57.1489" y1="30.9346" x2="57.1489" y2="94.8726" gradientTransform="matrix(1 0 0 -1 0 129)">
		<stop  offset="0.8259" style="stop-color:#000000"/>
		<stop  offset="1" style="stop-color:#FFFFFF"/>
	</linearGradient>
	<path opacity="0.3" fill="url(#SVGID_54_)" enable-background="new    " d="M37.642,97.693c0.707,0.26,1.505,0.389,2.378,0.371
		h30.933c3.482,0.07,5.703-2.197,5.703-5.684v-8.704c-0.012,0.001-0.022,0-0.033,0.001c-1.378-2.464-2.9-4.896-4.314-6.549
		c-0.439-3.913-0.881-8.04-1.24-9.568c-0.508-2.16-2.159-5.477-5.842-5.469c-2.627,0.005-4.028,1.175-5.501,3.284
		c-0.072-0.841-0.141-1.499-0.203-1.891c-0.381-2.413,0.149-6.256-0.274-9.644c-0.423-3.386,4.977-12.681,4.045-15.56
		c-0.346-1.07-0.775-1.905-1.259-2.538c-0.001-0.002-0.002-0.004-0.004-0.006l-0.001-0.001c-0.009-0.012-0.019-0.022-0.028-0.034
		c-0.667-0.732-0.673-1.576-2.771-1.568c-0.318-0.017-0.68-0.002-1.061,0.061c-1.15,0.137-1.978,0.513-2.362,1.163
		c-0.734,0.697-1.89,1.87-2.558,3.348c-1.609,3.562-1.975,3.772-3.12,10.258c-0.584,3.311-1.103,8.46-1.112,12.016
		c-0.006,2.359,0.027,5.442-0.22,10.874c-3.592,1.761-5.339,2.481-7.117,3.814c-2.032,1.525-2.286,6.73-2.667,12.573
		C38.747,92.294,37.994,95.247,37.642,97.693z"/>
	<path fill="#FFFFFF" stroke="#B3B3B3" stroke-linecap="round" d="M47.173,121.049c0,0-2.541-7.622-3.683-11.431
		c-1.143-3.812-3.048-9.527-3.176-11.685c-0.126-2.16,1.271-7.113,1.779-12.319c0.507-5.208,1.016-11.812,2.54-13.209
		c1.524-1.396,7.471-1.906,11.166-4.572l29.985,7.493c0,0,1.905-2.159,7.366,6.222c5.461,8.384,8.51,10.925,8.51,14.733
		s-9.398,20.32-10.924,24.768"/>
	<path fill="#FFFFFF" stroke="#B3B3B3" stroke-linecap="round" d="M94.165,88.577c0,0-2.878-2.371-4.401-5.336
		c-1.525-2.964-6.267-13.038-9.062-15.408v7.959"/>
	<path fill="#FFFFFF" stroke="#B3B3B3" stroke-linecap="round" d="M84.344,82.564c0,0-1.439-1.947-1.777-5.504
		c-0.34-3.555-1.018-13.97-1.863-17.188s-2.455-6.096-5.758-6.096s-6.436,1.947-8.045,5.419V72.49"/>
	<path fill="#FFFFFF" stroke="#B3B3B3" stroke-width="0.5" stroke-linecap="round" d="M50.051,78.204c0,0,1.867,1.881,3.178,3.037"
		/>
	<path fill="#FFFFFF" stroke="#B3B3B3" stroke-linecap="round" d="M48.57,96.027c0,0,3.811-6.731,4.826-16.129
		c1.016-9.399,1.524-20.561,1.397-23.554c-0.127-2.992,0.292-5.914,0.02-8.58c-0.274-2.667-0.782-2.032-0.654-5.081
		c0.126-3.048,1.143-9.017,5.715-8.509c4.572,0.508,4.572,5.588,4.953,8.255c0.381,2.668,0.254,3.683,0.762,5.969
		c0.509,2.287,3.175,8.382,3.048,11.304c-0.125,2.92-0.508,18.923,0.891,21.718"/>
	<path fill="#FFFFFF" stroke="#B3B3B3" stroke-width="0.5" stroke-linecap="round" d="M58.521,57.485c0,0,6.415-1.208,9.174,0.293"
		/>
	<path fill="#FFFFFF" stroke="#B3B3B3" stroke-width="0.5" stroke-linecap="round" d="M56.07,35.868c0,0,0.268,2.005,1.285,2.684
		c1.016,0.678,5.217,0.951,5.906-0.015c0.688-0.965,0.254-1.947,0-2.708c-0.254-0.763-1.44-1.356-3.387-1.652
		C57.926,33.879,56.594,35.201,56.07,35.868z"/>
</g>
<g id="_x30_5_1_" style="display: none;">
	<rect x="39.048" y="25.917" fill="#F1F1F2" width="32.7" height="47.25"/>
	<g>
		<g>
			<defs>
				<path id="SVGID_55_" d="M76.656,92.382c0,3.485-2.221,5.754-5.703,5.683H40.021c-3.483,0.071-5.785-2.196-5.785-5.683V13.074
					c0-3.482,2.302-5.834,5.785-5.834h30.817c3.482,0,5.818,2.352,5.818,5.834V92.382z"/>
			</defs>
			<clipPath id="SVGID_56_">
				<use xlink:href="#SVGID_55_"  overflow="visible"/>
			</clipPath>
			<path opacity="0.3" clip-path="url(#SVGID_56_)" enable-background="new    " d="M44.629,124.482c0,0-6.351-19.434-6.859-23.242
				c-0.507-3.811,1.017-7.62,1.524-12.827c0.509-5.207,0.787-10.924,1.854-12.192c1.067-1.271,8.2-2.402,12.106-5.08l29.73,7.746
				c0,0,0.889-1.271,3.811,1.651c2.92,2.922,12.32,15.494,12.32,20.319c0,4.319-7.62,14.226-10.924,23.625"/>
		</g>
		<g>
			<defs>
				<path id="SVGID_57_" d="M76.656,92.382c0,3.485-2.221,5.754-5.703,5.683H40.021c-3.483,0.071-5.785-2.196-5.785-5.683V13.074
					c0-3.482,2.302-5.834,5.785-5.834h30.817c3.482,0,5.818,2.352,5.818,5.834V92.382z"/>
			</defs>
			<clipPath id="SVGID_58_">
				<use xlink:href="#SVGID_57_"  overflow="visible"/>
			</clipPath>
			
				<linearGradient id="SVGID_59_" gradientUnits="userSpaceOnUse" x1="55.2319" y1="29.9224" x2="55.2319" y2="95.3433" gradientTransform="matrix(1 0 0 -1 0 129)">
				<stop  offset="0.8" style="stop-color:#000000"/>
				<stop  offset="1" style="stop-color:#E6E6E6"/>
			</linearGradient>
			<path opacity="0.3" clip-path="url(#SVGID_58_)" fill="url(#SVGID_59_)" enable-background="new    " d="M44.88,99.078
				c0,0,2.794-4.954,3.938-11.812c1.143-6.855,0.224-24.401,0.546-28.891c0.25-3.483,0.702-5.814,1.018-9.157
				c0.293-3.11,0.479-6.657,1.115-9.451c0.634-2.794,2.794-6.351,5.969-6.097c3.175,0.254,4.598,4.373,4.966,7.33
				c0.369,2.958-0.786,7.149-0.277,9.688c0.508,2.541,0.461,6.061,0.867,8.794c0.636,4.288,1.038,22.195,2.562,24.609"/>
		</g>
	</g>
	<path fill="#FFFFFF" stroke="#B3B3B3" stroke-linecap="round" d="M47.173,121.049c0,0-6.351-19.433-6.859-23.242
		c-0.507-3.81,1.017-7.619,1.525-12.826c0.508-5.207,0.787-10.924,1.854-12.193c1.067-1.271,8.199-2.402,12.105-5.08l29.731,7.747
		c0,0,0.889-1.271,3.81,1.649c2.92,2.924,12.32,15.496,12.32,20.321c0,4.318-7.62,14.226-10.923,23.624"/>
	<path fill="#FFFFFF" stroke="#B3B3B3" stroke-linecap="round" d="M93.572,88.914c0,0-3.727-4.57-5.334-7.956
		c-1.608-3.388-4.402-10.078-7.451-13.252v9.354"/>
	<path fill="#FFFFFF" stroke="#B3B3B3" stroke-linecap="round" d="M84.259,82.734c0,0-1.016-1.737-1.438-4.426
		c-0.424-2.688-1.439-14.118-2.541-18.604c-1.1-4.488-2.877-5.165-5.588-5.419c-2.709-0.254-6.096,1.948-7.026,3.726v14.647"/>
	<path fill="#FFFFFF" stroke="#B3B3B3" stroke-width="0.5" stroke-linecap="round" d="M48.823,78.311c0,0,3.458,1.795,4.333,3.787"
		/>
	<path fill="#FFFFFF" stroke="#B3B3B3" stroke-linecap="round" d="M48.823,96.661c0,0,2.794-4.953,3.938-11.812
		c1.144-6.857,2.667-26.619,2.159-30.074c-0.508-3.455,0.709-4.947,0.101-8.011c-0.609-3.064-1.117-6.621-0.482-9.415
		c0.635-2.794,2.795-6.351,5.97-6.097c3.175,0.254,4.599,4.373,4.966,7.33c0.369,2.958,0.114,7.149,0.623,9.688
		c0.508,2.541,2.262,6.061,2.666,8.794c0.637,4.288-0.762,22.195,0.764,24.608"/>
	<path fill="#FFFFFF" stroke="#B3B3B3" stroke-width="0.5" stroke-linecap="round" d="M58.648,57.23c0,0,7.297-1.332,9.469,0.105"/>
	<path fill="#FFFFFF" stroke="#B3B3B3" stroke-width="0.5" stroke-linecap="round" d="M56.75,32.963
		c-0.694,0.851,0.499,3.202,1.346,3.542c0.847,0.338,4.348,0.592,5.011,0c0.662-0.593,0.929-1.733,0.626-3.11
		c-0.303-1.378-1.476-1.997-3.429-2.153C58.349,31.085,57.307,32.281,56.75,32.963z"/>
</g>
<g id="_x30_4_1_" style="display: none;">
	<rect x="39.048" y="25.917" fill="#F1F1F2" width="32.7" height="47.25"/>
	<g>
		<g>
			<defs>
				<path id="SVGID_60_" d="M76.656,92.382c0,3.485-2.221,5.754-5.703,5.683H40.021c-3.483,0.071-5.785-2.196-5.785-5.683V13.074
					c0-3.482,2.302-5.834,5.785-5.834h30.817c3.482,0,5.818,2.352,5.818,5.834V92.382z"/>
			</defs>
			<clipPath id="SVGID_61_">
				<use xlink:href="#SVGID_60_"  overflow="visible"/>
			</clipPath>
			<path opacity="0.3" clip-path="url(#SVGID_61_)" enable-background="new    " d="M44.629,124.482c0,0-6.351-19.434-6.859-23.242
				c-0.507-3.811,1.017-7.62,1.524-12.827c0.509-5.207,0.787-10.924,1.854-12.192c1.067-1.271,8.2-2.402,12.106-5.08l29.73,7.746
				c0,0,0.889-1.271,3.811,1.651c2.92,2.922,12.32,15.494,12.32,20.319c0,4.319-7.62,14.226-10.924,23.625"/>
		</g>
		<g>
			<defs>
				<path id="SVGID_62_" d="M76.656,92.382c0,3.485-2.221,5.754-5.703,5.683H40.021c-3.483,0.071-5.785-2.196-5.785-5.683V13.074
					c0-3.482,2.302-5.834,5.785-5.834h30.817c3.482,0,5.818,2.352,5.818,5.834V92.382z"/>
			</defs>
			<clipPath id="SVGID_63_">
				<use xlink:href="#SVGID_62_"  overflow="visible"/>
			</clipPath>
			
				<linearGradient id="SVGID_64_" gradientUnits="userSpaceOnUse" x1="53.3877" y1="28.4058" x2="53.3877" y2="94.5259" gradientTransform="matrix(1 0 0 -1 0 129)">
				<stop  offset="0.65" style="stop-color:#000000"/>
				<stop  offset="1" style="stop-color:#E6E6E6"/>
			</linearGradient>
			<path opacity="0.3" clip-path="url(#SVGID_63_)" fill="url(#SVGID_64_)" enable-background="new    " d="M42.973,100.595
				c1.779-2.157,3.877-6.403,4.954-17.397c1.077-10.995,1.524-22.048,1.271-24.741c-0.254-2.693,0.866-6.132,0.75-8.349
				c-0.116-2.219-1.259-4.035-0.878-6.873c0.381-2.839,1.525-8.712,5.715-8.76c4.191-0.047,4.7,3.521,5.335,6.436
				c0.635,2.915,0.127,8.335,0.635,10.642c0.507,2.307,2.249,7.579,2.413,9.196c0.253,2.51-0.89,22.705,0.635,24.99"/>
		</g>
	</g>
	<path fill="#FFFFFF" stroke="#B3B3B3" stroke-linecap="round" d="M46.918,121.049c0,0-6.731-19.939-6.731-22.988
		c0-3.047,0.762-5.715,1.651-12.445c0.889-6.732,0.635-10.283,1.714-12.064c1.08-1.781,12.245-5.336,12.245-5.336L85.4,75.454
		c0,0,1.779-1.017,3.558,1.144c1.778,2.158,12.701,16.829,12.701,20.639c0,3.811-9.11,19.134-10.923,23.813"/>
	<path fill="#FFFFFF" stroke="#B3B3B3" stroke-linecap="round" d="M93.996,89.509c0,0-3.387-3.725-5.334-7.789
		c-1.947-4.063-6.098-12.448-8.723-13.887l0.34,10.838"/>
	<path fill="#FFFFFF" stroke="#B3B3B3" stroke-linecap="round" d="M84.174,83.667c0,0-0.876-2.006-1.439-5.504
		c-0.562-3.5-1.608-15.581-2.795-19.221c-1.185-3.641-3.217-4.233-5.756-4.402c-2.541-0.17-6.352,2.878-6.858,3.471
		c-0.509,0.593,0,15.834,0,15.834"/>
	<path fill="#FFFFFF" stroke="#B3B3B3" stroke-width="0.5" stroke-linecap="round" d="M50.475,78.671c0,0,2.135,1.404,3.1,2.734"/>
	<path fill="#FFFFFF" stroke="#B3B3B3" stroke-linecap="round" d="M48.823,96.917c1.778-2.158,3.877-6.403,4.954-17.399
		c1.077-10.994,1.524-22.048,1.271-24.741c-0.254-2.693,0.866-6.132,0.75-8.349c-0.116-2.219-1.259-4.035-0.878-6.873
		c0.381-2.838,1.525-8.712,5.715-8.76c4.191-0.047,4.7,3.521,5.334,6.436c0.637,2.915,0.127,8.335,0.637,10.642
		c0.506,2.307,2.248,7.579,2.412,9.196c0.254,2.51-0.89,22.705,0.635,24.99"/>
	<path fill="#FFFFFF" stroke="#B3B3B3" stroke-width="0.5" stroke-linecap="round" d="M57.072,32.858
		c0.214,1.26,1.277,2.376,2.166,2.714c0.889,0.339,4.107,0.508,4.869,0c0.762-0.508,0.875-2.664,0-3.409
		c-0.876-0.745-1.355-1.321-3.472-1.37C58.518,30.747,57.002,32.445,57.072,32.858z"/>
	<path fill="#FFFFFF" stroke="#B3B3B3" stroke-width="0.5" stroke-linecap="round" d="M59.284,56.419c0,0,7.062-1.118,8.971-0.102"
		/>
</g>
<g id="_x30_3_1_" style="display: none;">
	<rect x="39.048" y="25.917" fill="#F1F1F2" width="32.7" height="47.25"/>
	<g>
		<g>
			<defs>
				<path id="SVGID_65_" d="M76.656,92.382c0,3.485-2.221,5.754-5.703,5.683H40.021c-3.483,0.071-5.785-2.196-5.785-5.683V13.074
					c0-3.482,2.302-5.834,5.785-5.834h30.817c3.482,0,5.818,2.352,5.818,5.834V92.382z"/>
			</defs>
			<clipPath id="SVGID_66_">
				<use xlink:href="#SVGID_65_"  overflow="visible"/>
			</clipPath>
			<path opacity="0.3" clip-path="url(#SVGID_66_)" enable-background="new    " d="M44.629,124.482c0,0-6.351-19.434-6.859-23.242
				c-0.507-3.811,1.017-7.62,1.524-12.827c0.509-5.207,0.787-10.924,1.854-12.192c1.067-1.271,8.2-2.402,12.106-5.08l29.73,7.746
				c0,0,0.889-1.271,3.811,1.651c2.92,2.922,12.32,15.494,12.32,20.319c0,4.319-7.62,14.226-10.924,23.625"/>
		</g>
		<g>
			<defs>
				<path id="SVGID_67_" d="M76.656,92.382c0,3.485-2.221,5.754-5.703,5.683H40.021c-3.483,0.071-5.785-2.196-5.785-5.683V13.074
					c0-3.482,2.302-5.834,5.785-5.834h30.817c3.482,0,5.818,2.352,5.818,5.834V92.382z"/>
			</defs>
			<clipPath id="SVGID_68_">
				<use xlink:href="#SVGID_67_"  overflow="visible"/>
			</clipPath>
			
				<linearGradient id="SVGID_69_" gradientUnits="userSpaceOnUse" x1="52.4116" y1="27.4214" x2="52.4116" y2="93.814" gradientTransform="matrix(1 0 0 -1 0 129)">
				<stop  offset="0.4956" style="stop-color:#000000"/>
				<stop  offset="1" style="stop-color:#E6E6E6"/>
			</linearGradient>
			<path opacity="0.3" clip-path="url(#SVGID_68_)" fill="url(#SVGID_69_)" enable-background="new    " d="M41.871,101.579
				c0,0,2.709-7.024,4.064-13.547c1.354-6.521,3.278-21.591,2.867-24.977c-0.412-3.387,0.412-8.373,0.621-10.829
				c0.21-2.455-0.057-5.434,0.027-9.667c0.085-4.234,2.371-7.536,5.418-7.367c3.049,0.17,3.751,1.948,4.797,5.758
				c1.047,3.81,0.297,7.042,0.636,9.92c0.339,2.879,1.654,9,1.975,10.405c0.677,2.963-0.465,24.64,0.677,25.911"/>
		</g>
	</g>
	<path fill="#FFFFFF" stroke="#B3B3B3" stroke-linecap="round" d="M47.258,121.091c0,0-6.944-19.643-7.283-22.354
		c-0.338-2.709,0.847-6.434,1.779-13.377c0.931-6.944,1.185-10.156,2.37-11.811c1.186-1.652,8.851-3.623,11.674-5.463l29.815,7.537
		c0,0,1.271-0.509,2.541,0.506c1.271,1.018,13.123,16.596,13.463,18.967c0.338,2.371-2.118,8.807-4.318,12.955
		c-2.201,4.148-6.012,12.361-6.012,12.361"/>
	<path fill="#FFFFFF" stroke="#B3B3B3" stroke-linecap="round" d="M93.318,89.001c0,0-4.911-6.267-6.773-11.008
		c-1.863-4.741-6.773-9.906-6.773-9.906l-1.439,9.312"/>
	<path fill="#FFFFFF" stroke="#B3B3B3" stroke-linecap="round" d="M85.359,85.784c0,0-2.032-2.202-2.541-6.097
		c-0.508-3.896-2.116-17.444-2.539-19.729c-0.424-2.286-2.795-5.165-5.588-5.25c-2.795-0.085-7.197,2.879-7.197,2.879v15.495"/>
	<path fill="#FFFFFF" stroke="#B3B3B3" stroke-linecap="round" d="M48.866,97.382c0,0,2.709-7.024,4.064-13.546
		c1.354-6.521,3.278-21.59,2.867-24.978c-0.412-3.387-0.153-8.213,0.056-10.669s-0.553-5.927-0.468-10.16
		c0.084-4.234,2.371-7.536,5.418-7.367c3.049,0.17,3.751,1.948,4.796,5.758c1.047,3.81,0.791,7.535,1.131,10.414
		c0.338,2.879,2.219,8.84,2.539,10.246c0.679,2.963-0.465,24.641,0.679,25.909"/>
	<path fill="#FFFFFF" stroke="#B3B3B3" stroke-width="0.5" stroke-linecap="round" d="M49.797,79.095c0,0,3.081,1.507,3.489,2.912"
		/>
	<path fill="#FFFFFF" stroke="#B3B3B3" stroke-width="0.5" stroke-linecap="round" d="M60.302,57.739c0,0,6.261-0.745,7.953-0.067"
		/>
	<path fill="#FFFFFF" stroke="#B3B3B3" stroke-width="0.5" stroke-linecap="round" d="M57.153,32.805c0,0,0.299,1.985,1.314,2.493
		c1.016,0.508,1.293,0.68,3.156,0.596c1.863-0.085,2.906-0.284,2.906-1.331s-0.434-3.907-3.688-3.907
		C57.587,30.657,57.153,32.805,57.153,32.805z"/>
</g>
<g id="_x30_2_1_" style="display: none;">
	<rect x="39.048" y="25.917" fill="#F1F1F2" width="32.7" height="47.25"/>
	<g>
		<g>
			<defs>
				<path id="SVGID_70_" d="M76.656,92.382c0,3.485-2.221,5.754-5.703,5.683H40.021c-3.483,0.071-5.785-2.196-5.785-5.683V13.074
					c0-3.482,2.302-5.834,5.785-5.834h30.817c3.482,0,5.818,2.352,5.818,5.834V92.382z"/>
			</defs>
			<clipPath id="SVGID_71_">
				<use xlink:href="#SVGID_70_"  overflow="visible"/>
			</clipPath>
			<path opacity="0.3" clip-path="url(#SVGID_71_)" enable-background="new    " d="M44.629,124.482c0,0-6.351-19.434-6.859-23.242
				c-0.507-3.811,1.017-7.62,1.524-12.827c0.509-5.207,0.787-10.924,1.854-12.192c1.067-1.271,8.2-2.402,12.106-5.08l29.73,7.746
				c0,0,0.889-1.271,3.811,1.651c2.92,2.922,12.32,15.494,12.32,20.319c0,4.319-7.62,14.226-10.924,23.625"/>
		</g>
		<g>
			<defs>
				<path id="SVGID_72_" d="M76.656,92.382c0,3.485-2.221,5.754-5.703,5.683H40.021c-3.483,0.071-5.785-2.196-5.785-5.683V13.074
					c0-3.482,2.302-5.834,5.785-5.834h30.817c3.482,0,5.818,2.352,5.818,5.834V92.382z"/>
			</defs>
			<clipPath id="SVGID_73_">
				<use xlink:href="#SVGID_72_"  overflow="visible"/>
			</clipPath>
			
				<linearGradient id="SVGID_74_" gradientUnits="userSpaceOnUse" x1="52.4116" y1="27.4214" x2="52.4116" y2="93.814" gradientTransform="matrix(1 0 0 -1 0 129)">
				<stop  offset="0.4956" style="stop-color:#000000"/>
				<stop  offset="1" style="stop-color:#E6E6E6"/>
			</linearGradient>
			<path opacity="0.3" clip-path="url(#SVGID_73_)" fill="url(#SVGID_74_)" enable-background="new    " d="M41.871,101.579
				c0,0,2.709-7.024,4.064-13.547c1.354-6.521,3.278-21.591,2.867-24.977c-0.412-3.387,0.412-8.373,0.621-10.829
				c0.21-2.455-0.057-5.434,0.027-9.667c0.085-4.234,2.371-7.536,5.418-7.367c3.049,0.17,3.751,1.948,4.797,5.758
				c1.047,3.81,0.297,7.042,0.636,9.92c0.339,2.879,1.654,9,1.975,10.405c0.677,2.963-0.465,24.64,0.677,25.911"/>
		</g>
	</g>
	<path fill="#FFFFFF" stroke="#B3B3B3" stroke-linecap="round" d="M47.258,121.091c0,0-6.944-19.643-7.283-22.354
		c-0.338-2.709,0.847-6.434,1.779-13.377c0.931-6.944,1.185-10.156,2.37-11.811c1.186-1.652,8.851-3.623,11.674-5.463l29.815,7.537
		c0,0,1.271-0.509,2.541,0.506c1.271,1.018,13.123,16.596,13.463,18.967c0.338,2.371-2.118,8.807-4.318,12.955
		c-2.201,4.148-6.012,12.361-6.012,12.361"/>
	<path fill="#FFFFFF" stroke="#B3B3B3" stroke-linecap="round" d="M93.318,89.001c0,0-4.911-6.267-6.773-11.008
		c-1.863-4.741-6.773-9.906-6.773-9.906l-1.439,9.312"/>
	<path fill="#FFFFFF" stroke="#B3B3B3" stroke-linecap="round" d="M85.359,85.784c0,0-2.032-2.202-2.541-6.097
		c-0.508-3.896-2.116-17.444-2.539-19.729c-0.424-2.286-2.795-5.165-5.588-5.25c-2.795-0.085-7.197,2.879-7.197,2.879v15.495"/>
	<path fill="#FFFFFF" stroke="#B3B3B3" stroke-linecap="round" d="M48.866,97.382c0,0,2.709-7.024,4.064-13.546
		c1.354-6.521,3.278-21.59,2.867-24.978c-0.412-3.387-0.153-8.213,0.056-10.669s-0.553-5.927-0.468-10.16
		c0.084-4.234,2.371-7.536,5.418-7.367c3.049,0.17,3.751,1.948,4.796,5.758c1.047,3.81,0.791,7.535,1.131,10.414
		c0.338,2.879,2.219,8.84,2.539,10.246c0.679,2.963-0.465,24.641,0.679,25.909"/>
	<path fill="#FFFFFF" stroke="#B3B3B3" stroke-width="0.5" stroke-linecap="round" d="M49.797,79.095c0,0,3.081,1.507,3.489,2.912"
		/>
	<path fill="#FFFFFF" stroke="#B3B3B3" stroke-width="0.5" stroke-linecap="round" d="M60.302,57.739c0,0,6.261-0.745,7.953-0.067"
		/>
	<path fill="#FFFFFF" stroke="#B3B3B3" stroke-width="0.5" stroke-linecap="round" d="M57.153,32.805c0,0,0.299,1.985,1.314,2.493
		c1.016,0.508,1.293,0.68,3.156,0.596c1.863-0.085,2.906-0.284,2.906-1.331s-0.434-3.907-3.688-3.907
		C57.587,30.657,57.153,32.805,57.153,32.805z"/>
</g>
<g id="_x30_1">
	<rect x="39.048" y="25.917" fill="#F1F1F2" width="32.7" height="47.25"/>
	<g>
		<g>
			<defs>
				<path id="SVGID_75_" d="M76.656,92.382c0,3.485-2.221,5.754-5.703,5.683H40.021c-3.483,0.071-5.785-2.196-5.785-5.683V13.074
					c0-3.482,2.302-5.834,5.785-5.834h30.817c3.482,0,5.818,2.352,5.818,5.834V92.382z"/>
			</defs>
			<clipPath id="SVGID_76_">
				<use xlink:href="#SVGID_75_"  overflow="visible"/>
			</clipPath>
			<path opacity="0.3" clip-path="url(#SVGID_76_)" enable-background="new    " d="M44.629,124.482c0,0-6.351-19.434-6.859-23.242
				c-0.507-3.811,1.017-7.62,1.524-12.827c0.509-5.207,0.787-10.924,1.854-12.192c1.067-1.271,8.2-2.402,12.106-5.08l29.73,7.746
				c0,0,0.889-1.271,3.811,1.651c2.92,2.922,12.32,15.494,12.32,20.319c0,4.319-7.62,14.226-10.924,23.625"/>
		</g>
		<g>
			<defs>
				<path id="SVGID_77_" d="M76.656,92.382c0,3.485-2.221,5.754-5.703,5.683H40.021c-3.483,0.071-5.785-2.196-5.785-5.683V13.074
					c0-3.482,2.302-5.834,5.785-5.834h30.817c3.482,0,5.818,2.352,5.818,5.834V92.382z"/>
			</defs>
			<clipPath id="SVGID_78_">
				<use xlink:href="#SVGID_77_"  overflow="visible"/>
			</clipPath>
			
				<linearGradient id="SVGID_79_" gradientUnits="userSpaceOnUse" x1="52.4116" y1="27.4214" x2="52.4116" y2="93.814" gradientTransform="matrix(1 0 0 -1 0 129)">
				<stop  offset="0.4956" style="stop-color:#000000"/>
				<stop  offset="1" style="stop-color:#E6E6E6"/>
			</linearGradient>
			<path opacity="0.3" clip-path="url(#SVGID_78_)" fill="url(#SVGID_79_)" enable-background="new    " d="M41.871,101.579
				c0,0,2.709-7.024,4.064-13.547c1.354-6.521,3.278-21.591,2.867-24.977c-0.412-3.387,0.412-8.373,0.621-10.829
				c0.21-2.455-0.057-5.434,0.027-9.667c0.085-4.234,2.371-7.536,5.418-7.367c3.049,0.17,3.751,1.948,4.797,5.758
				c1.047,3.81,0.297,7.042,0.636,9.92c0.339,2.879,1.654,9,1.975,10.405c0.677,2.963-0.465,24.64,0.677,25.911"/>
		</g>
	</g>
	<path fill="#FFFFFF" stroke="#B3B3B3" stroke-linecap="round" d="M47.258,121.091c0,0-6.944-19.643-7.283-22.354
		c-0.338-2.709,0.847-6.434,1.779-13.377c0.931-6.944,1.185-10.156,2.37-11.811c1.186-1.652,8.851-3.623,11.674-5.463l29.815,7.537
		c0,0,1.271-0.509,2.541,0.506c1.271,1.018,13.123,16.596,13.463,18.967c0.338,2.371-2.118,8.807-4.318,12.955
		c-2.201,4.148-6.012,12.361-6.012,12.361"/>
	<path fill="#FFFFFF" stroke="#B3B3B3" stroke-linecap="round" d="M93.318,89.001c0,0-4.911-6.267-6.773-11.008
		c-1.863-4.741-6.773-9.906-6.773-9.906l-1.439,9.312"/>
	<path fill="#FFFFFF" stroke="#B3B3B3" stroke-linecap="round" d="M85.359,85.784c0,0-2.032-2.202-2.541-6.097
		c-0.508-3.896-2.116-17.444-2.539-19.729c-0.424-2.286-2.795-5.165-5.588-5.25c-2.795-0.085-7.197,2.879-7.197,2.879v15.495"/>
	<path fill="#FFFFFF" stroke="#B3B3B3" stroke-linecap="round" d="M48.866,97.382c0,0,2.709-7.024,4.064-13.546
		c1.354-6.521,3.278-21.59,2.867-24.978c-0.412-3.387-0.153-8.213,0.056-10.669s-0.553-5.927-0.468-10.16
		c0.084-4.234,2.371-7.536,5.418-7.367c3.049,0.17,3.751,1.948,4.796,5.758c1.047,3.81,0.791,7.535,1.131,10.414
		c0.338,2.879,2.219,8.84,2.539,10.246c0.679,2.963-0.465,24.641,0.679,25.909"/>
	<path fill="#FFFFFF" stroke="#B3B3B3" stroke-width="0.5" stroke-linecap="round" d="M49.797,79.095c0,0,3.081,1.507,3.489,2.912"
		/>
	<path fill="#FFFFFF" stroke="#B3B3B3" stroke-width="0.5" stroke-linecap="round" d="M60.302,57.739c0,0,6.261-0.745,7.953-0.067"
		/>
	<path fill="#FFFFFF" stroke="#B3B3B3" stroke-width="0.5" stroke-linecap="round" d="M57.153,32.805c0,0,0.299,1.985,1.314,2.493
		c1.016,0.508,1.293,0.68,3.156,0.596c1.863-0.085,2.906-0.284,2.906-1.331s-0.434-3.907-3.688-3.907
		C57.587,30.657,57.153,32.805,57.153,32.805z"/>
</g>
</svg>
