<?xml version="1.0" encoding="utf-8"?>
<svg version="1.1" xmlns="http://www.w3.org/2000/svg" xmlns:xlink="http://www.w3.org/1999/xlink" x="0px" y="0px" width="128px"
	 height="128px" viewBox="0 0 128 128" enable-background="new 0 0 128 128" xml:space="preserve">
<g id="phone">
	<g>
		<rect x="1.5" y="1.5" fill="#FFFFFF" width="125" height="125"/>
		<path fill="#808080" d="M126,2v124H2V2H126 M127,1H1v126h126V1L127,1z"/>
	</g>
</g>
<g id="_x30_1_copy" display="none">
	<path display="inline" fill="#FFFFFF" stroke="#B3B3B3" stroke-linecap="round" d="M80.193,57.187l-12.667-14.75L32.11,28.02
		c0,0-10.833-2.667-12.833-2.417s-3.833,2.084-3.75,3.917s1.25,5.417,5.667,7.5s11.083,3.167,11.083,3.167L56.11,83.854l26.75-4.167
		L80.193,57.187z"/>
	<path display="inline" fill="#FFFFFF" stroke="#B3B3B3" stroke-linecap="round" d="M115.192,122.27
		c0,0-10.417-18.501-11.583-22.917s-2.5-20.584-3.083-23.167s-6.167-11.167-7.75-16.833s-3.333-10.833-4.417-13.25
		s-4.167-6.5-5-9.167s-2.417-9-3.667-10.083s-4.333-1.083-5.667,2.25s-2.75,7.917-2.167,13.5s4.917,13,4.917,13
		s1.583,12.334,0.167,13.75s-3.917,3.333-3.917,3.333L55.193,99.603c0,0,15.583,18.585,17.917,20.251s3.084,1.416,3.667,2.583"/>
	<path display="inline" fill="#FFFFFF" stroke="#B3B3B3" stroke-width="0.5" stroke-linecap="round" d="M79.692,26.853
		c0,0-1,4.001-0.833,4.917s1.917,7.167,3,7.417s2.167-0.917,2.167-0.917S80.941,27.602,79.692,26.853z"/>
	<path display="inline" fill="#FFFFFF" stroke="#B3B3B3" stroke-width="0.5" stroke-linecap="round" d="M76.776,55.603
		c0,0,2.668-0.333,4.084-1.25"/>
	<polygon display="inline" fill="#FFFFFF" points="78.276,73.353 72.276,63.353 66.609,72.353 74.609,81.353 	"/>
	<g display="inline">
		<path fill="#E6E6E6" stroke="#B3B3B3" stroke-miterlimit="10" d="M73.922,94.916c0.068,3.484-2.107,5.797-5.589,5.794
			l-30.927,0.607c-3.481,0.138-5.828-2.083-5.896-5.566l-1.559-79.293c-0.068-3.482,2.187-5.879,5.669-5.947l30.811-0.606
			c3.483-0.068,5.863,2.238,5.932,5.719L73.922,94.916z"/>
		
			<rect x="33.258" y="22.809" transform="matrix(0.9998 -0.0196 0.0196 0.9998 -1.0843 1.0311)" fill="#FFFFFF" stroke="#B3B3B3" stroke-width="0.5" stroke-miterlimit="10" width="37.356" height="65.786"/>
	</g>
	<path display="inline" fill="#FFFFFF" stroke="#B3B3B3" stroke-linecap="round" d="M26.11,79.27v11.5c0,0,1.75,2.582,3.667,1.916
		s4-2.5,4.167-4.25s-1.25-7-1.25-7L26.11,79.27z"/>
	<path display="inline" fill="#FFFFFF" stroke="#B3B3B3" stroke-width="0.5" stroke-linecap="round" d="M27.277,92.187
		c0,0-1.167-0.584-1.167-1.417s-0.083-5.833-0.083-5.833l1.25,0.083c0,0,1.333,2.667,1.083,3.417s-1.667,2-1.583,2.75
		S27.277,92.187,27.277,92.187z"/>
	<path display="inline" fill="#FFFFFF" stroke="#B3B3B3" stroke-linecap="round" d="M24.277,70.353c0,0-1.083,2.417-0.833,3.167
		s2,5.833,2.583,8.083s1.083,6.251,1.833,6.417s5.667-0.916,6.333-2.75s1.583-3.584-0.167-8.167s-3.25-11.667-3.25-11.667
		L24.277,70.353z"/>
	<path display="inline" fill="#FFFFFF" stroke="#B3B3B3" stroke-width="0.5" stroke-linecap="round" d="M29.86,81.937
		c0,0-1.5-3.918-2.25-4.334s-2.583,0.333-2.25,2s1.333,7.418,1.833,8.084s0.666,0.333,0.666,0.333s-0.583-0.917-0.166-1.667
		S29.86,82.687,29.86,81.937z"/>
	<path display="inline" fill="#FFFFFF" stroke="#B3B3B3" stroke-linecap="round" d="M29.943,47.019c-2.333,2-6.25,4-7.417,6.083
		s-0.5,6.25-0.583,8.833s-0.75,8-0.75,8s2.833,2.834,5.333,1.667s5.167-4.75,5.167-8.667c0-3.917-1.583-9.583-1.583-9.583
		L29.943,47.019z"/>
	<path display="inline" fill="#FFFFFF" stroke="#B3B3B3" stroke-width="0.5" stroke-linecap="round" d="M22.027,61.02
		c0,0,0.5-1.333,1.417-0.5s1.5,3.333,1.167,4.083s-1.917,2.417-2.417,3.917c-0.451,1.354-0.583,1.75-0.583,1.75l-0.417-0.334
		L22.027,61.02z"/>
	<path display="inline" fill="#FFFFFF" stroke="#B3B3B3" stroke-width="0.5" stroke-linecap="round" d="M76.442,107.353
		c0,0-4-8.75-1.25-27"/>
</g>
<g id="_x30_3_copy" display="none">
	<path display="inline" fill="#FFFFFF" stroke="#B3B3B3" stroke-linecap="round" d="M67.193,54.562L55.567,41.978l-30.625-7.125
		c0,0-7.625-0.75-9.625-0.5s-3.833,1.542-3.75,3.375s1.458,4.417,5.875,6.5s10.375,2,10.375,2L56.11,83.854l26.75-4.167
		L67.193,54.562z"/>
	<path display="inline" fill="#FFFFFF" stroke="#B3B3B3" stroke-linecap="round" d="M116.442,122.353
		c0,0-15.886-27.145-18.125-31.125c-2.25-4-4-15-6.125-20.25c-0.994-2.455-5.125-6.75-8-10.875c-3.364-4.827-6.667-13.083-7.75-15.5
		s-6.875-7-7.708-9.667s-2.042-7.625-3.292-8.708s-4.333-1.083-5.667,2.25s-1.417,6.792-0.833,12.375s5.416,11.375,5.416,11.375
		s5.084,13.875,4.584,15.375c-0.633,1.9-2.625,5.125-2.625,5.125l-8.75,25.375c0,0,14.167,18.334,16.5,20s4.792,3.083,5.375,4.25"/>
	<path display="inline" fill="none" stroke="#B3B3B3" stroke-width="0.5" stroke-linecap="round" d="M65.442,26.228
		c0,0-3,2.75-2.375,5c0.25,0.897,2.542,6.25,3.625,6.5s2.709-1.458,2.709-1.458S66.691,26.977,65.442,26.228z"/>
	<path display="inline" fill="#FFFFFF" stroke="#B3B3B3" stroke-width="0.5" stroke-linecap="round" d="M64.358,52.228
		c0,0,2.668-0.333,4.084-1.25"/>
	<polygon display="inline" fill="#FFFFFF" points="70.109,73.186 64.109,63.186 58.442,72.186 66.442,81.186 	"/>
	<path display="inline" fill="#FFFFFF" stroke="#B3B3B3" stroke-linecap="round" d="M21.38,83.853l-2.438,10.562
		c0,0,1.058,2.188,3.062,1.875c2-0.312,4.949-2.127,5.625-3.75c0.938-2.25,2.438-7.812,2.438-7.812L21.38,83.853z"/>
	<path display="inline" fill="none" stroke="#B3B3B3" stroke-width="0.5" stroke-linecap="round" d="M19.005,94.978
		c0,0-0.125-0.229-0.125-1.062s1.125-4.188,1.125-4.188l0.875,0.062c0,0,0.062,0.625-0.188,1.375s-0.591,1.654-1.125,2.188
		C18.942,93.978,19.005,94.978,19.005,94.978z"/>
	<path display="inline" fill="#FFFFFF" stroke="#B3B3B3" stroke-linecap="round" d="M18.005,75.29c0,0-1.125,2.438-0.875,3.188
		s1.25,5.613,1.25,7.938c0,2.375,0.294,4.072,1,4.375c0.875,0.375,3.175,0.339,4.75-0.812c1.625-1.188,3.688-3.812,2.812-8.562
		c-0.889-4.824-2.75-13.375-2.75-13.375L18.005,75.29z"/>
	<path display="inline" fill="none" stroke="#B3B3B3" stroke-width="0.5" stroke-linecap="round" d="M20.13,86.54
		c0,0,0.125-3.959-0.625-4.375s-1.439-0.324-1.5,1.375c-0.062,1.75-0.312,4.562,0,5.75c0.212,0.806,0.938,1.125,0.938,1.125
		s-0.354-1.25,0.062-2S20.13,87.29,20.13,86.54z"/>
	<g display="inline">
		<path fill="#E6E6E6" stroke="#B3B3B3" stroke-miterlimit="10" d="M70.562,91.19c0.65,3.424-1.084,6.063-4.479,6.635l-30.052,5.708
			c-3.371,0.711-6.03-1.092-6.68-4.515L14.553,21.103c-0.65-3.421,1.147-6.156,4.532-6.798l29.938-5.687
			c3.385-0.643,6.091,1.237,6.741,4.659L70.562,91.19z"/>
		
			<rect x="24.09" y="23.268" transform="matrix(0.9824 -0.1866 0.1866 0.9824 -9.7312 8.927)" fill="#FFFFFF" stroke="#B3B3B3" stroke-width="0.5" stroke-miterlimit="10" width="36.939" height="65.786"/>
	</g>
	<path display="inline" fill="#FFFFFF" stroke="#B3B3B3" stroke-linecap="round" d="M20.567,54.978
		c-2.333,2-4.624,3.042-5.791,5.125s-0.5,6.25-0.583,8.834c-0.083,2.582-1.251,6.416-1.251,6.416s2.75,2.292,5.25,1.125
		s5.5-3.084,5.5-7c0-3.917-2-8.875-2-8.875L20.567,54.978z"/>
	<path display="inline" fill="none" stroke="#B3B3B3" stroke-width="0.5" stroke-linecap="round" d="M14.067,67.603
		c0,0,0.5-1.333,1.417-0.5s1.542,2.625,1.208,3.375s-2.375,1.959-2.875,3.459c-0.451,1.354-0.583,1.75-0.583,1.75l-0.417-0.334
		L14.067,67.603z"/>
	<path display="inline" fill="#FFFFFF" stroke="#B3B3B3" stroke-width="0.5" stroke-linecap="round" d="M75.737,106.646
		c0,0-5.59-7.831-6.357-26.271"/>
</g>
<g id="_x30_5_copy_3" display="none">
	<path display="inline" fill="#FFFFFF" stroke="#B3B3B3" stroke-linecap="round" d="M100.276,59.353l-19-27.5L58.563,15.109
		c0,0-6.168-4.255-8.121-4.757c-1.952-0.5-4.406,1.098-5,2.833c-0.595,1.736,0.821,6.609,4.167,10.167s10.167,7.333,10.167,7.333
		l9.816,41.44l25.85,8.727L100.276,59.353z"/>
	<path display="inline" fill="#FFFFFF" stroke="#B3B3B3" stroke-linecap="round" d="M117.609,122.353c0,0-6.167-12.333-5.833-17.333
		c0.211-3.164,2.167-9.5,2.5-15.667c0.143-2.644-1.661-8.706-0.833-13.667c0.833-5,1.333-8.333,0.833-13
		c-0.282-2.633-2.483-12.346-2.48-15.14c0.003-2.794,1.218-8.614,0.349-10.022c-0.868-1.408-4.266-1.287-6.536,1.495
		s-6.552,9.332-7.667,14.833c-1.116,5.502,0.659,11.55,0.659,11.55s-3.399,10.667-4.325,11.95c-1.173,1.623-8.083-3-8.083-3
		L60.942,95.02c0,0,9.439,20.877,11.167,23.166c1.728,2.287,4,3,4.5,4.334"/>
	<path display="inline" fill="#FFFFFF" stroke="#B3B3B3" stroke-width="0.5" stroke-linecap="round" d="M112.472,38.151
		c0,0-1.901-0.032-3.196,3.535c-0.317,0.875-0.792,9.604,0.167,10.167c0.959,0.562,2.667-0.833,2.667-0.833
		S112.578,41.154,112.472,38.151z"/>
	<path display="inline" fill="#FFFFFF" stroke="#B3B3B3" stroke-width="0.5" stroke-linecap="round" d="M98.442,65.353
		c0,0,4.333,1.333,6,0"/>
	<path display="inline" fill="#FFFFFF" stroke="#B3B3B3" stroke-linecap="round" d="M32.776,67.52l-3.213,10.885
		c0,0,0.475,2.385,2.493,2.584c2.015,0.199,5.324-1.4,6.387-2.803c1.473-1.941,3.655-8.194,3.655-8.194L32.776,67.52z"/>
	<path display="inline" fill="#FFFFFF" stroke="#B3B3B3" stroke-width="0.5" stroke-linecap="round" d="M29.88,79.603
		c0,0-0.462-0.892-0.252-1.698c0.21-0.805,1.877-5.552,1.877-5.552l0.75-0.125c0,0,0.625,0.275,0.625,1.125
		c0,0.875-0.059,2.82-0.75,3.125C30.005,77.415,29.88,79.603,29.88,79.603z"/>
	<path display="inline" fill="#FFFFFF" stroke="#B3B3B3" stroke-linecap="round" d="M35.748,55.133c0,0-2.854,5.286-3.06,6.049
		c-0.434,1.608,0.001,1.874-0.309,4.483c-0.28,2.357-0.779,8.175-0.235,8.719c0.674,0.67,2.77,1.177,4.715,0.997
		c5.708-0.528,6.847-10.406,8.02-15.091c0.262-1.046,6.125-12.562,6.125-12.562L35.748,55.133z"/>
	<path display="inline" fill="#FFFFFF" stroke="#B3B3B3" stroke-width="0.5" stroke-linecap="round" d="M35.209,68.942
		c0,0-0.189-3.522-1.25-4.475c-0.638-0.573-1.398,0.023-1.642,1.697c-0.252,1.734-0.618,5.728-0.767,6.949
		c-0.1,0.824,0.456,1.391,0.456,1.391s0.013-1.526,0.342-2.319C32.877,70.907,34.932,69.639,35.209,68.942z"/>
	<path display="inline" fill="#FFFFFF" stroke="#B3B3B3" stroke-linecap="round" d="M56.942,31.665
		c-2.892,1.039-15.32,6.989-17.152,8.52c-1.832,1.532-2.038,6.345-3.036,8.73c-0.997,2.384-3.742,7.434-3.742,7.434
		s1.754,3.121,4.505,2.919c2.752-0.201,9.093-1.381,10.487-5.041c1.394-3.662,2.5-6.375,2.5-6.375L56.942,31.665z"/>
	<path display="inline" fill="#FFFFFF" stroke="#B3B3B3" stroke-width="0.5" stroke-linecap="round" d="M37.192,47.978
		c0,0,0.606-0.958,1.167,0.146c0.561,1.105-0.422,4.418-1,5c-0.579,0.582-2.023,0.99-3.024,2.214
		c-0.904,1.104-1.168,1.428-1.168,1.428l-0.271-0.46L37.192,47.978z"/>
	<polygon display="inline" fill="#FFFFFF" points="92.192,74.853 87.192,69.853 84.275,79.602 89.942,82.103 	"/>
	<path display="inline" fill="#FFFFFF" stroke="#B3B3B3" stroke-width="0.5" stroke-linecap="round" d="M82.363,113.246
		c0,0-3.214-12.11,5.06-28.607"/>
	<g display="inline">
		<path fill="#E6E6E6" stroke="#B3B3B3" stroke-miterlimit="10" d="M76.265,103.98c-1.381,3.3-4.374,4.488-7.626,2.912
			L39.492,93.497c-3.311-1.441-4.58-4.588-3.198-7.888L65.178,9.707c1.381-3.3,4.482-4.53,7.765-3.021l31.606,14.119
			c3.284,1.508,4.549,4.749,3.169,8.048L76.265,103.98z"/>
		<polygon fill="#FFFFFF" stroke="#B3B3B3" stroke-width="0.5" stroke-miterlimit="10" points="102.643,34.172 64.876,17.22 
			41.355,80.315 76.556,96.492 		"/>
	</g>
</g>
<g id="_x31_0_1_" display="none">
	<path display="inline" fill="#FFFFFF" stroke="#B3B3B3" stroke-linecap="round" d="M106.486,61.254L89.878,32.247L68.662,13.644
		c0,0-5.787-4.761-7.69-5.426c-1.903-0.663-4.483,0.722-5.222,2.401c-0.74,1.68,0.26,6.655,3.292,10.482
		c3.032,3.828,9.511,8.167,9.511,8.167l6.279,42.121l25.02,10.881L106.486,61.254z"/>
	<path display="inline" fill="#FFFFFF" stroke="#B3B3B3" stroke-linecap="round" d="M115.942,122.353c0,0-6.921-9.88-6.167-14.833
		c0.478-3.135,7.646-13.383,8.5-19.5c0.366-2.621-1.053-10.288,0.167-15.167c0.5-2,1.604-5.975,1.5-10.667
		c-0.059-2.648-1.219-8.938-0.98-11.722c0.24-2.784,1.941-8.48,1.195-9.957c-0.746-1.477-4.141-1.643-6.638,0.937
		c-2.497,2.58-6.834,6.854-8.41,12.242c-1.577,5.388-1.167,11.667-1.167,11.667s-3.925,12.13-4.956,13.331
		c-1.307,1.518-6.079-1.967-6.079-1.967L64.279,93.469c0,0,7.641,21.602,9.168,24.027c1.528,2.426,3.732,3.328,4.118,4.699"/>
	<path display="inline" fill="#FFFFFF" stroke="#B3B3B3" stroke-width="0.5" stroke-linecap="round" d="M120.43,41.159
		c0,0-1.892-0.193-3.483,3.252c-0.39,0.846-1.601,9.502-0.693,10.145c0.908,0.642,2.728-0.605,2.728-0.605
		S120.282,44.161,120.43,41.159z"/>
	<path display="inline" fill="#FFFFFF" stroke="#B3B3B3" stroke-width="0.5" stroke-linecap="round" d="M104.109,65.353
		c0,0,4.561,2.354,6.333,1.167"/>
	<path display="inline" fill="#FFFFFF" stroke="#B3B3B3" stroke-linecap="round" d="M38.537,63.687l-4.122,10.575
		c0,0,0.271,2.416,2.266,2.785c1.991,0.369,5.423-0.945,6.601-2.252c1.631-1.811,4.334-7.857,4.334-7.857L38.537,63.687z"/>
	<path display="inline" fill="#FFFFFF" stroke="#B3B3B3" stroke-width="0.5" stroke-linecap="round" d="M34.63,75.482
		c0,0-0.385-0.928-0.107-1.713c0.277-0.785,2.339-5.373,2.339-5.373l0.758-0.062c0,0,0.6,0.328,0.528,1.174
		c-0.074,0.873-0.297,2.807-1.012,3.051C34.94,73.312,34.63,75.482,34.63,75.482z"/>
	<path display="inline" fill="#FFFFFF" stroke="#B3B3B3" stroke-linecap="round" d="M42.545,51.596c0,0-3.291,5.026-3.56,5.769
		c-0.568,1.565-0.157,1.867-0.687,4.441c-0.479,2.325-1.467,8.079-0.971,8.668c0.615,0.725,2.661,1.406,4.614,1.391
		c5.731-0.043,7.702-9.79,9.267-14.359c0.35-1.02,7.165-12,7.165-12L42.545,51.596z"/>
	<path display="inline" fill="#FFFFFF" stroke="#B3B3B3" stroke-width="0.5" stroke-linecap="round" d="M40.841,65.311
		c0,0,0.109-3.526-0.867-4.564c-0.587-0.625-1.395-0.096-1.78,1.552c-0.398,1.707-1.1,5.654-1.352,6.859
		c-0.169,0.812,0.337,1.424,0.337,1.424s0.142-1.52,0.537-2.281C38.352,67.072,40.507,65.98,40.841,65.311z"/>
	<path display="inline" fill="#FFFFFF" stroke="#B3B3B3" stroke-linecap="round" d="M65.647,30.003
		c-2.969,0.791-15.855,5.669-17.811,7.04c-1.955,1.372-2.566,6.15-3.763,8.442c-1.195,2.291-4.357,7.091-4.357,7.091
		s1.484,3.258,4.243,3.29c2.759,0.033,9.177-0.608,10.875-4.136c1.699-3.531,3.03-6.141,3.03-6.141L65.647,30.003z"/>
	<path display="inline" fill="#FFFFFF" stroke="#B3B3B3" stroke-width="0.5" stroke-linecap="round" d="M44.589,44.588
		c0,0,0.686-0.904,1.15,0.244c0.466,1.148-0.793,4.366-1.419,4.897s-2.1,0.815-3.2,1.95c-0.994,1.024-1.285,1.324-1.285,1.324
		l-0.231-0.481L44.589,44.588z"/>
	<polygon display="inline" fill="#FFFFFF" points="96.442,75.603 91.442,70.603 88.525,80.352 94.192,82.853 	"/>
	<path display="inline" fill="#FFFFFF" stroke="#B3B3B3" stroke-width="0.5" stroke-linecap="round" d="M80.243,111.34
		c0,0-0.925-12.496,10.25-27.184"/>
	<g display="inline">
		<path fill="#E6E6E6" stroke="#B3B3B3" stroke-miterlimit="10" d="M76.497,106.537c-1.655,3.172-4.738,4.102-7.845,2.258
			l-27.91-15.812c-3.177-1.715-4.176-4.957-2.52-8.129l35.195-73.19c1.655-3.171,4.849-4.135,7.992-2.354l30.3,16.74
			c3.145,1.78,4.132,5.116,2.478,8.287L76.497,106.537z"/>
		<polygon fill="#FFFFFF" stroke="#B3B3B3" stroke-width="0.5" stroke-miterlimit="10" points="108.681,39.208 72.481,19.125 
			43.712,80.006 77.419,99.1 		"/>
	</g>
</g>
<g id="_x30_5_copy" display="none">
	<path display="inline" fill="#FFFFFF" stroke="#B3B3B3" stroke-linecap="round" d="M100.276,59.353l-19-27.5L58.563,15.109
		c0,0-6.168-4.255-8.121-4.757c-1.952-0.5-4.406,1.098-5,2.833c-0.595,1.736,0.821,6.609,4.167,10.167s10.167,7.333,10.167,7.333
		l9.816,41.44l25.85,8.727L100.276,59.353z"/>
	<path display="inline" fill="#FFFFFF" stroke="#B3B3B3" stroke-linecap="round" d="M117.609,122.353c0,0-6.167-12.333-5.833-17.333
		c0.211-3.164,2.167-9.5,2.5-15.667c0.143-2.644-1.661-8.706-0.833-13.667c0.833-5,1.333-8.333,0.833-13
		c-0.282-2.633-2.483-12.346-2.48-15.14c0.003-2.794,1.218-8.614,0.349-10.022c-0.868-1.408-4.266-1.287-6.536,1.495
		s-6.552,9.332-7.667,14.833c-1.116,5.502,0.659,11.55,0.659,11.55s-3.399,10.667-4.325,11.95c-1.173,1.623-8.083-3-8.083-3
		L60.942,95.02c0,0,9.439,20.877,11.167,23.166c1.728,2.287,4,3,4.5,4.334"/>
	<path display="inline" fill="#FFFFFF" stroke="#B3B3B3" stroke-width="0.5" stroke-linecap="round" d="M112.472,38.151
		c0,0-1.901-0.032-3.196,3.535c-0.317,0.875-0.792,9.604,0.167,10.167c0.959,0.562,2.667-0.833,2.667-0.833
		S112.578,41.154,112.472,38.151z"/>
	<path display="inline" fill="#FFFFFF" stroke="#B3B3B3" stroke-width="0.5" stroke-linecap="round" d="M98.442,65.353
		c0,0,4.333,1.333,6,0"/>
	<path display="inline" fill="#FFFFFF" stroke="#B3B3B3" stroke-linecap="round" d="M32.776,67.52l-3.213,10.885
		c0,0,0.475,2.385,2.493,2.584c2.015,0.199,5.324-1.4,6.387-2.803c1.473-1.941,3.655-8.194,3.655-8.194L32.776,67.52z"/>
	<path display="inline" fill="#FFFFFF" stroke="#B3B3B3" stroke-width="0.5" stroke-linecap="round" d="M29.88,79.603
		c0,0-0.462-0.892-0.252-1.698c0.21-0.805,1.877-5.552,1.877-5.552l0.75-0.125c0,0,0.625,0.275,0.625,1.125
		c0,0.875-0.059,2.82-0.75,3.125C30.005,77.415,29.88,79.603,29.88,79.603z"/>
	<path display="inline" fill="#FFFFFF" stroke="#B3B3B3" stroke-linecap="round" d="M35.748,55.133c0,0-2.854,5.286-3.06,6.049
		c-0.434,1.608,0.001,1.874-0.309,4.483c-0.28,2.357-0.779,8.175-0.235,8.719c0.674,0.67,2.77,1.177,4.715,0.997
		c5.708-0.528,6.847-10.406,8.02-15.091c0.262-1.046,6.125-12.562,6.125-12.562L35.748,55.133z"/>
	<path display="inline" fill="#FFFFFF" stroke="#B3B3B3" stroke-width="0.5" stroke-linecap="round" d="M35.209,68.942
		c0,0-0.189-3.522-1.25-4.475c-0.638-0.573-1.398,0.023-1.642,1.697c-0.252,1.734-0.618,5.728-0.767,6.949
		c-0.1,0.824,0.456,1.391,0.456,1.391s0.013-1.526,0.342-2.319C32.877,70.907,34.932,69.639,35.209,68.942z"/>
	<path display="inline" fill="#FFFFFF" stroke="#B3B3B3" stroke-linecap="round" d="M56.942,31.665
		c-2.892,1.039-15.32,6.989-17.152,8.52c-1.832,1.532-2.038,6.345-3.036,8.73c-0.997,2.384-3.742,7.434-3.742,7.434
		s1.754,3.121,4.505,2.919c2.752-0.201,9.093-1.381,10.487-5.041c1.394-3.662,2.5-6.375,2.5-6.375L56.942,31.665z"/>
	<path display="inline" fill="#FFFFFF" stroke="#B3B3B3" stroke-width="0.5" stroke-linecap="round" d="M37.192,47.978
		c0,0,0.606-0.958,1.167,0.146c0.561,1.105-0.422,4.418-1,5c-0.579,0.582-2.023,0.99-3.024,2.214
		c-0.904,1.104-1.168,1.428-1.168,1.428l-0.271-0.46L37.192,47.978z"/>
	<polygon display="inline" fill="#FFFFFF" points="92.192,74.853 87.192,69.853 84.275,79.602 89.942,82.103 	"/>
	<path display="inline" fill="#FFFFFF" stroke="#B3B3B3" stroke-width="0.5" stroke-linecap="round" d="M82.363,113.246
		c0,0-3.214-12.11,5.06-28.607"/>
	<g display="inline">
		<path fill="#E6E6E6" stroke="#B3B3B3" stroke-miterlimit="10" d="M75.515,105.73c-1.381,3.3-4.374,4.488-7.626,2.912
			L38.742,95.247c-3.311-1.441-4.58-4.588-3.198-7.888l28.883-75.903c1.381-3.3,4.482-4.53,7.765-3.021l31.606,14.119
			c3.284,1.508,4.549,4.749,3.169,8.048L75.515,105.73z"/>
		<polygon fill="#FFFFFF" stroke="#B3B3B3" stroke-width="0.5" stroke-miterlimit="10" points="101.893,35.922 64.126,18.97 
			40.605,82.065 75.806,98.242 		"/>
	</g>
</g>
<g id="_x30_1_copy_2" display="none">
	<path display="inline" fill="#FFFFFF" stroke="#B3B3B3" stroke-linecap="round" d="M80.193,57.187l-12.667-14.75L32.11,28.02
		c0,0-10.833-2.667-12.833-2.417s-3.833,2.084-3.75,3.917s1.25,5.417,5.667,7.5s11.083,3.167,11.083,3.167L56.11,83.854l26.75-4.167
		L80.193,57.187z"/>
	<path display="inline" fill="#FFFFFF" stroke="#B3B3B3" stroke-linecap="round" d="M115.192,122.27
		c0,0-10.417-18.501-11.583-22.917s-2.5-20.584-3.083-23.167s-6.167-11.167-7.75-16.833s-3.333-10.833-4.417-13.25
		s-4.167-6.5-5-9.167s-2.417-9-3.667-10.083s-4.333-1.083-5.667,2.25s-2.75,7.917-2.167,13.5s4.917,13,4.917,13
		s1.583,12.334,0.167,13.75s-3.917,3.333-3.917,3.333L55.193,99.603c0,0,15.583,18.585,17.917,20.251s3.084,1.416,3.667,2.583"/>
	<path display="inline" fill="#FFFFFF" stroke="#B3B3B3" stroke-width="0.5" stroke-linecap="round" d="M79.692,26.853
		c0,0-1,4.001-0.833,4.917s1.917,7.167,3,7.417s2.167-0.917,2.167-0.917S80.941,27.602,79.692,26.853z"/>
	<path display="inline" fill="#FFFFFF" stroke="#B3B3B3" stroke-width="0.5" stroke-linecap="round" d="M76.776,55.603
		c0,0,2.668-0.333,4.084-1.25"/>
	<polygon display="inline" fill="#FFFFFF" points="78.276,73.353 72.276,63.353 66.609,72.353 74.609,81.353 	"/>
	<g display="inline">
		<path fill="#E6E6E6" stroke="#B3B3B3" stroke-miterlimit="10" d="M73.922,93.916c0.068,3.484-2.107,5.797-5.589,5.794
			l-30.927,0.607c-3.481,0.138-5.828-2.083-5.896-5.566l-1.559-79.293c-0.068-3.482,2.187-5.879,5.669-5.947l30.811-0.606
			c3.483-0.068,5.863,2.238,5.932,5.719L73.922,93.916z"/>
		
			<rect x="33.258" y="21.809" transform="matrix(0.9998 -0.0196 0.0196 0.9998 -1.0646 1.0309)" fill="#FFFFFF" stroke="#B3B3B3" stroke-width="0.5" stroke-miterlimit="10" width="37.356" height="65.786"/>
	</g>
	<path display="inline" fill="#FFFFFF" stroke="#B3B3B3" stroke-linecap="round" d="M26.11,79.27v11.5c0,0,1.75,2.582,3.667,1.916
		s4-2.5,4.167-4.25s-1.25-7-1.25-7L26.11,79.27z"/>
	<path display="inline" fill="#FFFFFF" stroke="#B3B3B3" stroke-width="0.5" stroke-linecap="round" d="M27.277,92.187
		c0,0-1.167-0.584-1.167-1.417s-0.083-5.833-0.083-5.833l1.25,0.083c0,0,1.333,2.667,1.083,3.417s-1.667,2-1.583,2.75
		S27.277,92.187,27.277,92.187z"/>
	<path display="inline" fill="#FFFFFF" stroke="#B3B3B3" stroke-linecap="round" d="M24.277,70.353c0,0-1.083,2.417-0.833,3.167
		s2,5.833,2.583,8.083s1.083,6.251,1.833,6.417s5.667-0.916,6.333-2.75s1.583-3.584-0.167-8.167s-3.25-11.667-3.25-11.667
		L24.277,70.353z"/>
	<path display="inline" fill="#FFFFFF" stroke="#B3B3B3" stroke-width="0.5" stroke-linecap="round" d="M29.86,81.937
		c0,0-1.5-3.918-2.25-4.334s-2.583,0.333-2.25,2s1.333,7.418,1.833,8.084s0.666,0.333,0.666,0.333s-0.583-0.917-0.166-1.667
		S29.86,82.687,29.86,81.937z"/>
	<path display="inline" fill="#FFFFFF" stroke="#B3B3B3" stroke-linecap="round" d="M29.943,47.019c-2.333,2-6.25,4-7.417,6.083
		s-0.5,6.25-0.583,8.833s-0.75,8-0.75,8s2.833,2.834,5.333,1.667s5.167-4.75,5.167-8.667c0-3.917-1.583-9.583-1.583-9.583
		L29.943,47.019z"/>
	<path display="inline" fill="#FFFFFF" stroke="#B3B3B3" stroke-width="0.5" stroke-linecap="round" d="M22.027,61.02
		c0,0,0.5-1.333,1.417-0.5s1.5,3.333,1.167,4.083s-1.917,2.417-2.417,3.917c-0.451,1.354-0.583,1.75-0.583,1.75l-0.417-0.334
		L22.027,61.02z"/>
	<path display="inline" fill="#FFFFFF" stroke="#B3B3B3" stroke-width="0.5" stroke-linecap="round" d="M76.442,107.353
		c0,0-4-8.75-1.25-27"/>
</g>
<g id="_x30_7" display="none">
	<path display="inline" fill="#FFFFFF" stroke="#B3B3B3" stroke-linecap="round" d="M70.693,54.396L59.067,41.812l-30.625-7.125
		c0,0-7.625-0.75-9.625-0.5s-3.833,1.542-3.75,3.375s1.458,4.417,5.875,6.5s10.375,2,10.375,2L59.61,83.688l26.75-4.167
		L70.693,54.396z"/>
	<path display="inline" fill="#FFFFFF" stroke="#B3B3B3" stroke-linecap="round" d="M116.776,122.186
		c0,0-12.719-27.144-14.958-31.124c-2.25-4-4-15-6.125-20.25c-0.994-2.455-5.125-6.75-8-10.875c-3.364-4.827-6.667-13.083-7.75-15.5
		s-6.875-7-7.708-9.667s-2.042-7.625-3.292-8.708s-4.333-1.083-5.667,2.25s-1.417,6.792-0.833,12.375s5.416,11.375,5.416,11.375
		s5.084,13.875,4.584,15.375c-0.633,1.9-2.625,5.125-2.625,5.125l-8.75,25.375c0,0,14.167,18.334,16.5,20s4.792,3.083,5.375,4.25"/>
	<path display="inline" fill="#FFFFFF" stroke="#B3B3B3" stroke-width="0.5" stroke-linecap="round" d="M68.942,26.062
		c0,0-3,2.75-2.375,5c0.25,0.897,2.542,6.25,3.625,6.5s2.709-1.458,2.709-1.458S70.191,26.811,68.942,26.062z"/>
	<path display="inline" fill="#FFFFFF" stroke="#B3B3B3" stroke-width="0.5" stroke-linecap="round" d="M67.858,52.062
		c0,0,2.668-0.333,4.084-1.25"/>
	<path display="inline" fill="#FFFFFF" stroke="#B3B3B3" stroke-linecap="round" d="M24.88,83.687l-2.438,10.562
		c0,0,1.058,2.188,3.062,1.875c2-0.312,4.949-2.127,5.625-3.75c0.938-2.25,2.438-7.812,2.438-7.812L24.88,83.687z"/>
	<path display="inline" fill="#FFFFFF" stroke="#B3B3B3" stroke-width="0.5" stroke-linecap="round" d="M22.755,94.853
		c0,0-0.125-0.229-0.125-1.062s1.125-4.188,1.125-4.188l0.875,0.062c0,0,0.062,0.625-0.188,1.375s-0.591,1.654-1.125,2.188
		C22.692,93.853,22.755,94.853,22.755,94.853z"/>
	<path display="inline" fill="#FFFFFF" stroke="#B3B3B3" stroke-linecap="round" d="M21.505,75.124c0,0-1.125,2.438-0.875,3.188
		s1.25,5.613,1.25,7.938c0,2.375,0.294,4.072,1,4.375c0.875,0.375,3.175,0.339,4.75-0.812c1.625-1.188,3.688-3.812,2.812-8.562
		c-0.889-4.824-2.75-13.375-2.75-13.375L21.505,75.124z"/>
	<path display="inline" fill="#FFFFFF" stroke="#B3B3B3" stroke-width="0.5" stroke-linecap="round" d="M23.63,86.374
		c0,0,0.125-3.959-0.625-4.375s-1.439-0.324-1.5,1.375c-0.062,1.75-0.312,4.562,0,5.75c0.212,0.806,0.938,1.125,0.938,1.125
		s-0.354-1.25,0.062-2S23.63,87.124,23.63,86.374z"/>
	<path display="inline" fill="#FFFFFF" stroke="#B3B3B3" stroke-linecap="round" d="M24.067,54.812
		c-2.333,2-4.624,3.042-5.791,5.125s-0.5,6.25-0.583,8.834c-0.083,2.582-1.251,6.416-1.251,6.416s2.75,2.292,5.25,1.125
		s5.5-3.084,5.5-7c0-3.917-2-8.875-2-8.875L24.067,54.812z"/>
	<path display="inline" fill="#FFFFFF" stroke="#B3B3B3" stroke-width="0.5" stroke-linecap="round" d="M17.567,67.437
		c0,0,0.5-1.333,1.417-0.5s1.542,2.625,1.208,3.375s-2.375,1.959-2.875,3.459c-0.451,1.354-0.583,1.75-0.583,1.75l-0.417-0.334
		L17.567,67.437z"/>
	<polygon display="inline" fill="#FFFFFF" points="73.692,72.103 68.692,67.103 65.775,76.852 71.442,79.353 	"/>
	<g display="inline">
		<path fill="#E6E6E6" stroke="#B3B3B3" stroke-miterlimit="10" d="M74.062,91.274c0.65,3.424-1.084,6.063-4.479,6.635
			l-30.052,5.708c-3.371,0.711-6.03-1.092-6.68-4.515L18.053,21.187c-0.65-3.421,1.147-6.156,4.532-6.798l29.938-5.687
			c3.385-0.643,6.091,1.237,6.741,4.659L74.062,91.274z"/>
		
			<rect x="27.59" y="23.352" transform="matrix(0.9824 -0.1866 0.1866 0.9824 -9.6854 9.5815)" fill="#FFFFFF" stroke="#B3B3B3" stroke-width="0.5" stroke-miterlimit="10" width="36.939" height="65.786"/>
	</g>
	<path display="inline" fill="#FFFFFF" stroke="#B3B3B3" stroke-width="0.5" stroke-linecap="round" d="M78.369,103.916
		c0,0-7.831-9.782-6.925-28.215"/>
</g>
<g id="_x30_6" display="none">
	<path display="inline" fill="#FFFFFF" stroke="#B3B3B3" stroke-linecap="round" d="M91.609,55.686L64.82,33.85l-26.952-8.355
		c0,0-7.223-1.994-9.232-1.826c-2.008,0.169-3.801,2.484-3.792,4.318c0.008,1.835,2.947,5.973,7.274,8.234
		s12.012,3.588,12.012,3.588l22.88,35.917l30.099,5.627L91.609,55.686z"/>
	<path display="inline" fill="#FFFFFF" stroke="#B3B3B3" stroke-linecap="round" d="M117.942,122.186c0,0-4.358-10.788-5.5-15.666
		c-1.833-7.834,0.559-18.849,0-25c-0.5-5.5-4.123-11.047-5.667-15.833c-1.855-5.752-1.247-8.917-2.833-13.333
		c-0.895-2.493-4.844-9.618-5.5-12.333c-0.655-2.716-1.228-7.863-2.404-9.027c-1.176-1.164-4.449-0.245-5.999,2.994
		c-1.55,3.239-3.477,8.423-3.263,14.033c0.213,5.61,2.666,10.511,2.666,10.511s1.098,10.358,0.501,11.822c-0.757,1.855-9,3.5-9,3.5
		L61.109,98.686c0,0,15.5,21,19.667,23.667"/>
	<path display="inline" fill="#FFFFFF" stroke="#B3B3B3" stroke-width="0.5" stroke-linecap="round" d="M96.504,31.524
		c0,0-1.645-0.277-2.062,3.495c-0.102,0.925,1.603,8.846,2.667,9.167c1.064,0.321,1.833-2,1.833-2S97.315,34.417,96.504,31.524z"/>
	<path display="inline" fill="#FFFFFF" stroke="#B3B3B3" stroke-width="0.5" stroke-linecap="round" d="M89.276,58.519
		c0,0,4.5,1.833,6,0.667"/>
	<path display="inline" fill="#FFFFFF" stroke="#B3B3B3" stroke-linecap="round" d="M28.039,81.689l-0.463,11.337
		c0,0,0.735,1.956,2.277,1.911c2.923-0.085,3.659-2.636,4.194-4.251c0.743-2.238,1.256-8.832,1.256-8.832L28.039,81.689z"/>
	<path display="inline" fill="#FFFFFF" stroke="#B3B3B3" stroke-width="0.5" stroke-linecap="round" d="M28.017,94.112
		c0,0-0.494-0.754-0.48-1.587c0.015-0.832,0.411-5.84,0.411-5.84l0.528-0.3c0,0,0.506,0.116,0.654,0.941
		c0.152,0.85,0.447,2.751-0.007,3.213C27.728,91.96,28.017,94.112,28.017,94.112z"/>
	<path display="inline" fill="#FFFFFF" stroke="#B3B3B3" stroke-linecap="round" d="M26.901,66.254c0,0-1.47,5.818-1.497,6.607
		c-0.058,1.662,0.387,1.812,0.645,4.413c0.233,2.351,0.982,8.102,1.581,8.494c0.742,0.481,2.723,0.454,4.428-0.198
		c5.003-1.918,3.993-11.757,4.081-16.579c0.02-1.076,2.904-13.664,2.904-13.664L26.901,66.254z"/>
	<path display="inline" fill="#FFFFFF" stroke="#B3B3B3" stroke-width="0.5" stroke-linecap="round" d="M29.256,79.748
		c0,0-0.893-3.361-2.038-4.021c-0.689-0.398-1.248,0.366-1.122,2.046c0.13,1.74,0.624,5.694,0.741,6.913
		c0.08,0.822,0.694,1.232,0.694,1.232s-0.302-1.479-0.171-2.327C27.571,82.225,29.152,80.489,29.256,79.748z"/>
	<path display="inline" fill="#FFFFFF" stroke="#B3B3B3" stroke-linecap="round" d="M40.552,43.346
		c-2.564,1.691-13.338,8.034-14.757,9.954s-0.484,6.646-0.892,9.2c-0.407,2.552-1.884,8.106-1.884,8.106s2.441,2.619,5.067,1.774
		c2.627-0.845,8.511-3.486,9.002-7.371c0.491-3.888,0.926-6.785,0.926-6.785L40.552,43.346z"/>
	<path display="inline" fill="#FFFFFF" stroke="#B3B3B3" stroke-width="0.5" stroke-linecap="round" d="M25.108,61.485
		c0,0,0.363-1.074,1.168-0.133c0.806,0.941,0.632,4.393,0.208,5.095c-0.425,0.702-1.733,1.439-2.417,2.864
		c-0.618,1.287-0.799,1.663-0.799,1.663l-0.372-0.383L25.108,61.485z"/>
	<polygon display="inline" fill="#FFFFFF" points="87.942,70.603 82.942,65.603 80.025,75.352 85.692,77.853 	"/>
	<path display="inline" fill="#FFFFFF" stroke="#B3B3B3" stroke-width="0.5" stroke-linecap="round" d="M81.874,111.09
		c0,0-6.47-12.797,1.268-30.81"/>
	<g display="inline">
		<path fill="#E6E6E6" stroke="#B3B3B3" stroke-miterlimit="10" d="M77.223,101.371c-0.564,3.531-3.192,5.392-6.724,4.627
			l-31.483-6.145c-3.557-0.621-5.533-3.378-4.967-6.91l10.17-80.574c0.564-3.532,3.288-5.459,6.833-4.766l34.044,6.267
			c3.547,0.691,5.541,3.542,4.977,7.074L77.223,101.371z"/>
		<polygon fill="#FFFFFF" stroke="#B3B3B3" stroke-width="0.5" stroke-miterlimit="10" points="86.396,27.31 45.697,19.742 
			37.718,86.604 75.74,94.024 		"/>
	</g>
</g>
<g id="_x30_5" display="none">
	<path display="inline" fill="#FFFFFF" stroke="#B3B3B3" stroke-linecap="round" d="M100.276,59.353l-19-27.5L58.563,15.109
		c0,0-6.168-4.255-8.121-4.757c-1.952-0.5-4.406,1.098-5,2.833c-0.595,1.736,0.821,6.609,4.167,10.167s10.167,7.333,10.167,7.333
		l9.816,41.44l25.85,8.727L100.276,59.353z"/>
	<path display="inline" fill="#FFFFFF" stroke="#B3B3B3" stroke-linecap="round" d="M117.609,122.353c0,0-6.167-12.333-5.833-17.333
		c0.211-3.164,2.167-9.5,2.5-15.667c0.143-2.644-1.661-8.706-0.833-13.667c0.833-5,1.333-8.333,0.833-13
		c-0.282-2.633-2.483-12.346-2.48-15.14c0.003-2.794,1.218-8.614,0.349-10.022c-0.868-1.408-4.266-1.287-6.536,1.495
		s-6.552,9.332-7.667,14.833c-1.116,5.502,0.659,11.55,0.659,11.55s-3.399,10.667-4.325,11.95c-1.173,1.623-8.083-3-8.083-3
		L60.942,95.02c0,0,9.439,20.877,11.167,23.166c1.728,2.287,4,3,4.5,4.334"/>
	<path display="inline" fill="#FFFFFF" stroke="#B3B3B3" stroke-width="0.5" stroke-linecap="round" d="M112.472,38.151
		c0,0-1.901-0.032-3.196,3.535c-0.317,0.875-0.792,9.604,0.167,10.167c0.959,0.562,2.667-0.833,2.667-0.833
		S112.578,41.154,112.472,38.151z"/>
	<path display="inline" fill="#FFFFFF" stroke="#B3B3B3" stroke-width="0.5" stroke-linecap="round" d="M98.442,65.353
		c0,0,4.333,1.333,6,0"/>
	<path display="inline" fill="#FFFFFF" stroke="#B3B3B3" stroke-linecap="round" d="M32.776,67.52l-3.213,10.885
		c0,0,0.475,2.385,2.493,2.584c2.015,0.199,5.324-1.4,6.387-2.803c1.473-1.941,3.655-8.194,3.655-8.194L32.776,67.52z"/>
	<path display="inline" fill="#FFFFFF" stroke="#B3B3B3" stroke-width="0.5" stroke-linecap="round" d="M29.88,79.603
		c0,0-0.462-0.892-0.252-1.698c0.21-0.805,1.877-5.552,1.877-5.552l0.75-0.125c0,0,0.625,0.275,0.625,1.125
		c0,0.875-0.059,2.82-0.75,3.125C30.005,77.415,29.88,79.603,29.88,79.603z"/>
	<path display="inline" fill="#FFFFFF" stroke="#B3B3B3" stroke-linecap="round" d="M35.748,55.133c0,0-2.854,5.286-3.06,6.049
		c-0.434,1.608,0.001,1.874-0.309,4.483c-0.28,2.357-0.779,8.175-0.235,8.719c0.674,0.67,2.77,1.177,4.715,0.997
		c5.708-0.528,6.847-10.406,8.02-15.091c0.262-1.046,6.125-12.562,6.125-12.562L35.748,55.133z"/>
	<path display="inline" fill="#FFFFFF" stroke="#B3B3B3" stroke-width="0.5" stroke-linecap="round" d="M35.209,68.942
		c0,0-0.189-3.522-1.25-4.475c-0.638-0.573-1.398,0.023-1.642,1.697c-0.252,1.734-0.618,5.728-0.767,6.949
		c-0.1,0.824,0.456,1.391,0.456,1.391s0.013-1.526,0.342-2.319C32.877,70.907,34.932,69.639,35.209,68.942z"/>
	<path display="inline" fill="#FFFFFF" stroke="#B3B3B3" stroke-linecap="round" d="M56.942,31.665
		c-2.892,1.039-15.32,6.989-17.152,8.52c-1.832,1.532-2.038,6.345-3.036,8.73c-0.997,2.384-3.742,7.434-3.742,7.434
		s1.754,3.121,4.505,2.919c2.752-0.201,9.093-1.381,10.487-5.041c1.394-3.662,2.5-6.375,2.5-6.375L56.942,31.665z"/>
	<path display="inline" fill="#FFFFFF" stroke="#B3B3B3" stroke-width="0.5" stroke-linecap="round" d="M37.192,47.978
		c0,0,0.606-0.958,1.167,0.146c0.561,1.105-0.422,4.418-1,5c-0.579,0.582-2.023,0.99-3.024,2.214
		c-0.904,1.104-1.168,1.428-1.168,1.428l-0.271-0.46L37.192,47.978z"/>
	<polygon display="inline" fill="#FFFFFF" points="92.192,74.853 87.192,69.853 84.275,79.602 89.942,82.103 	"/>
	<path display="inline" fill="#FFFFFF" stroke="#B3B3B3" stroke-width="0.5" stroke-linecap="round" d="M82.363,113.246
		c0,0-3.214-12.11,5.06-28.607"/>
	<g display="inline">
		<path fill="#E6E6E6" stroke="#B3B3B3" stroke-miterlimit="10" d="M75.015,105.98c-1.381,3.3-4.374,4.488-7.626,2.912
			L38.242,95.497c-3.311-1.441-4.58-4.588-3.198-7.888l28.883-75.903c1.381-3.3,4.482-4.53,7.765-3.021l31.606,14.119
			c3.284,1.508,4.549,4.749,3.169,8.048L75.015,105.98z"/>
		<polygon fill="#FFFFFF" stroke="#B3B3B3" stroke-width="0.5" stroke-miterlimit="10" points="101.393,36.172 63.626,19.22 
			40.105,82.315 75.306,98.492 		"/>
	</g>
</g>
<g id="_x30_4" display="none">
	<path display="inline" fill="#FFFFFF" stroke="#B3B3B3" stroke-linecap="round" d="M81.276,53.019l-13-17.667L41.479,18.905
		c0,0-7.107-2.862-9.097-3.184c-1.989-0.322-4.112,0.403-4.546,2.186c-0.436,1.782,0.158,4.649,3.812,7.889
		c3.653,3.24,9.395,4.834,9.395,4.834l16.582,44.06l26.844,3.516L81.276,53.019z"/>
	<path display="inline" fill="#FFFFFF" stroke="#B3B3B3" stroke-linecap="round" d="M115.609,122.186c0,0-8.5-15.834-10.5-22
		c-2.781-8.574-3.333-19.166-6.167-27.333c-0.868-2.502-4.182-8.105-5.333-13c-1.333-5.667-2.417-11.083-3.5-13.5
		s-4.833-8-5.667-10.667s-1.417-8.583-2.667-9.667s-3.667-1-5,2.333s-2.25,6.75-1.667,12.333s2.667,8.5,2.667,8.5
		s1.5,14.667,1,16.167c-0.633,1.9-8.5,4.5-8.5,4.5l-13,24.667c0,0,11.333,20.834,13.667,22.5s5.083,4.166,5.667,5.333"/>
	<path display="inline" fill="#FFFFFF" stroke="#B3B3B3" stroke-width="0.5" stroke-linecap="round" d="M82.276,26.519
		c0,0-0.999-1.124-1.167,2.667c-0.041,0.931,1.25,7.583,2.333,7.833s1.5-1,1.5-1S83.276,29.353,82.276,26.519z"/>
	<path display="inline" fill="#FFFFFF" stroke="#B3B3B3" stroke-width="0.5" stroke-linecap="round" d="M77.609,49.186
		c0,0,4.083-0.083,5.5-1"/>
	<polygon display="inline" fill="#FFFFFF" points="80.442,72.352 74.442,62.352 68.775,71.352 76.775,80.352 	"/>
	<path display="inline" fill="#FFFFFF" stroke="#B3B3B3" stroke-linecap="round" d="M26.518,66.347l-3.741,10.174
		c0,0,0.776,2.304,2.804,2.244c2.023-0.061,5.176-1.491,6.05-3.017c1.212-2.114,3.396-7.445,3.396-7.445L26.518,66.347z"/>
	<path display="inline" fill="#FFFFFF" stroke="#B3B3B3" stroke-width="0.5" stroke-linecap="round" d="M22.769,77.087
		c0,0-0.096-0.243,0.009-1.069s1.641-4.014,1.641-4.014l0.86,0.172c0,0-0.016,0.628-0.358,1.34c-0.342,0.713-0.793,1.567-1.39,2.03
		C22.832,76.087,22.769,77.087,22.769,77.087z"/>
	<path display="inline" fill="#FFFFFF" stroke="#B3B3B3" stroke-linecap="round" d="M25.659,54.958c0,0-1.542,2.197-1.43,2.979
		c0.112,0.783,0.229,5.747-0.186,8.034c-0.423,2.336-0.437,4.059,0.204,4.483c0.794,0.525,3.063,0.9,4.819,0.047
		c1.811-0.879,4.308-3.094,4.294-7.923c-0.014-4.905-0.32-13.65-0.32-13.65L25.659,54.958z"/>
	<path display="inline" fill="#FFFFFF" stroke="#B3B3B3" stroke-width="0.5" stroke-linecap="round" d="M25.743,66.405
		c0,0,0.829-3.873,0.165-4.416c-0.664-0.543-1.358-0.576-1.721,1.085c-0.374,1.711-1.121,4.434-1.025,5.659
		c0.065,0.83,0.722,1.273,0.722,1.273s-0.125-1.293,0.418-1.957S25.609,67.144,25.743,66.405z"/>
	<g display="inline">
		<path fill="#E6E6E6" stroke="#B3B3B3" stroke-miterlimit="10" d="M71.685,95.775c-0.223,3.478-2.516,5.593-5.879,5.29
			l-29.92-2.066c-3.374-0.161-5.456-2.578-5.232-6.056l5.074-79.138c0.223-3.477,2.599-5.669,5.969-5.436l29.807,2.057
			c3.371,0.232,5.478,2.736,5.255,6.21L71.685,95.775z"/>
		<polygon fill="#FFFFFF" stroke="#B3B3B3" stroke-width="0.5" stroke-miterlimit="10" points="73.875,23.229 37.744,20.734 
			33.535,86.38 69.668,88.874 		"/>
	</g>
	<path display="inline" fill="#FFFFFF" stroke="#B3B3B3" stroke-linecap="round" d="M33.716,38.318
		c-2.735,1.401-5.206,1.879-6.826,3.633c-1.621,1.754-1.943,5.961-2.627,8.455c-0.683,2.492-2.712,5.948-2.712,5.948
		s2.14,2.87,4.842,2.318c2.704-0.552,6.068-1.716,6.981-5.524c0.914-3.81,0.125-9.097,0.125-9.097L33.716,38.318z"/>
	<path display="inline" fill="#FFFFFF" stroke="#B3B3B3" stroke-width="0.5" stroke-linecap="round" d="M24.451,49.079
		c0,0,0.797-1.18,1.494-0.156c0.698,1.024,0.887,2.913,0.388,3.564s-2.766,1.351-3.602,2.693c-0.755,1.211-0.29,1.922-0.29,1.922
		l-0.833-0.833L24.451,49.079z"/>
	<path display="inline" fill="#FFFFFF" stroke="#B3B3B3" stroke-width="0.5" stroke-linecap="round" d="M75.942,108.103
		c0,0-6.07-10.961-2.069-28.978"/>
</g>
<g id="_x30_3" display="none">
	<path display="inline" fill="#FFFFFF" stroke="#B3B3B3" stroke-linecap="round" d="M67.193,54.562L55.567,41.978l-30.625-7.125
		c0,0-7.625-0.75-9.625-0.5s-3.833,1.542-3.75,3.375s1.458,4.417,5.875,6.5s10.375,2,10.375,2L56.11,83.854l26.75-4.167
		L67.193,54.562z"/>
	<path display="inline" fill="#FFFFFF" stroke="#B3B3B3" stroke-linecap="round" d="M116.442,122.353
		c0,0-15.886-27.145-18.125-31.125c-2.25-4-4-15-6.125-20.25c-0.994-2.455-5.125-6.75-8-10.875c-3.364-4.827-6.667-13.083-7.75-15.5
		s-6.875-7-7.708-9.667s-2.042-7.625-3.292-8.708s-4.333-1.083-5.667,2.25s-1.417,6.792-0.833,12.375s5.416,11.375,5.416,11.375
		s5.084,13.875,4.584,15.375c-0.633,1.9-2.625,5.125-2.625,5.125l-8.75,25.375c0,0,14.167,18.334,16.5,20s4.792,3.083,5.375,4.25"/>
	<path display="inline" fill="none" stroke="#B3B3B3" stroke-width="0.5" stroke-linecap="round" d="M65.442,26.228
		c0,0-3,2.75-2.375,5c0.25,0.897,2.542,6.25,3.625,6.5s2.709-1.458,2.709-1.458S66.691,26.977,65.442,26.228z"/>
	<path display="inline" fill="#FFFFFF" stroke="#B3B3B3" stroke-width="0.5" stroke-linecap="round" d="M64.358,52.228
		c0,0,2.668-0.333,4.084-1.25"/>
	<polygon display="inline" fill="#FFFFFF" points="70.109,73.186 64.109,63.186 58.442,72.186 66.442,81.186 	"/>
	<path display="inline" fill="#FFFFFF" stroke="#B3B3B3" stroke-linecap="round" d="M21.38,83.853l-2.438,10.562
		c0,0,1.058,2.188,3.062,1.875c2-0.312,4.949-2.127,5.625-3.75c0.938-2.25,2.438-7.812,2.438-7.812L21.38,83.853z"/>
	<path display="inline" fill="none" stroke="#B3B3B3" stroke-width="0.5" stroke-linecap="round" d="M19.005,94.978
		c0,0-0.125-0.229-0.125-1.062s1.125-4.188,1.125-4.188l0.875,0.062c0,0,0.062,0.625-0.188,1.375s-0.591,1.654-1.125,2.188
		C18.942,93.978,19.005,94.978,19.005,94.978z"/>
	<path display="inline" fill="#FFFFFF" stroke="#B3B3B3" stroke-linecap="round" d="M18.005,75.29c0,0-1.125,2.438-0.875,3.188
		s1.25,5.613,1.25,7.938c0,2.375,0.294,4.072,1,4.375c0.875,0.375,3.175,0.339,4.75-0.812c1.625-1.188,3.688-3.812,2.812-8.562
		c-0.889-4.824-2.75-13.375-2.75-13.375L18.005,75.29z"/>
	<path display="inline" fill="none" stroke="#B3B3B3" stroke-width="0.5" stroke-linecap="round" d="M20.13,86.54
		c0,0,0.125-3.959-0.625-4.375s-1.439-0.324-1.5,1.375c-0.062,1.75-0.312,4.562,0,5.75c0.212,0.806,0.938,1.125,0.938,1.125
		s-0.354-1.25,0.062-2S20.13,87.29,20.13,86.54z"/>
	<g display="inline">
		<path fill="#E6E6E6" stroke="#B3B3B3" stroke-miterlimit="10" d="M70.562,91.94c0.65,3.424-1.084,6.063-4.479,6.635l-30.052,5.708
			c-3.371,0.711-6.03-1.092-6.68-4.515L14.553,21.853c-0.65-3.421,1.147-6.156,4.532-6.798l29.938-5.687
			c3.385-0.643,6.091,1.237,6.741,4.659L70.562,91.94z"/>
		
			<rect x="24.09" y="24.018" transform="matrix(0.9824 -0.1866 0.1866 0.9824 -9.8711 8.9401)" fill="#FFFFFF" stroke="#B3B3B3" stroke-width="0.5" stroke-miterlimit="10" width="36.939" height="65.786"/>
	</g>
	<path display="inline" fill="#FFFFFF" stroke="#B3B3B3" stroke-linecap="round" d="M20.567,54.978
		c-2.333,2-4.624,3.042-5.791,5.125s-0.5,6.25-0.583,8.834c-0.083,2.582-1.251,6.416-1.251,6.416s2.75,2.292,5.25,1.125
		s5.5-3.084,5.5-7c0-3.917-2-8.875-2-8.875L20.567,54.978z"/>
	<path display="inline" fill="none" stroke="#B3B3B3" stroke-width="0.5" stroke-linecap="round" d="M14.067,67.603
		c0,0,0.5-1.333,1.417-0.5s1.542,2.625,1.208,3.375s-2.375,1.959-2.875,3.459c-0.451,1.354-0.583,1.75-0.583,1.75l-0.417-0.334
		L14.067,67.603z"/>
	<path display="inline" fill="#FFFFFF" stroke="#B3B3B3" stroke-width="0.5" stroke-linecap="round" d="M75.737,106.646
		c0,0-5.59-7.831-6.357-26.271"/>
</g>
<g id="_x30_2" display="none">
	<path display="inline" fill="#FFFFFF" stroke="#B3B3B3" stroke-linecap="round" d="M76.943,57.812l-12.667-14.75L29.942,32.353
		c0,0-10.833-1.792-12.833-1.542s-3.833,2.084-3.75,3.917s1.542,4.792,5.958,6.875s11.125,2.5,11.125,2.5L56.11,83.854l26.75-4.167
		L76.943,57.812z"/>
	<path display="inline" fill="#FFFFFF" stroke="#B3B3B3" stroke-linecap="round" d="M115.942,122.478
		c0,0-11.167-18.709-12.333-23.125s-4.083-21.292-4.667-23.875s-6.25-11.375-7.75-16.5c-1.653-5.646-4.042-10.208-5.125-12.625
		s-5.125-6.125-5.958-8.792s-2.417-9-3.667-10.083s-4.333-1.083-5.667,2.25s-2.75,7.917-2.167,13.5s5.499,12.25,5.499,12.25
		s3.251,12.584,1.834,14s-2.917,3.208-2.917,3.208L55.193,99.603c0,0,15.583,18.585,17.917,20.251s3.084,1.416,3.667,2.583"/>
	<path display="inline" fill="#FFFFFF" stroke="#B3B3B3" stroke-width="0.5" stroke-linecap="round" d="M76.442,27.478
		c0,0-1,4.001-0.833,4.917s1.917,7.167,3,7.417s2.167-0.917,2.167-0.917S77.691,28.227,76.442,27.478z"/>
	<path display="inline" fill="#FFFFFF" stroke="#B3B3B3" stroke-width="0.5" stroke-linecap="round" d="M74.108,55.478
		c0,0,2.668-0.333,4.084-1.25"/>
	<polygon display="inline" fill="#FFFFFF" points="77.443,74.52 71.443,64.52 65.776,73.52 73.776,82.52 	"/>
	<g display="inline">
		<path fill="#E6E6E6" stroke="#B3B3B3" stroke-miterlimit="10" d="M74.138,93.592c0.268,3.475-1.771,5.908-5.248,6.104
			l-30.842,2.379c-3.467,0.337-5.937-1.746-6.205-5.22l-6.098-79.074c-0.268-3.473,1.846-5.994,5.319-6.262l30.726-2.37
			c3.474-0.268,5.981,1.898,6.25,5.37L74.138,93.592z"/>
		
			<rect x="31.264" y="22.808" transform="matrix(0.997 -0.0769 0.0769 0.997 -4.1348 4.0046)" fill="#FFFFFF" stroke="#B3B3B3" stroke-width="0.5" stroke-miterlimit="10" width="37.355" height="65.786"/>
	</g>
	<path display="inline" fill="#FFFFFF" stroke="#B3B3B3" stroke-linecap="round" d="M24.275,82.436v11.5c0,0,1.75,2.582,3.667,1.916
		s4-2.5,4.167-4.25s-1.25-7-1.25-7L24.275,82.436z"/>
	<path display="inline" fill="#FFFFFF" stroke="#B3B3B3" stroke-width="0.5" stroke-linecap="round" d="M25.442,95.353
		c0,0-1.167-0.584-1.167-1.417s-0.083-5.833-0.083-5.833l1.25,0.083c0,0,1.333,2.667,1.083,3.417s-1.667,2-1.583,2.75
		S25.442,95.353,25.442,95.353z"/>
	<path display="inline" fill="#FFFFFF" stroke="#B3B3B3" stroke-linecap="round" d="M21.007,73.824c0,0-1.138,2.392-0.905,3.147
		s1.867,5.877,2.398,8.14s0.94,6.274,1.687,6.457c0.746,0.184,5.333-0.968,6.395-2.604c1.694-2.611,0.694-5.944,0.02-8.169
		c-1.426-4.702-0.825-13.109-0.825-13.109L21.007,73.824z"/>
	<path display="inline" fill="#FFFFFF" stroke="#B3B3B3" stroke-width="0.5" stroke-linecap="round" d="M26.325,85.533
		c0,0-1.41-3.951-2.15-4.385c-0.74-0.433-2.59,0.274-2.295,1.948c0.295,1.675,1.164,7.446,1.649,8.124
		c0.484,0.677,0.658,0.348,0.658,0.348s-0.562-0.93-0.128-1.67C24.492,89.158,26.309,86.282,26.325,85.533z"/>
	<path display="inline" fill="#FFFFFF" stroke="#B3B3B3" stroke-linecap="round" d="M28.193,52.02c-2.333,2-6.25,4-7.417,6.083
		s-0.5,6.25-0.583,8.833c-0.083,2.582-0.75,8-0.75,8s2.833,2.834,5.333,1.666c2.5-1.166,5.167-4.75,5.167-8.666
		c0-3.917-1.583-9.583-1.583-9.583L28.193,52.02z"/>
	<path display="inline" fill="#FFFFFF" stroke="#B3B3B3" stroke-width="0.5" stroke-linecap="round" d="M20.277,66.02
		c0,0,0.5-1.333,1.417-0.5c0.917,0.833,1.5,3.333,1.167,4.083s-1.917,2.418-2.417,3.918c-0.451,1.354-0.583,1.75-0.583,1.75
		l-0.417-0.334L20.277,66.02z"/>
	<path display="inline" fill="#FFFFFF" stroke="#B3B3B3" stroke-width="0.5" stroke-linecap="round" d="M77.176,107.272
		c0,0-4.471-8.52-2.718-26.893"/>
</g>
<g id="_x30_1">
	<path fill="#FFFFFF" stroke="#B3B3B3" stroke-linecap="round" d="M80.193,57.187l-12.667-14.75L32.11,28.02
		c0,0-10.833-2.667-12.833-2.417s-3.833,2.084-3.75,3.917s1.25,5.417,5.667,7.5s11.083,3.167,11.083,3.167L56.11,83.854l26.75-4.167
		L80.193,57.187z"/>
	<path fill="#FFFFFF" stroke="#B3B3B3" stroke-linecap="round" d="M115.192,122.27c0,0-10.417-18.501-11.583-22.917
		s-2.5-20.584-3.083-23.167s-6.167-11.167-7.75-16.833s-3.333-10.833-4.417-13.25s-4.167-6.5-5-9.167s-2.417-9-3.667-10.083
		s-4.333-1.083-5.667,2.25s-2.75,7.917-2.167,13.5s4.917,13,4.917,13s1.583,12.334,0.167,13.75s-3.917,3.333-3.917,3.333
		L55.193,99.603c0,0,15.583,18.585,17.917,20.251s3.084,1.416,3.667,2.583"/>
	<path fill="#FFFFFF" stroke="#B3B3B3" stroke-width="0.5" stroke-linecap="round" d="M79.692,26.853c0,0-1,4.001-0.833,4.917
		s1.917,7.167,3,7.417s2.167-0.917,2.167-0.917S80.941,27.602,79.692,26.853z"/>
	<path fill="#FFFFFF" stroke="#B3B3B3" stroke-width="0.5" stroke-linecap="round" d="M76.776,55.603c0,0,2.668-0.333,4.084-1.25"/>
	<polygon fill="#FFFFFF" points="78.276,73.353 72.276,63.353 66.609,72.353 74.609,81.353 	"/>
	<g>
		<path fill="#E6E6E6" stroke="#B3B3B3" stroke-miterlimit="10" d="M73.922,94.916c0.068,3.484-2.107,5.797-5.589,5.794
			l-30.927,0.607c-3.481,0.138-5.828-2.083-5.896-5.566l-1.559-79.293c-0.068-3.482,2.187-5.879,5.669-5.947l30.811-0.606
			c3.483-0.068,5.863,2.238,5.932,5.719L73.922,94.916z"/>
		
			<rect x="33.258" y="22.809" transform="matrix(0.9998 -0.0196 0.0196 0.9998 -1.0843 1.0311)" fill="#FFFFFF" stroke="#B3B3B3" stroke-width="0.5" stroke-miterlimit="10" width="37.356" height="65.786"/>
	</g>
	<path fill="#FFFFFF" stroke="#B3B3B3" stroke-linecap="round" d="M26.11,79.27v11.5c0,0,1.75,2.582,3.667,1.916s4-2.5,4.167-4.25
		s-1.25-7-1.25-7L26.11,79.27z"/>
	<path fill="#FFFFFF" stroke="#B3B3B3" stroke-width="0.5" stroke-linecap="round" d="M27.277,92.187c0,0-1.167-0.584-1.167-1.417
		s-0.083-5.833-0.083-5.833l1.25,0.083c0,0,1.333,2.667,1.083,3.417s-1.667,2-1.583,2.75S27.277,92.187,27.277,92.187z"/>
	<path fill="#FFFFFF" stroke="#B3B3B3" stroke-linecap="round" d="M24.277,70.353c0,0-1.083,2.417-0.833,3.167s2,5.833,2.583,8.083
		s1.083,6.251,1.833,6.417s5.667-0.916,6.333-2.75s1.583-3.584-0.167-8.167s-3.25-11.667-3.25-11.667L24.277,70.353z"/>
	<path fill="#FFFFFF" stroke="#B3B3B3" stroke-width="0.5" stroke-linecap="round" d="M29.86,81.937c0,0-1.5-3.918-2.25-4.334
		s-2.583,0.333-2.25,2s1.333,7.418,1.833,8.084s0.666,0.333,0.666,0.333s-0.583-0.917-0.166-1.667S29.86,82.687,29.86,81.937z"/>
	<path fill="#FFFFFF" stroke="#B3B3B3" stroke-linecap="round" d="M29.943,47.019c-2.333,2-6.25,4-7.417,6.083
		s-0.5,6.25-0.583,8.833s-0.75,8-0.75,8s2.833,2.834,5.333,1.667s5.167-4.75,5.167-8.667c0-3.917-1.583-9.583-1.583-9.583
		L29.943,47.019z"/>
	<path fill="#FFFFFF" stroke="#B3B3B3" stroke-width="0.5" stroke-linecap="round" d="M22.027,61.02c0,0,0.5-1.333,1.417-0.5
		s1.5,3.333,1.167,4.083s-1.917,2.417-2.417,3.917c-0.451,1.354-0.583,1.75-0.583,1.75l-0.417-0.334L22.027,61.02z"/>
	<path fill="#FFFFFF" stroke="#B3B3B3" stroke-width="0.5" stroke-linecap="round" d="M76.442,107.353c0,0-4-8.75-1.25-27"/>
</g>
</svg>
