<?xml version="1.0" encoding="utf-8"?>
<svg version="1.1" xmlns="http://www.w3.org/2000/svg" xmlns:xlink="http://www.w3.org/1999/xlink" x="0px" y="0px" width="128px"
	 height="128px" viewBox="0 0 128 128" enable-background="new 0 0 128 128" xml:space="preserve">
<g id="phone">
	<g>
		<rect x="1.5" y="1.5" fill="#FFFFFF" width="125" height="125"/>
		<path fill="#808080" d="M126,2v124H2V2H126 M127,1H1v126h126V1L127,1z"/>
	</g>
	<g>
		<path fill="#E6E6E6" stroke="#B3B3B3" stroke-miterlimit="10" d="M76.656,92.382c0,3.485-2.22,5.754-5.703,5.683H40.021
			c-3.483,0.071-5.785-2.197-5.785-5.683V13.074c0-3.482,2.302-5.834,5.785-5.834h30.817c3.483,0,5.818,2.352,5.818,5.834V92.382z"
			/>
		
			<rect x="36.767" y="19.85" fill="#FFFFFF" stroke="#B3B3B3" stroke-width="0.5" stroke-miterlimit="10" width="37.356" height="65.786"/>
	</g>
</g>
<g id="_x30_1_copy_3" style="display: none;">
	<g>
		<defs>
			<path id="SVGID_1_" d="M93.868,92.382c0,3.485-2.22,5.754-5.703,5.683H57.233c-3.483,0.071-5.785-2.197-5.785-5.683V13.074
				c0-3.482,2.302-5.834,5.785-5.834H88.05c3.483,0,5.818,2.352,5.818,5.834V92.382z"/>
		</defs>
		<clipPath id="SVGID_2_">
			<use xlink:href="#SVGID_1_"  overflow="visible"/>
		</clipPath>
		<path opacity="0.3" clip-path="url(#SVGID_2_)" d="M51.042,124.483c0,0-6.351-19.434-6.859-23.243
			c-0.507-3.81,1.017-7.62,1.524-12.827c0.508-5.207,0.787-10.924,1.854-12.193c1.067-1.271,8.199-2.401,12.106-5.08l29.73,7.747
			c0,0,0.889-1.271,3.811,1.651c2.92,2.922,12.32,15.494,12.32,20.32c0,4.319-7.62,14.225-10.923,23.625"/>
		<linearGradient id="SVGID_3_" gradientUnits="userSpaceOnUse" x1="58.8252" y1="101.5791" x2="58.8252" y2="35.187">
			<stop  offset="0.4956" style="stop-color:#000000"/>
			<stop  offset="1" style="stop-color:#E6E6E6"/>
		</linearGradient>
		<path opacity="0.3" clip-path="url(#SVGID_2_)" fill="url(#SVGID_3_)" d="M48.284,101.579c0,0,2.708-7.025,4.064-13.547
			c1.354-6.52,3.278-21.59,2.867-24.977c-0.412-3.387,0.412-8.373,0.621-10.829c0.21-2.455-0.058-5.434,0.027-9.667
			c0.085-4.234,2.371-7.536,5.418-7.367c3.049,0.17,3.751,1.948,4.797,5.758c1.046,3.81,0.297,7.042,0.636,9.92
			c0.339,2.879,1.654,9,1.975,10.405c0.678,2.963-0.465,24.64,0.678,25.91"/>
	</g>
	<path fill="#FFFFFF" stroke="#B3B3B3" stroke-linecap="round" d="M53.67,121.091c0,0-6.944-19.643-7.283-22.354
		c-0.338-2.709,0.847-6.434,1.779-13.377c0.931-6.945,1.185-10.157,2.37-11.811c1.186-1.652,8.851-3.623,11.674-5.463l29.815,7.537
		c0,0,1.271-0.509,2.541,0.506c1.271,1.018,13.124,16.596,13.462,18.967s-2.117,8.806-4.318,12.955
		c-2.201,4.148-6.012,12.361-6.012,12.361"/>
	<path fill="#FFFFFF" stroke="#B3B3B3" stroke-linecap="round" d="M99.731,89.001c0,0-4.912-6.266-6.774-11.008
		c-1.863-4.741-6.773-9.906-6.773-9.906l-1.44,9.312"/>
	<path fill="#FFFFFF" stroke="#B3B3B3" stroke-linecap="round" d="M91.772,85.784c0,0-2.033-2.202-2.541-6.097
		c-0.508-3.896-2.117-17.444-2.54-19.729c-0.424-2.286-2.794-5.165-5.588-5.25c-2.794-0.085-7.198,2.879-7.198,2.879v15.495"/>
	<path fill="#FFFFFF" stroke="#B3B3B3" stroke-linecap="round" d="M55.279,97.382c0,0,2.709-7.025,4.064-13.546
		c1.354-6.521,3.278-21.59,2.867-24.978c-0.412-3.387-0.153-8.213,0.056-10.669c0.209-2.456-0.553-5.927-0.468-10.16
		c0.085-4.234,2.371-7.536,5.418-7.367c3.049,0.17,3.751,1.948,4.797,5.758c1.047,3.81,0.792,7.535,1.131,10.414
		c0.338,2.879,2.219,8.84,2.54,10.246c0.677,2.963-0.465,24.64,0.677,25.909"/>
	<path fill="#FFFFFF" stroke="#B3B3B3" stroke-width="0.5" stroke-linecap="round" d="M56.21,79.095c0,0,3.081,1.507,3.488,2.912"/>
	<path fill="#FFFFFF" stroke="#B3B3B3" stroke-width="0.5" stroke-linecap="round" d="M66.714,57.739c0,0,6.26-0.745,7.953-0.067"/>
	<path fill="#FFFFFF" stroke="#B3B3B3" stroke-width="0.5" stroke-linecap="round" d="M63.565,32.805c0,0,0.299,1.985,1.315,2.493
		c1.016,0.508,1.293,0.68,3.156,0.596c1.863-0.085,2.906-0.284,2.906-1.331s-0.434-3.907-3.688-3.907S63.565,32.805,63.565,32.805z"
		/>
</g>
<g id="_x30_1_copy_2" style="display: none;">
	<g>
		<defs>
			<path id="SVGID_4_" d="M93.868,92.382c0,3.485-2.22,5.754-5.703,5.683H57.233c-3.483,0.071-5.785-2.197-5.785-5.683V13.074
				c0-3.482,2.302-5.834,5.785-5.834H88.05c3.483,0,5.818,2.352,5.818,5.834V92.382z"/>
		</defs>
		<clipPath id="SVGID_5_">
			<use xlink:href="#SVGID_4_"  overflow="visible"/>
		</clipPath>
		<path opacity="0.3" clip-path="url(#SVGID_5_)" d="M51.042,124.483c0,0-6.351-19.434-6.859-23.243
			c-0.507-3.81,1.017-7.62,1.524-12.827c0.508-5.207,0.787-10.924,1.854-12.193c1.067-1.271,8.199-2.401,12.106-5.08l29.73,7.747
			c0,0,0.889-1.271,3.811,1.651c2.92,2.922,12.32,15.494,12.32,20.32c0,4.319-7.62,14.225-10.923,23.625"/>
		<linearGradient id="SVGID_6_" gradientUnits="userSpaceOnUse" x1="58.8252" y1="101.5791" x2="58.8252" y2="35.187">
			<stop  offset="0.4956" style="stop-color:#000000"/>
			<stop  offset="1" style="stop-color:#E6E6E6"/>
		</linearGradient>
		<path opacity="0.3" clip-path="url(#SVGID_5_)" fill="url(#SVGID_6_)" d="M48.284,101.579c0,0,2.708-7.025,4.064-13.547
			c1.354-6.52,3.278-21.59,2.867-24.977c-0.412-3.387,0.412-8.373,0.621-10.829c0.21-2.455-0.058-5.434,0.027-9.667
			c0.085-4.234,2.371-7.536,5.418-7.367c3.049,0.17,3.751,1.948,4.797,5.758c1.046,3.81,0.297,7.042,0.636,9.92
			c0.339,2.879,1.654,9,1.975,10.405c0.678,2.963-0.465,24.64,0.678,25.91"/>
	</g>
	<g>
		<defs>
			<rect id="SVGID_7_" x="36.767" y="19.85" width="37.356" height="65.786"/>
		</defs>
		<clipPath id="SVGID_8_">
			<use xlink:href="#SVGID_7_"  overflow="visible"/>
		</clipPath>
		<g opacity="0.1" clip-path="url(#SVGID_8_)">
			<path fill="#80AADA" d="M66.12,28.987c4.841,0,8.78,3.938,8.78,8.78s-3.938,8.78-8.78,8.78s-8.78-3.938-8.78-8.78
				S61.279,28.987,66.12,28.987 M66.12,26.987c-5.955,0-10.78,4.827-10.78,10.78c0,5.953,4.826,10.78,10.78,10.78
				c5.953,0,10.78-4.827,10.78-10.78C76.9,31.814,72.073,26.987,66.12,26.987L66.12,26.987z"/>
		</g>
	</g>
	<path fill="#FFFFFF" stroke="#B3B3B3" stroke-linecap="round" d="M53.67,121.091c0,0-6.944-19.643-7.283-22.354
		c-0.338-2.709,0.847-6.434,1.779-13.377c0.931-6.945,1.185-10.157,2.37-11.811c1.186-1.652,8.851-3.623,11.674-5.463l29.815,7.537
		c0,0,1.271-0.509,2.541,0.506c1.271,1.018,13.124,16.596,13.462,18.967s-2.117,8.806-4.318,12.955
		c-2.201,4.148-6.012,12.361-6.012,12.361"/>
	<path fill="#FFFFFF" stroke="#B3B3B3" stroke-linecap="round" d="M99.731,89.001c0,0-4.912-6.266-6.774-11.008
		c-1.863-4.741-6.773-9.906-6.773-9.906l-1.44,9.312"/>
	<path fill="#FFFFFF" stroke="#B3B3B3" stroke-linecap="round" d="M91.772,85.784c0,0-2.033-2.202-2.541-6.097
		c-0.508-3.896-2.117-17.444-2.54-19.729c-0.424-2.286-2.794-5.165-5.588-5.25c-2.794-0.085-7.198,2.879-7.198,2.879v15.495"/>
	<path fill="#FFFFFF" stroke="#B3B3B3" stroke-linecap="round" d="M55.279,97.382c0,0,2.709-7.025,4.064-13.546
		c1.354-6.521,3.278-21.59,2.867-24.978c-0.412-3.387-0.153-8.213,0.056-10.669c0.209-2.456-0.553-5.927-0.468-10.16
		c0.085-4.234,2.371-7.536,5.418-7.367c3.049,0.17,3.751,1.948,4.797,5.758c1.047,3.81,0.792,7.535,1.131,10.414
		c0.338,2.879,2.219,8.84,2.54,10.246c0.677,2.963-0.465,24.64,0.677,25.909"/>
	<path fill="#FFFFFF" stroke="#B3B3B3" stroke-width="0.5" stroke-linecap="round" d="M56.21,79.095c0,0,3.081,1.507,3.488,2.912"/>
	<path fill="#FFFFFF" stroke="#B3B3B3" stroke-width="0.5" stroke-linecap="round" d="M66.714,57.739c0,0,6.26-0.745,7.953-0.067"/>
	<path fill="#FFFFFF" stroke="#B3B3B3" stroke-width="0.5" stroke-linecap="round" d="M63.565,32.805c0,0,0.299,1.985,1.315,2.493
		c1.016,0.508,1.293,0.68,3.156,0.596c1.863-0.085,2.906-0.284,2.906-1.331s-0.434-3.907-3.688-3.907S63.565,32.805,63.565,32.805z"
		/>
</g>
<g id="_x30_1_copy" style="display: none;">
	<g>
		<defs>
			<path id="SVGID_9_" d="M93.868,92.382c0,3.485-2.22,5.754-5.703,5.683H57.233c-3.483,0.071-5.785-2.197-5.785-5.683V13.074
				c0-3.482,2.302-5.834,5.785-5.834H88.05c3.483,0,5.818,2.352,5.818,5.834V92.382z"/>
		</defs>
		<clipPath id="SVGID_10_">
			<use xlink:href="#SVGID_9_"  overflow="visible"/>
		</clipPath>
		<path opacity="0.3" clip-path="url(#SVGID_10_)" d="M51.042,124.483c0,0-6.351-19.434-6.859-23.243
			c-0.507-3.81,1.017-7.62,1.524-12.827c0.508-5.207,0.787-10.924,1.854-12.193c1.067-1.271,8.199-2.401,12.106-5.08l29.73,7.747
			c0,0,0.889-1.271,3.811,1.651c2.92,2.922,12.32,15.494,12.32,20.32c0,4.319-7.62,14.225-10.923,23.625"/>
		<linearGradient id="SVGID_11_" gradientUnits="userSpaceOnUse" x1="58.8252" y1="101.5791" x2="58.8252" y2="35.187">
			<stop  offset="0.4956" style="stop-color:#000000"/>
			<stop  offset="1" style="stop-color:#E6E6E6"/>
		</linearGradient>
		<path opacity="0.3" clip-path="url(#SVGID_10_)" fill="url(#SVGID_11_)" d="M48.284,101.579c0,0,2.708-7.025,4.064-13.547
			c1.354-6.52,3.278-21.59,2.867-24.977c-0.412-3.387,0.412-8.373,0.621-10.829c0.21-2.455-0.058-5.434,0.027-9.667
			c0.085-4.234,2.371-7.536,5.418-7.367c3.049,0.17,3.751,1.948,4.797,5.758c1.046,3.81,0.297,7.042,0.636,9.92
			c0.339,2.879,1.654,9,1.975,10.405c0.678,2.963-0.465,24.64,0.678,25.91"/>
	</g>
	<g>
		<defs>
			<rect id="SVGID_12_" x="36.767" y="19.85" width="37.356" height="65.786"/>
		</defs>
		<clipPath id="SVGID_13_">
			<use xlink:href="#SVGID_12_"  overflow="visible"/>
		</clipPath>
		<g opacity="0.2" clip-path="url(#SVGID_13_)">
			<path fill="#80AADA" d="M66.12,29.438c4.593,0,8.33,3.737,8.33,8.33c0,4.593-3.737,8.33-8.33,8.33c-4.593,0-8.33-3.737-8.33-8.33
				C57.79,33.174,61.527,29.438,66.12,29.438 M66.12,27.438c-5.706,0-10.33,4.625-10.33,10.33s4.624,10.33,10.33,10.33
				c5.704,0,10.33-4.626,10.33-10.33S71.824,27.438,66.12,27.438L66.12,27.438z"/>
		</g>
	</g>
	<path fill="#FFFFFF" stroke="#B3B3B3" stroke-linecap="round" d="M53.67,121.091c0,0-6.944-19.643-7.283-22.354
		c-0.338-2.709,0.847-6.434,1.779-13.377c0.931-6.945,1.185-10.157,2.37-11.811c1.186-1.652,8.851-3.623,11.674-5.463l29.815,7.537
		c0,0,1.271-0.509,2.541,0.506c1.271,1.018,13.124,16.596,13.462,18.967s-2.117,8.806-4.318,12.955
		c-2.201,4.148-6.012,12.361-6.012,12.361"/>
	<path fill="#FFFFFF" stroke="#B3B3B3" stroke-linecap="round" d="M99.731,89.001c0,0-4.912-6.266-6.774-11.008
		c-1.863-4.741-6.773-9.906-6.773-9.906l-1.44,9.312"/>
	<path fill="#FFFFFF" stroke="#B3B3B3" stroke-linecap="round" d="M91.772,85.784c0,0-2.033-2.202-2.541-6.097
		c-0.508-3.896-2.117-17.444-2.54-19.729c-0.424-2.286-2.794-5.165-5.588-5.25c-2.794-0.085-7.198,2.879-7.198,2.879v15.495"/>
	<path fill="#FFFFFF" stroke="#B3B3B3" stroke-linecap="round" d="M55.279,97.382c0,0,2.709-7.025,4.064-13.546
		c1.354-6.521,3.278-21.59,2.867-24.978c-0.412-3.387-0.153-8.213,0.056-10.669c0.209-2.456-0.553-5.927-0.468-10.16
		c0.085-4.234,2.371-7.536,5.418-7.367c3.049,0.17,3.751,1.948,4.797,5.758c1.047,3.81,0.792,7.535,1.131,10.414
		c0.338,2.879,2.219,8.84,2.54,10.246c0.677,2.963-0.465,24.64,0.677,25.909"/>
	<path fill="#FFFFFF" stroke="#B3B3B3" stroke-width="0.5" stroke-linecap="round" d="M56.21,79.095c0,0,3.081,1.507,3.488,2.912"/>
	<path fill="#FFFFFF" stroke="#B3B3B3" stroke-width="0.5" stroke-linecap="round" d="M66.714,57.739c0,0,6.26-0.745,7.953-0.067"/>
	<path fill="#FFFFFF" stroke="#B3B3B3" stroke-width="0.5" stroke-linecap="round" d="M63.565,32.805c0,0,0.299,1.985,1.315,2.493
		c1.016,0.508,1.293,0.68,3.156,0.596c1.863-0.085,2.906-0.284,2.906-1.331s-0.434-3.907-3.688-3.907S63.565,32.805,63.565,32.805z"
		/>
</g>
<g id="_x30_2_copy" style="display: none;">
	<g>
		<defs>
			<path id="SVGID_14_" d="M93.868,92.382c0,3.485-2.22,5.754-5.703,5.683H57.233c-3.483,0.071-5.785-2.197-5.785-5.683V13.074
				c0-3.482,2.302-5.834,5.785-5.834H88.05c3.483,0,5.818,2.352,5.818,5.834V92.382z"/>
		</defs>
		<clipPath id="SVGID_15_">
			<use xlink:href="#SVGID_14_"  overflow="visible"/>
		</clipPath>
		<path opacity="0.3" clip-path="url(#SVGID_15_)" d="M51.042,124.483c0,0-6.351-19.434-6.859-23.243
			c-0.507-3.81,1.017-7.62,1.524-12.827c0.508-5.207,0.787-10.924,1.854-12.193c1.067-1.271,8.199-2.401,12.106-5.08l29.73,7.747
			c0,0,0.889-1.271,3.811,1.651c2.92,2.922,12.32,15.494,12.32,20.32c0,4.319-7.62,14.225-10.923,23.625"/>
		<linearGradient id="SVGID_16_" gradientUnits="userSpaceOnUse" x1="59.7998" y1="100.5947" x2="59.7998" y2="34.4727">
			<stop  offset="0.65" style="stop-color:#000000"/>
			<stop  offset="1" style="stop-color:#E6E6E6"/>
		</linearGradient>
		<path opacity="0.3" clip-path="url(#SVGID_15_)" fill="url(#SVGID_16_)" d="M49.385,100.595c1.778-2.158,3.877-6.403,4.954-17.398
			c1.077-10.995,1.524-22.048,1.271-24.741c-0.254-2.693,0.866-6.132,0.75-8.349c-0.116-2.219-1.259-4.035-0.878-6.873
			c0.381-2.839,1.525-8.712,5.715-8.76c4.191-0.047,4.7,3.521,5.334,6.436c0.636,2.915,0.127,8.335,0.636,10.642
			c0.507,2.307,2.249,7.579,2.413,9.196c0.253,2.51-0.89,22.705,0.634,24.99"/>
	</g>
	<g>
		<defs>
			<rect id="SVGID_17_" x="36.767" y="19.85" width="37.356" height="65.786"/>
		</defs>
		<clipPath id="SVGID_18_">
			<use xlink:href="#SVGID_17_"  overflow="visible"/>
		</clipPath>
		<g opacity="0.4" clip-path="url(#SVGID_18_)">
			<path fill="#80AADA" d="M66.12,30.225c4.159,0,7.542,3.383,7.542,7.542s-3.383,7.542-7.542,7.542s-7.542-3.384-7.542-7.542
				S61.961,30.225,66.12,30.225 M66.12,28.225c-5.271,0-9.542,4.273-9.542,9.542s4.271,9.542,9.542,9.542
				c5.269,0,9.542-4.273,9.542-9.542S71.389,28.225,66.12,28.225L66.12,28.225z"/>
		</g>
	</g>
	<path fill="#FFFFFF" stroke="#B3B3B3" stroke-linecap="round" d="M53.331,121.049c0,0-6.731-19.94-6.731-22.989
		c0-3.047,0.762-5.714,1.651-12.445c0.889-6.732,0.636-10.283,1.715-12.064c1.08-1.781,12.245-5.336,12.245-5.336l29.604,7.239
		c0,0,1.778-1.017,3.557,1.144c1.777,2.158,12.701,16.829,12.701,20.639s-9.11,19.133-10.923,23.813"/>
	<path fill="#FFFFFF" stroke="#B3B3B3" stroke-linecap="round" d="M100.408,89.509c0,0-3.387-3.725-5.334-7.789
		c-1.947-4.064-6.096-12.449-8.721-13.887l0.339,10.838"/>
	<path fill="#FFFFFF" stroke="#B3B3B3" stroke-linecap="round" d="M90.587,83.667c0,0-0.876-2.006-1.44-5.504
		c-0.563-3.5-1.608-15.581-2.794-19.221c-1.185-3.641-3.218-4.233-5.757-4.402c-2.541-0.17-6.351,2.878-6.858,3.471
		c-0.508,0.593,0,15.834,0,15.834"/>
	<path fill="#FFFFFF" stroke="#B3B3B3" stroke-width="0.5" stroke-linecap="round" d="M56.887,78.671c0,0,2.134,1.404,3.1,2.734"/>
	<path fill="#FFFFFF" stroke="#B3B3B3" stroke-linecap="round" d="M55.236,96.917c1.778-2.158,3.877-6.404,4.954-17.4
		c1.077-10.994,1.524-22.047,1.271-24.74c-0.255-2.693,0.866-6.132,0.75-8.349c-0.116-2.219-1.259-4.035-0.878-6.873
		c0.381-2.838,1.525-8.712,5.715-8.76c4.191-0.047,4.7,3.521,5.334,6.436c0.635,2.915,0.127,8.335,0.635,10.642
		c0.507,2.307,2.249,7.579,2.413,9.196c0.253,2.51-0.889,22.705,0.635,24.99"/>
	<path fill="#FFFFFF" stroke="#B3B3B3" stroke-width="0.5" stroke-linecap="round" d="M63.485,32.858
		c0.214,1.26,1.277,2.376,2.166,2.714c0.889,0.339,4.106,0.508,4.869,0c0.762-0.508,0.876-2.664,0-3.409
		c-0.877-0.745-1.355-1.321-3.472-1.37C64.931,30.747,63.415,32.445,63.485,32.858z"/>
	<path fill="#FFFFFF" stroke="#B3B3B3" stroke-width="0.5" stroke-linecap="round" d="M65.696,56.419c0,0,7.062-1.118,8.971-0.102"
		/>
</g>
<g id="_x30_3_copy" style="display: none;">
	<g>
		<defs>
			<path id="SVGID_19_" d="M93.868,92.382c0,3.485-2.22,5.754-5.703,5.683H57.233c-3.483,0.071-5.785-2.197-5.785-5.683V13.074
				c0-3.482,2.302-5.834,5.785-5.834H88.05c3.483,0,5.818,2.352,5.818,5.834V92.382z"/>
		</defs>
		<clipPath id="SVGID_20_">
			<use xlink:href="#SVGID_19_"  overflow="visible"/>
		</clipPath>
		<path opacity="0.3" clip-path="url(#SVGID_20_)" d="M51.042,124.483c0,0-6.351-19.434-6.859-23.243
			c-0.507-3.81,1.017-7.62,1.524-12.827c0.508-5.207,0.787-10.924,1.854-12.193c1.067-1.271,8.199-2.401,12.106-5.08l29.73,7.747
			c0,0,0.889-1.271,3.811,1.651c2.92,2.922,12.32,15.494,12.32,20.32c0,4.319-7.62,14.225-10.923,23.625"/>
		<linearGradient id="SVGID_21_" gradientUnits="userSpaceOnUse" x1="61.6445" y1="99.0781" x2="61.6445" y2="33.6587">
			<stop  offset="0.8" style="stop-color:#000000"/>
			<stop  offset="1" style="stop-color:#E6E6E6"/>
		</linearGradient>
		<path opacity="0.3" clip-path="url(#SVGID_20_)" fill="url(#SVGID_21_)" d="M51.293,99.078c0,0,2.794-4.954,3.938-11.812
			c1.143-6.856,0.224-24.402,0.546-28.891c0.25-3.483,0.702-5.814,1.017-9.157c0.293-3.11,0.48-6.657,1.115-9.451
			c0.634-2.794,2.794-6.351,5.969-6.097c3.175,0.254,4.598,4.373,4.965,7.33c0.37,2.958-0.785,7.149-0.277,9.688
			c0.509,2.541,0.462,6.061,0.867,8.794c0.635,4.288,1.038,22.195,2.562,24.609"/>
	</g>
	<g>
		<defs>
			<rect id="SVGID_22_" x="36.767" y="19.85" width="37.356" height="65.786"/>
		</defs>
		<clipPath id="SVGID_23_">
			<use xlink:href="#SVGID_22_"  overflow="visible"/>
		</clipPath>
		<g opacity="0.6" clip-path="url(#SVGID_23_)">
			<path fill="#80AADA" d="M66.12,31.012c3.725,0,6.755,3.03,6.755,6.755s-3.03,6.755-6.755,6.755c-3.725,0-6.755-3.03-6.755-6.755
				S62.395,31.012,66.12,31.012 M66.12,29.012c-4.836,0-8.755,3.92-8.755,8.755s3.919,8.755,8.755,8.755
				c4.834,0,8.755-3.92,8.755-8.755S70.955,29.012,66.12,29.012L66.12,29.012z"/>
		</g>
	</g>
	<path fill="#FFFFFF" stroke="#B3B3B3" stroke-linecap="round" d="M53.585,121.049c0,0-6.351-19.433-6.859-23.243
		c-0.507-3.809,1.017-7.619,1.524-12.826c0.509-5.207,0.787-10.924,1.854-12.193c1.067-1.271,8.2-2.402,12.106-5.08l29.73,7.747
		c0,0,0.889-1.271,3.811,1.65c2.92,2.923,12.32,15.495,12.32,20.321c0,4.318-7.62,14.225-10.923,23.624"/>
	<path fill="#FFFFFF" stroke="#B3B3B3" stroke-linecap="round" d="M99.985,88.914c0,0-3.726-4.57-5.334-7.956
		C93.042,77.57,90.249,70.88,87.2,67.706v9.355"/>
	<path fill="#FFFFFF" stroke="#B3B3B3" stroke-linecap="round" d="M90.671,82.735c0,0-1.016-1.738-1.439-4.426
		c-0.423-2.688-1.439-14.118-2.54-18.605c-1.101-4.488-2.878-5.165-5.588-5.419c-2.71-0.254-6.097,1.948-7.027,3.726v14.647"/>
	<path fill="#FFFFFF" stroke="#B3B3B3" stroke-width="0.5" stroke-linecap="round" d="M55.236,78.31c0,0,3.458,1.795,4.333,3.787"/>
	<path fill="#FFFFFF" stroke="#B3B3B3" stroke-linecap="round" d="M55.236,96.661c0,0,2.794-4.953,3.938-11.811
		s2.667-26.619,2.159-30.074c-0.508-3.455,0.709-4.947,0.101-8.011c-0.609-3.064-1.117-6.621-0.482-9.415s2.794-6.351,5.97-6.097
		c3.174,0.254,4.598,4.373,4.965,7.33c0.37,2.958,0.115,7.149,0.623,9.688c0.508,2.541,2.262,6.061,2.667,8.794
		c0.636,4.288-0.762,22.195,0.763,24.608"/>
	<path fill="#FFFFFF" stroke="#B3B3B3" stroke-width="0.5" stroke-linecap="round" d="M65.061,57.23c0,0,7.297-1.332,9.469,0.105"/>
	<path fill="#FFFFFF" stroke="#B3B3B3" stroke-width="0.5" stroke-linecap="round" d="M63.162,32.963
		c-0.694,0.851,0.499,3.202,1.346,3.542c0.846,0.338,4.348,0.592,5.011,0c0.662-0.593,0.928-1.733,0.626-3.11
		c-0.303-1.378-1.476-1.997-3.429-2.153C64.762,31.085,63.72,32.281,63.162,32.963z"/>
</g>
<g id="_x30_4_copy" style="display: none;">
	<g>
		<defs>
			<path id="SVGID_24_" d="M93.868,92.382c0,3.485-2.22,5.754-5.703,5.683H57.233c-3.483,0.071-5.785-2.197-5.785-5.683V13.074
				c0-3.482,2.302-5.834,5.785-5.834H88.05c3.483,0,5.818,2.352,5.818,5.834V92.382z"/>
		</defs>
		<clipPath id="SVGID_25_">
			<use xlink:href="#SVGID_24_"  overflow="visible"/>
		</clipPath>
		<linearGradient id="SVGID_26_" gradientUnits="userSpaceOnUse" x1="63.561" y1="98.0664" x2="63.561" y2="34.1279">
			<stop  offset="0.8259" style="stop-color:#000000"/>
			<stop  offset="1" style="stop-color:#FFFFFF"/>
		</linearGradient>
		<path opacity="0.3" clip-path="url(#SVGID_25_)" fill="url(#SVGID_26_)" d="M44.055,97.694c0.707,0.259,1.505,0.388,2.378,0.37
			h30.933c3.482,0.071,5.702-2.197,5.702-5.683v-8.704c-0.01,0.001-0.022,0-0.033,0.001c-1.378-2.464-2.901-4.896-4.314-6.549
			c-0.44-3.913-0.881-8.04-1.241-9.569c-0.508-2.159-2.16-5.476-5.842-5.468c-2.628,0.005-4.028,1.175-5.502,3.284
			c-0.072-0.841-0.141-1.499-0.203-1.891c-0.381-2.413,0.149-6.256-0.274-9.644c-0.423-3.386,4.977-12.681,4.045-15.56
			c-0.347-1.07-0.775-1.905-1.259-2.538c-0.001-0.002-0.002-0.004-0.004-0.006l-0.001-0.001c-0.009-0.012-0.019-0.022-0.028-0.034
			c-0.667-0.732-0.673-1.576-2.771-1.568c-0.318-0.017-0.68-0.002-1.06,0.061c-1.15,0.137-1.978,0.513-2.362,1.163
			c-0.734,0.697-1.89,1.87-2.558,3.348c-1.61,3.562-1.975,3.772-3.12,10.258c-0.584,3.311-1.103,8.46-1.112,12.016
			c-0.006,2.359,0.027,5.442-0.22,10.874c-3.592,1.76-5.338,2.481-7.116,3.814c-2.032,1.525-2.286,6.73-2.667,12.573
			C45.159,92.294,44.406,95.247,44.055,97.694z"/>
	</g>
	<g opacity="0.8">
		<path fill="#80AADA" d="M66.12,33.044c2.604,0,4.723,2.119,4.723,4.723s-2.119,4.723-4.723,4.723
			c-2.604,0-4.723-2.119-4.723-4.723S63.516,33.044,66.12,33.044 M66.12,31.044c-3.713,0-6.723,3.01-6.723,6.723
			s3.01,6.723,6.723,6.723c3.712,0,6.723-3.01,6.723-6.723S69.833,31.044,66.12,31.044L66.12,31.044z"/>
	</g>
	<path fill="#FFFFFF" stroke="#B3B3B3" stroke-linecap="round" d="M53.585,121.049c0,0-2.54-7.622-3.683-11.431
		c-1.143-3.812-3.048-9.527-3.176-11.685c-0.126-2.159,1.271-7.112,1.779-12.319c0.508-5.208,1.016-11.812,2.54-13.209
		s7.471-1.906,11.166-4.572l29.985,7.493c0,0,1.905-2.159,7.366,6.222c5.461,8.383,8.51,10.924,8.51,14.733
		s-9.399,20.321-10.923,24.768"/>
	<path fill="#FFFFFF" stroke="#B3B3B3" stroke-linecap="round" d="M100.577,88.577c0,0-2.878-2.371-4.402-5.336
		c-1.524-2.963-6.266-13.038-9.061-15.408v7.959"/>
	<path fill="#FFFFFF" stroke="#B3B3B3" stroke-linecap="round" d="M90.756,82.565c0,0-1.439-1.948-1.778-5.504
		c-0.339-3.555-1.017-13.97-1.863-17.188s-2.456-6.096-5.758-6.096s-6.435,1.947-8.044,5.419V72.49"/>
	<path fill="#FFFFFF" stroke="#B3B3B3" stroke-width="0.5" stroke-linecap="round" d="M56.463,78.204c0,0,1.868,1.881,3.178,3.037"
		/>
	<path fill="#FFFFFF" stroke="#B3B3B3" stroke-linecap="round" d="M54.982,96.028c0,0,3.81-6.732,4.826-16.129
		c1.016-9.4,1.524-20.561,1.397-23.554c-0.126-2.992,0.292-5.914,0.02-8.58c-0.274-2.667-0.782-2.032-0.654-5.081
		c0.126-3.048,1.143-9.017,5.715-8.509c4.572,0.508,4.572,5.588,4.953,8.255c0.381,2.668,0.254,3.683,0.762,5.969
		c0.508,2.287,3.175,8.382,3.048,11.304c-0.126,2.92-0.508,18.923,0.89,21.718"/>
	<path fill="#FFFFFF" stroke="#B3B3B3" stroke-width="0.5" stroke-linecap="round" d="M64.934,57.485c0,0,6.415-1.208,9.175,0.293"
		/>
	<path fill="#FFFFFF" stroke="#B3B3B3" stroke-width="0.5" stroke-linecap="round" d="M62.482,35.868c0,0,0.268,2.005,1.285,2.684
		c1.016,0.678,5.217,0.951,5.906-0.015c0.688-0.965,0.254-1.947,0-2.708c-0.254-0.763-1.44-1.356-3.387-1.652
		C64.338,33.879,63.007,35.201,62.482,35.868z"/>
</g>
<g id="_x30_57" style="display: none;">
	<g>
		<defs>
			<path id="SVGID_27_" d="M93.702,92.382c0,3.485-2.22,5.754-5.703,5.683H57.067c-3.483,0.071-5.785-2.197-5.785-5.683V13.074
				c0-3.482,2.302-5.834,5.785-5.834h30.817c3.483,0,5.818,2.352,5.818,5.834V92.382z"/>
		</defs>
		<clipPath id="SVGID_28_">
			<use xlink:href="#SVGID_27_"  overflow="visible"/>
		</clipPath>
		<linearGradient id="SVGID_29_" gradientUnits="userSpaceOnUse" x1="63.395" y1="98.0664" x2="63.395" y2="34.1279">
			<stop  offset="0.75" style="stop-color:#000000"/>
			<stop  offset="1" style="stop-color:#231F20"/>
		</linearGradient>
		<path opacity="0.3" clip-path="url(#SVGID_28_)" fill="url(#SVGID_29_)" d="M43.889,97.694c0.707,0.259,1.505,0.388,2.378,0.37
			H77.2c3.482,0.071,5.702-2.197,5.702-5.683v-8.704c-0.01,0.001-0.022,0-0.033,0.001c-1.379-2.464-2.901-4.896-4.314-6.549
			c-0.44-3.913-0.881-8.04-1.241-9.569c-0.508-2.159-2.16-5.476-5.843-5.468c-2.627,0.005-4.027,1.175-5.501,3.284
			c-0.072-0.841-0.141-1.499-0.203-1.891c-0.38-2.413,0.149-6.256-0.274-9.644c-0.423-3.386,4.977-12.681,4.044-15.56
			c-0.346-1.07-0.774-1.905-1.259-2.538c-0.002-0.002-0.002-0.004-0.004-0.006l-0.001-0.001c-0.009-0.012-0.019-0.022-0.028-0.034
			c-0.667-0.732-0.673-1.576-2.771-1.568c-0.318-0.017-0.68-0.002-1.061,0.061c-1.15,0.137-1.978,0.513-2.361,1.163
			c-0.734,0.697-1.89,1.87-2.558,3.348c-1.61,3.562-1.976,3.772-3.12,10.258c-0.584,3.311-1.103,8.46-1.112,12.016
			c-0.006,2.359,0.027,5.442-0.22,10.874c-3.592,1.76-5.338,2.481-7.116,3.814c-2.032,1.525-2.286,6.73-2.667,12.573
			C44.993,92.294,44.24,95.247,43.889,97.694z"/>
	</g>
	<circle fill="#80AADA" cx="65.954" cy="37.767" r="6.723"/>
	<path fill="#FFFFFF" stroke="#B3B3B3" stroke-linecap="round" d="M53.419,121.049c0,0-3.683-10.415-4.699-14.226
		c-1.017-3.81-1.779-6.858-2.287-9.906c-0.508-3.049,1.27-7.366,1.905-12.953c0.635-5.59,0.762-9.908,2.286-11.939
		c1.524-2.032,6.35-1.271,12.447-4.191l26.799,8.128c0,0,1.777-1.524,4.064-0.508c2.286,1.016,4.318,3.683,7.239,8.129
		c2.921,4.444,6.732,8.89,6.732,12.699s-8.637,17.655-11.177,24.768"/>
	<path fill="#FFFFFF" stroke="#B3B3B3" stroke-linecap="round" d="M100.666,88.771c0,0-3.302-3.41-5.208-6.84
		c-1.905-3.431-6.604-13.68-9.144-15.16c-2.541-1.478-5.588,10.964-5.588,10.964"/>
	<path fill="#FFFFFF" stroke="#B3B3B3" stroke-linecap="round" d="M90.696,82.819c0,0-2.35-4.699-2.731-12.32
		c-0.38-7.62-1.778-17.625-7.239-17.068c-5.461,0.558-7.189,5.04-8.382,10.946c-1.193,5.907,0,18.442,0,18.442"/>
	<path fill="#FFFFFF" stroke="#B3B3B3" stroke-width="0.5" stroke-linecap="round" d="M55.198,77.71c0,0,2.605,1.817,4.012,3.082"/>
	<path fill="#FFFFFF" stroke="#B3B3B3" stroke-linecap="round" d="M55.198,95.774c0,0,2.54-4.445,3.556-11.811
		c1.016-7.367,2.54-15.496,2.286-22.608c-0.254-7.113,0.564-9.846,0.028-12.988c-0.536-3.143-0.536-4.159-0.536-6.317
		c0-2.159,1.905-8.382,5.588-8.001c3.683,0.38,4.826,4.064,5.207,7.747c0.381,3.684,0.127,3.684,0.381,6.816
		c0.254,3.133,2.709,5.757,2.878,12.786c0.17,7.027-0.932,16.257,1.694,19.644"/>
	<path fill="#FFFFFF" stroke="#B3B3B3" stroke-width="0.5" stroke-linecap="round" d="M64.768,57.358c0,0,4.457-1.65,8.521-0.127"/>
	<path fill="#FFFFFF" stroke="#B3B3B3" stroke-width="0.5" stroke-linecap="round" d="M62.417,36.295
		c-0.424,0.713,0.57,2.072,1.501,2.41c0.932,0.34,4.149,0.594,4.912,0c0.762-0.592,1.013-2.435,0.474-2.987
		c-0.54-0.552-1.814-1.844-3.184-1.669C64.75,34.223,62.829,35.604,62.417,36.295z"/>
</g>
<g id="_x30_56" style="display: none;">
	<g>
		<defs>
			<path id="SVGID_30_" d="M91.362,92.382c0,3.485-2.22,5.754-5.702,5.683H54.727c-3.484,0.071-5.786-2.197-5.786-5.683V13.074
				c0-3.482,2.302-5.834,5.786-5.834h30.817c3.483,0,5.818,2.352,5.818,5.834V92.382z"/>
		</defs>
		<clipPath id="SVGID_31_">
			<use xlink:href="#SVGID_30_"  overflow="visible"/>
		</clipPath>
		<linearGradient id="SVGID_32_" gradientUnits="userSpaceOnUse" x1="61.0552" y1="98.0664" x2="61.0552" y2="34.1279">
			<stop  offset="0.75" style="stop-color:#000000"/>
			<stop  offset="1" style="stop-color:#231F20"/>
		</linearGradient>
		<path opacity="0.3" clip-path="url(#SVGID_31_)" fill="url(#SVGID_32_)" d="M41.548,97.694c0.707,0.259,1.505,0.388,2.378,0.37
			h30.933c3.482,0.071,5.703-2.197,5.703-5.683v-8.704c-0.011,0.001-0.022,0-0.033,0.001c-1.378-2.464-2.901-4.896-4.314-6.549
			c-0.44-3.913-0.881-8.04-1.241-9.569c-0.508-2.159-2.159-5.476-5.842-5.468c-2.627,0.005-4.028,1.175-5.501,3.284
			c-0.072-0.841-0.141-1.499-0.203-1.891c-0.38-2.413,0.149-6.256-0.274-9.644c-0.423-3.386,4.977-12.681,4.045-15.56
			c-0.346-1.07-0.775-1.905-1.259-2.538c-0.001-0.002-0.002-0.004-0.004-0.006l-0.001-0.001c-0.009-0.012-0.019-0.022-0.028-0.034
			c-0.667-0.732-0.673-1.576-2.771-1.568c-0.318-0.017-0.68-0.002-1.061,0.061c-1.15,0.137-1.978,0.513-2.362,1.163
			c-0.734,0.697-1.89,1.87-2.558,3.348c-1.609,3.562-1.975,3.772-3.12,10.258c-0.584,3.311-1.103,8.46-1.112,12.016
			c-0.007,2.359,0.027,5.442-0.22,10.874c-3.592,1.76-5.339,2.481-7.117,3.814c-2.032,1.525-2.286,6.73-2.667,12.573
			C42.653,92.294,41.9,95.247,41.548,97.694z"/>
	</g>
	<circle fill="#80AADA" cx="63.614" cy="37.767" r="6.723"/>
	<path fill="#FFFFFF" stroke="#B3B3B3" stroke-linecap="round" d="M51.079,121.049c0,0-3.683-10.415-4.699-14.226
		c-1.017-3.81-1.778-6.858-2.287-9.906c-0.508-3.049,1.27-7.366,1.906-12.953c0.634-5.59,0.762-9.908,2.286-11.939
		c1.524-2.032,6.35-1.271,12.446-4.191l26.799,8.128c0,0,1.778-1.524,4.064-0.508c2.287,1.016,4.319,3.683,7.239,8.129
		c2.921,4.444,6.731,8.89,6.731,12.699s-8.637,17.655-11.177,24.768"/>
	<path fill="#FFFFFF" stroke="#B3B3B3" stroke-linecap="round" d="M98.326,88.771c0,0-3.303-3.41-5.208-6.84
		c-1.905-3.431-6.604-13.68-9.145-15.16c-2.541-1.478-5.588,10.964-5.588,10.964"/>
	<path fill="#FFFFFF" stroke="#B3B3B3" stroke-linecap="round" d="M88.355,82.819c0,0-2.35-4.699-2.731-12.32
		c-0.381-7.62-1.778-17.625-7.239-17.068c-5.461,0.558-7.189,5.04-8.383,10.946c-1.193,5.907,0,18.442,0,18.442"/>
	<path fill="#FFFFFF" stroke="#B3B3B3" stroke-width="0.5" stroke-linecap="round" d="M52.857,77.71c0,0,2.605,1.817,4.012,3.082"/>
	<path fill="#FFFFFF" stroke="#B3B3B3" stroke-linecap="round" d="M52.857,95.774c0,0,2.54-4.445,3.556-11.811
		c1.016-7.367,2.54-15.496,2.286-22.608c-0.254-7.113,0.563-9.846,0.028-12.988c-0.536-3.143-0.536-4.159-0.536-6.317
		c0-2.159,1.905-8.382,5.589-8.001c3.683,0.38,4.826,4.064,5.207,7.747c0.381,3.684,0.127,3.684,0.381,6.816
		c0.254,3.133,2.709,5.757,2.878,12.786c0.169,7.027-0.932,16.257,1.694,19.644"/>
	<path fill="#FFFFFF" stroke="#B3B3B3" stroke-width="0.5" stroke-linecap="round" d="M62.427,57.358c0,0,4.457-1.65,8.521-0.127"/>
	<path fill="#FFFFFF" stroke="#B3B3B3" stroke-width="0.5" stroke-linecap="round" d="M60.077,36.295
		c-0.424,0.713,0.57,2.072,1.501,2.41c0.932,0.34,4.149,0.594,4.912,0c0.762-0.592,1.013-2.435,0.473-2.987
		c-0.54-0.552-1.813-1.844-3.183-1.669C62.41,34.223,60.489,35.604,60.077,36.295z"/>
</g>
<g id="_x30_55" style="display: none;">
	<g>
		<defs>
			<path id="SVGID_33_" d="M88.752,92.382c0,3.485-2.22,5.754-5.702,5.683H52.117c-3.484,0.071-5.786-2.197-5.786-5.683V13.074
				c0-3.482,2.302-5.834,5.786-5.834h30.817c3.483,0,5.818,2.352,5.818,5.834V92.382z"/>
		</defs>
		<clipPath id="SVGID_34_">
			<use xlink:href="#SVGID_33_"  overflow="visible"/>
		</clipPath>
		<linearGradient id="SVGID_35_" gradientUnits="userSpaceOnUse" x1="58.4453" y1="98.0664" x2="58.4453" y2="34.1279">
			<stop  offset="0.75" style="stop-color:#000000"/>
			<stop  offset="1" style="stop-color:#231F20"/>
		</linearGradient>
		<path opacity="0.3" clip-path="url(#SVGID_34_)" fill="url(#SVGID_35_)" d="M38.938,97.694c0.707,0.259,1.505,0.388,2.378,0.37
			H72.25c3.482,0.071,5.703-2.197,5.703-5.683v-8.704c-0.011,0.001-0.022,0-0.033,0.001c-1.378-2.464-2.901-4.896-4.314-6.549
			c-0.44-3.913-0.881-8.04-1.241-9.569c-0.508-2.159-2.159-5.476-5.842-5.468c-2.627,0.005-4.028,1.175-5.501,3.284
			c-0.072-0.841-0.141-1.499-0.203-1.891c-0.381-2.413,0.149-6.256-0.274-9.644c-0.423-3.386,4.977-12.681,4.045-15.56
			c-0.346-1.07-0.775-1.905-1.259-2.538c-0.001-0.002-0.002-0.004-0.004-0.006l-0.001-0.001c-0.009-0.012-0.019-0.022-0.028-0.034
			c-0.667-0.732-0.673-1.576-2.771-1.568c-0.318-0.017-0.68-0.002-1.061,0.061c-1.15,0.137-1.978,0.513-2.362,1.163
			c-0.734,0.697-1.89,1.87-2.558,3.348c-1.609,3.562-1.975,3.772-3.12,10.258c-0.584,3.311-1.103,8.46-1.112,12.016
			c-0.006,2.359,0.027,5.442-0.22,10.874c-3.592,1.76-5.339,2.481-7.117,3.814c-2.032,1.525-2.286,6.73-2.667,12.573
			C40.043,92.294,39.29,95.247,38.938,97.694z"/>
	</g>
	<circle fill="#80AADA" cx="61.004" cy="37.767" r="6.723"/>
	<path fill="#FFFFFF" stroke="#B3B3B3" stroke-linecap="round" d="M48.469,121.049c0,0-3.683-10.415-4.699-14.226
		c-1.017-3.81-1.778-6.858-2.287-9.906c-0.508-3.049,1.27-7.366,1.906-12.953c0.634-5.59,0.762-9.908,2.286-11.939
		c1.524-2.032,6.35-1.271,12.446-4.191l26.799,8.128c0,0,1.777-1.524,4.064-0.508c2.287,1.016,4.318,3.683,7.239,8.129
		c2.921,4.444,6.731,8.89,6.731,12.699s-8.637,17.655-11.177,24.768"/>
	<path fill="#FFFFFF" stroke="#B3B3B3" stroke-linecap="round" d="M95.715,88.771c0,0-3.302-3.41-5.208-6.84
		c-1.905-3.431-6.604-13.68-9.144-15.16c-2.541-1.478-5.588,10.964-5.588,10.964"/>
	<path fill="#FFFFFF" stroke="#B3B3B3" stroke-linecap="round" d="M85.746,82.819c0,0-2.35-4.699-2.731-12.32
		c-0.381-7.62-1.778-17.625-7.239-17.068c-5.461,0.558-7.189,5.04-8.383,10.946c-1.193,5.907,0,18.442,0,18.442"/>
	<path fill="#FFFFFF" stroke="#B3B3B3" stroke-width="0.5" stroke-linecap="round" d="M50.248,77.71c0,0,2.605,1.817,4.012,3.082"/>
	<path fill="#FFFFFF" stroke="#B3B3B3" stroke-linecap="round" d="M50.248,95.774c0,0,2.54-4.445,3.556-11.811
		c1.016-7.367,2.54-15.496,2.286-22.608c-0.254-7.113,0.563-9.846,0.028-12.988c-0.536-3.143-0.536-4.159-0.536-6.317
		c0-2.159,1.905-8.382,5.589-8.001c3.683,0.38,4.826,4.064,5.207,7.747c0.381,3.684,0.127,3.684,0.381,6.816
		c0.254,3.133,2.708,5.757,2.878,12.786c0.169,7.027-0.932,16.257,1.693,19.644"/>
	<path fill="#FFFFFF" stroke="#B3B3B3" stroke-width="0.5" stroke-linecap="round" d="M59.817,57.358c0,0,4.457-1.65,8.521-0.127"/>
	<path fill="#FFFFFF" stroke="#B3B3B3" stroke-width="0.5" stroke-linecap="round" d="M57.467,36.295
		c-0.424,0.713,0.57,2.072,1.501,2.41c0.932,0.34,4.148,0.594,4.912,0c0.762-0.592,1.013-2.435,0.473-2.987
		c-0.54-0.552-1.813-1.844-3.183-1.669C59.8,34.223,57.879,35.604,57.467,36.295z"/>
</g>
<g id="_x30_54" style="display: none;">
	<g>
		<defs>
			<path id="SVGID_36_" d="M86.412,92.382c0,3.485-2.22,5.754-5.703,5.683H49.777c-3.483,0.071-5.785-2.197-5.785-5.683V13.074
				c0-3.482,2.302-5.834,5.785-5.834h30.817c3.483,0,5.818,2.352,5.818,5.834V92.382z"/>
		</defs>
		<clipPath id="SVGID_37_">
			<use xlink:href="#SVGID_36_"  overflow="visible"/>
		</clipPath>
		<linearGradient id="SVGID_38_" gradientUnits="userSpaceOnUse" x1="56.105" y1="98.0664" x2="56.105" y2="34.1279">
			<stop  offset="0.75" style="stop-color:#000000"/>
			<stop  offset="1" style="stop-color:#231F20"/>
		</linearGradient>
		<path opacity="0.3" clip-path="url(#SVGID_37_)" fill="url(#SVGID_38_)" d="M36.599,97.694c0.707,0.259,1.505,0.388,2.378,0.37
			H69.91c3.482,0.071,5.702-2.197,5.702-5.683v-8.704c-0.01,0.001-0.022,0-0.033,0.001c-1.379-2.464-2.901-4.896-4.315-6.549
			c-0.439-3.913-0.88-8.04-1.24-9.569c-0.508-2.159-2.16-5.476-5.843-5.468c-2.627,0.005-4.027,1.175-5.501,3.284
			c-0.072-0.841-0.141-1.499-0.203-1.891c-0.38-2.413,0.149-6.256-0.274-9.644c-0.423-3.386,4.977-12.681,4.044-15.56
			c-0.346-1.07-0.774-1.905-1.259-2.538c-0.002-0.002-0.002-0.004-0.004-0.006l-0.001-0.001c-0.009-0.012-0.019-0.022-0.028-0.034
			c-0.667-0.732-0.672-1.576-2.771-1.568c-0.318-0.017-0.68-0.002-1.061,0.061c-1.15,0.137-1.978,0.513-2.361,1.163
			c-0.734,0.697-1.89,1.87-2.558,3.348c-1.61,3.562-1.976,3.772-3.12,10.258c-0.584,3.311-1.103,8.46-1.112,12.016
			c-0.007,2.359,0.027,5.442-0.22,10.874c-3.592,1.76-5.338,2.481-7.117,3.814c-2.031,1.525-2.285,6.73-2.667,12.573
			C37.703,92.294,36.95,95.247,36.599,97.694z"/>
	</g>
	<circle fill="#80AADA" cx="58.664" cy="37.767" r="6.723"/>
	<path fill="#FFFFFF" stroke="#B3B3B3" stroke-linecap="round" d="M46.129,121.049c0,0-3.683-10.415-4.699-14.226
		c-1.017-3.81-1.778-6.858-2.286-9.906c-0.508-3.049,1.27-7.366,1.905-12.953c0.635-5.59,0.762-9.908,2.286-11.939
		c1.524-2.032,6.35-1.271,12.447-4.191l26.799,8.128c0,0,1.778-1.524,4.064-0.508c2.286,1.016,4.318,3.683,7.239,8.129
		c2.921,4.444,6.732,8.89,6.732,12.699s-8.637,17.655-11.177,24.768"/>
	<path fill="#FFFFFF" stroke="#B3B3B3" stroke-linecap="round" d="M93.375,88.771c0,0-3.303-3.41-5.208-6.84
		c-1.905-3.431-6.604-13.68-9.144-15.16c-2.541-1.478-5.588,10.964-5.588,10.964"/>
	<path fill="#FFFFFF" stroke="#B3B3B3" stroke-linecap="round" d="M83.406,82.819c0,0-2.35-4.699-2.731-12.32
		c-0.38-7.62-1.778-17.625-7.239-17.068c-5.461,0.558-7.189,5.04-8.382,10.946c-1.194,5.907,0,18.442,0,18.442"/>
	<path fill="#FFFFFF" stroke="#B3B3B3" stroke-width="0.5" stroke-linecap="round" d="M47.907,77.71c0,0,2.605,1.817,4.012,3.082"/>
	<path fill="#FFFFFF" stroke="#B3B3B3" stroke-linecap="round" d="M47.907,95.774c0,0,2.54-4.445,3.556-11.811
		c1.016-7.367,2.54-15.496,2.286-22.608c-0.254-7.113,0.564-9.846,0.028-12.988c-0.536-3.143-0.536-4.159-0.536-6.317
		c0-2.159,1.905-8.382,5.588-8.001c3.683,0.38,4.826,4.064,5.207,7.747c0.381,3.684,0.127,3.684,0.381,6.816
		c0.254,3.133,2.709,5.757,2.878,12.786c0.17,7.027-0.932,16.257,1.694,19.644"/>
	<path fill="#FFFFFF" stroke="#B3B3B3" stroke-width="0.5" stroke-linecap="round" d="M57.478,57.358c0,0,4.457-1.65,8.521-0.127"/>
	<path fill="#FFFFFF" stroke="#B3B3B3" stroke-width="0.5" stroke-linecap="round" d="M55.127,36.295
		c-0.424,0.713,0.57,2.072,1.501,2.41c0.932,0.34,4.149,0.594,4.912,0c0.762-0.592,1.013-2.435,0.474-2.987
		c-0.54-0.552-1.814-1.844-3.184-1.669C57.46,34.223,55.539,35.604,55.127,36.295z"/>
</g>
<g id="_x30_53" style="display: none;">
	<g>
		<defs>
			<path id="SVGID_39_" d="M83.982,92.382c0,3.485-2.22,5.754-5.702,5.683H47.347c-3.483,0.071-5.786-2.197-5.786-5.683V13.074
				c0-3.482,2.302-5.834,5.786-5.834h30.817c3.483,0,5.818,2.352,5.818,5.834V92.382z"/>
		</defs>
		<clipPath id="SVGID_40_">
			<use xlink:href="#SVGID_39_"  overflow="visible"/>
		</clipPath>
		<linearGradient id="SVGID_41_" gradientUnits="userSpaceOnUse" x1="53.6753" y1="98.0664" x2="53.6753" y2="34.1279">
			<stop  offset="0.75" style="stop-color:#000000"/>
			<stop  offset="1" style="stop-color:#231F20"/>
		</linearGradient>
		<path opacity="0.3" clip-path="url(#SVGID_40_)" fill="url(#SVGID_41_)" d="M34.169,97.694c0.707,0.259,1.505,0.388,2.378,0.37
			H67.48c3.482,0.071,5.702-2.197,5.702-5.683v-8.704c-0.011,0.001-0.022,0-0.033,0.001c-1.379-2.464-2.901-4.896-4.315-6.549
			c-0.44-3.913-0.88-8.04-1.24-9.569c-0.508-2.159-2.16-5.476-5.843-5.468c-2.627,0.005-4.027,1.175-5.501,3.284
			c-0.072-0.841-0.141-1.499-0.203-1.891c-0.38-2.413,0.149-6.256-0.274-9.644c-0.423-3.386,4.977-12.681,4.044-15.56
			c-0.346-1.07-0.774-1.905-1.259-2.538c-0.002-0.002-0.002-0.004-0.004-0.006l-0.001-0.001c-0.009-0.012-0.019-0.022-0.028-0.034
			c-0.667-0.732-0.673-1.576-2.771-1.568c-0.318-0.017-0.68-0.002-1.061,0.061c-1.15,0.137-1.978,0.513-2.361,1.163
			c-0.734,0.697-1.89,1.87-2.558,3.348c-1.61,3.562-1.976,3.772-3.12,10.258c-0.584,3.311-1.103,8.46-1.112,12.016
			c-0.007,2.359,0.027,5.442-0.22,10.874c-3.592,1.76-5.338,2.481-7.117,3.814c-2.031,1.525-2.286,6.73-2.667,12.573
			C35.273,92.294,34.521,95.247,34.169,97.694z"/>
	</g>
	<circle fill="#80AADA" cx="56.234" cy="37.767" r="6.723"/>
	<path fill="#FFFFFF" stroke="#B3B3B3" stroke-linecap="round" d="M43.699,121.049c0,0-3.683-10.415-4.699-14.226
		c-1.017-3.81-1.778-6.858-2.286-9.906c-0.508-3.049,1.27-7.366,1.905-12.953c0.635-5.59,0.762-9.908,2.286-11.939
		c1.524-2.032,6.35-1.271,12.447-4.191l26.799,8.128c0,0,1.778-1.524,4.064-0.508c2.286,1.016,4.318,3.683,7.239,8.129
		c2.921,4.444,6.731,8.89,6.731,12.699s-8.636,17.655-11.177,24.768"/>
	<path fill="#FFFFFF" stroke="#B3B3B3" stroke-linecap="round" d="M90.946,88.771c0,0-3.303-3.41-5.208-6.84
		c-1.905-3.431-6.604-13.68-9.144-15.16c-2.541-1.478-5.588,10.964-5.588,10.964"/>
	<path fill="#FFFFFF" stroke="#B3B3B3" stroke-linecap="round" d="M80.976,82.819c0,0-2.35-4.699-2.731-12.32
		c-0.38-7.62-1.778-17.625-7.239-17.068c-5.461,0.558-7.189,5.04-8.382,10.946c-1.194,5.907,0,18.442,0,18.442"/>
	<path fill="#FFFFFF" stroke="#B3B3B3" stroke-width="0.5" stroke-linecap="round" d="M45.478,77.71c0,0,2.605,1.817,4.012,3.082"/>
	<path fill="#FFFFFF" stroke="#B3B3B3" stroke-linecap="round" d="M45.478,95.774c0,0,2.54-4.445,3.556-11.811
		c1.016-7.367,2.54-15.496,2.286-22.608c-0.254-7.113,0.564-9.846,0.028-12.988c-0.536-3.143-0.536-4.159-0.536-6.317
		c0-2.159,1.905-8.382,5.588-8.001c3.683,0.38,4.826,4.064,5.207,7.747c0.381,3.684,0.127,3.684,0.381,6.816
		c0.254,3.133,2.709,5.757,2.878,12.786c0.17,7.027-0.932,16.257,1.694,19.644"/>
	<path fill="#FFFFFF" stroke="#B3B3B3" stroke-width="0.5" stroke-linecap="round" d="M55.048,57.358c0,0,4.457-1.65,8.521-0.127"/>
	<path fill="#FFFFFF" stroke="#B3B3B3" stroke-width="0.5" stroke-linecap="round" d="M52.697,36.295
		c-0.424,0.713,0.57,2.072,1.501,2.41c0.932,0.34,4.149,0.594,4.912,0c0.762-0.592,1.013-2.435,0.474-2.987
		c-0.541-0.552-1.814-1.844-3.184-1.669C55.03,34.223,53.109,35.604,52.697,36.295z"/>
</g>
<g id="_x30_52" style="display: none;">
	<g>
		<defs>
			<path id="SVGID_42_" d="M81.552,92.382c0,3.485-2.22,5.754-5.702,5.683H44.917c-3.483,0.071-5.786-2.197-5.786-5.683V13.074
				c0-3.482,2.302-5.834,5.786-5.834h30.817c3.483,0,5.818,2.352,5.818,5.834V92.382z"/>
		</defs>
		<clipPath id="SVGID_43_">
			<use xlink:href="#SVGID_42_"  overflow="visible"/>
		</clipPath>
		<linearGradient id="SVGID_44_" gradientUnits="userSpaceOnUse" x1="51.2456" y1="98.0664" x2="51.2456" y2="34.1279">
			<stop  offset="0.75" style="stop-color:#000000"/>
			<stop  offset="1" style="stop-color:#231F20"/>
		</linearGradient>
		<path opacity="0.3" clip-path="url(#SVGID_43_)" fill="url(#SVGID_44_)" d="M31.739,97.694c0.707,0.259,1.505,0.388,2.378,0.37
			H65.05c3.482,0.071,5.702-2.197,5.702-5.683v-8.704c-0.011,0.001-0.022,0-0.033,0.001c-1.379-2.464-2.901-4.896-4.315-6.549
			c-0.44-3.913-0.88-8.04-1.24-9.569c-0.508-2.159-2.16-5.476-5.843-5.468c-2.627,0.005-4.027,1.175-5.501,3.284
			c-0.072-0.841-0.141-1.499-0.203-1.891c-0.38-2.413,0.149-6.256-0.274-9.644c-0.423-3.386,4.977-12.681,4.044-15.56
			c-0.346-1.07-0.774-1.905-1.259-2.538c-0.002-0.002-0.002-0.004-0.004-0.006l-0.001-0.001c-0.009-0.012-0.019-0.022-0.028-0.034
			c-0.667-0.732-0.673-1.576-2.771-1.568c-0.318-0.017-0.68-0.002-1.061,0.061c-1.15,0.137-1.978,0.513-2.361,1.163
			c-0.734,0.697-1.89,1.87-2.558,3.348c-1.61,3.562-1.976,3.772-3.12,10.258c-0.584,3.311-1.103,8.46-1.112,12.016
			c-0.007,2.359,0.027,5.442-0.22,10.874c-3.592,1.76-5.338,2.481-7.117,3.814c-2.031,1.525-2.286,6.73-2.667,12.573
			C32.843,92.294,32.09,95.247,31.739,97.694z"/>
	</g>
	<circle fill="#80AADA" cx="53.804" cy="37.767" r="6.723"/>
	<path fill="#FFFFFF" stroke="#B3B3B3" stroke-linecap="round" d="M41.269,121.049c0,0-3.683-10.415-4.699-14.226
		c-1.017-3.81-1.778-6.858-2.286-9.906c-0.508-3.049,1.27-7.366,1.905-12.953c0.635-5.59,0.762-9.908,2.286-11.939
		c1.524-2.032,6.35-1.271,12.447-4.191l26.799,8.128c0,0,1.778-1.524,4.064-0.508c2.286,1.016,4.318,3.683,7.239,8.129
		c2.921,4.444,6.731,8.89,6.731,12.699s-8.636,17.655-11.177,24.768"/>
	<path fill="#FFFFFF" stroke="#B3B3B3" stroke-linecap="round" d="M88.516,88.771c0,0-3.303-3.41-5.208-6.84
		c-1.905-3.431-6.604-13.68-9.144-15.16c-2.541-1.478-5.588,10.964-5.588,10.964"/>
	<path fill="#FFFFFF" stroke="#B3B3B3" stroke-linecap="round" d="M78.546,82.819c0,0-2.35-4.699-2.731-12.32
		c-0.38-7.62-1.778-17.625-7.239-17.068c-5.461,0.558-7.189,5.04-8.382,10.946c-1.194,5.907,0,18.442,0,18.442"/>
	<path fill="#FFFFFF" stroke="#B3B3B3" stroke-width="0.5" stroke-linecap="round" d="M43.047,77.71c0,0,2.605,1.817,4.012,3.082"/>
	<path fill="#FFFFFF" stroke="#B3B3B3" stroke-linecap="round" d="M43.047,95.774c0,0,2.54-4.445,3.556-11.811
		c1.016-7.367,2.54-15.496,2.286-22.608c-0.254-7.113,0.564-9.846,0.028-12.988c-0.536-3.143-0.536-4.159-0.536-6.317
		c0-2.159,1.905-8.382,5.588-8.001c3.683,0.38,4.826,4.064,5.207,7.747c0.381,3.684,0.127,3.684,0.381,6.816
		c0.254,3.133,2.709,5.757,2.878,12.786c0.17,7.027-0.932,16.257,1.694,19.644"/>
	<path fill="#FFFFFF" stroke="#B3B3B3" stroke-width="0.5" stroke-linecap="round" d="M52.618,57.358c0,0,4.457-1.65,8.521-0.127"/>
	<path fill="#FFFFFF" stroke="#B3B3B3" stroke-width="0.5" stroke-linecap="round" d="M50.267,36.295
		c-0.424,0.713,0.57,2.072,1.501,2.41c0.932,0.34,4.149,0.594,4.912,0c0.762-0.592,1.013-2.435,0.474-2.987
		c-0.541-0.552-1.814-1.844-3.184-1.669C52.6,34.223,50.679,35.604,50.267,36.295z"/>
</g>
<g id="_x30_51" style="display: none;">
	<g>
		<defs>
			<path id="SVGID_45_" d="M79.032,92.382c0,3.485-2.22,5.754-5.703,5.683H42.397c-3.483,0.071-5.785-2.197-5.785-5.683V13.074
				c0-3.482,2.302-5.834,5.785-5.834h30.817c3.483,0,5.818,2.352,5.818,5.834V92.382z"/>
		</defs>
		<clipPath id="SVGID_46_">
			<use xlink:href="#SVGID_45_"  overflow="visible"/>
		</clipPath>
		<linearGradient id="SVGID_47_" gradientUnits="userSpaceOnUse" x1="48.7251" y1="98.0664" x2="48.7251" y2="34.1279">
			<stop  offset="0.75" style="stop-color:#000000"/>
			<stop  offset="1" style="stop-color:#231F20"/>
		</linearGradient>
		<path opacity="0.3" clip-path="url(#SVGID_46_)" fill="url(#SVGID_47_)" d="M29.219,97.694c0.707,0.259,1.505,0.388,2.378,0.37
			H62.53c3.482,0.071,5.702-2.197,5.702-5.683v-8.704c-0.01,0.001-0.022,0-0.033,0.001c-1.378-2.464-2.901-4.896-4.314-6.549
			c-0.44-3.913-0.881-8.04-1.241-9.569c-0.508-2.159-2.16-5.476-5.842-5.468c-2.628,0.005-4.028,1.175-5.502,3.284
			c-0.072-0.841-0.141-1.499-0.203-1.891c-0.381-2.413,0.149-6.256-0.274-9.644c-0.423-3.386,4.977-12.681,4.045-15.56
			c-0.347-1.07-0.775-1.905-1.259-2.538c-0.001-0.002-0.002-0.004-0.004-0.006l-0.001-0.001c-0.009-0.012-0.019-0.022-0.028-0.034
			c-0.667-0.732-0.673-1.576-2.771-1.568c-0.318-0.017-0.68-0.002-1.06,0.061c-1.15,0.137-1.978,0.513-2.362,1.163
			c-0.734,0.697-1.89,1.87-2.558,3.348c-1.61,3.562-1.975,3.772-3.12,10.258c-0.584,3.311-1.103,8.46-1.112,12.016
			c-0.006,2.359,0.027,5.442-0.22,10.874c-3.592,1.76-5.338,2.481-7.116,3.814c-2.032,1.525-2.286,6.73-2.667,12.573
			C30.323,92.294,29.57,95.247,29.219,97.694z"/>
	</g>
	<circle fill="#80AADA" cx="51.284" cy="37.767" r="6.723"/>
	<path fill="#FFFFFF" stroke="#B3B3B3" stroke-linecap="round" d="M38.749,121.049c0,0-3.683-10.415-4.699-14.226
		c-1.017-3.81-1.779-6.858-2.287-9.906c-0.508-3.049,1.27-7.366,1.905-12.953c0.635-5.59,0.762-9.908,2.286-11.939
		c1.524-2.032,6.35-1.271,12.447-4.191l26.799,8.128c0,0,1.777-1.524,4.064-0.508c2.287,1.016,4.318,3.683,7.239,8.129
		c2.921,4.444,6.731,8.89,6.731,12.699s-8.637,17.655-11.177,24.768"/>
	<path fill="#FFFFFF" stroke="#B3B3B3" stroke-linecap="round" d="M85.996,88.771c0,0-3.302-3.41-5.208-6.84
		c-1.905-3.431-6.604-13.68-9.144-15.16c-2.541-1.478-5.588,10.964-5.588,10.964"/>
	<path fill="#FFFFFF" stroke="#B3B3B3" stroke-linecap="round" d="M76.026,82.819c0,0-2.35-4.699-2.731-12.32
		c-0.38-7.62-1.778-17.625-7.238-17.068c-5.462,0.558-7.189,5.04-8.383,10.946c-1.193,5.907,0,18.442,0,18.442"/>
	<path fill="#FFFFFF" stroke="#B3B3B3" stroke-width="0.5" stroke-linecap="round" d="M40.528,77.71c0,0,2.605,1.817,4.012,3.082"/>
	<path fill="#FFFFFF" stroke="#B3B3B3" stroke-linecap="round" d="M40.528,95.774c0,0,2.54-4.445,3.556-11.811
		c1.016-7.367,2.54-15.496,2.285-22.608c-0.254-7.113,0.564-9.846,0.028-12.988c-0.536-3.143-0.536-4.159-0.536-6.317
		c0-2.159,1.905-8.382,5.588-8.001c3.683,0.38,4.826,4.064,5.207,7.747c0.382,3.684,0.127,3.684,0.382,6.816
		c0.254,3.133,2.708,5.757,2.878,12.786c0.169,7.027-0.932,16.257,1.693,19.644"/>
	<path fill="#FFFFFF" stroke="#B3B3B3" stroke-width="0.5" stroke-linecap="round" d="M50.098,57.358c0,0,4.457-1.65,8.521-0.127"/>
	<path fill="#FFFFFF" stroke="#B3B3B3" stroke-width="0.5" stroke-linecap="round" d="M47.747,36.295
		c-0.424,0.713,0.57,2.072,1.501,2.41c0.932,0.34,4.149,0.594,4.912,0c0.761-0.592,1.013-2.435,0.473-2.987
		c-0.54-0.552-1.813-1.844-3.184-1.669C50.08,34.223,48.159,35.604,47.747,36.295z"/>
</g>
<g id="_x30_5" style="display: none;">
	<g>
		<defs>
			<path id="SVGID_48_" d="M76.656,92.382c0,3.485-2.22,5.754-5.703,5.683H40.021c-3.483,0.071-5.785-2.197-5.785-5.683V13.074
				c0-3.482,2.302-5.834,5.785-5.834h30.817c3.483,0,5.818,2.352,5.818,5.834V92.382z"/>
		</defs>
		<clipPath id="SVGID_49_">
			<use xlink:href="#SVGID_48_"  overflow="visible"/>
		</clipPath>
		<linearGradient id="SVGID_50_" gradientUnits="userSpaceOnUse" x1="46.3491" y1="98.0664" x2="46.3491" y2="34.1279">
			<stop  offset="0.75" style="stop-color:#000000"/>
			<stop  offset="1" style="stop-color:#231F20"/>
		</linearGradient>
		<path opacity="0.3" clip-path="url(#SVGID_49_)" fill="url(#SVGID_50_)" d="M26.842,97.694c0.707,0.259,1.505,0.388,2.378,0.37
			h30.933c3.482,0.071,5.702-2.197,5.702-5.683v-8.704c-0.01,0.001-0.022,0-0.033,0.001c-1.379-2.464-2.901-4.896-4.314-6.549
			c-0.44-3.913-0.881-8.04-1.241-9.569c-0.508-2.159-2.16-5.476-5.843-5.468c-2.627,0.005-4.027,1.175-5.501,3.284
			c-0.072-0.841-0.141-1.499-0.203-1.891c-0.38-2.413,0.149-6.256-0.274-9.644c-0.423-3.386,4.977-12.681,4.044-15.56
			c-0.346-1.07-0.774-1.905-1.259-2.538c-0.002-0.002-0.002-0.004-0.004-0.006l-0.001-0.001c-0.009-0.012-0.019-0.022-0.028-0.034
			c-0.667-0.732-0.673-1.576-2.771-1.568c-0.318-0.017-0.68-0.002-1.061,0.061c-1.15,0.137-1.978,0.513-2.361,1.163
			c-0.734,0.697-1.89,1.87-2.558,3.348c-1.61,3.562-1.976,3.772-3.12,10.258c-0.584,3.311-1.103,8.46-1.112,12.016
			c-0.006,2.359,0.027,5.442-0.22,10.874c-3.592,1.76-5.338,2.481-7.116,3.814c-2.032,1.525-2.286,6.73-2.667,12.573
			C27.947,92.294,27.194,95.247,26.842,97.694z"/>
	</g>
	<circle fill="#80AADA" cx="48.907" cy="37.767" r="6.723"/>
	<path fill="#FFFFFF" stroke="#B3B3B3" stroke-linecap="round" d="M36.373,121.049c0,0-3.683-10.415-4.699-14.226
		c-1.017-3.81-1.779-6.858-2.287-9.906c-0.508-3.049,1.27-7.366,1.905-12.953c0.635-5.59,0.762-9.908,2.286-11.939
		c1.524-2.032,6.35-1.271,12.447-4.191l26.799,8.128c0,0,1.777-1.524,4.064-0.508c2.286,1.016,4.318,3.683,7.239,8.129
		c2.921,4.444,6.732,8.89,6.732,12.699s-8.637,17.655-11.177,24.768"/>
	<path fill="#FFFFFF" stroke="#B3B3B3" stroke-linecap="round" d="M83.619,88.771c0,0-3.302-3.41-5.208-6.84
		c-1.905-3.431-6.604-13.68-9.144-15.16c-2.541-1.478-5.588,10.964-5.588,10.964"/>
	<path fill="#FFFFFF" stroke="#B3B3B3" stroke-linecap="round" d="M73.649,82.819c0,0-2.35-4.699-2.731-12.32
		c-0.38-7.62-1.778-17.625-7.239-17.068c-5.461,0.558-7.189,5.04-8.382,10.946c-1.193,5.907,0,18.442,0,18.442"/>
	<path fill="#FFFFFF" stroke="#B3B3B3" stroke-width="0.5" stroke-linecap="round" d="M38.151,77.71c0,0,2.605,1.817,4.012,3.082"/>
	<path fill="#FFFFFF" stroke="#B3B3B3" stroke-linecap="round" d="M38.151,95.774c0,0,2.54-4.445,3.556-11.811
		c1.016-7.367,2.54-15.496,2.286-22.608c-0.254-7.113,0.564-9.846,0.028-12.988c-0.536-3.143-0.536-4.159-0.536-6.317
		c0-2.159,1.905-8.382,5.588-8.001c3.683,0.38,4.826,4.064,5.207,7.747c0.381,3.684,0.127,3.684,0.381,6.816
		c0.254,3.133,2.709,5.757,2.878,12.786c0.17,7.027-0.932,16.257,1.694,19.644"/>
	<path fill="#FFFFFF" stroke="#B3B3B3" stroke-width="0.5" stroke-linecap="round" d="M47.721,57.358c0,0,4.457-1.65,8.521-0.127"/>
	<path fill="#FFFFFF" stroke="#B3B3B3" stroke-width="0.5" stroke-linecap="round" d="M45.371,36.295
		c-0.424,0.713,0.57,2.072,1.501,2.41c0.932,0.34,4.149,0.594,4.912,0c0.762-0.592,1.013-2.435,0.474-2.987
		c-0.54-0.552-1.814-1.844-3.184-1.669C47.704,34.223,45.783,35.604,45.371,36.295z"/>
</g>
<g id="_x30_4" style="display: none;">
	<g>
		<defs>
			<path id="SVGID_51_" d="M76.656,92.382c0,3.485-2.22,5.754-5.703,5.683H40.021c-3.483,0.071-5.785-2.197-5.785-5.683V13.074
				c0-3.482,2.302-5.834,5.785-5.834h30.817c3.483,0,5.818,2.352,5.818,5.834V92.382z"/>
		</defs>
		<clipPath id="SVGID_52_">
			<use xlink:href="#SVGID_51_"  overflow="visible"/>
		</clipPath>
		<linearGradient id="SVGID_53_" gradientUnits="userSpaceOnUse" x1="46.3491" y1="98.0664" x2="46.3491" y2="34.1279">
			<stop  offset="0.8259" style="stop-color:#000000"/>
			<stop  offset="1" style="stop-color:#FFFFFF"/>
		</linearGradient>
		<path opacity="0.3" clip-path="url(#SVGID_52_)" fill="url(#SVGID_53_)" d="M26.842,97.694c0.707,0.259,1.505,0.388,2.378,0.37
			h30.933c3.482,0.071,5.702-2.197,5.702-5.683v-8.704c-0.01,0.001-0.022,0-0.033,0.001c-1.379-2.464-2.901-4.896-4.314-6.549
			c-0.44-3.913-0.881-8.04-1.241-9.569c-0.508-2.159-2.16-5.476-5.843-5.468c-2.627,0.005-4.027,1.175-5.501,3.284
			c-0.072-0.841-0.141-1.499-0.203-1.891c-0.38-2.413,0.149-6.256-0.274-9.644c-0.423-3.386,4.977-12.681,4.044-15.56
			c-0.346-1.07-0.774-1.905-1.259-2.538c-0.002-0.002-0.002-0.004-0.004-0.006l-0.001-0.001c-0.009-0.012-0.019-0.022-0.028-0.034
			c-0.667-0.732-0.673-1.576-2.771-1.568c-0.318-0.017-0.68-0.002-1.061,0.061c-1.15,0.137-1.978,0.513-2.361,1.163
			c-0.734,0.697-1.89,1.87-2.558,3.348c-1.61,3.562-1.976,3.772-3.12,10.258c-0.584,3.311-1.103,8.46-1.112,12.016
			c-0.006,2.359,0.027,5.442-0.22,10.874c-3.592,1.76-5.338,2.481-7.116,3.814c-2.032,1.525-2.286,6.73-2.667,12.573
			C27.947,92.294,27.194,95.247,26.842,97.694z"/>
	</g>
	<path fill="#FFFFFF" stroke="#B3B3B3" stroke-linecap="round" d="M36.373,121.049c0,0-2.541-7.622-3.683-11.431
		c-1.143-3.812-3.048-9.527-3.176-11.685c-0.126-2.159,1.271-7.112,1.779-12.319c0.508-5.208,1.016-11.812,2.54-13.209
		c1.524-1.396,7.471-1.906,11.166-4.572l29.985,7.493c0,0,1.905-2.159,7.366,6.222c5.461,8.383,8.51,10.924,8.51,14.733
		s-9.399,20.321-10.923,24.768"/>
	<path fill="#FFFFFF" stroke="#B3B3B3" stroke-linecap="round" d="M83.365,88.577c0,0-2.878-2.371-4.402-5.336
		c-1.524-2.963-6.266-13.038-9.061-15.408v7.959"/>
	<path fill="#FFFFFF" stroke="#B3B3B3" stroke-linecap="round" d="M73.544,82.565c0,0-1.439-1.948-1.779-5.504
		c-0.339-3.555-1.016-13.97-1.863-17.188c-0.846-3.218-2.455-6.096-5.757-6.096s-6.435,1.947-8.044,5.419V72.49"/>
	<path fill="#FFFFFF" stroke="#B3B3B3" stroke-width="0.5" stroke-linecap="round" d="M39.251,78.204c0,0,1.867,1.881,3.178,3.037"
		/>
	<path fill="#FFFFFF" stroke="#B3B3B3" stroke-linecap="round" d="M37.77,96.028c0,0,3.811-6.732,4.826-16.129
		c1.016-9.4,1.524-20.561,1.397-23.554c-0.126-2.992,0.292-5.914,0.02-8.58c-0.274-2.667-0.782-2.032-0.654-5.081
		c0.126-3.048,1.143-9.017,5.715-8.509c4.572,0.508,4.572,5.588,4.953,8.255c0.381,2.668,0.254,3.683,0.762,5.969
		c0.508,2.287,3.175,8.382,3.048,11.304c-0.126,2.92-0.508,18.923,0.89,21.718"/>
	<path fill="#FFFFFF" stroke="#B3B3B3" stroke-width="0.5" stroke-linecap="round" d="M47.721,57.485c0,0,6.415-1.208,9.175,0.293"
		/>
	<path fill="#FFFFFF" stroke="#B3B3B3" stroke-width="0.5" stroke-linecap="round" d="M45.27,35.868c0,0,0.268,2.005,1.284,2.684
		c1.016,0.678,5.218,0.951,5.906-0.015c0.688-0.965,0.254-1.947,0-2.708c-0.254-0.763-1.44-1.356-3.387-1.652
		C47.125,33.879,45.794,35.201,45.27,35.868z"/>
</g>
<g id="_x30_3" style="display: none;">
	<g>
		<defs>
			<path id="SVGID_54_" d="M76.656,92.382c0,3.485-2.22,5.754-5.703,5.683H40.021c-3.483,0.071-5.785-2.197-5.785-5.683V13.074
				c0-3.482,2.302-5.834,5.785-5.834h30.817c3.483,0,5.818,2.352,5.818,5.834V92.382z"/>
		</defs>
		<clipPath id="SVGID_55_">
			<use xlink:href="#SVGID_54_"  overflow="visible"/>
		</clipPath>
		<path opacity="0.3" clip-path="url(#SVGID_55_)" d="M33.829,124.483c0,0-6.351-19.434-6.859-23.243s1.017-7.62,1.524-12.827
			c0.508-5.207,0.787-10.924,1.854-12.193c1.067-1.271,8.199-2.401,12.105-5.08l29.731,7.747c0,0,0.889-1.271,3.811,1.651
			c2.92,2.922,12.319,15.494,12.319,20.32c0,4.319-7.62,14.225-10.923,23.625"/>
		<linearGradient id="SVGID_56_" gradientUnits="userSpaceOnUse" x1="44.4321" y1="99.0781" x2="44.4321" y2="33.6587">
			<stop  offset="0.8" style="stop-color:#000000"/>
			<stop  offset="1" style="stop-color:#E6E6E6"/>
		</linearGradient>
		<path opacity="0.3" clip-path="url(#SVGID_55_)" fill="url(#SVGID_56_)" d="M34.081,99.078c0,0,2.794-4.954,3.938-11.812
			c1.143-6.856,0.224-24.402,0.546-28.891c0.25-3.483,0.702-5.814,1.017-9.157c0.293-3.11,0.48-6.657,1.115-9.451
			s2.795-6.351,5.97-6.097c3.175,0.254,4.598,4.373,4.965,7.33c0.37,2.958-0.785,7.149-0.277,9.688
			c0.508,2.541,0.462,6.061,0.867,8.794c0.635,4.288,1.038,22.195,2.562,24.609"/>
	</g>
	<path fill="#FFFFFF" stroke="#B3B3B3" stroke-linecap="round" d="M36.373,121.049c0,0-6.351-19.433-6.859-23.243
		c-0.507-3.809,1.017-7.619,1.524-12.826c0.508-5.207,0.787-10.924,1.854-12.193c1.067-1.271,8.199-2.402,12.106-5.08l29.73,7.747
		c0,0,0.889-1.271,3.811,1.65c2.92,2.923,12.32,15.495,12.32,20.321c0,4.318-7.62,14.225-10.923,23.624"/>
	<path fill="#FFFFFF" stroke="#B3B3B3" stroke-linecap="round" d="M82.772,88.914c0,0-3.726-4.57-5.334-7.956
		c-1.608-3.388-4.403-10.078-7.451-13.252v9.355"/>
	<path fill="#FFFFFF" stroke="#B3B3B3" stroke-linecap="round" d="M73.459,82.735c0,0-1.017-1.738-1.439-4.426
		s-1.439-14.118-2.54-18.605c-1.101-4.488-2.878-5.165-5.589-5.419c-2.709-0.254-6.096,1.948-7.027,3.726v14.647"/>
	<path fill="#FFFFFF" stroke="#B3B3B3" stroke-width="0.5" stroke-linecap="round" d="M38.023,78.31c0,0,3.458,1.795,4.333,3.787"/>
	<path fill="#FFFFFF" stroke="#B3B3B3" stroke-linecap="round" d="M38.023,96.661c0,0,2.794-4.953,3.938-11.811
		s2.667-26.619,2.159-30.074c-0.508-3.455,0.71-4.947,0.101-8.011s-1.117-6.621-0.482-9.415s2.794-6.351,5.97-6.097
		c3.174,0.254,4.597,4.373,4.965,7.33c0.37,2.958,0.115,7.149,0.623,9.688c0.508,2.541,2.262,6.061,2.667,8.794
		c0.635,4.288-0.762,22.195,0.763,24.608"/>
	<path fill="#FFFFFF" stroke="#B3B3B3" stroke-width="0.5" stroke-linecap="round" d="M47.848,57.23c0,0,7.297-1.332,9.468,0.105"/>
	<path fill="#FFFFFF" stroke="#B3B3B3" stroke-width="0.5" stroke-linecap="round" d="M45.95,32.963
		c-0.694,0.851,0.499,3.202,1.346,3.542c0.846,0.338,4.348,0.592,5.011,0c0.662-0.593,0.928-1.733,0.626-3.11
		c-0.303-1.378-1.476-1.997-3.43-2.153C47.549,31.085,46.507,32.281,45.95,32.963z"/>
</g>
<g id="_x30_2" style="display: none;">
	<g>
		<defs>
			<path id="SVGID_57_" d="M76.656,92.382c0,3.485-2.22,5.754-5.703,5.683H40.021c-3.483,0.071-5.785-2.197-5.785-5.683V13.074
				c0-3.482,2.302-5.834,5.785-5.834h30.817c3.483,0,5.818,2.352,5.818,5.834V92.382z"/>
		</defs>
		<clipPath id="SVGID_58_">
			<use xlink:href="#SVGID_57_"  overflow="visible"/>
		</clipPath>
		<path opacity="0.3" clip-path="url(#SVGID_58_)" d="M33.829,124.483c0,0-6.351-19.434-6.859-23.243s1.017-7.62,1.524-12.827
			c0.508-5.207,0.787-10.924,1.854-12.193c1.067-1.271,8.199-2.401,12.105-5.08l29.731,7.747c0,0,0.889-1.271,3.811,1.651
			c2.92,2.922,12.319,15.494,12.319,20.32c0,4.319-7.62,14.225-10.923,23.625"/>
		<linearGradient id="SVGID_59_" gradientUnits="userSpaceOnUse" x1="42.5874" y1="100.5947" x2="42.5874" y2="34.4727">
			<stop  offset="0.65" style="stop-color:#000000"/>
			<stop  offset="1" style="stop-color:#E6E6E6"/>
		</linearGradient>
		<path opacity="0.3" clip-path="url(#SVGID_58_)" fill="url(#SVGID_59_)" d="M32.173,100.595c1.778-2.158,3.877-6.403,4.954-17.398
			c1.077-10.995,1.524-22.048,1.271-24.741c-0.254-2.693,0.866-6.132,0.75-8.349c-0.116-2.219-1.259-4.035-0.878-6.873
			c0.381-2.839,1.525-8.712,5.715-8.76c4.191-0.047,4.7,3.521,5.334,6.436c0.636,2.915,0.127,8.335,0.636,10.642
			c0.507,2.307,2.249,7.579,2.413,9.196c0.253,2.51-0.89,22.705,0.634,24.99"/>
	</g>
	<path fill="#FFFFFF" stroke="#B3B3B3" stroke-linecap="round" d="M36.119,121.049c0,0-6.731-19.94-6.731-22.989
		c0-3.047,0.762-5.714,1.651-12.445c0.889-6.732,0.636-10.283,1.715-12.064s12.245-5.336,12.245-5.336l29.604,7.239
		c0,0,1.778-1.017,3.557,1.144c1.777,2.158,12.701,16.829,12.701,20.639s-9.11,19.133-10.923,23.813"/>
	<path fill="#FFFFFF" stroke="#B3B3B3" stroke-linecap="round" d="M83.195,89.509c0,0-3.387-3.725-5.334-7.789
		s-6.096-12.449-8.721-13.887l0.339,10.838"/>
	<path fill="#FFFFFF" stroke="#B3B3B3" stroke-linecap="round" d="M73.374,83.667c0,0-0.876-2.006-1.44-5.504
		c-0.563-3.5-1.608-15.581-2.794-19.221c-1.185-3.641-3.218-4.233-5.757-4.402c-2.541-0.17-6.351,2.878-6.858,3.471
		c-0.508,0.593,0,15.834,0,15.834"/>
	<path fill="#FFFFFF" stroke="#B3B3B3" stroke-width="0.5" stroke-linecap="round" d="M39.675,78.671c0,0,2.134,1.404,3.1,2.734"/>
	<path fill="#FFFFFF" stroke="#B3B3B3" stroke-linecap="round" d="M38.023,96.917c1.778-2.158,3.876-6.404,4.953-17.4
		c1.077-10.994,1.524-22.047,1.271-24.74c-0.254-2.693,0.866-6.132,0.751-8.349c-0.116-2.219-1.259-4.035-0.878-6.873
		c0.381-2.838,1.525-8.712,5.716-8.76c4.191-0.047,4.7,3.521,5.334,6.436c0.635,2.915,0.127,8.335,0.635,10.642
		c0.507,2.307,2.249,7.579,2.413,9.196c0.253,2.51-0.889,22.705,0.635,24.99"/>
	<path fill="#FFFFFF" stroke="#B3B3B3" stroke-width="0.5" stroke-linecap="round" d="M46.272,32.858
		c0.214,1.26,1.277,2.376,2.166,2.714c0.889,0.339,4.106,0.508,4.869,0c0.761-0.508,0.875-2.664,0-3.409
		c-0.877-0.745-1.355-1.321-3.472-1.37C47.718,30.747,46.202,32.445,46.272,32.858z"/>
	<path fill="#FFFFFF" stroke="#B3B3B3" stroke-width="0.5" stroke-linecap="round" d="M48.484,56.419c0,0,7.062-1.118,8.971-0.102"
		/>
</g>
<g id="_x30_12" style="display: none;">
	<g>
		<defs>
			<path id="SVGID_60_" d="M76.656,92.382c0,3.485-2.22,5.754-5.703,5.683H40.021c-3.483,0.071-5.785-2.197-5.785-5.683V13.074
				c0-3.482,2.302-5.834,5.785-5.834h30.817c3.483,0,5.818,2.352,5.818,5.834V92.382z"/>
		</defs>
		<clipPath id="SVGID_61_">
			<use xlink:href="#SVGID_60_"  overflow="visible"/>
		</clipPath>
		<path opacity="0.3" clip-path="url(#SVGID_61_)" d="M33.829,124.483c0,0-6.351-19.434-6.859-23.243s1.017-7.62,1.524-12.827
			c0.508-5.207,0.787-10.924,1.854-12.193c1.067-1.271,8.199-2.401,12.105-5.08l29.731,7.747c0,0,0.889-1.271,3.811,1.651
			c2.92,2.922,12.319,15.494,12.319,20.32c0,4.319-7.62,14.225-10.923,23.625"/>
		<linearGradient id="SVGID_62_" gradientUnits="userSpaceOnUse" x1="41.6128" y1="101.5791" x2="41.6128" y2="35.187">
			<stop  offset="0.4956" style="stop-color:#000000"/>
			<stop  offset="1" style="stop-color:#E6E6E6"/>
		</linearGradient>
		<path opacity="0.3" clip-path="url(#SVGID_61_)" fill="url(#SVGID_62_)" d="M31.071,101.579c0,0,2.708-7.025,4.064-13.547
			c1.354-6.52,3.278-21.59,2.867-24.977c-0.412-3.387,0.412-8.373,0.621-10.829c0.209-2.455-0.058-5.434,0.027-9.667
			c0.085-4.234,2.371-7.536,5.418-7.367c3.049,0.17,3.751,1.948,4.796,5.758c1.047,3.81,0.297,7.042,0.636,9.92
			c0.339,2.879,1.654,9,1.975,10.405c0.678,2.963-0.465,24.64,0.678,25.91"/>
	</g>
	<path fill="#FFFFFF" stroke="#B3B3B3" stroke-linecap="round" d="M36.458,121.091c0,0-6.944-19.643-7.283-22.354
		c-0.338-2.709,0.847-6.434,1.778-13.377c0.931-6.945,1.186-10.157,2.371-11.811c1.186-1.652,8.851-3.623,11.674-5.463l29.815,7.537
		c0,0,1.271-0.509,2.541,0.506c1.271,1.018,13.124,16.596,13.462,18.967c0.338,2.371-2.117,8.806-4.318,12.955
		c-2.201,4.148-6.012,12.361-6.012,12.361"/>
	<path fill="#FFFFFF" stroke="#B3B3B3" stroke-linecap="round" d="M82.519,89.001c0,0-4.911-6.266-6.774-11.008
		c-1.863-4.741-6.773-9.906-6.773-9.906l-1.44,9.312"/>
	<path fill="#FFFFFF" stroke="#B3B3B3" stroke-linecap="round" d="M74.56,85.784c0,0-2.033-2.202-2.541-6.097
		c-0.509-3.896-2.118-17.444-2.54-19.729c-0.424-2.286-2.794-5.165-5.589-5.25c-2.794-0.085-7.197,2.879-7.197,2.879v15.495"/>
	<path fill="#FFFFFF" stroke="#B3B3B3" stroke-linecap="round" d="M38.066,97.382c0,0,2.708-7.025,4.064-13.546
		c1.354-6.521,3.278-21.59,2.867-24.978c-0.412-3.387-0.153-8.213,0.056-10.669s-0.553-5.927-0.468-10.16
		c0.085-4.234,2.371-7.536,5.418-7.367c3.049,0.17,3.751,1.948,4.797,5.758c1.047,3.81,0.792,7.535,1.131,10.414
		c0.339,2.879,2.219,8.84,2.54,10.246c0.678,2.963-0.465,24.64,0.678,25.909"/>
	<path fill="#FFFFFF" stroke="#B3B3B3" stroke-width="0.5" stroke-linecap="round" d="M38.998,79.095c0,0,3.081,1.507,3.488,2.912"
		/>
	<path fill="#FFFFFF" stroke="#B3B3B3" stroke-width="0.5" stroke-linecap="round" d="M49.502,57.739c0,0,6.26-0.745,7.953-0.067"/>
	<path fill="#FFFFFF" stroke="#B3B3B3" stroke-width="0.5" stroke-linecap="round" d="M46.353,32.805c0,0,0.299,1.985,1.315,2.493
		c1.016,0.508,1.293,0.68,3.156,0.596c1.863-0.085,2.906-0.284,2.906-1.331s-0.434-3.907-3.688-3.907
		C46.787,30.657,46.353,32.805,46.353,32.805z"/>
</g>
<g id="_x30_11" style="display: none;">
	<g>
		<defs>
			<path id="SVGID_63_" d="M76.656,92.382c0,3.485-2.22,5.754-5.703,5.683H40.021c-3.483,0.071-5.785-2.197-5.785-5.683V13.074
				c0-3.482,2.302-5.834,5.785-5.834h30.817c3.483,0,5.818,2.352,5.818,5.834V92.382z"/>
		</defs>
		<clipPath id="SVGID_64_">
			<use xlink:href="#SVGID_63_"  overflow="visible"/>
		</clipPath>
		<path opacity="0.3" clip-path="url(#SVGID_64_)" d="M33.829,124.483c0,0-6.351-19.434-6.859-23.243s1.017-7.62,1.524-12.827
			c0.508-5.207,0.787-10.924,1.854-12.193c1.067-1.271,8.199-2.401,12.105-5.08l29.731,7.747c0,0,0.889-1.271,3.811,1.651
			c2.92,2.922,12.319,15.494,12.319,20.32c0,4.319-7.62,14.225-10.923,23.625"/>
		<linearGradient id="SVGID_65_" gradientUnits="userSpaceOnUse" x1="41.6128" y1="101.5791" x2="41.6128" y2="35.187">
			<stop  offset="0.4956" style="stop-color:#000000"/>
			<stop  offset="1" style="stop-color:#E6E6E6"/>
		</linearGradient>
		<path opacity="0.3" clip-path="url(#SVGID_64_)" fill="url(#SVGID_65_)" d="M31.071,101.579c0,0,2.708-7.025,4.064-13.547
			c1.354-6.52,3.278-21.59,2.867-24.977c-0.412-3.387,0.412-8.373,0.621-10.829c0.209-2.455-0.058-5.434,0.027-9.667
			c0.085-4.234,2.371-7.536,5.418-7.367c3.049,0.17,3.751,1.948,4.796,5.758c1.047,3.81,0.297,7.042,0.636,9.92
			c0.339,2.879,1.654,9,1.975,10.405c0.678,2.963-0.465,24.64,0.678,25.91"/>
	</g>
	<path fill="#FFFFFF" stroke="#B3B3B3" stroke-linecap="round" d="M36.458,121.091c0,0-6.944-19.643-7.283-22.354
		c-0.338-2.709,0.847-6.434,1.778-13.377c0.931-6.945,1.186-10.157,2.371-11.811c1.186-1.652,8.851-3.623,11.674-5.463l29.815,7.537
		c0,0,1.271-0.509,2.541,0.506c1.271,1.018,13.124,16.596,13.462,18.967c0.338,2.371-2.117,8.806-4.318,12.955
		c-2.201,4.148-6.012,12.361-6.012,12.361"/>
	<path fill="#FFFFFF" stroke="#B3B3B3" stroke-linecap="round" d="M82.519,89.001c0,0-4.911-6.266-6.774-11.008
		c-1.863-4.741-6.773-9.906-6.773-9.906l-1.44,9.312"/>
	<path fill="#FFFFFF" stroke="#B3B3B3" stroke-linecap="round" d="M74.56,85.784c0,0-2.033-2.202-2.541-6.097
		c-0.509-3.896-2.118-17.444-2.54-19.729c-0.424-2.286-2.794-5.165-5.589-5.25c-2.794-0.085-7.197,2.879-7.197,2.879v15.495"/>
	<path fill="#FFFFFF" stroke="#B3B3B3" stroke-linecap="round" d="M38.066,97.382c0,0,2.708-7.025,4.064-13.546
		c1.354-6.521,3.278-21.59,2.867-24.978c-0.412-3.387-0.153-8.213,0.056-10.669s-0.553-5.927-0.468-10.16
		c0.085-4.234,2.371-7.536,5.418-7.367c3.049,0.17,3.751,1.948,4.797,5.758c1.047,3.81,0.792,7.535,1.131,10.414
		c0.339,2.879,2.219,8.84,2.54,10.246c0.678,2.963-0.465,24.64,0.678,25.909"/>
	<path fill="#FFFFFF" stroke="#B3B3B3" stroke-width="0.5" stroke-linecap="round" d="M38.998,79.095c0,0,3.081,1.507,3.488,2.912"
		/>
	<path fill="#FFFFFF" stroke="#B3B3B3" stroke-width="0.5" stroke-linecap="round" d="M49.502,57.739c0,0,6.26-0.745,7.953-0.067"/>
	<path fill="#FFFFFF" stroke="#B3B3B3" stroke-width="0.5" stroke-linecap="round" d="M46.353,32.805c0,0,0.299,1.985,1.315,2.493
		c1.016,0.508,1.293,0.68,3.156,0.596c1.863-0.085,2.906-0.284,2.906-1.331s-0.434-3.907-3.688-3.907
		C46.787,30.657,46.353,32.805,46.353,32.805z"/>
</g>
<g id="_x30_1">
	<g>
		<defs>
			<path id="SVGID_66_" d="M76.656,92.382c0,3.485-2.22,5.754-5.703,5.683H40.021c-3.483,0.071-5.785-2.197-5.785-5.683V13.074
				c0-3.482,2.302-5.834,5.785-5.834h30.817c3.483,0,5.818,2.352,5.818,5.834V92.382z"/>
		</defs>
		<clipPath id="SVGID_67_">
			<use xlink:href="#SVGID_66_"  overflow="visible"/>
		</clipPath>
		<path opacity="0.3" clip-path="url(#SVGID_67_)" d="M33.829,124.483c0,0-6.351-19.434-6.859-23.243s1.017-7.62,1.524-12.827
			c0.508-5.207,0.787-10.924,1.854-12.193c1.067-1.271,8.199-2.401,12.105-5.08l29.731,7.747c0,0,0.889-1.271,3.811,1.651
			c2.92,2.922,12.319,15.494,12.319,20.32c0,4.319-7.62,14.225-10.923,23.625"/>
		<linearGradient id="SVGID_68_" gradientUnits="userSpaceOnUse" x1="41.6128" y1="101.5791" x2="41.6128" y2="35.187">
			<stop  offset="0.4956" style="stop-color:#000000"/>
			<stop  offset="1" style="stop-color:#E6E6E6"/>
		</linearGradient>
		<path opacity="0.3" clip-path="url(#SVGID_67_)" fill="url(#SVGID_68_)" d="M31.071,101.579c0,0,2.708-7.025,4.064-13.547
			c1.354-6.52,3.278-21.59,2.867-24.977c-0.412-3.387,0.412-8.373,0.621-10.829c0.209-2.455-0.058-5.434,0.027-9.667
			c0.085-4.234,2.371-7.536,5.418-7.367c3.049,0.17,3.751,1.948,4.796,5.758c1.047,3.81,0.297,7.042,0.636,9.92
			c0.339,2.879,1.654,9,1.975,10.405c0.678,2.963-0.465,24.64,0.678,25.91"/>
	</g>
	<path fill="#FFFFFF" stroke="#B3B3B3" stroke-linecap="round" d="M36.458,121.091c0,0-6.944-19.643-7.283-22.354
		c-0.338-2.709,0.847-6.434,1.778-13.377c0.931-6.945,1.186-10.157,2.371-11.811c1.186-1.652,8.851-3.623,11.674-5.463l29.815,7.537
		c0,0,1.271-0.509,2.541,0.506c1.271,1.018,13.124,16.596,13.462,18.967c0.338,2.371-2.117,8.806-4.318,12.955
		c-2.201,4.148-6.012,12.361-6.012,12.361"/>
	<path fill="#FFFFFF" stroke="#B3B3B3" stroke-linecap="round" d="M82.519,89.001c0,0-4.911-6.266-6.774-11.008
		c-1.863-4.741-6.773-9.906-6.773-9.906l-1.44,9.312"/>
	<path fill="#FFFFFF" stroke="#B3B3B3" stroke-linecap="round" d="M74.56,85.784c0,0-2.033-2.202-2.541-6.097
		c-0.509-3.896-2.118-17.444-2.54-19.729c-0.424-2.286-2.794-5.165-5.589-5.25c-2.794-0.085-7.197,2.879-7.197,2.879v15.495"/>
	<path fill="#FFFFFF" stroke="#B3B3B3" stroke-linecap="round" d="M38.066,97.382c0,0,2.708-7.025,4.064-13.546
		c1.354-6.521,3.278-21.59,2.867-24.978c-0.412-3.387-0.153-8.213,0.056-10.669s-0.553-5.927-0.468-10.16
		c0.085-4.234,2.371-7.536,5.418-7.367c3.049,0.17,3.751,1.948,4.797,5.758c1.047,3.81,0.792,7.535,1.131,10.414
		c0.339,2.879,2.219,8.84,2.54,10.246c0.678,2.963-0.465,24.64,0.678,25.909"/>
	<path fill="#FFFFFF" stroke="#B3B3B3" stroke-width="0.5" stroke-linecap="round" d="M38.998,79.095c0,0,3.081,1.507,3.488,2.912"
		/>
	<path fill="#FFFFFF" stroke="#B3B3B3" stroke-width="0.5" stroke-linecap="round" d="M49.502,57.739c0,0,6.26-0.745,7.953-0.067"/>
	<path fill="#FFFFFF" stroke="#B3B3B3" stroke-width="0.5" stroke-linecap="round" d="M46.353,32.805c0,0,0.299,1.985,1.315,2.493
		c1.016,0.508,1.293,0.68,3.156,0.596c1.863-0.085,2.906-0.284,2.906-1.331s-0.434-3.907-3.688-3.907
		C46.787,30.657,46.353,32.805,46.353,32.805z"/>
</g>
</svg>
