<svg xmlns="http://www.w3.org/2000/svg" xmlns:xlink="http://www.w3.org/1999/xlink" version="1.1" id="Layer_1" x="0px" y="0px" width="128px" height="128px" viewBox="0 0 128 128" enable-background="new 0 0 128 128" xml:space="preserve" xmlns:xml="http://www.w3.org/XML/1998/namespace">
<g id="phone">
	<g>
		<rect x="1.5" y="1.5" fill="#FFFFFF" width="125" height="125"/>
		<path fill="#808080" d="M126,2v124H2V2H126 M127,1H1v126h126V1L127,1z"/>
	</g>
	<g>
		<path fill="#E6E6E6" stroke="#B3B3B3" stroke-miterlimit="10" d="M76.656,92.382c0,3.485-2.221,5.754-5.703,5.683H40.021    c-3.483,0.071-5.785-2.196-5.785-5.683V13.074c0-3.482,2.302-5.834,5.785-5.834h30.817c3.482,0,5.818,2.352,5.818,5.834V92.382z"/>
		
			<rect x="36.767" y="19.85" fill="#FFFFFF" stroke="#B3B3B3" stroke-width="0.5" stroke-miterlimit="10" width="37.356" height="65.786"/>
	</g>
</g>
<g id="_x30_11_copy" style="display: none;">
	<g>
		<g>
			<defs>
				<path id="SVGID_1_" d="M76.656,92.382c0,3.485-2.221,5.754-5.703,5.683H40.021c-3.483,0.071-5.785-2.196-5.785-5.683V13.074      c0-3.482,2.302-5.834,5.785-5.834h30.817c3.482,0,5.818,2.352,5.818,5.834V92.382z"/>
			</defs>
			<clipPath id="SVGID_2_">
				<use xlink:href="#SVGID_1_" overflow="visible"/>
			</clipPath>
			<path opacity="0.3" clip-path="url(#SVGID_2_)" enable-background="new    " d="M44.629,124.482c0,0-6.351-19.434-6.859-23.242     c-0.507-3.811,1.017-7.62,1.524-12.827c0.509-5.207,0.787-10.924,1.854-12.192c1.067-1.271,8.2-2.402,12.106-5.08l29.73,7.746     c0,0,0.889-1.271,3.811,1.651c2.92,2.922,12.32,15.494,12.32,20.319c0,4.319-7.62,14.226-10.924,23.625"/>
		</g>
		<g>
			<defs>
				<path id="SVGID_3_" d="M76.656,92.382c0,3.485-2.221,5.754-5.703,5.683H40.021c-3.483,0.071-5.785-2.196-5.785-5.683V13.074      c0-3.482,2.302-5.834,5.785-5.834h30.817c3.482,0,5.818,2.352,5.818,5.834V92.382z"/>
			</defs>
			<clipPath id="SVGID_4_">
				<use xlink:href="#SVGID_3_" overflow="visible"/>
			</clipPath>
			
				<linearGradient id="SVGID_5_" gradientUnits="userSpaceOnUse" x1="52.4116" y1="27.4214" x2="52.4116" y2="93.814" gradientTransform="matrix(1 0 0 -1 0 129)">
				<stop offset="0.4956" style="stop-color:#000000"/>
				<stop offset="1" style="stop-color:#E6E6E6"/>
			</linearGradient>
			<path opacity="0.3" clip-path="url(#SVGID_4_)" fill="url(#SVGID_5_)" enable-background="new    " d="M41.871,101.579     c0,0,2.709-7.024,4.064-13.547c1.354-6.521,3.278-21.591,2.867-24.977c-0.412-3.387,0.412-8.373,0.621-10.829     c0.21-2.455-0.057-5.434,0.027-9.667c0.085-4.234,2.371-7.536,5.418-7.367c3.049,0.17,3.751,1.948,4.797,5.758     c1.047,3.81,0.297,7.042,0.636,9.92c0.339,2.879,1.654,9,1.975,10.405c0.677,2.963-0.465,24.64,0.677,25.911"/>
		</g>
	</g>
	<path fill="#FFFFFF" stroke="#B3B3B3" stroke-linecap="round" d="M47.258,121.091c0,0-6.944-19.643-7.283-22.354   c-0.338-2.709,0.847-6.434,1.779-13.377c0.931-6.944,1.185-10.156,2.37-11.811c1.186-1.652,8.851-3.623,11.674-5.463l29.815,7.537   c0,0,1.271-0.509,2.541,0.506c1.271,1.018,13.123,16.596,13.463,18.967c0.338,2.371-2.118,8.807-4.318,12.955   c-2.201,4.148-6.012,12.361-6.012,12.361"/>
	<path fill="#FFFFFF" stroke="#B3B3B3" stroke-linecap="round" d="M93.318,89.001c0,0-4.911-6.267-6.773-11.008   c-1.863-4.741-6.773-9.906-6.773-9.906l-1.439,9.312"/>
	<path fill="#FFFFFF" stroke="#B3B3B3" stroke-linecap="round" d="M85.359,85.784c0,0-2.032-2.202-2.541-6.097   c-0.508-3.896-2.116-17.444-2.539-19.729c-0.424-2.286-2.795-5.165-5.588-5.25c-2.795-0.085-7.197,2.879-7.197,2.879v15.495"/>
	<path fill="#FFFFFF" stroke="#B3B3B3" stroke-linecap="round" d="M48.866,97.382c0,0,2.709-7.024,4.064-13.546   c1.354-6.521,3.278-21.59,2.867-24.978c-0.412-3.387-0.153-8.213,0.056-10.669s-0.553-5.927-0.468-10.16   c0.084-4.234,2.371-7.536,5.418-7.367c3.049,0.17,3.751,1.948,4.796,5.758c1.047,3.81,0.791,7.535,1.131,10.414   c0.338,2.879,2.219,8.84,2.539,10.246c0.679,2.963-0.465,24.641,0.679,25.909"/>
	<path fill="#FFFFFF" stroke="#B3B3B3" stroke-width="0.5" stroke-linecap="round" d="M49.797,79.095c0,0,3.081,1.507,3.489,2.912"/>
	<path fill="#FFFFFF" stroke="#B3B3B3" stroke-width="0.5" stroke-linecap="round" d="M57.153,32.805c0,0,0.299,1.985,1.314,2.493   c1.016,0.508,1.293,0.68,3.156,0.596c1.863-0.085,2.906-0.284,2.906-1.331s-0.434-3.907-3.688-3.907   C57.587,30.657,57.153,32.805,57.153,32.805z"/>
	<path fill="#FFFFFF" stroke="#B3B3B3" stroke-width="0.5" stroke-linecap="round" d="M60.302,57.739c0,0,6.261-0.745,7.953-0.067"/>
</g>
<g id="_x30_1_copy_1_" style="display: none;">
	<g display="inline">
		<g>
			<defs>
				<path id="SVGID_6_" d="M76.656,92.382c0,3.485-2.221,5.754-5.703,5.683H40.021c-3.483,0.071-5.785-2.196-5.785-5.683V13.074      c0-3.482,2.302-5.834,5.785-5.834h30.817c3.482,0,5.818,2.352,5.818,5.834V92.382z"/>
			</defs>
			<clipPath id="SVGID_7_">
				<use xlink:href="#SVGID_6_" overflow="visible"/>
			</clipPath>
			<path opacity="0.3" clip-path="url(#SVGID_7_)" enable-background="new    " d="M44.629,124.482c0,0-6.351-19.434-6.859-23.242     c-0.507-3.811,1.017-7.62,1.524-12.827c0.509-5.207,0.787-10.924,1.854-12.192c1.067-1.271,8.2-2.402,12.106-5.08l29.73,7.746     c0,0,0.889-1.271,3.811,1.651c2.92,2.922,12.32,15.494,12.32,20.319c0,4.319-7.62,14.226-10.924,23.625"/>
		</g>
		<g>
			<defs>
				<path id="SVGID_8_" d="M76.656,92.382c0,3.485-2.221,5.754-5.703,5.683H40.021c-3.483,0.071-5.785-2.196-5.785-5.683V13.074      c0-3.482,2.302-5.834,5.785-5.834h30.817c3.482,0,5.818,2.352,5.818,5.834V92.382z"/>
			</defs>
			<clipPath id="SVGID_9_">
				<use xlink:href="#SVGID_8_" overflow="visible"/>
			</clipPath>
			
				<linearGradient id="SVGID_10_" gradientUnits="userSpaceOnUse" x1="52.4116" y1="27.4214" x2="52.4116" y2="93.814" gradientTransform="matrix(1 0 0 -1 0 129)">
				<stop offset="0.4956" style="stop-color:#000000"/>
				<stop offset="1" style="stop-color:#E6E6E6"/>
			</linearGradient>
			<path opacity="0.3" clip-path="url(#SVGID_9_)" fill="url(#SVGID_10_)" enable-background="new    " d="M41.871,101.579     c0,0,2.709-7.024,4.064-13.547c1.354-6.521,3.278-21.591,2.867-24.977c-0.412-3.387,0.412-8.373,0.621-10.829     c0.21-2.455-0.057-5.434,0.027-9.667c0.085-4.234,2.371-7.536,5.418-7.367c3.049,0.17,3.751,1.948,4.797,5.758     c1.047,3.81,0.297,7.042,0.636,9.92c0.339,2.879,1.654,9,1.975,10.405c0.677,2.963-0.465,24.64,0.677,25.911"/>
		</g>
	</g>
	<g display="inline" opacity="0.1">
		<path fill="#80AADA" d="M59.708,28.987c4.841,0,8.78,3.938,8.78,8.78c0,4.842-3.938,8.78-8.78,8.78s-8.78-3.938-8.78-8.78    C50.928,32.925,54.866,28.987,59.708,28.987 M59.708,26.987c-5.955,0-10.78,4.827-10.78,10.78c0,5.953,4.826,10.78,10.78,10.78    c5.953,0,10.78-4.827,10.78-10.78C70.486,31.814,65.66,26.987,59.708,26.987L59.708,26.987z"/>
	</g>
	<path display="inline" fill="#FFFFFF" stroke="#B3B3B3" stroke-linecap="round" d="M47.258,121.091c0,0-6.944-19.643-7.283-22.354   c-0.338-2.709,0.847-6.434,1.779-13.377c0.931-6.944,1.185-10.156,2.37-11.811c1.186-1.652,8.851-3.623,11.674-5.463l29.815,7.537   c0,0,1.271-0.509,2.541,0.506c1.271,1.018,13.123,16.596,13.463,18.967c0.338,2.371-2.118,8.807-4.318,12.955   c-2.201,4.148-6.012,12.361-6.012,12.361"/>
	<path display="inline" fill="#FFFFFF" stroke="#B3B3B3" stroke-linecap="round" d="M93.318,89.001c0,0-4.911-6.267-6.773-11.008   c-1.863-4.741-6.773-9.906-6.773-9.906l-1.439,9.312"/>
	<path display="inline" fill="#FFFFFF" stroke="#B3B3B3" stroke-linecap="round" d="M85.359,85.784c0,0-2.032-2.202-2.541-6.097   c-0.508-3.896-2.116-17.444-2.539-19.729c-0.424-2.286-2.795-5.165-5.588-5.25c-2.795-0.085-7.197,2.879-7.197,2.879v15.495"/>
	<path display="inline" fill="#FFFFFF" stroke="#B3B3B3" stroke-linecap="round" d="M48.866,97.382c0,0,2.709-7.024,4.064-13.546   c1.354-6.521,3.278-21.59,2.867-24.978c-0.412-3.387-0.153-8.213,0.056-10.669s-0.553-5.927-0.468-10.16   c0.084-4.234,2.371-7.536,5.418-7.367c3.049,0.17,3.751,1.948,4.796,5.758c1.047,3.81,0.791,7.535,1.131,10.414   c0.338,2.879,2.219,8.84,2.539,10.246c0.679,2.963-0.465,24.641,0.679,25.909"/>
	<path display="inline" fill="#FFFFFF" stroke="#B3B3B3" stroke-width="0.5" stroke-linecap="round" d="M49.797,79.095   c0,0,3.081,1.507,3.489,2.912"/>
	<path display="inline" fill="#FFFFFF" stroke="#B3B3B3" stroke-width="0.5" stroke-linecap="round" d="M57.153,32.805   c0,0,0.299,1.985,1.314,2.493c1.016,0.508,1.293,0.68,3.156,0.596c1.863-0.085,2.906-0.284,2.906-1.331s-0.434-3.907-3.688-3.907   C57.587,30.657,57.153,32.805,57.153,32.805z"/>
	<path display="inline" fill="#FFFFFF" stroke="#B3B3B3" stroke-width="0.5" stroke-linecap="round" d="M60.302,57.739   c0,0,6.261-0.745,7.953-0.067"/>
</g>
<g id="_x30_2_copy_1_" style="display: none;">
	<g display="inline">
		<g>
			<defs>
				<path id="SVGID_11_" d="M76.656,92.382c0,3.485-2.221,5.754-5.703,5.683H40.021c-3.483,0.071-5.785-2.196-5.785-5.683V13.074      c0-3.482,2.302-5.834,5.785-5.834h30.817c3.482,0,5.818,2.352,5.818,5.834V92.382z"/>
			</defs>
			<clipPath id="SVGID_12_">
				<use xlink:href="#SVGID_11_" overflow="visible"/>
			</clipPath>
			<path opacity="0.3" clip-path="url(#SVGID_12_)" enable-background="new    " d="M44.629,124.482c0,0-6.351-19.434-6.859-23.242     c-0.507-3.811,1.017-7.62,1.524-12.827c0.509-5.207,0.787-10.924,1.854-12.192c1.067-1.271,8.2-2.402,12.106-5.08l29.73,7.746     c0,0,0.889-1.271,3.811,1.651c2.92,2.922,12.32,15.494,12.32,20.319c0,4.319-7.62,14.226-10.924,23.625"/>
		</g>
		<g>
			<defs>
				<path id="SVGID_13_" d="M76.656,92.382c0,3.485-2.221,5.754-5.703,5.683H40.021c-3.483,0.071-5.785-2.196-5.785-5.683V13.074      c0-3.482,2.302-5.834,5.785-5.834h30.817c3.482,0,5.818,2.352,5.818,5.834V92.382z"/>
			</defs>
			<clipPath id="SVGID_14_">
				<use xlink:href="#SVGID_13_" overflow="visible"/>
			</clipPath>
			
				<linearGradient id="SVGID_15_" gradientUnits="userSpaceOnUse" x1="53.3877" y1="28.4058" x2="53.3877" y2="94.5259" gradientTransform="matrix(1 0 0 -1 0 129)">
				<stop offset="0.65" style="stop-color:#000000"/>
				<stop offset="1" style="stop-color:#E6E6E6"/>
			</linearGradient>
			<path opacity="0.3" clip-path="url(#SVGID_14_)" fill="url(#SVGID_15_)" enable-background="new    " d="M42.973,100.595     c1.779-2.157,3.877-6.403,4.954-17.397c1.077-10.995,1.524-22.048,1.271-24.741c-0.254-2.693,0.866-6.132,0.75-8.349     c-0.116-2.219-1.259-4.035-0.878-6.873c0.381-2.839,1.525-8.712,5.715-8.76c4.191-0.047,4.7,3.521,5.335,6.436     c0.635,2.915,0.127,8.335,0.635,10.642c0.507,2.307,2.249,7.579,2.413,9.196c0.253,2.51-0.89,22.705,0.635,24.99"/>
		</g>
	</g>
	<g display="inline" opacity="0.2">
		<path fill="#80AADA" d="M59.708,29.438c4.593,0,8.33,3.737,8.33,8.33c0,4.593-3.737,8.33-8.33,8.33s-8.33-3.737-8.33-8.33    C51.377,33.174,55.114,29.438,59.708,29.438 M59.708,27.438c-5.706,0-10.33,4.625-10.33,10.33s4.625,10.33,10.33,10.33    c5.704,0,10.33-4.626,10.33-10.33S65.412,27.438,59.708,27.438L59.708,27.438z"/>
	</g>
	<path display="inline" fill="#FFFFFF" stroke="#B3B3B3" stroke-linecap="round" d="M46.918,121.049c0,0-6.731-19.939-6.731-22.988   c0-3.047,0.762-5.715,1.651-12.445c0.889-6.732,0.635-10.283,1.714-12.064c1.08-1.781,12.245-5.336,12.245-5.336L85.4,75.454   c0,0,1.779-1.017,3.558,1.144c1.778,2.158,12.701,16.829,12.701,20.639c0,3.811-9.11,19.134-10.923,23.813"/>
	<path display="inline" fill="#FFFFFF" stroke="#B3B3B3" stroke-linecap="round" d="M93.996,89.509c0,0-3.387-3.725-5.334-7.789   c-1.947-4.063-6.098-12.448-8.723-13.887l0.34,10.838"/>
	<path display="inline" fill="#FFFFFF" stroke="#B3B3B3" stroke-linecap="round" d="M84.174,83.667c0,0-0.876-2.006-1.439-5.504   c-0.562-3.5-1.608-15.581-2.795-19.221c-1.185-3.641-3.217-4.233-5.756-4.402c-2.541-0.17-6.352,2.878-6.858,3.471   c-0.509,0.593,0,15.834,0,15.834"/>
	<path display="inline" fill="#FFFFFF" stroke="#B3B3B3" stroke-width="0.5" stroke-linecap="round" d="M50.475,78.671   c0,0,2.135,1.404,3.1,2.734"/>
	<path display="inline" fill="#FFFFFF" stroke="#B3B3B3" stroke-linecap="round" d="M48.823,96.917   c1.778-2.158,3.877-6.403,4.954-17.399c1.077-10.994,1.524-22.048,1.271-24.741c-0.254-2.693,0.866-6.132,0.75-8.349   c-0.116-2.219-1.259-4.035-0.878-6.873c0.381-2.838,1.525-8.712,5.715-8.76c4.191-0.047,4.7,3.521,5.334,6.436   c0.637,2.915,0.127,8.335,0.637,10.642c0.506,2.307,2.248,7.579,2.412,9.196c0.254,2.51-0.89,22.705,0.635,24.99"/>
	<path display="inline" fill="#FFFFFF" stroke="#B3B3B3" stroke-width="0.5" stroke-linecap="round" d="M57.072,32.858   c0.214,1.26,1.277,2.376,2.166,2.714c0.889,0.339,4.107,0.508,4.869,0c0.762-0.508,0.875-2.664,0-3.409   c-0.876-0.745-1.355-1.321-3.472-1.37C58.518,30.747,57.002,32.445,57.072,32.858z"/>
	<path display="inline" fill="#FFFFFF" stroke="#B3B3B3" stroke-width="0.5" stroke-linecap="round" d="M59.284,56.419   c0,0,7.062-1.118,8.971-0.102"/>
</g>
<g id="_x30_3_copy_1_" style="display: none;">
	<g display="inline">
		<g>
			<defs>
				<path id="SVGID_16_" d="M76.656,92.382c0,3.485-2.221,5.754-5.703,5.683H40.021c-3.483,0.071-5.785-2.196-5.785-5.683V13.074      c0-3.482,2.302-5.834,5.785-5.834h30.817c3.482,0,5.818,2.352,5.818,5.834V92.382z"/>
			</defs>
			<clipPath id="SVGID_17_">
				<use xlink:href="#SVGID_16_" overflow="visible"/>
			</clipPath>
			<path opacity="0.3" clip-path="url(#SVGID_17_)" enable-background="new    " d="M44.629,124.482c0,0-6.351-19.434-6.859-23.242     c-0.507-3.811,1.017-7.62,1.524-12.827c0.509-5.207,0.787-10.924,1.854-12.192c1.067-1.271,8.2-2.402,12.106-5.08l29.73,7.746     c0,0,0.889-1.271,3.811,1.651c2.92,2.922,12.32,15.494,12.32,20.319c0,4.319-7.62,14.226-10.924,23.625"/>
		</g>
		<g>
			<defs>
				<path id="SVGID_18_" d="M76.656,92.382c0,3.485-2.221,5.754-5.703,5.683H40.021c-3.483,0.071-5.785-2.196-5.785-5.683V13.074      c0-3.482,2.302-5.834,5.785-5.834h30.817c3.482,0,5.818,2.352,5.818,5.834V92.382z"/>
			</defs>
			<clipPath id="SVGID_19_">
				<use xlink:href="#SVGID_18_" overflow="visible"/>
			</clipPath>
			
				<linearGradient id="SVGID_20_" gradientUnits="userSpaceOnUse" x1="55.2319" y1="29.9224" x2="55.2319" y2="95.3433" gradientTransform="matrix(1 0 0 -1 0 129)">
				<stop offset="0.8" style="stop-color:#000000"/>
				<stop offset="1" style="stop-color:#E6E6E6"/>
			</linearGradient>
			<path opacity="0.3" clip-path="url(#SVGID_19_)" fill="url(#SVGID_20_)" enable-background="new    " d="M44.88,99.078     c0,0,2.794-4.954,3.938-11.812c1.143-6.855,0.224-24.401,0.546-28.891c0.25-3.483,0.702-5.814,1.018-9.157     c0.293-3.11,0.479-6.657,1.115-9.451c0.634-2.794,2.794-6.351,5.969-6.097c3.175,0.254,4.598,4.373,4.966,7.33     c0.369,2.958-0.786,7.149-0.277,9.688c0.508,2.541,0.461,6.061,0.867,8.794c0.636,4.288,1.038,22.195,2.562,24.609"/>
		</g>
	</g>
	<g display="inline" opacity="0.4">
		<path fill="#80AADA" d="M59.708,30.225c4.159,0,7.542,3.383,7.542,7.542c0,4.159-3.384,7.542-7.542,7.542    s-7.542-3.384-7.542-7.542C52.166,33.609,55.549,30.225,59.708,30.225 M59.708,28.225c-5.271,0-9.542,4.273-9.542,9.542    s4.272,9.542,9.542,9.542c5.269,0,9.542-4.273,9.542-9.542S64.977,28.225,59.708,28.225L59.708,28.225z"/>
	</g>
	<path display="inline" fill="#FFFFFF" stroke="#B3B3B3" stroke-linecap="round" d="M47.173,121.049c0,0-6.351-19.433-6.859-23.242   c-0.507-3.81,1.017-7.619,1.525-12.826c0.508-5.207,0.787-10.924,1.854-12.193c1.067-1.271,8.199-2.402,12.105-5.08l29.731,7.747   c0,0,0.889-1.271,3.81,1.649c2.92,2.924,12.32,15.496,12.32,20.321c0,4.318-7.62,14.226-10.923,23.624"/>
	<path display="inline" fill="#FFFFFF" stroke="#B3B3B3" stroke-linecap="round" d="M93.572,88.914c0,0-3.727-4.57-5.334-7.956   c-1.608-3.388-4.402-10.078-7.451-13.252v9.354"/>
	<path display="inline" fill="#FFFFFF" stroke="#B3B3B3" stroke-linecap="round" d="M84.259,82.734c0,0-1.016-1.737-1.438-4.426   c-0.424-2.688-1.439-14.118-2.541-18.604c-1.1-4.488-2.877-5.165-5.588-5.419c-2.709-0.254-6.096,1.948-7.026,3.726v14.647"/>
	<path display="inline" fill="#FFFFFF" stroke="#B3B3B3" stroke-width="0.5" stroke-linecap="round" d="M48.823,78.311   c0,0,3.458,1.795,4.333,3.787"/>
	<path display="inline" fill="#FFFFFF" stroke="#B3B3B3" stroke-linecap="round" d="M48.823,96.661c0,0,2.794-4.953,3.938-11.812   c1.144-6.857,2.667-26.619,2.159-30.074c-0.508-3.455,0.709-4.947,0.101-8.011c-0.609-3.064-1.117-6.621-0.482-9.415   c0.635-2.794,2.795-6.351,5.97-6.097c3.175,0.254,4.599,4.373,4.966,7.33c0.369,2.958,0.114,7.149,0.623,9.688   c0.508,2.541,2.262,6.061,2.666,8.794c0.637,4.288-0.762,22.195,0.764,24.608"/>
	<path display="inline" fill="#FFFFFF" stroke="#B3B3B3" stroke-width="0.5" stroke-linecap="round" d="M58.648,57.23   c0,0,7.297-1.332,9.469,0.105"/>
	<path display="inline" fill="#FFFFFF" stroke="#B3B3B3" stroke-width="0.5" stroke-linecap="round" d="M56.75,32.963   c-0.694,0.851,0.499,3.202,1.346,3.542c0.847,0.338,4.348,0.592,5.011,0c0.662-0.593,0.929-1.733,0.626-3.11   c-0.303-1.378-1.476-1.997-3.429-2.153C58.349,31.085,57.307,32.281,56.75,32.963z"/>
</g>
<g id="_x30_4_copy_1_" style="display: none;">
	
		<linearGradient id="SVGID_21_" gradientUnits="userSpaceOnUse" x1="57.1489" y1="30.9346" x2="57.1489" y2="94.8726" gradientTransform="matrix(1 0 0 -1 0 129)">
		<stop offset="0.8259" style="stop-color:#000000"/>
		<stop offset="1" style="stop-color:#FFFFFF"/>
	</linearGradient>
	<path display="inline" opacity="0.3" fill="url(#SVGID_21_)" enable-background="new    " d="M37.642,97.693   c0.707,0.26,1.505,0.389,2.378,0.371h30.933c3.482,0.07,5.703-2.197,5.703-5.684v-8.704c-0.012,0.001-0.022,0-0.033,0.001   c-1.378-2.464-2.9-4.896-4.314-6.549c-0.439-3.913-0.881-8.04-1.24-9.568c-0.508-2.16-2.159-5.477-5.842-5.469   c-2.627,0.005-4.028,1.175-5.501,3.284c-0.072-0.841-0.141-1.499-0.203-1.891c-0.381-2.413,0.149-6.256-0.274-9.644   c-0.423-3.386,4.977-12.681,4.045-15.56c-0.346-1.07-0.775-1.905-1.259-2.538c-0.001-0.002-0.002-0.004-0.004-0.006l-0.001-0.001   c-0.009-0.012-0.019-0.022-0.028-0.034c-0.667-0.732-0.673-1.576-2.771-1.568c-0.318-0.017-0.68-0.002-1.061,0.061   c-1.15,0.137-1.978,0.513-2.362,1.163c-0.734,0.697-1.89,1.87-2.558,3.348c-1.609,3.562-1.975,3.772-3.12,10.258   c-0.584,3.311-1.103,8.46-1.112,12.016c-0.006,2.359,0.027,5.442-0.22,10.874c-3.592,1.761-5.339,2.481-7.117,3.814   c-2.032,1.525-2.286,6.73-2.667,12.573C38.747,92.294,37.994,95.247,37.642,97.693z"/>
	<g display="inline" opacity="0.6">
		<path fill="#80AADA" d="M59.708,31.012c3.725,0,6.755,3.03,6.755,6.755s-3.03,6.755-6.755,6.755s-6.755-3.03-6.755-6.755    S55.983,31.012,59.708,31.012 M59.708,29.012c-4.835,0-8.755,3.92-8.755,8.755s3.919,8.755,8.755,8.755    c4.834,0,8.755-3.92,8.755-8.755S64.542,29.012,59.708,29.012L59.708,29.012z"/>
	</g>
	<path display="inline" fill="#FFFFFF" stroke="#B3B3B3" stroke-linecap="round" d="M47.173,121.049c0,0-2.541-7.622-3.683-11.431   c-1.143-3.812-3.048-9.527-3.176-11.685c-0.126-2.16,1.271-7.113,1.779-12.319c0.507-5.208,1.016-11.812,2.54-13.209   c1.524-1.396,7.471-1.906,11.166-4.572l29.985,7.493c0,0,1.905-2.159,7.366,6.222c5.461,8.384,8.51,10.925,8.51,14.733   s-9.398,20.32-10.924,24.768"/>
	<path display="inline" fill="#FFFFFF" stroke="#B3B3B3" stroke-linecap="round" d="M94.165,88.577c0,0-2.878-2.371-4.401-5.336   c-1.525-2.964-6.267-13.038-9.062-15.408v7.959"/>
	<path display="inline" fill="#FFFFFF" stroke="#B3B3B3" stroke-linecap="round" d="M84.344,82.564c0,0-1.439-1.947-1.777-5.504   c-0.34-3.555-1.018-13.97-1.863-17.188s-2.455-6.096-5.758-6.096s-6.436,1.947-8.045,5.419V72.49"/>
	<path display="inline" fill="#FFFFFF" stroke="#B3B3B3" stroke-width="0.5" stroke-linecap="round" d="M50.051,78.204   c0,0,1.867,1.881,3.178,3.037"/>
	<path display="inline" fill="#FFFFFF" stroke="#B3B3B3" stroke-linecap="round" d="M48.57,96.027c0,0,3.811-6.731,4.826-16.129   c1.016-9.399,1.524-20.561,1.397-23.554c-0.127-2.992,0.292-5.914,0.02-8.58c-0.274-2.667-0.782-2.032-0.654-5.081   c0.126-3.048,1.143-9.017,5.715-8.509c4.572,0.508,4.572,5.588,4.953,8.255c0.381,2.668,0.254,3.683,0.762,5.969   c0.509,2.287,3.175,8.382,3.048,11.304c-0.125,2.92-0.508,18.923,0.891,21.718"/>
	<path display="inline" fill="#FFFFFF" stroke="#B3B3B3" stroke-width="0.5" stroke-linecap="round" d="M58.521,57.485   c0,0,6.415-1.208,9.174,0.293"/>
	<path display="inline" fill="#FFFFFF" stroke="#B3B3B3" stroke-width="0.5" stroke-linecap="round" d="M56.07,35.868   c0,0,0.268,2.005,1.285,2.684c1.016,0.678,5.217,0.951,5.906-0.015c0.688-0.965,0.254-1.947,0-2.708   c-0.254-0.763-1.44-1.356-3.387-1.652C57.926,33.879,56.594,35.201,56.07,35.868z"/>
</g>
<g id="_x30_5_copy_1_" style="display: none;">
	
		<linearGradient id="SVGID_22_" gradientUnits="userSpaceOnUse" x1="57.1489" y1="30.9346" x2="57.1489" y2="94.8726" gradientTransform="matrix(1 0 0 -1 0 129)">
		<stop offset="0.75" style="stop-color:#000000"/>
		<stop offset="1" style="stop-color:#231F20"/>
	</linearGradient>
	<path display="inline" opacity="0.3" fill="url(#SVGID_22_)" enable-background="new    " d="M37.642,97.693   c0.707,0.26,1.505,0.389,2.378,0.371h30.933c3.482,0.07,5.703-2.197,5.703-5.684v-8.704c-0.012,0.001-0.022,0-0.033,0.001   c-1.378-2.464-2.9-4.896-4.314-6.549c-0.439-3.913-0.881-8.04-1.24-9.568c-0.508-2.16-2.159-5.477-5.842-5.469   c-2.627,0.005-4.028,1.175-5.501,3.284c-0.072-0.841-0.141-1.499-0.203-1.891c-0.381-2.413,0.149-6.256-0.274-9.644   c-0.423-3.386,4.977-12.681,4.045-15.56c-0.346-1.07-0.775-1.905-1.259-2.538c-0.001-0.002-0.002-0.004-0.004-0.006l-0.001-0.001   c-0.009-0.012-0.019-0.022-0.028-0.034c-0.667-0.732-0.673-1.576-2.771-1.568c-0.318-0.017-0.68-0.002-1.061,0.061   c-1.15,0.137-1.978,0.513-2.362,1.163c-0.734,0.697-1.89,1.87-2.558,3.348c-1.609,3.562-1.975,3.772-3.12,10.258   c-0.584,3.311-1.103,8.46-1.112,12.016c-0.006,2.359,0.027,5.442-0.22,10.874c-3.592,1.761-5.339,2.481-7.117,3.814   c-2.032,1.525-2.286,6.73-2.667,12.573C38.747,92.294,37.994,95.247,37.642,97.693z"/>
	<g display="inline" opacity="0.8">
		<path fill="#80AADA" d="M59.708,33.044c2.604,0,4.723,2.119,4.723,4.723s-2.119,4.723-4.723,4.723s-4.723-2.119-4.723-4.723    S57.103,33.044,59.708,33.044 M59.708,31.044c-3.713,0-6.723,3.01-6.723,6.723s3.01,6.723,6.723,6.723    c3.712,0,6.724-3.01,6.724-6.723S63.42,31.044,59.708,31.044L59.708,31.044z"/>
	</g>
	<path display="inline" fill="#FFFFFF" stroke="#B3B3B3" stroke-linecap="round" d="M47.173,121.049c0,0-3.683-10.415-4.699-14.226   c-1.017-3.81-1.778-6.858-2.287-9.906c-0.508-3.049,1.27-7.366,1.906-12.953c0.634-5.59,0.762-9.907,2.286-11.938   c1.524-2.032,6.35-1.271,12.446-4.191l26.799,8.128c0,0,1.776-1.524,4.063-0.508c2.287,1.016,4.318,3.683,7.239,8.129   c2.921,4.444,6.731,8.89,6.731,12.699c0,3.809-8.637,17.655-11.178,24.768"/>
	<path display="inline" fill="#FFFFFF" stroke="#B3B3B3" stroke-linecap="round" d="M94.419,88.771c0,0-3.302-3.41-5.208-6.84   c-1.904-3.432-6.604-13.681-9.145-15.16c-2.541-1.479-5.588,10.963-5.588,10.963"/>
	<path display="inline" fill="#FFFFFF" stroke="#B3B3B3" stroke-linecap="round" d="M84.449,82.818c0,0-2.35-4.698-2.731-12.319   c-0.381-7.62-1.778-17.625-7.239-17.068c-5.461,0.558-7.188,5.04-8.383,10.946c-1.193,5.907,0,18.441,0,18.441"/>
	<path display="inline" fill="#FFFFFF" stroke="#B3B3B3" stroke-width="0.5" stroke-linecap="round" d="M48.951,77.71   c0,0,2.605,1.817,4.012,3.082"/>
	<path display="inline" fill="#FFFFFF" stroke="#B3B3B3" stroke-linecap="round" d="M48.951,95.773c0,0,2.54-4.444,3.556-11.811   c1.016-7.367,2.54-15.496,2.286-22.608c-0.254-7.113,0.563-9.846,0.028-12.988c-0.536-3.143-0.536-4.159-0.536-6.317   c0-2.159,1.905-8.382,5.589-8.001c3.683,0.38,4.826,4.064,5.207,7.747c0.381,3.684,0.127,3.684,0.381,6.816   c0.254,3.133,2.708,5.757,2.878,12.786c0.169,7.027-0.932,16.257,1.693,19.644"/>
	<path display="inline" fill="#FFFFFF" stroke="#B3B3B3" stroke-width="0.5" stroke-linecap="round" d="M58.521,57.358   c0,0,4.457-1.65,8.521-0.127"/>
	<path display="inline" fill="#FFFFFF" stroke="#B3B3B3" stroke-width="0.5" stroke-linecap="round" d="M56.17,36.295   c-0.424,0.713,0.57,2.072,1.501,2.41c0.932,0.34,4.148,0.594,4.912,0c0.762-0.592,1.013-2.435,0.473-2.987   c-0.54-0.552-1.813-1.844-3.183-1.669C58.503,34.223,56.583,35.604,56.17,36.295z"/>
</g>
<g id="_x30_6" style="display: none;">
	
		<linearGradient id="SVGID_23_" gradientUnits="userSpaceOnUse" x1="57.1489" y1="30.9346" x2="57.1489" y2="94.8726" gradientTransform="matrix(1 0 0 -1 0 129)">
		<stop offset="0.75" style="stop-color:#000000"/>
		<stop offset="1" style="stop-color:#231F20"/>
	</linearGradient>
	<path display="inline" opacity="0.3" fill="url(#SVGID_23_)" enable-background="new    " d="M37.642,97.693   c0.707,0.26,1.505,0.389,2.378,0.371h30.933c3.482,0.07,5.703-2.197,5.703-5.684v-8.704c-0.012,0.001-0.022,0-0.033,0.001   c-1.378-2.464-2.9-4.896-4.314-6.549c-0.439-3.913-0.881-8.04-1.24-9.568c-0.508-2.16-2.159-5.477-5.842-5.469   c-2.627,0.005-4.028,1.175-5.501,3.284c-0.072-0.841-0.141-1.499-0.203-1.891c-0.381-2.413,0.149-6.256-0.274-9.644   c-0.423-3.386,4.977-12.681,4.045-15.56c-0.346-1.07-0.775-1.905-1.259-2.538c-0.001-0.002-0.002-0.004-0.004-0.006l-0.001-0.001   c-0.009-0.012-0.019-0.022-0.028-0.034c-0.667-0.732-0.673-1.576-2.771-1.568c-0.318-0.017-0.68-0.002-1.061,0.061   c-1.15,0.137-1.978,0.513-2.362,1.163c-0.734,0.697-1.89,1.87-2.558,3.348c-1.609,3.562-1.975,3.772-3.12,10.258   c-0.584,3.311-1.103,8.46-1.112,12.016c-0.006,2.359,0.027,5.442-0.22,10.874c-3.592,1.761-5.339,2.481-7.117,3.814   c-2.032,1.525-2.286,6.73-2.667,12.573C38.747,92.294,37.994,95.247,37.642,97.693z"/>
	<circle display="inline" fill="#80AADA" cx="59.707" cy="37.767" r="6.723"/>
	<path display="inline" fill="#FFFFFF" stroke="#B3B3B3" stroke-linecap="round" d="M47.3,121.049c0,0-3.557-9.398-4.573-13.844   s-2.286-7.621-2.54-10.669c-0.254-3.05,1.143-6.604,1.524-12.447c0.381-5.842,0.635-11.048,2.667-12.573   c2.032-1.522,7.725-1.27,11.419-3.937l27.445,8.254c0,0,1.904-2.031,4.445-0.763c2.539,1.271,2.539,2.16,6.477,7.367   s7.494,10.033,7.494,13.844c0,3.81-8.891,17.654-11.178,24.768"/>
	<path display="inline" fill="#FFFFFF" stroke="#B3B3B3" stroke-linecap="round" d="M94.8,88.577c0,0-3.429-2.328-5.715-7.154   c-2.286-4.825-7.62-15.241-10.667-15.368c-3.049-0.127-2.287,10.414-2.287,10.414"/>
	<path display="inline" fill="#FFFFFF" stroke="#B3B3B3" stroke-linecap="round" d="M84.259,81.676c0,0-1.812-4.414-2.413-9.018   c-0.602-4.602-1.27-11.938-1.777-14.098c-0.508-2.159-2.159-5.476-5.842-5.468c-3.684,0.008-6.731,4.071-7.748,6.612   c-1.016,2.539-2.033,12.701-2.033,12.701"/>
	
		<line display="inline" fill="none" stroke="#B3B3B3" stroke-width="0.5" stroke-linecap="round" x1="49.035" y1="76.893" x2="52.538" y2="80.405"/>
	<path display="inline" fill="#FFFFFF" stroke="#B3B3B3" stroke-linecap="round" d="M70.034,80.913c0,0-1.144-1.142-1.271-5.97   c-0.127-4.825-0.762-17.146-1.143-19.559c-0.381-2.413-1.65-3.556-2.074-6.943c-0.423-3.386-0.423-7.281-1.355-10.16   c-0.931-2.879-2.455-4.064-4.063-4.148c-1.609-0.084-4.318,0.592-5.08,4.571c-0.763,3.979-0.424,5.843-0.424,8.383   c0,2.541-0.065,4.234-0.075,7.79c-0.01,3.556,0.076,14.903-0.856,21.083c-0.932,6.18-2.202,16.85-4.149,18.543"/>
	<path display="inline" fill="#FFFFFF" stroke="#B3B3B3" stroke-width="0.5" stroke-linecap="round" d="M57.108,38.344   c0.4,0.736,2.523,0.627,3.793,0.712c1.27,0.086,2.206-0.554,2.206-0.554s0.52-2.024-0.179-2.764c-0.699-0.74-0.668-1.612-2.8-1.604   C57.046,34.145,55.5,35.38,57.108,38.344z"/>
	<path display="inline" fill="#FFFFFF" stroke="#B3B3B3" stroke-width="0.5" stroke-linecap="round" d="M58.521,57.358   c0,0,4.457-1.65,8.521-0.127"/>
</g>
<g id="_x30_5" style="display: none;">
	
		<linearGradient id="SVGID_24_" gradientUnits="userSpaceOnUse" x1="57.1489" y1="30.9346" x2="57.1489" y2="94.8726" gradientTransform="matrix(1 0 0 -1 0 129)">
		<stop offset="0.75" style="stop-color:#000000"/>
		<stop offset="1" style="stop-color:#231F20"/>
	</linearGradient>
	<path display="inline" opacity="0.3" fill="url(#SVGID_24_)" enable-background="new    " d="M37.642,97.693   c0.707,0.26,1.505,0.389,2.378,0.371h30.933c3.482,0.07,5.703-2.197,5.703-5.684v-8.704c-0.012,0.001-0.022,0-0.033,0.001   c-1.378-2.464-2.9-4.896-4.314-6.549c-0.439-3.913-0.881-8.04-1.24-9.568c-0.508-2.16-2.159-5.477-5.842-5.469   c-2.627,0.005-4.028,1.175-5.501,3.284c-0.072-0.841-0.141-1.499-0.203-1.891c-0.381-2.413,0.149-6.256-0.274-9.644   c-0.423-3.386,4.977-12.681,4.045-15.56c-0.346-1.07-0.775-1.905-1.259-2.538c-0.001-0.002-0.002-0.004-0.004-0.006l-0.001-0.001   c-0.009-0.012-0.019-0.022-0.028-0.034c-0.667-0.732-0.673-1.576-2.771-1.568c-0.318-0.017-0.68-0.002-1.061,0.061   c-1.15,0.137-1.978,0.513-2.362,1.163c-0.734,0.697-1.89,1.87-2.558,3.348c-1.609,3.562-1.975,3.772-3.12,10.258   c-0.584,3.311-1.103,8.46-1.112,12.016c-0.006,2.359,0.027,5.442-0.22,10.874c-3.592,1.761-5.339,2.481-7.117,3.814   c-2.032,1.525-2.286,6.73-2.667,12.573C38.747,92.294,37.994,95.247,37.642,97.693z"/>
	<circle display="inline" fill="#80AADA" cx="59.707" cy="37.767" r="6.723"/>
	<path display="inline" fill="#FFFFFF" stroke="#B3B3B3" stroke-linecap="round" d="M47.173,121.049c0,0-3.683-10.415-4.699-14.226   c-1.017-3.81-1.778-6.858-2.287-9.906c-0.508-3.049,1.27-7.366,1.906-12.953c0.634-5.59,0.762-9.907,2.286-11.938   c1.524-2.032,6.35-1.271,12.446-4.191l26.799,8.128c0,0,1.776-1.524,4.063-0.508c2.287,1.016,4.318,3.683,7.239,8.129   c2.921,4.444,6.731,8.89,6.731,12.699c0,3.809-8.637,17.655-11.178,24.768"/>
	<path display="inline" fill="#FFFFFF" stroke="#B3B3B3" stroke-linecap="round" d="M94.419,88.771c0,0-3.302-3.41-5.208-6.84   c-1.904-3.432-6.604-13.681-9.145-15.16c-2.541-1.479-5.588,10.963-5.588,10.963"/>
	<path display="inline" fill="#FFFFFF" stroke="#B3B3B3" stroke-linecap="round" d="M84.449,82.818c0,0-2.35-4.698-2.731-12.319   c-0.381-7.62-1.778-17.625-7.239-17.068c-5.461,0.558-7.188,5.04-8.383,10.946c-1.193,5.907,0,18.441,0,18.441"/>
	<path display="inline" fill="#FFFFFF" stroke="#B3B3B3" stroke-width="0.5" stroke-linecap="round" d="M48.951,77.71   c0,0,2.605,1.817,4.012,3.082"/>
	<path display="inline" fill="#FFFFFF" stroke="#B3B3B3" stroke-linecap="round" d="M48.951,95.773c0,0,2.54-4.444,3.556-11.811   c1.016-7.367,2.54-15.496,2.286-22.608c-0.254-7.113,0.563-9.846,0.028-12.988c-0.536-3.143-0.536-4.159-0.536-6.317   c0-2.159,1.905-8.382,5.589-8.001c3.683,0.38,4.826,4.064,5.207,7.747c0.381,3.684,0.127,3.684,0.381,6.816   c0.254,3.133,2.708,5.757,2.878,12.786c0.169,7.027-0.932,16.257,1.693,19.644"/>
	<path display="inline" fill="#FFFFFF" stroke="#B3B3B3" stroke-width="0.5" stroke-linecap="round" d="M58.521,57.358   c0,0,4.457-1.65,8.521-0.127"/>
	<path display="inline" fill="#FFFFFF" stroke="#B3B3B3" stroke-width="0.5" stroke-linecap="round" d="M56.17,36.295   c-0.424,0.713,0.57,2.072,1.501,2.41c0.932,0.34,4.148,0.594,4.912,0c0.762-0.592,1.013-2.435,0.473-2.987   c-0.54-0.552-1.813-1.844-3.183-1.669C58.503,34.223,56.583,35.604,56.17,36.295z"/>
</g>
<g id="_x30_4" style="display: none;">
	
		<linearGradient id="SVGID_25_" gradientUnits="userSpaceOnUse" x1="57.1489" y1="30.9346" x2="57.1489" y2="94.8726" gradientTransform="matrix(1 0 0 -1 0 129)">
		<stop offset="0.8259" style="stop-color:#000000"/>
		<stop offset="1" style="stop-color:#FFFFFF"/>
	</linearGradient>
	<path display="inline" opacity="0.3" fill="url(#SVGID_25_)" enable-background="new    " d="M37.642,97.693   c0.707,0.26,1.505,0.389,2.378,0.371h30.933c3.482,0.07,5.703-2.197,5.703-5.684v-8.704c-0.012,0.001-0.022,0-0.033,0.001   c-1.378-2.464-2.9-4.896-4.314-6.549c-0.439-3.913-0.881-8.04-1.24-9.568c-0.508-2.16-2.159-5.477-5.842-5.469   c-2.627,0.005-4.028,1.175-5.501,3.284c-0.072-0.841-0.141-1.499-0.203-1.891c-0.381-2.413,0.149-6.256-0.274-9.644   c-0.423-3.386,4.977-12.681,4.045-15.56c-0.346-1.07-0.775-1.905-1.259-2.538c-0.001-0.002-0.002-0.004-0.004-0.006l-0.001-0.001   c-0.009-0.012-0.019-0.022-0.028-0.034c-0.667-0.732-0.673-1.576-2.771-1.568c-0.318-0.017-0.68-0.002-1.061,0.061   c-1.15,0.137-1.978,0.513-2.362,1.163c-0.734,0.697-1.89,1.87-2.558,3.348c-1.609,3.562-1.975,3.772-3.12,10.258   c-0.584,3.311-1.103,8.46-1.112,12.016c-0.006,2.359,0.027,5.442-0.22,10.874c-3.592,1.761-5.339,2.481-7.117,3.814   c-2.032,1.525-2.286,6.73-2.667,12.573C38.747,92.294,37.994,95.247,37.642,97.693z"/>
	<path display="inline" fill="#FFFFFF" stroke="#B3B3B3" stroke-linecap="round" d="M47.173,121.049c0,0-2.541-7.622-3.683-11.431   c-1.143-3.812-3.048-9.527-3.176-11.685c-0.126-2.16,1.271-7.113,1.779-12.319c0.507-5.208,1.016-11.812,2.54-13.209   c1.524-1.396,7.471-1.906,11.166-4.572l29.985,7.493c0,0,1.905-2.159,7.366,6.222c5.461,8.384,8.51,10.925,8.51,14.733   s-9.398,20.32-10.924,24.768"/>
	<path display="inline" fill="#FFFFFF" stroke="#B3B3B3" stroke-linecap="round" d="M94.165,88.577c0,0-2.878-2.371-4.401-5.336   c-1.525-2.964-6.267-13.038-9.062-15.408v7.959"/>
	<path display="inline" fill="#FFFFFF" stroke="#B3B3B3" stroke-linecap="round" d="M84.344,82.564c0,0-1.439-1.947-1.777-5.504   c-0.34-3.555-1.018-13.97-1.863-17.188s-2.455-6.096-5.758-6.096s-6.436,1.947-8.045,5.419V72.49"/>
	<path display="inline" fill="#FFFFFF" stroke="#B3B3B3" stroke-width="0.5" stroke-linecap="round" d="M50.051,78.204   c0,0,1.867,1.881,3.178,3.037"/>
	<path display="inline" fill="#FFFFFF" stroke="#B3B3B3" stroke-linecap="round" d="M48.57,96.027c0,0,3.811-6.731,4.826-16.129   c1.016-9.399,1.524-20.561,1.397-23.554c-0.127-2.992,0.292-5.914,0.02-8.58c-0.274-2.667-0.782-2.032-0.654-5.081   c0.126-3.048,1.143-9.017,5.715-8.509c4.572,0.508,4.572,5.588,4.953,8.255c0.381,2.668,0.254,3.683,0.762,5.969   c0.509,2.287,3.175,8.382,3.048,11.304c-0.125,2.92-0.508,18.923,0.891,21.718"/>
	<path display="inline" fill="#FFFFFF" stroke="#B3B3B3" stroke-width="0.5" stroke-linecap="round" d="M58.521,57.485   c0,0,6.415-1.208,9.174,0.293"/>
	<path display="inline" fill="#FFFFFF" stroke="#B3B3B3" stroke-width="0.5" stroke-linecap="round" d="M56.07,35.868   c0,0,0.268,2.005,1.285,2.684c1.016,0.678,5.217,0.951,5.906-0.015c0.688-0.965,0.254-1.947,0-2.708   c-0.254-0.763-1.44-1.356-3.387-1.652C57.926,33.879,56.594,35.201,56.07,35.868z"/>
</g>
<g id="_x30_3" style="display: none;">
	<g display="inline">
		<g>
			<defs>
				<path id="SVGID_26_" d="M76.656,92.382c0,3.485-2.221,5.754-5.703,5.683H40.021c-3.483,0.071-5.785-2.196-5.785-5.683V13.074      c0-3.482,2.302-5.834,5.785-5.834h30.817c3.482,0,5.818,2.352,5.818,5.834V92.382z"/>
			</defs>
			<clipPath id="SVGID_27_">
				<use xlink:href="#SVGID_26_" overflow="visible"/>
			</clipPath>
			<path opacity="0.3" clip-path="url(#SVGID_27_)" enable-background="new    " d="M44.629,124.482c0,0-6.351-19.434-6.859-23.242     c-0.507-3.811,1.017-7.62,1.524-12.827c0.509-5.207,0.787-10.924,1.854-12.192c1.067-1.271,8.2-2.402,12.106-5.08l29.73,7.746     c0,0,0.889-1.271,3.811,1.651c2.92,2.922,12.32,15.494,12.32,20.319c0,4.319-7.62,14.226-10.924,23.625"/>
		</g>
		<g>
			<defs>
				<path id="SVGID_28_" d="M76.656,92.382c0,3.485-2.221,5.754-5.703,5.683H40.021c-3.483,0.071-5.785-2.196-5.785-5.683V13.074      c0-3.482,2.302-5.834,5.785-5.834h30.817c3.482,0,5.818,2.352,5.818,5.834V92.382z"/>
			</defs>
			<clipPath id="SVGID_29_">
				<use xlink:href="#SVGID_28_" overflow="visible"/>
			</clipPath>
			
				<linearGradient id="SVGID_30_" gradientUnits="userSpaceOnUse" x1="55.2319" y1="29.9224" x2="55.2319" y2="95.3433" gradientTransform="matrix(1 0 0 -1 0 129)">
				<stop offset="0.8" style="stop-color:#000000"/>
				<stop offset="1" style="stop-color:#E6E6E6"/>
			</linearGradient>
			<path opacity="0.3" clip-path="url(#SVGID_29_)" fill="url(#SVGID_30_)" enable-background="new    " d="M44.88,99.078     c0,0,2.794-4.954,3.938-11.812c1.143-6.855,0.224-24.401,0.546-28.891c0.25-3.483,0.702-5.814,1.018-9.157     c0.293-3.11,0.479-6.657,1.115-9.451c0.634-2.794,2.794-6.351,5.969-6.097c3.175,0.254,4.598,4.373,4.966,7.33     c0.369,2.958-0.786,7.149-0.277,9.688c0.508,2.541,0.461,6.061,0.867,8.794c0.636,4.288,1.038,22.195,2.562,24.609"/>
		</g>
	</g>
	<path display="inline" fill="#FFFFFF" stroke="#B3B3B3" stroke-linecap="round" d="M47.173,121.049c0,0-6.351-19.433-6.859-23.242   c-0.507-3.81,1.017-7.619,1.525-12.826c0.508-5.207,0.787-10.924,1.854-12.193c1.067-1.271,8.199-2.402,12.105-5.08l29.731,7.747   c0,0,0.889-1.271,3.81,1.649c2.92,2.924,12.32,15.496,12.32,20.321c0,4.318-7.62,14.226-10.923,23.624"/>
	<path display="inline" fill="#FFFFFF" stroke="#B3B3B3" stroke-linecap="round" d="M93.572,88.914c0,0-3.727-4.57-5.334-7.956   c-1.608-3.388-4.402-10.078-7.451-13.252v9.354"/>
	<path display="inline" fill="#FFFFFF" stroke="#B3B3B3" stroke-linecap="round" d="M84.259,82.734c0,0-1.016-1.737-1.438-4.426   c-0.424-2.688-1.439-14.118-2.541-18.604c-1.1-4.488-2.877-5.165-5.588-5.419c-2.709-0.254-6.096,1.948-7.026,3.726v14.647"/>
	<path display="inline" fill="#FFFFFF" stroke="#B3B3B3" stroke-width="0.5" stroke-linecap="round" d="M48.823,78.311   c0,0,3.458,1.795,4.333,3.787"/>
	<path display="inline" fill="#FFFFFF" stroke="#B3B3B3" stroke-linecap="round" d="M48.823,96.661c0,0,2.794-4.953,3.938-11.812   c1.144-6.857,2.667-26.619,2.159-30.074c-0.508-3.455,0.709-4.947,0.101-8.011c-0.609-3.064-1.117-6.621-0.482-9.415   c0.635-2.794,2.795-6.351,5.97-6.097c3.175,0.254,4.599,4.373,4.966,7.33c0.369,2.958,0.114,7.149,0.623,9.688   c0.508,2.541,2.262,6.061,2.666,8.794c0.637,4.288-0.762,22.195,0.764,24.608"/>
	<path display="inline" fill="#FFFFFF" stroke="#B3B3B3" stroke-width="0.5" stroke-linecap="round" d="M58.648,57.23   c0,0,7.297-1.332,9.469,0.105"/>
	<path display="inline" fill="#FFFFFF" stroke="#B3B3B3" stroke-width="0.5" stroke-linecap="round" d="M56.75,32.963   c-0.694,0.851,0.499,3.202,1.346,3.542c0.847,0.338,4.348,0.592,5.011,0c0.662-0.593,0.929-1.733,0.626-3.11   c-0.303-1.378-1.476-1.997-3.429-2.153C58.349,31.085,57.307,32.281,56.75,32.963z"/>
</g>
<g id="_x30_2" style="display: none;">
	<g display="inline">
		<g>
			<defs>
				<path id="SVGID_31_" d="M76.656,92.382c0,3.485-2.221,5.754-5.703,5.683H40.021c-3.483,0.071-5.785-2.196-5.785-5.683V13.074      c0-3.482,2.302-5.834,5.785-5.834h30.817c3.482,0,5.818,2.352,5.818,5.834V92.382z"/>
			</defs>
			<clipPath id="SVGID_32_">
				<use xlink:href="#SVGID_31_" overflow="visible"/>
			</clipPath>
			<path opacity="0.3" clip-path="url(#SVGID_32_)" enable-background="new    " d="M44.629,124.482c0,0-6.351-19.434-6.859-23.242     c-0.507-3.811,1.017-7.62,1.524-12.827c0.509-5.207,0.787-10.924,1.854-12.192c1.067-1.271,8.2-2.402,12.106-5.08l29.73,7.746     c0,0,0.889-1.271,3.811,1.651c2.92,2.922,12.32,15.494,12.32,20.319c0,4.319-7.62,14.226-10.924,23.625"/>
		</g>
		<g>
			<defs>
				<path id="SVGID_33_" d="M76.656,92.382c0,3.485-2.221,5.754-5.703,5.683H40.021c-3.483,0.071-5.785-2.196-5.785-5.683V13.074      c0-3.482,2.302-5.834,5.785-5.834h30.817c3.482,0,5.818,2.352,5.818,5.834V92.382z"/>
			</defs>
			<clipPath id="SVGID_34_">
				<use xlink:href="#SVGID_33_" overflow="visible"/>
			</clipPath>
			
				<linearGradient id="SVGID_35_" gradientUnits="userSpaceOnUse" x1="53.3877" y1="28.4058" x2="53.3877" y2="94.5259" gradientTransform="matrix(1 0 0 -1 0 129)">
				<stop offset="0.65" style="stop-color:#000000"/>
				<stop offset="1" style="stop-color:#E6E6E6"/>
			</linearGradient>
			<path opacity="0.3" clip-path="url(#SVGID_34_)" fill="url(#SVGID_35_)" enable-background="new    " d="M42.973,100.595     c1.779-2.157,3.877-6.403,4.954-17.397c1.077-10.995,1.524-22.048,1.271-24.741c-0.254-2.693,0.866-6.132,0.75-8.349     c-0.116-2.219-1.259-4.035-0.878-6.873c0.381-2.839,1.525-8.712,5.715-8.76c4.191-0.047,4.7,3.521,5.335,6.436     c0.635,2.915,0.127,8.335,0.635,10.642c0.507,2.307,2.249,7.579,2.413,9.196c0.253,2.51-0.89,22.705,0.635,24.99"/>
		</g>
	</g>
	<path display="inline" fill="#FFFFFF" stroke="#B3B3B3" stroke-linecap="round" d="M46.918,121.049c0,0-6.731-19.939-6.731-22.988   c0-3.047,0.762-5.715,1.651-12.445c0.889-6.732,0.635-10.283,1.714-12.064c1.08-1.781,12.245-5.336,12.245-5.336L85.4,75.454   c0,0,1.779-1.017,3.558,1.144c1.778,2.158,12.701,16.829,12.701,20.639c0,3.811-9.11,19.134-10.923,23.813"/>
	<path display="inline" fill="#FFFFFF" stroke="#B3B3B3" stroke-linecap="round" d="M93.996,89.509c0,0-3.387-3.725-5.334-7.789   c-1.947-4.063-6.098-12.448-8.723-13.887l0.34,10.838"/>
	<path display="inline" fill="#FFFFFF" stroke="#B3B3B3" stroke-linecap="round" d="M84.174,83.667c0,0-0.876-2.006-1.439-5.504   c-0.562-3.5-1.608-15.581-2.795-19.221c-1.185-3.641-3.217-4.233-5.756-4.402c-2.541-0.17-6.352,2.878-6.858,3.471   c-0.509,0.593,0,15.834,0,15.834"/>
	<path display="inline" fill="#FFFFFF" stroke="#B3B3B3" stroke-width="0.5" stroke-linecap="round" d="M50.475,78.671   c0,0,2.135,1.404,3.1,2.734"/>
	<path display="inline" fill="#FFFFFF" stroke="#B3B3B3" stroke-linecap="round" d="M48.823,96.917   c1.778-2.158,3.877-6.403,4.954-17.399c1.077-10.994,1.524-22.048,1.271-24.741c-0.254-2.693,0.866-6.132,0.75-8.349   c-0.116-2.219-1.259-4.035-0.878-6.873c0.381-2.838,1.525-8.712,5.715-8.76c4.191-0.047,4.7,3.521,5.334,6.436   c0.637,2.915,0.127,8.335,0.637,10.642c0.506,2.307,2.248,7.579,2.412,9.196c0.254,2.51-0.89,22.705,0.635,24.99"/>
	<path display="inline" fill="#FFFFFF" stroke="#B3B3B3" stroke-width="0.5" stroke-linecap="round" d="M57.072,32.858   c0.214,1.26,1.277,2.376,2.166,2.714c0.889,0.339,4.107,0.508,4.869,0c0.762-0.508,0.875-2.664,0-3.409   c-0.876-0.745-1.355-1.321-3.472-1.37C58.518,30.747,57.002,32.445,57.072,32.858z"/>
	<path display="inline" fill="#FFFFFF" stroke="#B3B3B3" stroke-width="0.5" stroke-linecap="round" d="M59.284,56.419   c0,0,7.062-1.118,8.971-0.102"/>
</g>
<g id="_x30_12" style="display: none;">
	<g display="inline">
		<g>
			<defs>
				<path id="SVGID_36_" d="M76.656,92.382c0,3.485-2.221,5.754-5.703,5.683H40.021c-3.483,0.071-5.785-2.196-5.785-5.683V13.074      c0-3.482,2.302-5.834,5.785-5.834h30.817c3.482,0,5.818,2.352,5.818,5.834V92.382z"/>
			</defs>
			<clipPath id="SVGID_37_">
				<use xlink:href="#SVGID_36_" overflow="visible"/>
			</clipPath>
			<path opacity="0.3" clip-path="url(#SVGID_37_)" enable-background="new    " d="M44.629,124.482c0,0-6.351-19.434-6.859-23.242     c-0.507-3.811,1.017-7.62,1.524-12.827c0.509-5.207,0.787-10.924,1.854-12.192c1.067-1.271,8.2-2.402,12.106-5.08l29.73,7.746     c0,0,0.889-1.271,3.811,1.651c2.92,2.922,12.32,15.494,12.32,20.319c0,4.319-7.62,14.226-10.924,23.625"/>
		</g>
		<g>
			<defs>
				<path id="SVGID_38_" d="M76.656,92.382c0,3.485-2.221,5.754-5.703,5.683H40.021c-3.483,0.071-5.785-2.196-5.785-5.683V13.074      c0-3.482,2.302-5.834,5.785-5.834h30.817c3.482,0,5.818,2.352,5.818,5.834V92.382z"/>
			</defs>
			<clipPath id="SVGID_39_">
				<use xlink:href="#SVGID_38_" overflow="visible"/>
			</clipPath>
			
				<linearGradient id="SVGID_40_" gradientUnits="userSpaceOnUse" x1="52.4116" y1="27.4214" x2="52.4116" y2="93.814" gradientTransform="matrix(1 0 0 -1 0 129)">
				<stop offset="0.4956" style="stop-color:#000000"/>
				<stop offset="1" style="stop-color:#E6E6E6"/>
			</linearGradient>
			<path opacity="0.3" clip-path="url(#SVGID_39_)" fill="url(#SVGID_40_)" enable-background="new    " d="M41.871,101.579     c0,0,2.709-7.024,4.064-13.547c1.354-6.521,3.278-21.591,2.867-24.977c-0.412-3.387,0.412-8.373,0.621-10.829     c0.21-2.455-0.057-5.434,0.027-9.667c0.085-4.234,2.371-7.536,5.418-7.367c3.049,0.17,3.751,1.948,4.797,5.758     c1.047,3.81,0.297,7.042,0.636,9.92c0.339,2.879,1.654,9,1.975,10.405c0.677,2.963-0.465,24.64,0.677,25.911"/>
		</g>
	</g>
	<path display="inline" fill="#FFFFFF" stroke="#B3B3B3" stroke-linecap="round" d="M47.258,121.091c0,0-6.944-19.643-7.283-22.354   c-0.338-2.709,0.847-6.434,1.779-13.377c0.931-6.944,1.185-10.156,2.37-11.811c1.186-1.652,8.851-3.623,11.674-5.463l29.815,7.537   c0,0,1.271-0.509,2.541,0.506c1.271,1.018,13.123,16.596,13.463,18.967c0.338,2.371-2.118,8.807-4.318,12.955   c-2.201,4.148-6.012,12.361-6.012,12.361"/>
	<path display="inline" fill="#FFFFFF" stroke="#B3B3B3" stroke-linecap="round" d="M93.318,89.001c0,0-4.911-6.267-6.773-11.008   c-1.863-4.741-6.773-9.906-6.773-9.906l-1.439,9.312"/>
	<path display="inline" fill="#FFFFFF" stroke="#B3B3B3" stroke-linecap="round" d="M85.359,85.784c0,0-2.032-2.202-2.541-6.097   c-0.508-3.896-2.116-17.444-2.539-19.729c-0.424-2.286-2.795-5.165-5.588-5.25c-2.795-0.085-7.197,2.879-7.197,2.879v15.495"/>
	<path display="inline" fill="#FFFFFF" stroke="#B3B3B3" stroke-linecap="round" d="M48.866,97.382c0,0,2.709-7.024,4.064-13.546   c1.354-6.521,3.278-21.59,2.867-24.978c-0.412-3.387-0.153-8.213,0.056-10.669s-0.553-5.927-0.468-10.16   c0.084-4.234,2.371-7.536,5.418-7.367c3.049,0.17,3.751,1.948,4.796,5.758c1.047,3.81,0.791,7.535,1.131,10.414   c0.338,2.879,2.219,8.84,2.539,10.246c0.679,2.963-0.465,24.641,0.679,25.909"/>
	<path display="inline" fill="#FFFFFF" stroke="#B3B3B3" stroke-width="0.5" stroke-linecap="round" d="M49.797,79.095   c0,0,3.081,1.507,3.489,2.912"/>
	<path display="inline" fill="#FFFFFF" stroke="#B3B3B3" stroke-width="0.5" stroke-linecap="round" d="M57.153,32.805   c0,0,0.299,1.985,1.314,2.493c1.016,0.508,1.293,0.68,3.156,0.596c1.863-0.085,2.906-0.284,2.906-1.331s-0.434-3.907-3.688-3.907   C57.587,30.657,57.153,32.805,57.153,32.805z"/>
	<path display="inline" fill="#FFFFFF" stroke="#B3B3B3" stroke-width="0.5" stroke-linecap="round" d="M60.302,57.739   c0,0,6.261-0.745,7.953-0.067"/>
</g>
<g id="_x30_11" style="display: none;">
	<g display="inline">
		<g>
			<defs>
				<path id="SVGID_41_" d="M76.656,92.382c0,3.485-2.221,5.754-5.703,5.683H40.021c-3.483,0.071-5.785-2.196-5.785-5.683V13.074      c0-3.482,2.302-5.834,5.785-5.834h30.817c3.482,0,5.818,2.352,5.818,5.834V92.382z"/>
			</defs>
			<clipPath id="SVGID_42_">
				<use xlink:href="#SVGID_41_" overflow="visible"/>
			</clipPath>
			<path opacity="0.3" clip-path="url(#SVGID_42_)" enable-background="new    " d="M44.629,124.482c0,0-6.351-19.434-6.859-23.242     c-0.507-3.811,1.017-7.62,1.524-12.827c0.509-5.207,0.787-10.924,1.854-12.192c1.067-1.271,8.2-2.402,12.106-5.08l29.73,7.746     c0,0,0.889-1.271,3.811,1.651c2.92,2.922,12.32,15.494,12.32,20.319c0,4.319-7.62,14.226-10.924,23.625"/>
		</g>
		<g>
			<defs>
				<path id="SVGID_43_" d="M76.656,92.382c0,3.485-2.221,5.754-5.703,5.683H40.021c-3.483,0.071-5.785-2.196-5.785-5.683V13.074      c0-3.482,2.302-5.834,5.785-5.834h30.817c3.482,0,5.818,2.352,5.818,5.834V92.382z"/>
			</defs>
			<clipPath id="SVGID_44_">
				<use xlink:href="#SVGID_43_" overflow="visible"/>
			</clipPath>
			
				<linearGradient id="SVGID_45_" gradientUnits="userSpaceOnUse" x1="52.4116" y1="27.4214" x2="52.4116" y2="93.814" gradientTransform="matrix(1 0 0 -1 0 129)">
				<stop offset="0.4956" style="stop-color:#000000"/>
				<stop offset="1" style="stop-color:#E6E6E6"/>
			</linearGradient>
			<path opacity="0.3" clip-path="url(#SVGID_44_)" fill="url(#SVGID_45_)" enable-background="new    " d="M41.871,101.579     c0,0,2.709-7.024,4.064-13.547c1.354-6.521,3.278-21.591,2.867-24.977c-0.412-3.387,0.412-8.373,0.621-10.829     c0.21-2.455-0.057-5.434,0.027-9.667c0.085-4.234,2.371-7.536,5.418-7.367c3.049,0.17,3.751,1.948,4.797,5.758     c1.047,3.81,0.297,7.042,0.636,9.92c0.339,2.879,1.654,9,1.975,10.405c0.677,2.963-0.465,24.64,0.677,25.911"/>
		</g>
	</g>
	<path display="inline" fill="#FFFFFF" stroke="#B3B3B3" stroke-linecap="round" d="M47.258,121.091c0,0-6.944-19.643-7.283-22.354   c-0.338-2.709,0.847-6.434,1.779-13.377c0.931-6.944,1.185-10.156,2.37-11.811c1.186-1.652,8.851-3.623,11.674-5.463l29.815,7.537   c0,0,1.271-0.509,2.541,0.506c1.271,1.018,13.123,16.596,13.463,18.967c0.338,2.371-2.118,8.807-4.318,12.955   c-2.201,4.148-6.012,12.361-6.012,12.361"/>
	<path display="inline" fill="#FFFFFF" stroke="#B3B3B3" stroke-linecap="round" d="M93.318,89.001c0,0-4.911-6.267-6.773-11.008   c-1.863-4.741-6.773-9.906-6.773-9.906l-1.439,9.312"/>
	<path display="inline" fill="#FFFFFF" stroke="#B3B3B3" stroke-linecap="round" d="M85.359,85.784c0,0-2.032-2.202-2.541-6.097   c-0.508-3.896-2.116-17.444-2.539-19.729c-0.424-2.286-2.795-5.165-5.588-5.25c-2.795-0.085-7.197,2.879-7.197,2.879v15.495"/>
	<path display="inline" fill="#FFFFFF" stroke="#B3B3B3" stroke-linecap="round" d="M48.866,97.382c0,0,2.709-7.024,4.064-13.546   c1.354-6.521,3.278-21.59,2.867-24.978c-0.412-3.387-0.153-8.213,0.056-10.669s-0.553-5.927-0.468-10.16   c0.084-4.234,2.371-7.536,5.418-7.367c3.049,0.17,3.751,1.948,4.796,5.758c1.047,3.81,0.791,7.535,1.131,10.414   c0.338,2.879,2.219,8.84,2.539,10.246c0.679,2.963-0.465,24.641,0.679,25.909"/>
	<path display="inline" fill="#FFFFFF" stroke="#B3B3B3" stroke-width="0.5" stroke-linecap="round" d="M49.797,79.095   c0,0,3.081,1.507,3.489,2.912"/>
	<path display="inline" fill="#FFFFFF" stroke="#B3B3B3" stroke-width="0.5" stroke-linecap="round" d="M57.153,32.805   c0,0,0.299,1.985,1.314,2.493c1.016,0.508,1.293,0.68,3.156,0.596c1.863-0.085,2.906-0.284,2.906-1.331s-0.434-3.907-3.688-3.907   C57.587,30.657,57.153,32.805,57.153,32.805z"/>
	<path display="inline" fill="#FFFFFF" stroke="#B3B3B3" stroke-width="0.5" stroke-linecap="round" d="M60.302,57.739   c0,0,6.261-0.745,7.953-0.067"/>
</g>
<g id="_x30_1">
	<g>
		<g>
			<defs>
				<path id="SVGID_46_" d="M76.656,92.382c0,3.485-2.221,5.754-5.703,5.683H40.021c-3.483,0.071-5.785-2.196-5.785-5.683V13.074      c0-3.482,2.302-5.834,5.785-5.834h30.817c3.482,0,5.818,2.352,5.818,5.834V92.382z"/>
			</defs>
			<clipPath id="SVGID_47_">
				<use xlink:href="#SVGID_46_" overflow="visible"/>
			</clipPath>
			<path opacity="0.3" clip-path="url(#SVGID_47_)" enable-background="new    " d="M44.629,124.482c0,0-6.351-19.434-6.859-23.242     c-0.507-3.811,1.017-7.62,1.524-12.827c0.509-5.207,0.787-10.924,1.854-12.192c1.067-1.271,8.2-2.402,12.106-5.08l29.73,7.746     c0,0,0.889-1.271,3.811,1.651c2.92,2.922,12.32,15.494,12.32,20.319c0,4.319-7.62,14.226-10.924,23.625"/>
		</g>
		<g>
			<defs>
				<path id="SVGID_48_" d="M76.656,92.382c0,3.485-2.221,5.754-5.703,5.683H40.021c-3.483,0.071-5.785-2.196-5.785-5.683V13.074      c0-3.482,2.302-5.834,5.785-5.834h30.817c3.482,0,5.818,2.352,5.818,5.834V92.382z"/>
			</defs>
			<clipPath id="SVGID_49_">
				<use xlink:href="#SVGID_48_" overflow="visible"/>
			</clipPath>
			
				<linearGradient id="SVGID_50_" gradientUnits="userSpaceOnUse" x1="52.4116" y1="27.4214" x2="52.4116" y2="93.814" gradientTransform="matrix(1 0 0 -1 0 129)">
				<stop offset="0.4956" style="stop-color:#000000"/>
				<stop offset="1" style="stop-color:#E6E6E6"/>
			</linearGradient>
			<path opacity="0.3" clip-path="url(#SVGID_49_)" fill="url(#SVGID_50_)" enable-background="new    " d="M41.871,101.579     c0,0,2.709-7.024,4.064-13.547c1.354-6.521,3.278-21.591,2.867-24.977c-0.412-3.387,0.412-8.373,0.621-10.829     c0.21-2.455-0.057-5.434,0.027-9.667c0.085-4.234,2.371-7.536,5.418-7.367c3.049,0.17,3.751,1.948,4.797,5.758     c1.047,3.81,0.297,7.042,0.636,9.92c0.339,2.879,1.654,9,1.975,10.405c0.677,2.963-0.465,24.64,0.677,25.911"/>
		</g>
	</g>
	<path fill="#FFFFFF" stroke="#B3B3B3" stroke-linecap="round" d="M47.258,121.091c0,0-6.944-19.643-7.283-22.354   c-0.338-2.709,0.847-6.434,1.779-13.377c0.931-6.944,1.185-10.156,2.37-11.811c1.186-1.652,8.851-3.623,11.674-5.463l29.815,7.537   c0,0,1.271-0.509,2.541,0.506c1.271,1.018,13.123,16.596,13.463,18.967c0.338,2.371-2.118,8.807-4.318,12.955   c-2.201,4.148-6.012,12.361-6.012,12.361"/>
	<path fill="#FFFFFF" stroke="#B3B3B3" stroke-linecap="round" d="M93.318,89.001c0,0-4.911-6.267-6.773-11.008   c-1.863-4.741-6.773-9.906-6.773-9.906l-1.439,9.312"/>
	<path fill="#FFFFFF" stroke="#B3B3B3" stroke-linecap="round" d="M85.359,85.784c0,0-2.032-2.202-2.541-6.097   c-0.508-3.896-2.116-17.444-2.539-19.729c-0.424-2.286-2.795-5.165-5.588-5.25c-2.795-0.085-7.197,2.879-7.197,2.879v15.495"/>
	<path fill="#FFFFFF" stroke="#B3B3B3" stroke-linecap="round" d="M48.866,97.382c0,0,2.709-7.024,4.064-13.546   c1.354-6.521,3.278-21.59,2.867-24.978c-0.412-3.387-0.153-8.213,0.056-10.669s-0.553-5.927-0.468-10.16   c0.084-4.234,2.371-7.536,5.418-7.367c3.049,0.17,3.751,1.948,4.796,5.758c1.047,3.81,0.791,7.535,1.131,10.414   c0.338,2.879,2.219,8.84,2.539,10.246c0.679,2.963-0.465,24.641,0.679,25.909"/>
	<path fill="#FFFFFF" stroke="#B3B3B3" stroke-width="0.5" stroke-linecap="round" d="M49.797,79.095c0,0,3.081,1.507,3.489,2.912"/>
	<path fill="#FFFFFF" stroke="#B3B3B3" stroke-width="0.5" stroke-linecap="round" d="M60.302,57.739c0,0,6.261-0.745,7.953-0.067"/>
	<path fill="#FFFFFF" stroke="#B3B3B3" stroke-width="0.5" stroke-linecap="round" d="M57.153,32.805c0,0,0.299,1.985,1.314,2.493   c1.016,0.508,1.293,0.68,3.156,0.596c1.863-0.085,2.906-0.284,2.906-1.331s-0.434-3.907-3.688-3.907   C57.587,30.657,57.153,32.805,57.153,32.805z"/>
</g>
</svg>